<svg xmlns="http://www.w3.org/2000/svg" viewBox="0 0 1000 460.96"><defs><style>.cls-1{fill:#092021;}</style></defs><g id="Object"><rect class="cls-1" x="-7.56" y="424.7" width="1015.12" height="36.26"/><polygon class="cls-1" points="561.14 262.72 561.14 224.73 547.4 224.73 547.4 210.27 540.04 210.27 540.04 198.12 537.46 198.12 537.46 177.29 536.8 177.29 536.8 198.12 534.22 198.12 534.22 210.27 526.86 210.27 526.86 224.73 513.22 224.73 513.22 262.72 510.38 262.72 510.38 331.69 489.23 331.69 489.23 410.31 510.38 410.31 531.53 410.31 563.88 410.31 563.88 262.72 561.14 262.72"/><polygon class="cls-1" points="640.15 306.36 573.61 306.36 573.61 307.57 576.62 307.57 576.62 420.08 637.14 420.08 637.14 307.57 640.15 307.57 640.15 306.36"/><rect class="cls-1" x="277.75" y="334.38" width="58.99" height="93.72"/><rect class="cls-1" x="167.4" y="382.4" width="101.46" height="45.7"/><rect class="cls-1" x="221.78" y="280.29" width="22.27" height="112.23"/><rect class="cls-1" x="226.7" y="250.35" width="1.16" height="61.03"/><rect class="cls-1" x="230.46" y="254.98" width="1.16" height="61.03"/><rect class="cls-1" x="223.5" y="273.35" width="13.61" height="15.04"/><rect class="cls-1" x="264.88" y="351.16" width="38.76" height="76.94"/><rect class="cls-1" x="346.3" y="269.73" width="72.76" height="158.37"/><rect class="cls-1" x="353.45" y="264.29" width="58.46" height="26.38"/><rect class="cls-1" x="340.66" y="273.05" width="84.04" height="1.85"/><rect class="cls-1" x="333.12" y="348.12" width="34.28" height="79.98"/><rect class="cls-1" x="87.56" y="345.09" width="39.34" height="83.02"/><rect class="cls-1" x="100.29" y="322.52" width="78.39" height="105.58"/><rect class="cls-1" x="95.72" y="318.47" width="84.99" height="4.05"/><rect class="cls-1" x="103.76" y="307.48" width="34.45" height="21.41"/><rect class="cls-1" x="149.47" y="307.48" width="5.79" height="13.02"/><rect class="cls-1" x="161.04" y="307.48" width="6.36" height="13.02"/><rect class="cls-1" x="66.16" y="396" width="41.08" height="32.11"/><rect class="cls-1" x="50.64" y="382.4" width="19.45" height="45.7"/><rect class="cls-1" x="27.13" y="412.05" width="33.24" height="16.05"/><rect class="cls-1" x="411.91" y="392.52" width="409.61" height="35.58"/><rect class="cls-1" x="800.7" y="335.43" width="63.25" height="92.68"/><rect class="cls-1" x="854.69" y="371.46" width="63.25" height="56.12"/><rect class="cls-1" x="609.4" y="363.22" width="35.48" height="47.1"/><rect class="cls-1" x="832.32" y="247.29" width="44.74" height="180.81"/><polygon class="cls-1" points="950.73 428.1 891.72 428.1 891.72 322.52 936.46 322.52 950.73 428.1"/><rect class="cls-1" x="924.89" y="404" width="51.68" height="24.1"/><rect class="cls-1" x="865.49" y="209.52" width="1.54" height="49.14"/><rect class="cls-1" x="870.7" y="220.06" width="1.54" height="49.14"/><rect class="cls-1" x="860.77" y="226.84" width="1.54" height="49.14"/><rect class="cls-1" x="894.03" y="313.99" width="21.12" height="16.63"/><rect class="cls-1" x="896.35" y="308.06" width="16.49" height="9.35"/><rect class="cls-1" x="923.54" y="318.86" width="4.05" height="6.72"/><rect class="cls-1" x="929.02" y="312.73" width="5.79" height="12.84"/></g></svg>