<svg xmlns="http://www.w3.org/2000/svg" viewBox="0 0 1000 460.96"><defs><style>.cls-1{fill:#0d1617;}</style></defs><g id="Object"><path class="cls-1" d="M608.83,288.08V461h53.64V288.08Zm4.83,22.26V296.53h5.57v13.81Zm12.46,0V296.53h5.58v13.81Zm12.47,0V296.53h5.57v13.81Zm18,0h-5.58V296.53h5.58Zm-43,22.58V319.11h5.57v13.81Zm12.46,0V319.11h5.58v13.81Zm12.47,0V319.11h5.57v13.81Zm18,0h-5.58V319.11h5.58Zm-43,23.52V342.63h5.57v13.81Zm12.46,0V342.63h5.58v13.81Zm12.47,0V342.63h5.57v13.81Zm18,0h-5.58V342.63h5.58Zm-43,23.52V366.15h5.57V380Zm12.46,0V366.15h5.58V380Zm12.47,0V366.15h5.57V380Zm18,0h-5.58V366.15h5.58Zm-43,23.52V389.67h5.57v13.81Zm12.46,0V389.67h5.58v13.81Zm12.47,0V389.67h5.57v13.81Zm18,0h-5.58V389.67h5.58Zm0,47h-5.58V436.7h5.58ZM644.16,436.7v13.82h-5.57V436.7Zm-30.5,0h5.57v13.82h-5.57Zm12.46,0h5.58v13.82h-5.58ZM613.66,427V413.19h5.57V427Zm12.46,0V413.19h5.58V427Zm12.47,0V413.19h5.57V427Zm18,0h-5.58V413.19h5.58Z"/><rect class="cls-1" x="604.82" y="289.1" width="61.65" height="1.75"/><rect class="cls-1" x="606.49" y="313.39" width="58.31" height="1.75"/><rect class="cls-1" x="606.49" y="336.91" width="58.31" height="1.75"/><rect class="cls-1" x="606.49" y="360.42" width="58.31" height="1.75"/><rect class="cls-1" x="606.49" y="383.94" width="58.31" height="1.75"/><rect class="cls-1" x="606.49" y="407.46" width="58.31" height="1.75"/><rect class="cls-1" x="606.49" y="430.98" width="58.31" height="1.75"/><rect class="cls-1" x="602.79" y="284.33" width="65.73" height="4.78"/><rect class="cls-1" x="612.22" y="277.74" width="18.24" height="8.98"/><rect class="cls-1" x="610.98" y="277.48" width="20.72" height="1.53"/><rect class="cls-1" x="483.14" y="418.35" width="8.33" height="12.7"/><rect class="cls-1" x="483.14" y="440.46" width="8.33" height="12.69"/><rect class="cls-1" x="483.14" y="396.25" width="8.33" height="12.69"/><rect class="cls-1" x="483.14" y="352.04" width="8.33" height="12.7"/><rect class="cls-1" x="483.14" y="329.94" width="8.33" height="12.69"/><rect class="cls-1" x="483.14" y="374.15" width="8.33" height="12.69"/><rect class="cls-1" x="465.28" y="418.35" width="8.33" height="12.7"/><rect class="cls-1" x="465.28" y="440.46" width="8.33" height="12.69"/><rect class="cls-1" x="483.14" y="307.84" width="8.33" height="12.69"/><rect class="cls-1" x="465.28" y="352.04" width="8.33" height="12.7"/><rect class="cls-1" x="465.28" y="329.94" width="8.33" height="12.69"/><rect class="cls-1" x="465.28" y="396.25" width="8.33" height="12.69"/><rect class="cls-1" x="501" y="396.25" width="8.33" height="12.69"/><rect class="cls-1" x="518.86" y="418.35" width="8.33" height="12.7"/><rect class="cls-1" x="518.86" y="396.25" width="8.33" height="12.69"/><rect class="cls-1" x="518.86" y="352.04" width="8.33" height="12.7"/><rect class="cls-1" x="518.86" y="374.15" width="8.33" height="12.69"/><rect class="cls-1" x="501" y="440.46" width="8.33" height="12.69"/><rect class="cls-1" x="518.86" y="307.84" width="8.33" height="12.69"/><rect class="cls-1" x="518.86" y="329.94" width="8.33" height="12.69"/><rect class="cls-1" x="501" y="352.04" width="8.33" height="12.7"/><rect class="cls-1" x="501" y="374.15" width="8.33" height="12.69"/><rect class="cls-1" x="501" y="418.35" width="8.33" height="12.7"/><rect class="cls-1" x="518.86" y="440.46" width="8.33" height="12.69"/><rect class="cls-1" x="501" y="307.84" width="8.33" height="12.69"/><path class="cls-1" d="M528.82,276v4l-11.58,2.83v-2.6H511v4.14l-11.59,2.83v-3H493.1v4.52l-11.59,2.83V289.1h-6.28v4l-11.58,2.83v-2.12h-6.28V461H535.1V276ZM465.28,440.46h8.33v12.69h-8.33Zm8.33-119.93h-8.33V307.84h8.33Zm0,9.41v12.69h-8.33V329.94Zm0,22.1v12.7h-8.33V352Zm0,22.11v12.69h-8.33V374.15Zm0,22.1v12.69h-8.33V396.25Zm0,22.1v12.7h-8.33v-12.7Zm17.86,34.8h-8.33V440.46h8.33Zm0-123.21v12.69h-8.33V329.94Zm-8.33-9.41V307.84h8.33v12.69ZM491.47,352v12.7h-8.33V352Zm0,22.11v12.69h-8.33V374.15Zm0,22.1v12.69h-8.33V396.25Zm0,22.1v12.7h-8.33v-12.7Zm17.86-88.41v12.69H501V329.94ZM501,320.53V307.84h8.33v12.69ZM509.33,352v12.7H501V352Zm0,22.11v12.69H501V374.15Zm0,22.1v12.69H501V396.25Zm0,22.1v12.7H501v-12.7Zm0,22.11v12.69H501V440.46ZM527.19,352v12.7h-8.33V352Zm-8.33-9.41V329.94h8.33v12.69Zm8.33,31.52v12.69h-8.33V374.15Zm0,22.1v12.69h-8.33V396.25Zm0,22.1v12.7h-8.33v-12.7Zm0,22.11v12.69h-8.33V440.46Zm0-119.93h-8.33V307.84h8.33Z"/><polygon class="cls-1" points="256.7 304.57 256.7 306.27 255 306.27 255 311.13 284.9 311.13 284.9 460.96 235.84 460.96 235.84 318.95 235.84 311.13 235.84 306.27 234.06 306.27 234.06 304.57 256.7 304.57"/><rect class="cls-1" x="340.27" y="372.62" width="42.02" height="88.34"/><rect class="cls-1" x="157.13" y="352.37" width="34.16" height="108.59"/><rect class="cls-1" x="184.52" y="375" width="37.22" height="85.96"/><rect class="cls-1" x="169.42" y="348.01" width="15.1" height="12.99"/><rect class="cls-1" x="187.07" y="373.58" width="39.68" height="3.18"/><rect class="cls-1" x="217.74" y="411.87" width="41.73" height="49.09"/><rect class="cls-1" x="82.87" y="371.94" width="33.95" height="89.02"/><rect class="cls-1" x="53.41" y="416.3" width="44.66" height="44.66"/><rect class="cls-1" x="4.23" y="409" width="27.93" height="51.96"/><rect class="cls-1" x="26.74" y="444.68" width="66.02" height="16.28"/><rect class="cls-1" x="-21.06" y="439.42" width="33.84" height="21.54"/><rect class="cls-1" x="116.81" y="428.1" width="52.6" height="32.86"/><rect class="cls-1" x="271.12" y="446.81" width="81.94" height="14.15"/><polygon class="cls-1" points="498.34 446.81 498.34 460.96 416.4 460.96 416.4 446.81 465.28 446.81 465.28 453.15 473.61 453.15 473.61 446.81 483.14 446.81 483.14 453.15 491.47 453.15 491.47 446.81 498.34 446.81"/><polygon class="cls-1" points="349.87 405.25 318.73 405.25 305.56 453.88 349.87 453.88 349.87 405.25"/><rect class="cls-1" x="364.27" y="334.49" width="0.87" height="53.95"/><rect class="cls-1" x="368.61" y="352.75" width="1.16" height="31.83"/><rect class="cls-1" x="362.41" y="358.39" width="15.76" height="15.76"/><rect class="cls-1" x="359.75" y="357.17" width="20.87" height="1.41"/><rect class="cls-1" x="374.65" y="415.4" width="50.91" height="45.56"/><rect class="cls-1" x="415.83" y="365.24" width="32.71" height="87.91"/><rect class="cls-1" x="543.58" y="381.77" width="52.26" height="79.19"/><rect class="cls-1" x="527.19" y="431.78" width="59.59" height="29.18"/><rect class="cls-1" x="592.95" y="450.52" width="38.75" height="10.44"/><polygon class="cls-1" points="715.63 431.78 715.63 460.96 652.63 460.96 652.63 450.52 656.63 450.52 656.63 436.7 652.63 436.7 652.63 431.78 715.63 431.78"/><rect class="cls-1" x="675.7" y="351.33" width="42.5" height="4.05"/><rect class="cls-1" x="752.65" y="351.33" width="8.04" height="4.05"/><polygon class="cls-1" points="756.12 355.38 756.12 460.96 677.73 460.96 677.73 355.38 718.2 355.38 718.2 340.34 752.65 340.34 752.65 355.38 756.12 355.38"/><rect class="cls-1" x="701.16" y="340.34" width="5.79" height="13.02" transform="translate(1408.1 693.69) rotate(180)"/><rect class="cls-1" x="689.01" y="340.34" width="6.36" height="13.02" transform="translate(1384.38 693.69) rotate(180)"/><rect class="cls-1" x="810.01" y="306.76" width="62.05" height="154.2" transform="translate(1682.06 767.72) rotate(180)"/><rect class="cls-1" x="808.24" y="304.11" width="65.58" height="4.36" transform="translate(1682.06 612.58) rotate(180)"/><rect class="cls-1" x="812.09" y="298.53" width="57.88" height="20.72" transform="translate(1682.06 617.78) rotate(180)"/><rect class="cls-1" x="842.62" y="290.06" width="22.92" height="22.63" transform="translate(1708.16 602.75) rotate(180)"/><polygon class="cls-1" points="852.28 296.44 865.54 296.44 865.54 284.52 856.03 284.52 852.28 296.44"/><rect class="cls-1" x="858.91" y="274.63" width="1.29" height="26.54" transform="translate(1719.1 575.8) rotate(180)"/><path class="cls-1" d="M858.4,273.26a1.17,1.17,0,1,0,2.31,0,1.17,1.17,0,1,0-2.31,0Z"/><rect class="cls-1" x="863.56" y="397.3" width="27.77" height="63.66"/><rect class="cls-1" x="784.46" y="366.27" width="31.67" height="94.69"/><polygon class="cls-1" points="800.31 460.96 755.7 460.96 755.7 410.31 793.35 427 800.31 460.96"/><rect class="cls-1" x="882.21" y="433.45" width="68.13" height="27.51"/><rect class="cls-1" x="925.18" y="351.16" width="39.57" height="109.8"/><rect class="cls-1" x="955.49" y="440.46" width="65.57" height="20.5"/><rect class="cls-1" x="923.15" y="349.15" width="43.41" height="3.6"/><rect class="cls-1" x="958.58" y="333.66" width="0.87" height="22.13"/><rect class="cls-1" x="952.79" y="336.46" width="0.87" height="17.75"/><polygon class="cls-1" points="979.41 392.52 961.76 392.52 961.76 442.83 986.93 442.83 979.41 392.52"/><path class="cls-1" d="M459.88,302.68v155H531.4v-155Zm5.4,5.16h8.33v12.69h-8.33Zm0,66.31h8.33v12.69h-8.33Zm44.05-31.52H501V329.94h8.33Z"/><path class="cls-1" d="M610.6,293.56V454.84h49V293.56Zm21.1,72.59V380h-5.58V366.15Zm-12.47-47v13.81h-5.57V319.11Zm19.36-22.58h5.57v13.81h-5.57Z"/></g></svg>