<svg xmlns="http://www.w3.org/2000/svg" viewBox="0 0 1000 460.96"><defs><style>.cls-1{fill:#063837;}</style></defs><g id="Object"><path class="cls-1" d="M110.29,392.44h77.15V225.83h2.19v-4.77h-4.79V215h-38v-9.26H132.38l-2.16-6.05h-3.58V188.85H125v10.81h-6.65V215h-5.51v6.09H108.1v4.77h2.19ZM179.4,224v8.63h-2.3v-9.26h2.3Zm-8.12,0v8.63H169v-9.26h2.3Zm-9.49,0v8.63h-2.3v-9.26h2.3Zm-8.12,0v8.63h-2.3v-9.26h2.3Zm-12.22,6.48v-7.11h2.3v9.26h-2.3Zm-8.12-7.11h2.3v9.26h-2.3v-9.26Zm20.34,16.08v9.26h-2.3v-9.26Zm-9.92,0v9.26h-2.3v-9.26Zm-8.12,25.35h-2.3V255.5h2.3Zm0-16.09h-2.3v-9.26h2.3Zm5.82,6.83h2.3v9.26h-2.3Zm3.47,100.73h-2.7V353.4h2.7Zm0-6.42h-2.7V347h2.7Zm0-6.64h-2.7v-2.82h2.7Zm5.42,6.64h-2.7V347h2.7Zm0-6.64h-2.7v-2.82h2.7Zm1-87.67h2.3v9.26h-2.3Zm5,87.67h-2.7v-2.82h2.7Zm5.42-78.41h-2.3V255.5h2.3Zm0-16.09h-2.3v-9.26h2.3Zm9.49,16.09H169V255.5h2.3Zm0-16.09H169v-9.26h2.3Zm8.12,16.09h-2.3V255.5h2.3Zm0-16.09h-2.3v-9.26h2.3Z"/><polygon class="cls-1" points="596.39 410.74 596.39 392.62 596.39 321.27 569.12 321.27 555.24 392.62 551.71 410.74 596.39 410.74"/><path class="cls-1" d="M826.29,392.62V178.67L731.3,159l10.41,233.66H596.39v18.12H551.71l3.53-18.12H522.57v.45h-4.34v-.45h-14.3v.45h-4.34v-.45h-14.3v.45h-4.35v-.45H466.65v.45H462.3v-11H463V372h-.69V361H463v-8.86h-.69v-11H463V331h-.69V320H463V309.91h-.69v-11H463V288.82h-.69v-11H463V260.44h-5.13v-79.1H444.61V160.15h-4.73V129.07h-7.09v4.59h-3.61v-4.59h-6.51v4.59h-3.62v-4.59h-5.24V106.23h-2.32V124h2.25v9.65h-3.62v-4.59h-3.73V100.48h-2.32V124h.75v9.65H401.2v-4.59h-5.31v4.59h-3.62v-4.59h-4.68v52.27h-8.51v71.17h.51v10.18h-1.84v-2.25h-4.5v2.25h-1.47v4h1.47v10.19h-1.47v4h1.47v10.19h-1.47v4h1.47v10.19h-1.47V310h1.47v10.19h-1.47v72.41H297.66v-176h1.28v-2h-9.12V202.4H291v-2h-8.38v-7h.75v-1.51h-3.6v-6.64h-4v-23.7h-1.32v23.7h-1.61V172.06h-1.33v13.21h-4v6.64H263.4v1.51h1.3v7h-8.37v2h1.18v12.23h-9.12v2h1.28v176H2.47v24h1009v-24Zm-568.78-4.35h-3.63v-10h3.63Zm0-108.89h-3.63v-10h3.63Zm3-74.7H262v8.41h-1.5Zm4.22,152.48h-3.63v-10h3.63Zm0-31.11h-3.63v-10h3.63Zm0-31.11h-3.63V285h3.63Zm0-62.23h-3.63v-10h3.63Zm1.44-19.62h-1.5v-8.41h1.5Zm2.65-8.41h1.5v8.41h-1.5Zm3.09,183.59h-3.63v-10h3.63Zm0-62.22h-3.63v-10h3.63Zm2.57-113H273v-8.41h1.5Zm2.65-8.41h1.51v8.41H277.1Zm2,168h-3.63v-10h3.63Zm0-77.77h-3.63V285h3.63Zm0-46.67h-3.63v-10h3.63Zm2.19-43.59h1.5v8.41h-1.5Zm5,136.92h-3.63v-10h3.63Zm0-77.78h-3.63v-10h3.63Zm.66-50.73h-1.51v-8.41h1.51Zm6.53,159.62h-3.63v-10h3.63Zm0-62.22h-3.63v-10h3.63Zm0-46.67h-3.63v-10h3.63Zm86.14,56.39h-1.84V310h1.84Zm0-15h-1.84V295.05h1.84Zm0-14.18h-1.84V280.87h1.84Zm0-14.18h-1.84V266.69h1.84Zm6.34,43.33h-1.84V310h1.84Zm0-15h-1.84V295.05h1.84Zm0-14.18h-1.84V280.87h1.84Zm0-14.18h-1.84V266.69h1.84Zm0-14.19h-1.84V252.51h1.84Zm6.34,57.52h-1.84V310h1.84Zm0-15h-1.84V295.05h1.84Zm0-14.18h-1.84V280.87h1.84Zm0-14.18h-1.84V266.69h1.84Zm0-14.19h-1.84V252.51h1.84Zm3.62-96.88h-3.62v-9.65h3.62Zm0-16.07h-3.62v-9.65h3.62Zm5.31-9.65h3.62v9.65H401.2Zm-2.59,180.12h-1.84V310h1.84Zm0-15h-1.84V295.05h1.84Zm0-14.18h-1.84V280.87h1.84Zm0-14.18h-1.84V266.69h1.84Zm0-14.19h-1.84V252.51h1.84Zm2.59-106.53h3.62v9.65H401.2Zm3.76,164h-1.84V310H405Zm0-15h-1.84V295.05H405Zm0-14.18h-1.84V280.87H405Zm0-14.18h-1.84V266.69H405Zm0-14.19h-1.84V252.51H405Zm8.78-112.95h-3.62v-9.65h3.62Zm8.93,0h-3.62v-9.65h3.62ZM617.89,405.82H615v-12h2.91Zm14.46,0h-2.9v-12h2.9Zm14.47,0h-2.91v-12h2.91Zm137.62-219,.44,28.8-9-1.82-.94-28.88Zm1.24,81.28-8.1-1.64-.93-28.88,8.59,1.71ZM747,179.32l8.84,1.76.93,28.82-8.81-1.78ZM748.68,232l8.83,1.76.94,28.83-8.84-1.79Zm2.77,85.63-.93-28.81,8.84,1.79.93,28.84Zm28,5.75h0l-.94-28.89,7.62,1.54h0l.43,28.81Zm34.21,7-8-1.65-.45-28.87,8.48,1.72Zm0-56.64-8.9-1.8-.44-28.86,9.34,1.86Zm0-52.32-9.7-2-.44-28.86,10.14,2Z"/><polygon class="cls-1" points="774.94 184.9 775.88 213.78 756.74 209.9 755.81 181.08 774.94 184.9"/><polygon class="cls-1" points="803.94 219.46 784.88 215.6 784.44 186.8 803.5 190.6 803.94 219.46"/><polygon class="cls-1" points="777.58 266.44 758.45 262.57 757.51 233.74 776.65 237.56 777.58 266.44"/><polygon class="cls-1" points="804.74 271.94 785.68 268.08 785.24 239.27 804.3 243.08 804.74 271.94"/><polygon class="cls-1" points="778.49 294.46 779.43 323.35 760.29 319.43 759.36 290.59 778.49 294.46"/><polygon class="cls-1" points="805.61 328.73 786.54 324.82 786.11 296.01 805.16 299.86 805.61 328.73"/><polygon class="cls-1" points="780.94 370.05 761.95 370.67 760.29 319.43 759.36 290.59 758.45 262.57 757.51 233.74 756.74 209.9 755.81 181.08 755.76 179.63 774.75 179.01 774.94 184.9 775.88 213.78 776.65 237.56 777.58 266.44 778.49 294.46 779.43 323.35 779.43 323.36 780.94 370.05"/><polygon class="cls-1" points="806.24 370.25 787.24 370.54 786.54 324.82 786.11 296.01 786.11 296 785.68 268.08 785.24 239.27 784.88 215.6 784.44 186.8 784.33 179.43 803.32 179.14 803.5 190.6 803.94 219.46 804.3 243.08 804.74 271.94 805.16 299.86 805.61 328.73 806.24 370.25"/><rect class="cls-1" x="-15.96" y="406.42" width="1031.92" height="54.54"/><polygon class="cls-1" points="823 342.52 744.28 342.52 744.28 176.92 819.88 190.6 823 342.52"/><rect class="cls-1" x="739.24" y="155.32" width="19.68" height="15.36"/><rect class="cls-1" x="744.76" y="123.64" width="1.68" height="39.6"/><rect class="cls-1" x="747.88" y="130.36" width="1.68" height="39.6"/></g></svg>