<svg xmlns="http://www.w3.org/2000/svg" viewBox="0 0 1000 460.96"><defs><style>.cls-1,.cls-2,.cls-3{fill:#019276;}.cls-2{opacity:0.2;}.cls-3{opacity:0.3;}</style></defs><g id="Object"><path class="cls-1" d="M808.25,93.39c-95,30.41-166.14,73.56-159,96.39s89.9,16.67,184.84-13.74,166.14-73.55,159-96.37S903.19,63,808.25,93.39Zm20.94,72.33C771,184.33,705.94,193.58,699.83,174s52.39-49.88,110.54-68.51,123.24-27.86,129.36-8.31S887.34,147.1,829.19,165.72Z"/><path class="cls-1" d="M921.42,123.55q-4.44,3.18-9.69,6.38h0a284.5,284.5,0,0,1-29.46,15.39h0q-2.16,1-4.35,2c-5.87,2.61-12,5.15-18.2,7.59-9.94,3.9-20.22,7.56-30.5,10.85-9.27,3-18.71,5.7-28.07,8.1-3,.78-6,1.53-9,2.23a370.26,370.26,0,0,1-38.33,7.17c-6.61.85-12.84,1.39-18.58,1.6q1.57,1.94,3.22,3.78h0q.65.74,1.32,1.44l.12.14h0l.81.86c.25.28.52.56.8.83l1.18,1.2,0,0c.48.48,1,1,1.45,1.42,0,0,0,0,0,0,.65.62,1.3,1.23,2,1.83s1.35,1.22,2.05,1.82,1.13,1,1.71,1.46l.19.15.19.15a3.47,3.47,0,0,0,.29.25l.68.54c.32.26.66.52,1,.77l.32.25c.28.23.57.45.85.66l.79.6.79.58q1.92,1.4,3.9,2.7c.32.21.64.42,1,.62l.25.16q.36.21.72.45l.35.22.45.29q.24.13.48.3l.17.1.09,0,.49.31.26.15.07.05.75.44.89.51.25.14c.21.13.41.24.63.35l.13.07.25.14,0,0a1.51,1.51,0,0,0,.18.09l0,0h0l.46.25c.57.32,1.15.62,1.72.92s1.33.68,2,1l.25.12.19.09.62.3,1,.46.53.24.37.17.84.38q.78.36,1.59.69l.08,0,.13.05.57.24.13.06c.33.14.66.28,1,.4l1,.41c.68.26,1.35.52,2,.77l1.24.43a.43.43,0,0,1,.13,0l1,.34.17.05,1,.34.73.23.53.17,1,.31h0l.1,0,.19,0,.58.17.27.08,1.26.35.09,0,.27.08.33.08.46.12.62.16.47.12.31.08.24.06h0l1.21.29.91.21a.8.8,0,0,1,.15,0h.06l0,0h0l.13,0,.32.07.81.17.34.07.7.14.16,0,.54.1.27.05h0l.44.08.23,0,.19,0,.21,0,1.56.26.3.05.16,0,.39.06h.08l.37.05h.25l.24,0,.11,0h0l.28,0h0l.86.11.6.08.45.05.54.06.39.05h.06l.24,0,.33,0,.84.08,1,.09.5,0h0c.11,0,.22,0,.33,0l1.1.08h.07l.24,0,.5,0,1.42.07,1.3,0,.83,0H815a0,0,0,0,0,0,0s0,0,0,0l1.76,0,1.6,0,.79,0h.07l2.52-.09c1.2-.06,2.39-.14,3.59-.24s2.67-.24,4-.41q3.81-.47,7.64-1.22c3.12-.62,6.18-1.36,9.18-2.24.75-.22,1.5-.44,2.24-.68,2.22-.7,4.41-1.47,6.55-2.31l1.31-.52,1.2-.5,0,0,.59-.25c.46-.19.91-.39,1.36-.6.75-.33,1.49-.67,2.23-1l1.89-.92c2.28-1.14,4.51-2.35,6.68-3.65.34-.2.68-.4,1-.61a4.94,4.94,0,0,0,.49-.3c.26-.15.53-.32.79-.49s.76-.47,1.13-.72l1-.65,1.1-.74c.33-.22.67-.45,1-.69l.48-.34c.38-.26.75-.53,1.13-.81l1.66-1.24c.65-.49,1.29-1,1.93-1.5.89-.7,1.77-1.42,2.63-2.17.48-.4.95-.81,1.42-1.23.64-.57,1.28-1.14,1.9-1.72h0c.12-.1.25-.22.37-.34.51-.47,1-1,1.52-1.46s.75-.73,1.11-1.1c.88-.87,1.72-1.75,2.54-2.64s1.64-1.8,2.44-2.72c.29-.32.57-.65.84-1s.59-.69.87-1.05.42-.5.61-.75l0,0a.08.08,0,0,0,0-.05c.16-.19.32-.39.47-.59s.24-.29.34-.43.19-.23.28-.36l1.11-1.45,1.08-1.47,1.06-1.49,1.08-1.58,0-.05.47-.69a.35.35,0,0,0,0-.08q.3-.43.57-.87a2.07,2.07,0,0,0,.15-.25c.31-.47.61-.94.9-1.42l.3-.51,0,0,0,0,.37-.62c.45-.73.89-1.46,1.3-2.2l.51-.92s0,0,0,0a5.54,5.54,0,0,0,.3-.53c.1-.17.2-.35.29-.53a1.71,1.71,0,0,0,.12-.23c.17-.3.34-.61.49-.92l.37-.71,0-.1c.32-.62.64-1.25.94-1.88q.3-.6.57-1.2c.22-.47.44-.93.65-1.4.38-.83.75-1.66,1.09-2.5.21-.49.41-1,.61-1.46l.39-1c.13-.32.26-.65.38-1l.23-.6q.62-1.63,1.17-3.3c.2-.59.4-1.18.57-1.76s.39-1.25.58-1.88c.1-.32.19-.65.29-1l.27-1c.12-.43.24-.87.35-1.31.06-.22.12-.44.16-.66s.06-.22.08-.33a2,2,0,0,0,.08-.33h0c.3-1.21.59-2.43.85-3.65.18-.82.35-1.64.49-2.46.07-.36.14-.72.2-1.09a2.74,2.74,0,0,0,0-.28c.09-.56.19-1.12.27-1.68.12-.74.22-1.49.32-2.24s.17-1.31.24-2c0-.24.06-.49.08-.73.23-2.13.39-4.26.48-6.41ZM843.13,164.3c3.93-.77,7.34-.26,7.62,1.14s-2.69,3.17-6.61,3.94-7.34.27-7.62-1.14S839.21,165.08,843.13,164.3Zm78.36-47.64v-.07c0-.88,0-1.77-.07-2.65s-.1-1.7-.16-2.55-.12-1.56-.19-2.34a1.49,1.49,0,0,1,0-.21c-.09-.9-.19-1.79-.3-2.68,0-.12,0-.24,0-.36-.07-.6-.15-1.21-.24-1.82,0-.17-.05-.34-.08-.51-.11-.77-.23-1.54-.37-2.31a.15.15,0,0,0,0-.07c-.14-.83-.3-1.67-.46-2.5-.11-.58-.23-1.16-.37-1.74,0-.12,0-.23-.07-.34S919,96.2,919,96a.08.08,0,0,0,0,0,1.36,1.36,0,0,0,0-.17,2.62,2.62,0,0,0-.09-.38s0,0,0,0a0,0,0,0,0,0,0s0,0,0,0a.15.15,0,0,0,0-.09,0,0,0,0,0,0,0l-.06-.25a0,0,0,0,0,0,0h0a0,0,0,0,0,0,0,0,0,0,0,0,0,0,.13.13,0,0,0,0-.06c-.07-.35-.16-.7-.25-1,0,0,0-.06,0-.09s0-.1,0-.14c-.07-.3-.15-.59-.23-.88,0,0,0,0,0-.06a3.2,3.2,0,0,0-.1-.42,2.68,2.68,0,0,0-.07-.27v0s0,0,0-.06a.07.07,0,0,1,0,0s0,0,0,0l-.06-.22c0-.1-.06-.2-.08-.3-.07-.26-.15-.52-.22-.78,0-.1-.05-.2-.08-.29-.06-.26-.13-.51-.21-.77l-.54-1.79q-.27-.89-.57-1.77c-.22-.69-.46-1.37-.7-2s-.48-1.35-.74-2c-.43-1.15-.88-2.29-1.36-3.41-.11-.28-.23-.57-.36-.85-.48-1.14-1-2.27-1.52-3.39L911,73l-.15-.3c-.2-.42-.41-.83-.62-1.24q-.66-1.31-1.35-2.58c-.23-.42-.46-.85-.7-1.27s-.51-.9-.77-1.35-.52-.9-.79-1.34-.43-.71-.65-1.07c-.59-1-1.2-1.92-1.82-2.86-.77-1.16-1.56-2.3-2.37-3.43-.47-.63-.93-1.26-1.4-1.88l-1.44-1.86q-1.58-2-3.25-3.9l-.82-.93c-1.19-1.33-2.42-2.64-3.69-3.91-.22-.23-.44-.45-.67-.67-.52-.52-1-1-1.59-1.53-.2-.18-.4-.36-.6-.56h0c-.21-.21-.43-.41-.65-.6s-.42-.41-.64-.6-.35-.33-.53-.49a103,103,0,0,0-15.65-11.54c-2.08-1.27-4.22-2.46-6.39-3.56-.73-.37-1.46-.74-2.19-1.09-1.3-.63-2.61-1.23-3.94-1.8l-1.07-.46q-1.51-.64-3.06-1.23c-.58-.23-1.17-.45-1.76-.66s-1.25-.45-1.87-.66-1.43-.49-2.15-.72c-1.48-.48-3-.92-4.49-1.32-.8-.22-1.59-.42-2.39-.62s-1.84-.43-2.77-.63c-.66-.15-1.33-.28-2-.41l-.46-.09c-.68-.13-1.37-.26-2-.37s-1.41-.24-2.12-.34c-1.59-.24-3.18-.44-4.78-.59l-1-.1h0c-.38,0-.76-.08-1.13-.1s-1-.09-1.56-.12c-.7,0-1.4-.09-2.11-.12-.56,0-1.13-.05-1.69-.06l-.76,0q-3.52-.09-7.08.08l-1,.06h-.1c-1.32.07-2.65.17-4,.3l-1.81.19c-.28,0-.55.05-.83.09l-.84.11c-.64.07-1.29.16-1.94.26-.85.12-1.7.26-2.56.41s-1.7.3-2.56.47c-1.09.22-2.18.45-3.25.7-.61.13-1.22.28-1.82.43l-.85.21c-.52.14-1,.27-1.55.42a.55.55,0,0,0-.17.05l-1.13.32c-.62.16-1.23.35-1.84.54L785,19c-.62.19-1.24.4-1.86.61l-.48.16-.44.15c-.67.23-1.32.46-2,.71s-1.2.44-1.79.68l-.12,0-1,.38c-1.42.57-2.83,1.17-4.21,1.81q-.55.24-1.11.51c-1.27.59-2.52,1.21-3.76,1.86-.4.2-.79.41-1.18.63l-1.8,1c-.55.3-1.09.61-1.63.94l-.36.21-.6.36c-.51.3-1,.61-1.52.93s-.81.51-1.21.77c0,0,0,0,0,0l-.58.38-1.52,1-1.76,1.22-.35.25c-.48.34-1,.68-1.43,1-.65.48-1.29,1-1.92,1.46l-.76.6c-1.16.92-2.31,1.87-3.43,2.84l-.56.48c-.59.52-1.18,1-1.76,1.58s-1.29,1.2-1.93,1.82c-.42.41-.85.82-1.26,1.24l-.63.63-.33.33c-.34.35-.68.7-1,1.06l-.17.18c-.35.36-.68.73-1,1.09q-.72.78-1.41,1.56c-.48.54-.95,1.09-1.42,1.64s-1.15,1.35-1.68,2-1.1,1.38-1.64,2.08a98.76,98.76,0,0,0-6,8.71A104.24,104.24,0,0,0,717,86.58c-.29.89-.57,1.78-.83,2.68-.12.43-.25.86-.37,1.29s-.25.87-.36,1.31c-.49,1.85-.94,3.72-1.32,5.6-.12.56-.23,1.13-.34,1.7,0,.12,0,.23-.07.35h0A103.48,103.48,0,0,0,712,123.39h0c0,.7.07,1.41.12,2.11,0,.35,0,.7.07,1,.05.65.1,1.3.16,2s.14,1.41.22,2.11c0,.31.07.62.11.92.09.7.18,1.41.28,2.11q.39,2.75.93,5.51a104.22,104.22,0,0,0,18.82,42.39,216,216,0,0,0,26.89-2.47c8.24-1.22,17-2.86,25.91-4.85,6.87-1.52,13.88-3.24,20.91-5.14,7.62-2.05,15.27-4.31,22.81-6.72,10.49-3.36,21-7.1,31.13-11.1,1.85-.72,3.68-1.46,5.5-2.2,7.12-2.9,14-5.92,20.53-9,6.75-3.19,13.11-6.44,18.93-9.72a174.93,174.93,0,0,0,16.23-10.21h0v-.91Q921.52,117.94,921.49,116.66ZM865.81,61c1.05,2.45-2.45,4.17-6.66,5.36a104.49,104.49,0,0,1-11,2.17l-.23.05c-6.6,1.36-13.18,2.76-19.74,4.32-5.66,1.34-10.46,4.9-15.91,6.81a46.41,46.41,0,0,1-11.22,2.4,57.67,57.67,0,0,1-14.67-.6c-3.37-.56-8.81-.75-10.83-4.08-6.2-10.21,20.2-17.34,25.75-18.59a88.21,88.21,0,0,1,10.21-1.64c8.32-.88,16.77-.83,25.09-1,3.81-.08,7.62-.36,11.43-.35,1.4,0,2.81,0,4.21.15C855.93,56.31,864.07,57,865.81,61Zm-98.73,40.77c-7.14,1.4-13.33.48-13.84-2.07s4.88-5.76,12-7.17,13.34-.48,13.84,2.07S774.21,100.4,767.08,101.81ZM738,67.33c3.93-.77,7.34-.26,7.62,1.14s-2.69,3.17-6.61,4c-3,.59-5.71.43-6.94-.31a1.33,1.33,0,0,1-.68-.84c-.14-.74.62-1.58,2-2.32A16.11,16.11,0,0,1,738,67.33Zm150.83-2.75c3.92-.78,7.33-.27,7.61,1.14s-2.69,3.17-6.61,3.94-7.34.27-7.61-1.14S884.93,65.35,888.86,64.58ZM742.47,150.2c-4.55.9-8.5.31-8.82-1.32s3.11-3.67,7.65-4.56a19.39,19.39,0,0,1,5.57-.35h0c.8.25,1.63.49,2.46.7h0a1.5,1.5,0,0,1,.76.95C750.44,147.26,747,149.31,742.47,150.2Zm104.91-5.41c-3.22,6.76-9.08,9.32-15.48,12.33a29.58,29.58,0,0,1-16.16,2.52,93.61,93.61,0,0,1-12-2.28,61.9,61.9,0,0,0-13.59-2.08c-3.64,0-8,1.94-11.53.54-5.69-2.27-.54-6.36,2.71-7.87,5.53-2.57,12-2.23,17.94-3.26,11.85-2.06,24.14-3.78,35.41-8.22.55-.21,1.1-.43,1.64-.66,4.82-2,10.53-5.29,15.88-3.46C849.12,135.41,849.17,141,847.38,144.79Zm32-31.33c-.32-1.63,3.11-3.67,7.66-4.57s8.49-.3,8.81,1.32-3.11,3.67-7.65,4.57S879.74,115.08,879.42,113.46Z"/><path class="cls-1" d="M888.32,42.36A104.78,104.78,0,0,0,727.44,63.93c22.45-5.3,45.19-10,66.27-19.51,5.75-2.59,11.42-5.64,17.74-6.68,14.4-2.38,28.72,1.39,42.76,3.79C863.75,43.17,877.61,45.48,888.32,42.36Z"/><path class="cls-1" d="M911.73,129.93q5.25-3.2,9.69-6.38c-.08,1.8-.2,3.58-.37,5.36-2.35.37-4.71.66-7.09.85Z"/><path class="cls-1" d="M921.52,119.21c0,.3,0,.61,0,.91a174.93,174.93,0,0,1-16.23,10.21c-4.08.23-8.19.39-12.26.46-1.73,0-3.46.06-5.17.07-1.3,0-4.2.41-5.37-.15-4.41-2.13,0-6.15,2.58-7.27,3.69-1.61,8.05-1.35,12-1.7.71-.06,1.41-.14,2.11-.22a118.21,118.21,0,0,0,22.35-4.93v.07Q921.52,117.94,921.52,119.21Z"/><path class="cls-1" d="M785.47,174.22c-9,2-17.67,3.63-25.91,4.85C767.09,172.1,776,172,785.47,174.22Z"/><path class="cls-1" d="M865.82,149.06c-1.82.74-3.65,1.48-5.5,2.2C861.12,150.4,863.11,149.67,865.82,149.06Z"/><path class="cls-1" d="M918.46,144h0a104.91,104.91,0,0,1-9.21,24c-.27.51-.54,1-.82,1.51-.59,1.07-1.2,2.12-1.83,3.17l-.37.62,0,0,0,0c-.39.65-.79,1.29-1.2,1.93s-.82,1.26-1.24,1.89l0,.05-1.08,1.58-1.06,1.49-1.08,1.47-1.11,1.45c-.09.13-.19.25-.28.36s-.22.29-.34.43-.34.43-.52.64l0,0-.44.54-.17.21q-.42.54-.87,1.05c-.27.33-.55.66-.84,1-.8.92-1.61,1.83-2.44,2.72s-1.68,1.78-2.54,2.64c-.36.37-.73.74-1.11,1.1s-1,1-1.52,1.46c-.12.12-.25.24-.37.34h0c-.62.58-1.26,1.15-1.9,1.72-.47.42-.94.83-1.42,1.23-.86.75-1.74,1.47-2.63,2.17-.64.51-1.28,1-1.93,1.5s-1.1.84-1.66,1.24c-.38.28-.75.55-1.13.81l-.48.34c-.33.24-.67.47-1,.69l-1.1.74-1,.65c-.37.25-.75.49-1.13.72s-.53.34-.79.49a4.94,4.94,0,0,1-.49.3h0c-.34.21-.67.41-1,.6-2.17,1.3-4.4,2.51-6.68,3.65l-1.89.92c-.74.35-1.48.69-2.23,1-.45.21-.9.41-1.36.6l-.59.25,0,0-1.2.5-1.31.52c-2.14.84-4.33,1.61-6.55,2.31-.74.24-1.49.46-2.24.68-3,.88-6.06,1.62-9.18,2.24q-3.83.75-7.64,1.22c-1.33.17-2.67.3-4,.41s-2.39.18-3.59.24q-3.39.16-6.74.11a0,0,0,0,1,0,0,0,0,0,0,1,0,0h-.86l-.83,0-1.3,0-1.42-.07-.5,0-.24,0h-.07l-1.1-.08a1.73,1.73,0,0,1-.32,0h0l-.5,0-1-.09-.84-.08h-.14l-.19,0-.24,0h-.06l-.39-.05-.54-.06h0c-.34,0-.67-.07-1-.12l-.86-.11-.3,0h0l-.11,0a2,2,0,0,0-.24,0h0l-.06,0a.39.39,0,0,1-.15,0l-.37-.05h-.08l-.35-.05h0a.9.9,0,0,1-.16,0,1.57,1.57,0,0,1-.3-.05l-1.56-.26-.63-.11-.44-.08h0l-.27-.05-.51-.09-.16,0h0l-.37-.08-.33-.06-.16,0-.18,0-.81-.17-.32-.07a.79.79,0,0,0-.2,0l-.06,0a.8.8,0,0,0-.15,0H794l-.13,0-.72-.17-1.21-.29h0l-.24-.06-.31-.08-.47-.12-.62-.16-.2,0-.26-.07-.6-.16-.09,0-.13,0-1.13-.32-.18,0-.09,0-.58-.17-.19,0-.1,0h0l-1-.31-.53-.17-.46-.14-.25-.08h0l-1-.34-.17-.05-1-.34a.43.43,0,0,0-.13,0l-1.24-.43-.48-.19-1.56-.58-1-.41-.82-.34-.13,0-.18-.07q-.28-.1-.57-.24l-.13-.05-.08,0-.19-.09a3.52,3.52,0,0,1-.4-.18l-.19-.08L775,215l-1.48-.65-.37-.17c-.37-.17-.73-.34-1.1-.53l-.39-.17-.62-.3-.19-.09-.25-.12-.19-.11c-.61-.29-1.21-.59-1.81-.9s-.95-.5-1.42-.77a2.1,2.1,0,0,1-.3-.15l-.46-.25s0,0,0,0h0a1.51,1.51,0,0,1-.18-.09l0,0-.25-.14-.13-.07a.57.57,0,0,1-.13-.08l-.25-.14c-.54-.29-1.07-.6-1.59-.91l-.62-.36-.41-.26a3.79,3.79,0,0,0-.34-.2l-.09,0-.17-.1-.36-.22-.12-.08-.63-.39c-.3-.18-.6-.37-.89-.57l-.25-.16c-.33-.2-.65-.41-1-.62q-2.17-1.45-4.29-3c-.68-.5-1.36-1-2-1.54l-.32-.25c-.66-.51-1.31-1-2-1.56l-.19-.15-.17-.15-1.73-1.46c-.7-.6-1.38-1.2-2.05-1.82s-1.32-1.21-2-1.83c0,0,0,0,0,0-.49-.46-1-.94-1.45-1.42l0,0-1.18-1.2c-.28-.27-.55-.55-.8-.83l-.81-.86h0l-.12-.14q-.68-.71-1.32-1.44h0c.3-.14.61-.3.95-.5,3-1.82,9.61-2.85,14.41-4.88a370.26,370.26,0,0,0,38.33-7.17q2.26.7,4.54,1.47c13,4.33,26.32,9.5,38,4.59a50.26,50.26,0,0,1,13.12-3.7,60,60,0,0,0,6.3-4.07l0,0a20.85,20.85,0,0,0,2.17-1.84h0a4.89,4.89,0,0,0,1.44-2.14c.48-2.41,1.48-10.27,2-15.45,6.23-2.44,12.33-5,18.2-7.59,1-.11,2-.21,3-.3,11.12-1,22.92-1.38,25-1.74A85.94,85.94,0,0,1,918.46,144Z"/><path class="cls-1" d="M734,92.07c3.81-1,8.17-1.38,11.55-3.55,2.35-1.5,6.11-6.16,1.42-7.58-1.25-.37-4,.48-5.33.69-8.19,1.32-16.61,3-24.71,5a102.44,102.44,0,0,0-3.29,12.93A111.24,111.24,0,0,1,734,92.07Z"/><path class="cls-1" d="M718.75,133.18c7.54.18,7.88-1,17.86-.18s24.44-2,26.76-1.94a47.23,47.23,0,0,0,8.45-1.11l19.45-3.84,33.91-6.68c2.22-.44,16.47-4.37,20.81-5.78s15.35-4.14,15.35-4.14,1.11-.22,12.47-4.13,23.72-8.57,29.25-6.88c3.07.94,10.25.21,16.37-.4a105,105,0,0,0-4.76-16.48l-27.4-1.71-25.7,7.3s-13,10.35-16.66,12.19-9.35,2.4-12.13,2.94-18,2.44-18,2.44a107.35,107.35,0,0,0-21.66,1.49c-10,2-33,5.39-36.13,7.12s-10.91,3.27-12.57,3.6L712,123.39q.22,5.1,1,10.25A22.3,22.3,0,0,1,718.75,133.18Z"/><path class="cls-1" d="M749.35,144.68c-.83-.21-1.66-.45-2.46-.7A6.06,6.06,0,0,1,749.35,144.68Z"/><path class="cls-2" d="M921.42,123.55q-4.44,3.18-9.69,6.38h0a284.5,284.5,0,0,1-29.46,15.39h0q-2.16,1-4.35,2c-5.87,2.61-12,5.15-18.2,7.59-9.94,3.9-20.22,7.56-30.5,10.85-9.27,3-18.71,5.7-28.07,8.1q-2.21,1.91-4.45,3.7c-14.32,11.44-29.95,19.53-46.73,22.15h0l.19.15.19.15a3.47,3.47,0,0,0,.29.25l.68.54c.32.26.66.52,1,.77l.32.25c.28.23.57.45.85.66l.79.6.4.28.39.3q1.92,1.4,3.9,2.7c.32.21.64.42,1,.62l.25.16c.29.2.59.39.89.57l.63.39q.24.13.48.3l.17.1.09,0,.49.31.26.15.07.05.55.31.2.13.89.51.25.14.25.13.25.14a.57.57,0,0,0,.13.08l.13.07.25.14,0,0a1.51,1.51,0,0,0,.18.09l0,0h0l.46.25c.57.32,1.15.62,1.72.92s1.33.68,2,1l.25.12.19.09.62.3,1,.46.53.24.37.17.84.38.64.27.17.07.19.08a3.52,3.52,0,0,0,.4.18l.19.09.08,0,.13.05.57.24.13.06h.05l.13,0,.82.34,1,.41c.68.26,1.35.52,2,.77l1.24.43a.43.43,0,0,1,.13,0l1,.34.17.05,1,.34.73.23.53.17,1,.31h0l.1,0,.19,0,.58.17.27.08,1.26.35.09,0,.27.08.33.08.46.12.62.16.47.12.31.08.24.06h0l1.21.29.91.21a.8.8,0,0,1,.15,0h.06l0,0h0l.13,0,.32.07.81.17.34.07.7.14.16,0,.54.1.27.05h0l.44.08.23,0,.19,0,.21,0,1.56.26.3.05.16,0,.39.06h.08l.37.05h.25l.24,0,.11,0h0l.28,0h0l.86.11c.34,0,.67.09,1,.12h0l.54.06.39.05h.06l.24,0,.33,0,.84.08,1,.09.5,0h0c.11,0,.22,0,.33,0l1.1.08h.31l.5,0,1.42.07,1.3,0,.83,0H815a0,0,0,0,0,0,0s0,0,0,0l1.76,0,1.6,0,.79,0h.07l2.52-.09c1.2-.06,2.39-.14,3.59-.24s2.67-.24,4-.41q3.81-.47,7.64-1.22c3.12-.62,6.18-1.36,9.18-2.24.75-.22,1.5-.44,2.24-.68,2.22-.7,4.41-1.47,6.55-2.31l1.31-.52,1.2-.5,0,0,.59-.25c.46-.19.91-.39,1.36-.6.75-.33,1.49-.67,2.23-1l1.89-.92c2.28-1.14,4.51-2.35,6.68-3.65.34-.2.68-.4,1-.61a4.94,4.94,0,0,0,.49-.3c.26-.15.53-.32.79-.49s.76-.47,1.13-.72l1-.65,1.1-.74c.33-.22.67-.45,1-.69l.48-.34c.38-.26.75-.53,1.13-.81l1.66-1.24c.65-.49,1.29-1,1.93-1.5.89-.7,1.77-1.42,2.63-2.17.48-.4.95-.81,1.42-1.23.64-.57,1.28-1.14,1.9-1.72h0c.12-.1.25-.22.37-.34.51-.47,1-1,1.52-1.46s.75-.73,1.11-1.1c.88-.87,1.72-1.75,2.54-2.64s1.64-1.8,2.44-2.72c.29-.32.57-.65.84-1s.59-.69.87-1.05.42-.5.61-.75l0,0a.08.08,0,0,0,0-.05c.16-.19.32-.39.47-.59s.24-.29.34-.43.19-.23.28-.36l1.11-1.45,1.08-1.47,1.06-1.49,1.08-1.58,0-.05.47-.69a.35.35,0,0,0,0-.08q.3-.43.57-.87a2.07,2.07,0,0,0,.15-.25c.31-.47.61-.94.9-1.42l.3-.51,0,0,0,0,.37-.62c.45-.73.89-1.46,1.3-2.2l.51-.92s0,0,0,0a5.54,5.54,0,0,0,.3-.53c.1-.17.2-.35.29-.53a1.71,1.71,0,0,0,.12-.23c.17-.3.34-.61.49-.92l.37-.71,0-.1c.32-.62.64-1.25.94-1.88q.3-.6.57-1.2c.22-.47.44-.93.65-1.4.38-.83.75-1.66,1.09-2.5.21-.49.41-1,.61-1.46l.39-1c.13-.32.26-.65.38-1l.23-.6q.62-1.63,1.17-3.3c.2-.59.4-1.18.57-1.76s.39-1.25.58-1.88c.1-.32.19-.65.29-1l.27-1c.12-.43.24-.87.35-1.31.06-.22.12-.44.16-.66s.06-.22.08-.33a2,2,0,0,0,.08-.33h0c.3-1.21.59-2.43.85-3.65.18-.82.35-1.64.49-2.46.07-.36.14-.72.2-1.09a2.74,2.74,0,0,0,0-.28c.09-.56.19-1.12.27-1.68.12-.74.22-1.49.32-2.24s.17-1.31.24-2c0-.24.06-.49.08-.73.23-2.13.39-4.26.48-6.41ZM843.13,164.3c3.93-.77,7.34-.26,7.62,1.14s-2.69,3.17-6.61,3.94-7.34.27-7.62-1.14S839.21,165.08,843.13,164.3Zm78.36-47.64v-.07c0-.88,0-1.77-.07-2.65s-.1-1.7-.16-2.55-.12-1.56-.19-2.34a1.49,1.49,0,0,1,0-.21c-.09-.9-.19-1.79-.3-2.68,0-.12,0-.24,0-.36-.07-.6-.15-1.21-.24-1.82,0-.17-.05-.34-.08-.51-.11-.77-.23-1.54-.37-2.31a.15.15,0,0,0,0-.07c-.14-.83-.3-1.67-.46-2.5-.11-.58-.23-1.16-.37-1.74,0-.12,0-.23-.07-.34S919,96.2,919,96a.08.08,0,0,0,0,0,1.36,1.36,0,0,0,0-.17,2.62,2.62,0,0,0-.09-.38s0,0,0,0a0,0,0,0,0,0,0s0,0,0,0a.15.15,0,0,0,0-.09,0,0,0,0,0,0,0l-.06-.25v0h0v0h0a0,0,0,0,0,0,0,0,0,0,0,0,0,0,.13.13,0,0,0,0-.06c-.07-.35-.16-.7-.25-1,0,0,0-.06,0-.09s0-.1,0-.14c-.07-.3-.15-.59-.23-.88,0,0,0,0,0-.06a3.2,3.2,0,0,0-.1-.42,2.68,2.68,0,0,0-.07-.27v0s0,0,0-.06a.07.07,0,0,1,0,0s0,0,0,0l-.06-.22c0-.1-.06-.2-.08-.3-.07-.26-.15-.52-.22-.78,0-.1-.05-.2-.08-.29-.06-.26-.13-.51-.21-.77l-.54-1.79q-.27-.89-.57-1.77c-.22-.69-.46-1.37-.7-2s-.48-1.35-.74-2c-.43-1.15-.88-2.29-1.36-3.41-.11-.28-.23-.57-.36-.85-.48-1.14-1-2.27-1.52-3.39L911,73l-.15-.3c-.2-.42-.41-.83-.62-1.24q-.66-1.31-1.35-2.58c-.23-.42-.46-.85-.7-1.27s-.51-.9-.77-1.35-.52-.9-.79-1.34-.43-.71-.65-1.07c-.59-1-1.2-1.92-1.82-2.86-.77-1.16-1.56-2.3-2.37-3.43-.47-.63-.93-1.26-1.4-1.88l-1.44-1.86q-1.58-2-3.25-3.9l-.82-.93c-1.19-1.33-2.42-2.64-3.69-3.91-.22-.23-.44-.45-.67-.67-.52-.52-1-1-1.59-1.53-.2-.18-.4-.36-.6-.56h0c-.21-.21-.43-.41-.65-.6s-.42-.41-.64-.6-.35-.33-.53-.49h0l-1,2.36c-5.15,12.37-11.89,27.33-20.08,43.07-4.47,8.59-9.37,17.41-14.7,26.16-5,8.22-10.35,16.36-16.06,24.2.55-.21,1.1-.43,1.64-.66,4.82-2,10.53-5.29,15.88-3.46-3.07,3.06-3,8.68-4.81,12.44-3.22,6.76-9.08,9.32-15.48,12.33a29.58,29.58,0,0,1-16.16,2.52c-3,3.28-6.17,6.44-9.36,9.44,7.62-2.05,15.27-4.31,22.81-6.72,10.49-3.36,21-7.1,31.13-11.1,1.85-.72,3.68-1.46,5.5-2.2,7.12-2.9,14-5.92,20.53-9,6.75-3.19,13.11-6.44,18.93-9.72a174.93,174.93,0,0,0,16.23-10.21h0v-.91Q921.52,117.94,921.49,116.66ZM888.86,64.58c3.92-.78,7.33-.27,7.61,1.14s-2.69,3.17-6.61,3.94-7.34.27-7.61-1.14S884.93,65.35,888.86,64.58Zm-9.44,48.88c-.32-1.63,3.11-3.67,7.66-4.57s8.49-.3,8.81,1.32-3.11,3.67-7.65,4.57S879.74,115.08,879.42,113.46Z"/><path class="cls-2" d="M921.42,123.55l0,0c-.09,2.15-.25,4.28-.48,6.41,0,.24-.05.49-.08.73-.07.65-.15,1.31-.24,2s-.2,1.5-.32,2.24c-.08.56-.18,1.12-.27,1.68a2.74,2.74,0,0,1,0,.28c-.06.37-.13.73-.2,1.09-.14.82-.31,1.64-.49,2.46-.29,1.45-.63,2.89-1,4.32,0,.22-.1.44-.16.66-.11.44-.23.88-.35,1.31l-.27,1c-.1.33-.19.66-.29,1-.19.63-.38,1.25-.58,1.88s-.37,1.17-.57,1.76q-.55,1.67-1.17,3.3l-.23.6c-.12.33-.25.66-.38,1l-.39,1c-.2.49-.4,1-.61,1.46-.34.84-.71,1.67-1.09,2.5-.21.47-.43.93-.65,1.4s-.37.8-.57,1.2c-.3.63-.62,1.26-.94,1.88l0,.1-.37.71-.38.7c0,.07-.07.14-.11.22a1.71,1.71,0,0,1-.12.23c-.09.18-.19.36-.29.53a5.54,5.54,0,0,1-.3.53s0,0,0,0l-.51.92c-.41.74-.85,1.47-1.3,2.2l-.37.62,0,0,0,0-.3.51c-.29.48-.59.95-.9,1.42a2.07,2.07,0,0,1-.15.25q-.27.44-.57.87a.35.35,0,0,1,0,.08l-.47.69,0,.05-1.08,1.58-1.06,1.49-1.08,1.47-1.11,1.45c-.09.13-.19.25-.28.36s-.22.29-.34.43-.31.4-.47.59a.08.08,0,0,1,0,.05l0,0c-.19.25-.4.5-.61.75s-.57.71-.87,1.05-.55.66-.84,1c-.8.92-1.61,1.83-2.44,2.72s-1.66,1.77-2.54,2.64c-.36.37-.73.74-1.11,1.1s-1,1-1.52,1.46c-.12.12-.25.24-.37.34h0c-.62.58-1.26,1.15-1.9,1.72-.47.42-.94.83-1.42,1.23-.86.75-1.74,1.47-2.63,2.17-.64.51-1.28,1-1.93,1.5l-1.66,1.24c-.38.28-.75.55-1.13.81l-.48.34c-.33.24-.67.47-1,.69l-1.1.74-1,.65c-.37.25-.75.49-1.13.72s-.53.34-.79.49l-.49.31c-.34.21-.67.41-1,.6-2.17,1.3-4.4,2.51-6.68,3.65l-1.89.92c-.74.35-1.48.69-2.23,1-.45.21-.9.41-1.36.6l-.59.25,0,0-1.2.5-1.31.52c-2.14.84-4.33,1.61-6.55,2.31-.74.24-1.49.46-2.24.68-3,.88-6.06,1.62-9.18,2.24q-3.83.75-7.64,1.22c-1.33.17-2.67.3-4,.41s-2.39.18-3.59.24l-2.52.09h0l-.83,0-1.6,0-1.76,0a0,0,0,0,1,0,0,0,0,0,0,1,0,0h-.86l-.83,0-1.3,0-1.42-.07-.5,0-.24,0h-.07l-1.1-.08c-.11,0-.22,0-.33,0h0l-.5,0-1-.09-.84-.08-.33,0-.24,0-.45-.05-.54-.06h0l-.41,0-.6-.08-.86-.11h0l-.28,0h0l-.11,0-.24,0h-.09l-.08,0h-.08l-.37-.05h-.08l-.39-.06-.16,0-.3-.05-1.56-.26-.63-.11-.44-.08h0l-.27-.05-.54-.1-.16,0-.37-.08-.67-.13-.81-.17-.32-.07-.13,0h-.13a.8.8,0,0,0-.15,0l-.91-.21-1.21-.29-.27-.06-.31-.08-.47-.12-.62-.16-.46-.12-.6-.16-.09,0-1.26-.35-.27-.08-.58-.17-1.32-.4-.53-.17-.73-.23-1-.34-1.15-.39a.43.43,0,0,0-.13,0l-1.72-.62c-1.14-.43-2.27-.87-3.4-1.33l-.13,0-.18-.07-1.37-.59-.19-.08L775,215c-1-.44-2-.89-3-1.35l-1.64-.79c-1.09-.54-2.17-1.1-3.23-1.67l-.77-.41-.76-.42-.25-.14c-.88-.5-1.75-1-2.62-1.53a3.79,3.79,0,0,0-.34-.2l-.09,0-.17-.1q-.24-.17-.48-.3l-.45-.29-.35-.22c37.92,1.39,68.73-12.81,93.23-33.21l0,0,2.17-1.84h0A203,203,0,0,0,880.91,147c.45-.55.9-1.11,1.33-1.66h0a284.5,284.5,0,0,0,29.46-15.39h0Q917,126.73,921.42,123.55Z"/><path class="cls-2" d="M921.53,120.11h0a174.93,174.93,0,0,1-16.23,10.21c-5.82,3.28-12.18,6.53-18.93,9.72q3.48-4.61,6.67-9.26t6.12-9.27c4.92-7.78,9.26-15.47,13.05-22.77q2.64-5.09,4.93-9.88c.09.28.17.55.25.83s.09.32.14.48,0,.19.08.29c.07.26.15.52.22.78,0,.1.05.2.08.3l.06.22s0,0,0,0a.07.07,0,0,0,0,0s0,0,0,.06v0a2.68,2.68,0,0,1,.07.27l.06.27c0,.05,0,.1,0,.15s0,0,0,.06c.08.29.16.58.23.88,0,0,0,.09,0,.14s0,.06,0,.09a.22.22,0,0,1,0,.08c.09.32.17.64.24,1a.13.13,0,0,1,0,.06,0,0,0,0,1,0,0,0,0,0,0,1,0,0h0v0h0v0a0,0,0,0,1,0,0l.06.25a0,0,0,0,1,0,0,.15.15,0,0,1,0,.09s0,0,0,0a0,0,0,0,1,0,0s0,0,0,0a2.62,2.62,0,0,1,.09.38,1.36,1.36,0,0,1,0,.17.08.08,0,0,1,0,0c0,.16.07.32.1.47s0,.22.07.34c.14.58.26,1.16.37,1.74.16.83.32,1.67.46,2.5a.15.15,0,0,1,0,.07c.14.77.26,1.54.37,2.31,0,.17.06.34.08.51.09.61.17,1.22.24,1.82,0,.12,0,.24,0,.36.11.89.21,1.78.3,2.68a1.49,1.49,0,0,0,0,.21c.07.78.14,1.56.19,2.34s.12,1.7.16,2.55Q921.57,117,921.53,120.11Z"/><path class="cls-3" d="M847.93,68.62c-6.6,1.36-13.18,2.76-19.74,4.32-5.66,1.34-10.46,4.9-15.91,6.81a46.41,46.41,0,0,1-11.22,2.4,57.67,57.67,0,0,1-14.67-.6c-3.37-.56-8.81-.75-10.83-4.08-6.2-10.21,20.2-17.34,25.75-18.59a88.21,88.21,0,0,1,10.21-1.64c8.32-.88,16.77-.83,25.09-1,3.81-.08,7.62-.36,11.43-.35a41.13,41.13,0,0,0-5.8-16.54h0a36.52,36.52,0,0,0-4.13-5.45c-19.39-21.22-59.41-16.21-89.4,11.2a102,102,0,0,0-15.23,17.43h0A86,86,0,0,0,722.2,85.39a67.63,67.63,0,0,0-2.54,11.49,49.24,49.24,0,0,0,2.57,24.48,37.89,37.89,0,0,0,7,11.37l.34.38A39,39,0,0,0,746.87,144h0c.8.25,1.63.49,2.46.7h0c20.63,5.25,47.75-2.83,69.57-22.77.57-.52,1.14-1,1.7-1.59h0a100.36,100.36,0,0,0,15.27-18.5c7-10.88,11.13-22.39,12.25-33.25Zm-68.84,26c.5,2.55-4.88,5.76-12,7.17s-13.33.48-13.84-2.07,4.88-5.76,12-7.17S778.59,92.09,779.09,94.64ZM733.37,69A16.11,16.11,0,0,1,738,67.33c3.93-.77,7.34-.26,7.62,1.14s-2.69,3.17-6.61,4c-3,.59-5.71.43-6.94-.31a1.33,1.33,0,0,1-.68-.84C731.28,70.53,732,69.69,733.37,69Z"/><path class="cls-3" d="M807.1,38.78c-.35-.47-.73-.92-1.13-1.36-11.58-12.68-36.8-8.48-56.34,9.37a70.92,70.92,0,0,0-12.41,14.85h0a59.67,59.67,0,0,0-3.85,7.3A16.11,16.11,0,0,1,738,67.33c3.93-.77,7.34-.26,7.62,1.14s-2.69,3.17-6.61,4c-3,.59-5.71.43-6.94-.31a42.31,42.31,0,0,0-2.56,11.72,28.54,28.54,0,0,0,.85,9.24,21.23,21.23,0,0,0,4.84,9c11.58,12.67,36.8,8.47,56.34-9.38a72.61,72.61,0,0,0,9.49-10.53,57.67,57.67,0,0,1-14.67-.6c-3.37-.56-8.81-.75-10.83-4.08-6.2-10.21,20.2-17.34,25.75-18.59a88.21,88.21,0,0,1,10.21-1.64C812.28,50.18,810.89,43.71,807.1,38.78Zm-28,55.86c.5,2.55-4.88,5.76-12,7.17s-13.33.48-13.84-2.07,4.88-5.76,12-7.17S778.59,92.09,779.09,94.64Z"/><path class="cls-1" d="M993.09,79.67c-4-12.88-32.14-16.53-72.92-11.81A145.67,145.67,0,0,1,924,87.45c8.5,1.52,14.17,4.65,15.77,9.76,6.12,19.55-52.39,49.89-110.54,68.51S705.94,193.58,699.83,174c-1.43-4.58.71-9.75,5.53-15.22-3.4-5.62-5.38-12.6-6.57-19.25-34,19.21-53.44,37.74-49.54,50.22,7.14,22.81,89.9,16.67,184.84-13.74S1000.23,102.49,993.09,79.67Z"/></g></svg>