<?xml version="1.0" encoding="utf-8"?>
<!-- Generator: Adobe Illustrator 24.0.1, SVG Export Plug-In . SVG Version: 6.00 Build 0)  -->
<svg version="1.1" id="Layer_1" xmlns="http://www.w3.org/2000/svg" xmlns:xlink="http://www.w3.org/1999/xlink" x="0px" y="0px"
	 viewBox="0 0 2000 2000" style="enable-background:new 0 0 2000 2000;" xml:space="preserve">
<style type="text/css">
	.st0{fill:#FFFFFF;}
	.st1{fill:none;stroke:#F4EBD7;stroke-width:2.5965;stroke-miterlimit:10;}
	.st2{fill:#F4EBD7;}
	.st3{fill:none;stroke:#102048;stroke-width:5;stroke-miterlimit:10;}
	.st4{clip-path:url(#SVGID_2_);}
	.st5{opacity:0.6;}
	.st6{fill:none;stroke:#1F3C88;stroke-width:2.5;stroke-miterlimit:10;stroke-dasharray:19.9078,19.9078;}
	.st7{fill:#D3DFFF;}
	.st8{fill:#EE6F57;}
	.st9{fill:#FBC343;}
	.st10{fill:#6F3428;}
	.st11{fill:#E28B6D;}
	.st12{fill:#F9B384;}
	.st13{opacity:0.3;fill:#EE6F57;}
	.st14{opacity:0.4;}
	.st15{opacity:0.15;fill:#1F3C88;}
	.st16{fill:#1F3C88;}
	.st17{fill:#27481F;}
	.st18{fill:#49883A;}
	.st19{opacity:0.5;fill:#27481F;}
	.st20{opacity:0.38;fill:#27481F;}
	.st21{opacity:0.2;fill:#27481F;}
	.st22{opacity:0.4;fill:#C89B35;}
	.st23{fill:#B35341;}
	.st24{fill:#708CD5;}
	.st25{fill:#102048;}
	.st26{opacity:0.4;fill:#1F3C88;}
	.st27{fill:#C89B35;}
	.st28{fill:none;stroke:#E28B6D;stroke-width:2.5;stroke-miterlimit:10;}
	.st29{opacity:0.1;fill:#1F3C88;}
	.st30{opacity:0.4;fill:#EE6F57;}
	.st31{fill:#FFFFFF;stroke:#8CBFBE;stroke-width:3.5;stroke-miterlimit:10;}
	.st32{fill:#8CBFBE;}
	.st33{fill:#C6EAE9;}
</style>
<g>
	<rect class="st0" width="2000" height="2000"/>
	<g>
		<g>
			<path class="st1" d="M1467.5,1280.1c12.5-8.8,25.3-16.9,39-23.9c70.2-36.1,135.9-73.1,190.8-129.9
				c64.9-67.3,110.5-158.2,110.5-253.6c0-95.4-51.3-193.1-135.8-232.7c-105.2-49.2-225.5-2.4-339.9,9.4
				c-147.5,15.2-294.2-29.7-439.7-60.7c-145.6-31-303.8-46.8-436,21.5c-106.4,55-184.8,163.7-205.3,284.9
				c-20.5,121.2,17.4,251.9,99.3,342.4c118.1,130.6,303.9,165.7,476.1,174c126.9,6.1,254.2,1.7,380.3-13.2
				c56.9-6.7,110.1-18.3,160.3-46.6C1403.2,1331.4,1434,1303.7,1467.5,1280.1z"/>
			<path class="st2" d="M685.9,1399.8c-88.7-10.5-177.9-31.9-256.2-78.9c-78.3-47-145.2-121.9-171.3-213.6
				c-26.1-91.7-5.5-199.8,61.7-260.9c83.6-76.1,207.4-64,316.2-84c140.3-25.7,263.4-109,389.2-178.6s267.5-128.1,408.2-98.6
				c113.3,23.7,215.4,106.9,267.4,217.8s52.8,247,2,356.4c-73.3,157.8-235.1,242.5-391.8,297.6c-115.5,40.6-234.2,71.2-354.6,91.3
				c-44.3,7.4-89.4,13.4-134,6.4c-44.6-7-89.1-28.6-116.7-67.1L685.9,1399.8z"/>
		</g>
		<line class="st3" x1="0" y1="1576.7" x2="1999.2" y2="1576.7"/>
		<g>
			<g>
				<defs>
					<polygon id="SVGID_1_" points="1058.4,385.4 1058.4,865.5 1058.4,929.7 1133,865.5 1651.8,865.5 1651.8,385.4 					"/>
				</defs>
				<clipPath id="SVGID_2_">
					<use xlink:href="#SVGID_1_"  style="overflow:visible;"/>
				</clipPath>
				<g class="st4">
					<rect x="1058.4" y="385.4" class="st0" width="593.4" height="570.7"/>
					<g>
						<g>
							<g class="st5">
								<path class="st6" d="M1226.8,742.4c-53.6-33.5-75.7-89-75.9-142.5c-0.2-45,19.4-100.6,83.9-90.7
									c43.4,6.6,79.7,33.2,121.3,44.9c33.7,9.5,69.4,6.7,103.5,5c53.4-2.6,111.6,28.4,117.2,64.1c7.6,47.8,0.6,100.7-41.6,128.6
									C1461.6,800.4,1309.8,794.1,1226.8,742.4z"/>
							</g>
						</g>
						<path class="st7" d="M1271.7,797.4c-62.4-9.7-104.5-52.2-125.7-101.4c-17.8-41.4-21.6-100.1,41.6-116.3
							c42.5-10.9,86.3-0.7,129.2-6.3c34.7-4.5,66.5-21,97.2-36c48.1-23.4,103.9-33,133,13c25.8,40.9,20.4,97.1-7.4,139.2
							C1490.8,763.4,1368.4,812.4,1271.7,797.4z"/>
						<g>
							<g>
								
									<ellipse transform="matrix(0.2298 -0.9732 0.9732 0.2298 461.7699 1473.2769)" class="st8" cx="1161.7" cy="444.9" rx="24.8" ry="24.8"/>
								<path class="st0" d="M1167.1,455.5l-5.4-7.3l-5.5,7.3h-5.5l8.2-10.7l-7.9-10.4h5.5l5.2,6.9l5.2-6.9h5.3l-7.9,10.3l8.3,10.8
									H1167.1z"/>
							</g>
							<g>
								<g>
									
										<ellipse transform="matrix(0.2468 -0.9691 0.9691 0.2468 491.922 1522.7283)" class="st9" cx="1225.6" cy="444.9" rx="24.8" ry="24.8"/>
								</g>
								<g>
									<rect x="1215.6" y="442.2" class="st0" width="20" height="5.4"/>
								</g>
							</g>
						</g>
						<g>
							<path class="st10" d="M1452,735.7c-62.1,35.5-92.2,25.8-102,20.3c-9.7,5.5-39.9,15.3-101.9-20.3
								c-59.5-34.1-24.8-107.4-1.4-151.9c12.7-24.2,22.5-49.8,44.8-67.2c21-16.4,44.5-21.5,72.1-20.1c37.9,1.9,61.4,24.5,73.1,51.5
								c9.3,21.5,20.7,41.7,30.8,62.8c9.5,19.8,17.1,41.3,17.8,63.2C1486.2,699.5,1475.2,722.4,1452,735.7z"/>
							<path class="st8" d="M1466.8,731.4c-38-42.8-108-33.8-115.5-32.8c-7.4-1.1-77.5-10-115.5,32.8
								c-28.6,32.2-28.3,160.7-28.3,160.7c0-3.2,133.2-4.1,143.7-4.2c10.6,0.1,143.7,1,143.7,4.2
								C1495.1,892.1,1495.5,763.6,1466.8,731.4z"/>
							<g>
								<path class="st11" d="M1292.4,602.4c-14.9,1.5-27.3,37.9,13,38.6l9.6-11.4L1292.4,602.4z"/>
								<path class="st11" d="M1410.7,602.4c16.8,0.9,28.8,37.9-11.6,38.6l-9.6-11.4L1410.7,602.4z"/>
							</g>
							<path class="st12" d="M1351.4,732.6L1351.4,732.6c-18.6,0-33.6-15-33.6-33.6v-42.4h67.2v42.4
								C1385,717.6,1369.9,732.6,1351.4,732.6z"/>
							<path class="st11" d="M1384.8,665.7c-22.1,36-44.5,35.4-67.3,1.2L1384.8,665.7z"/>
							<path class="st12" d="M1416.2,575.4c-0.3,3.3-0.7,6.5-1.1,9.7c-7,53.3-25.2,94.9-64.7,94.9c-40.6,0-54.7-40-62.1-95.7
								c-0.6-4.5-1.2-9.2-1.7-14l79.8-31.9L1416.2,575.4z"/>
							<path class="st10" d="M1280.1,601.1c20.3,6.9,59.1-16.1,59.1-16.1c-3-8.7,1.2-17.3,9.7-25.8c-0.5,8.6,1.5,22.2,9.2,27.2
								c0,0,5.2,1.2,13.3-0.5c-2-9.9-0.5-18.5,5.5-25.5c0,0,9.1,24.8,13.6,30.4c5.7,7.1,26.1,17.8,44.4,8.8l-34-77l-90.1-1.9
								l-40.7,37.8L1280.1,601.1z"/>
							<ellipse class="st10" cx="1328.2" cy="603.3" rx="5.4" ry="7.3"/>
							<ellipse class="st10" cx="1373.3" cy="603.3" rx="5.4" ry="7.3"/>
							<path class="st11" d="M1357.8,623.1c0,7.1,0.6,12.7-5.4,12.9c-5.6,0.2-5.4-5.8-5.4-12.9c0-7.1,2.4-12.9,5.4-12.9
								C1355.4,610.2,1357.8,616,1357.8,623.1z"/>
							<path class="st0" d="M1335.9,648l33.9-0.9C1369.8,647.1,1355.6,674.2,1335.9,648z"/>
							<circle class="st13" cx="1384.7" cy="628.8" r="14.4"/>
							
								<ellipse transform="matrix(0.1595 -0.9872 0.9872 0.1595 489.8315 1835.7996)" class="st13" cx="1323" cy="630.2" rx="14.4" ry="14.4"/>
							<g class="st14">
								<path class="st10" d="M1311.7,732.4c2.4,2.8,5.4,5,8.8,6.7c3.3,1.7,6.8,3.1,10.4,4.1c7.2,2,14.8,2.9,22.2,2.6
									c7.4-0.3,14.9-1.9,21.6-5c6.7-3.1,12.6-7.9,17.3-13.9l1.5,1c-1.9,3.5-4.4,6.6-7.3,9.4c-2.9,2.8-6.2,5.1-9.8,7
									c-7.1,3.8-15.2,5.6-23.2,5.9c-8,0.3-16-0.8-23.5-3.4c-3.8-1.3-7.4-3-10.8-5.1c-3.3-2.2-6.5-4.9-8.7-8.3L1311.7,732.4z"/>
							</g>
							<g class="st14">
								<path class="st10" d="M1273.7,787c0.3,7.6,0.3,15.2,0.3,22.8c0,7.6-0.2,15.2-0.4,22.8c-0.2,7.6-0.5,15.2-1,22.8l-0.8,11.4
									c-0.4,3.8-0.6,7.6-1.1,11.4l-1.8-0.1c-0.2-3.8-0.2-7.6-0.3-11.4l0-11.4c0-7.6,0.2-15.2,0.5-22.8c0.3-7.6,0.6-15.2,1.1-22.8
									c0.5-7.6,1-15.2,1.8-22.8L1273.7,787z"/>
							</g>
							<g class="st14">
								<path class="st10" d="M1432.4,783.2c1.3,7.6,2.3,15.2,3.2,22.9c1,7.6,1.8,15.3,2.6,23c0.8,7.7,1.4,15.3,2,23l0.7,11.5
									c0.1,3.9,0.4,7.7,0.4,11.6l-1.7,0.2c-0.7-3.8-1.2-7.6-1.8-11.4l-1.5-11.5c-1-7.6-1.8-15.3-2.5-23c-0.7-7.7-1.4-15.3-1.9-23
									c-0.5-7.7-1-15.4-1.2-23.1L1432.4,783.2z"/>
							</g>
						</g>
					</g>
				</g>
				<use xlink:href="#SVGID_1_"  style="overflow:visible;fill:none;stroke:#708CD5;stroke-width:3.5;stroke-miterlimit:10;"/>
			</g>
		</g>
		<g>
			<ellipse class="st15" cx="243.3" cy="1669.3" rx="95" ry="18.1"/>
			<g>
				<g>
					<path class="st16" d="M199.8,1634.1c-20.6,0-43.4-30.1-43.4-50.5c0-20.7,16.5-37.6,36.8-37.6c20.3,0,36.8,16.9,36.8,37.6
						C230,1603.2,221.8,1634.1,199.8,1634.1z M193.2,1558.6c-13.4,0-24.3,11.3-24.3,25.1c0,15.3,18.5,38,30.9,38
						c11.4,0,17.7-22.5,17.7-38C217.5,1569.8,206.6,1558.6,193.2,1558.6z"/>
				</g>
				<path class="st16" d="M270.8,1666.7h-54.1c-9,0-16.5-6.9-17.2-15.8L188.3,1516h113.1L288,1651.1
					C287.1,1659.9,279.7,1666.7,270.8,1666.7z"/>
				<path class="st7" d="M201.5,1354.4c-3.8,12.7-5.5,25.7-3.3,38.3c1.1,6.3,2.9,12.4,5.3,18.2c2.5,5.8,5.7,11.4,9.3,16.8
					c3.7,5.3,7.7,10.4,12.1,15.2c1.1,1.1,2.2,2.6,3.4,4c1.1,1.4,2.3,2.7,3.4,4.2l3,4.6c1,1.5,1.7,3.4,2.5,5c0.9,1.6,1.3,3.6,1.8,5.4
					c0.6,1.8,0.7,3.8,1,5.7c0.1,1,0.1,1.9,0,2.9l-0.2,2.9c-0.1,1-0.4,1.9-0.6,2.8c-0.2,0.9-0.4,1.9-0.8,2.8l-1.1,2.7
					c-0.4,0.8-0.9,1.6-1.4,2.5c-0.4,0.8-1,1.6-1.6,2.3c-0.6,0.7-1.1,1.5-1.7,2.2c-2.5,2.8-5.2,5-8.5,6.8l-2.1-3.3
					c4.6-4.1,8.4-9.6,9.7-15.2c0.3-0.7,0.3-1.4,0.4-2.1c0.1-0.7,0.2-1.4,0.2-2.1l-0.1-2.1c0-0.7,0-1.4-0.2-2.1
					c-0.3-1.4-0.4-2.8-1.1-4.2c-0.5-1.4-0.9-2.8-1.7-4.1c-0.8-1.3-1.3-2.7-2.3-3.9l-2.7-3.8c-1-1.2-2.1-2.3-3.1-3.5l-3.3-3.6
					c-2.4-2.5-4.7-5.1-6.9-7.8c-2.3-2.6-4.3-5.5-6.3-8.4c-3.8-5.9-7.4-12.1-9.9-18.7c-2.5-6.7-4.3-13.7-4.9-20.8
					c-1.5-14.3,1.9-28.6,8.2-40.8L201.5,1354.4z"/>
				<path class="st7" d="M250.6,1350.5c7,5.7,12.7,13.7,15.4,22.9c1.4,4.6,2,9.4,2,14.1c0.1,4.8-0.7,9.4-1.6,14
					c-1.1,4.5-2.6,8.9-4.4,13.1l-1.2,2.9c-0.3,0.9-0.8,1.8-1.1,2.7l-0.8,2.7c-0.3,0.9-0.3,1.8-0.5,2.7c-0.2,0.9-0.1,1.8-0.2,2.6
					c-0.1,0.9,0.1,1.7,0.2,2.5c0,0.9,0.4,1.6,0.6,2.4c0.4,0.7,0.6,1.6,1.2,2.3c1.7,2.9,5.1,5.5,8.6,7l-0.8,3.8
					c-5-0.5-9.6-2.6-13.3-6.5c-0.9-0.9-1.6-2.1-2.4-3.2c-0.5-1.2-1.3-2.4-1.6-3.7c-0.4-1.3-0.8-2.6-0.8-3.9
					c-0.1-1.3-0.3-2.6-0.2-3.9c0.1-1.3,0-2.6,0.3-3.8l0.7-3.6c0.3-1.2,0.7-2.3,1.1-3.5c0.4-1.2,0.8-2.3,1.1-3.2
					c1.6-3.9,2.7-7.8,3.7-11.8c0.9-4,1.5-7.9,1.8-11.9c0.2-4-0.1-7.9-0.8-11.9c-1.4-7.9-5.1-15.3-9.9-22.3L250.6,1350.5z"/>
			</g>
		</g>
		<g>
			<ellipse class="st15" cx="1686.5" cy="1668.1" rx="190" ry="28.1"/>
			<rect x="1671.9" y="1210" class="st17" width="26.7" height="260.8"/>
			<path class="st18" d="M1691.9,1192.5c-0.3,18.9-2.1,34.8-3.6,45.1c-1.1,7.9-2.1,12.4-2.1,12.4c-72.8-23.6-106.2-68.8-120.1-114.3
				c-1.3-4.1-2.4-8.3-3.3-12.5c-14.7-63.3,5-123.7,5-123.7c33.4,7,58,21.5,76.2,40.2c3.1,3.2,6,6.5,8.8,9.9
				C1686.3,1091.8,1692.7,1149.7,1691.9,1192.5z"/>
			<path class="st18" d="M1786.3,1066.4c-1.4,50.7-21.1,109.6-82.2,166.3c-4.7,4.3-9.6,8.7-14.8,13c-0.6,0.5-1.1,0.9-1.7,1.4
				c0,0-10.1-14.8-20.6-39c-0.1-0.4-0.3-0.7-0.4-1c-3.6-8.5-7.3-18.2-10.6-28.8c-2.7-8.6-5.1-17.8-7-27.5
				c-7.3-37.3-7.4-81.5,12.9-125.2c15.3-33,42.1-65.6,85.9-94.9C1747.8,930.6,1788.5,988.7,1786.3,1066.4z"/>
			<path class="st19" d="M1704,1232.7c-4.7,4.3-9.6,8.7-14.8,13c-0.6,0.5-1.1,0.9-1.7,1.4c0,0-10.1-14.8-20.6-39
				c-0.1-0.3-0.3-0.7-0.4-1c0,0,0,0,0,0c-0.9-2.1-1.8-4.2-2.6-6.4c-0.3-0.8-0.7-1.7-1-2.6c-0.6-1.5-1.1-2.9-1.7-4.4
				c-0.4-1.2-0.9-2.4-1.3-3.7c-0.5-1.3-0.9-2.5-1.4-3.9c-0.9-2.6-1.7-5.2-2.5-7.9c-2.7-8.6-5.1-17.8-7-27.5
				c-6-30.4-7.1-65.4,3.7-101.1c-2.7-3.4-5.6-6.7-8.8-9.9c-7,18.5-18.4,60.9-19.7,99.1c-16.8-6.6-37.1-12-61.4-15.7
				c0.9,4.2,2,8.3,3.3,12.5c-10.4-2.5-21.6-4.6-33.7-6.4c9.6,32.7,48,136.7,148.2,138.2c2.5,0.1,5.1,0,7.7-0.1
				c4.1-0.1,8.4-0.5,12.7-0.9C1701,1266.4,1705.5,1252.2,1704,1232.7z"/>
			<path class="st18" d="M1689,1261.9c0,0.1,0,0.2,0,0.3c-0.1,0.6-0.1,1.2-0.2,1.8c0,0.3-0.1,0.6-0.1,0.8c-0.1,0.5-0.1,0.9-0.2,1.4
				c-0.2,1.4-0.4,2.7-0.6,3.9c-0.1,0.8-0.3,1.6-0.4,2.3c-1.3,6.7-2.8,10.7-2.8,10.7c-7.1,0.5-13.9,0.4-20.5,0
				c-118.6-7.9-143-155.4-143-155.4c3.8,0.5,7.5,1,11.2,1.6c12.1,1.8,23.3,4,33.7,6.4c42.9,10.2,71.3,25.6,89.8,42.6
				c5.6,5.1,10.3,10.4,14.2,15.7c11,14.8,16.1,30,18.1,43.6c0.4,2.8,0.7,5.5,0.9,8.2C1689.6,1251.6,1689.4,1257.1,1689,1261.9z"/>
			<path class="st20" d="M1786.3,1066.4c-0.7,25.3-6,52.7-18.8,80.9c-12.7,28.2-32.9,57.1-63.5,85.4c-0.1,0.1-0.3,0.2-0.4,0.3
				c-1.8,1.7-3.7,3.3-5.5,5c-0.6,0.5-1.1,1-1.7,1.5c-2.3,2-4.7,4.1-7.2,6.2c-0.2-2.7-0.5-5.4-0.9-8.2c-2-13.6-7.1-28.8-18.1-43.6
				c-3.9-5.3-8.6-10.6-14.2-15.7c-2.7-8.6-5.1-17.8-7-27.5c6.8,3.9,12.8,8.1,18,12.5c3.7,3.1,7,6.2,10.1,9.4
				C1692.7,1131.7,1724.2,1089.8,1786.3,1066.4z"/>
			<path class="st21" d="M1689,1261.9c0,0.1,0,0.2,0,0.3c-0.1,0.6-0.1,1.2-0.2,1.8c0,0.3-0.1,0.6-0.1,0.8c-0.1,0.5-0.1,0.9-0.2,1.4
				c-0.2,1.4-0.4,2.7-0.6,3.9c-0.2,0.8-0.3,1.6-0.4,2.3c-1.3,6.7-2.8,10.7-2.8,10.7c-7.1,0.5-13.9,0.4-20.5,0
				c-1.1-8.2-4.3-38.6,2.8-75c0.9-4.6,2-9.3,3.2-14.1c11,14.8,16.1,30,18.1,43.6c0.4,2.8,0.7,5.5,0.9,8.2
				C1689.6,1251.6,1689.4,1257.1,1689,1261.9z"/>
			<path class="st9" d="M1803.1,1437.5l-29.3,191.9c-3.3,21.4-21.7,37.2-43.3,37.2h-88.1c-19.2,0-35.8-12.4-41.6-30.1
				c-0.8-2.3-1.3-4.7-1.7-7.1l-29.3-191.9H1803.1z"/>
			<path class="st18" d="M1681.6,1283.3c0,0-32.1-190.6,172.2-218C1853.8,1065.3,1866.6,1274.1,1681.6,1283.3z"/>
			<path class="st22" d="M1803.1,1437.5l-29.3,191.9c-3.3,21.4-21.7,37.2-43.3,37.2h-88.1c-19.2,0-35.8-12.4-41.6-30.1
				c114.3-18.3,145-136,151.2-199H1803.1z"/>
		</g>
		<g>
			<path class="st15" d="M1378.3,1670.4c0-23.4-208.9-42.5-466.5-42.5s-466.5,19-466.5,42.5c0,19,137.4,35.1,326.8,40.5
				c20.6,33.8-13.8,74.3-40.2,88.9c-46.3,2.3-79.6,7.5-74.4,18.5c24.8,52,235.2-3.3,235.2-3.3s82.3,5.1,82.3-2.7
				c0-3.6-14.5-6.9-38.3-9.4l1.8-0.1l-88.8-90.3c20.3,0.2,41.1,0.4,62.2,0.4C1169.4,1712.9,1378.3,1693.9,1378.3,1670.4z"/>
			<path class="st8" d="M1419.5,1358.6c-6.2,101.5-57.3,202.9-141.2,258.7c-99.9,66.5-239.7,51.8-353.5,60.3
				c-98.4,7.3-197.6,13.6-296,3.2c-80.6-8.6-162-40.5-200.5-118.8c-38.6-78.5-42.8-182.8-4.2-262.2c12.3-25.4,28.8-47.9,48.1-67.5
				c3.2-3.2,6.4-6.4,9.7-9.5c2.3-2.1,4.5-4.1,6.9-6.1c3.6-3.1,7.2-6.1,10.9-9c1.2-1,2.5-1.9,3.7-2.8c1.2-0.9,2.5-1.9,3.7-2.8
				s2.5-1.8,3.8-2.7c1-0.7,1.9-1.4,2.8-2c1.6-1.1,3.2-2.2,4.8-3.3c14.4-9.7,29.5-18.2,45.1-25.5c15.2-7.2,30.9-13.2,46.6-18.1
				c51.8-16.1,105.8-21.8,159.3-28.8c113.4-14.9,228.8-19.9,343.1-19.9c93.3,0,198.3,14,260.6,94
				C1408.5,1240.7,1423,1300.8,1419.5,1358.6z"/>
			<path class="st12" d="M1227.5,1187.2c0,0,24.1-22.6,36.8-35.7c12.7-13.1-15.1-13.5-28.8,2.8
				C1221.8,1170.6,1227.5,1187.2,1227.5,1187.2z"/>
			<path class="st23" d="M563.8,1168.3c-15.6,7.3-30.8,15.8-45.1,25.5c-1.6,1.1-3.2,2.2-4.8,3.3c-0.9,0.7-1.9,1.3-2.8,2
				c-1.3,0.9-2.5,1.8-3.8,2.7s-2.5,1.9-3.7,2.8c-1.3,0.9-2.5,1.9-3.7,2.8c-3.6,2.9-7.2,5.9-10.7,8.9l-0.2,0.1
				c-2.3,2-4.6,4.1-6.9,6.1c-3.3,3.1-6.6,6.2-9.7,9.5c0.3,2.7,2,5.2,4.8,5.8c18.8,3.8,28.2,21.7,43.3,31.9
				c11.2,7.6,24.5,9.6,37.2,5.3c-13.7,29-21.2,57.7-15.3,90.1c1.8,9.8,4.9,19.3,9.2,28.4c-17.6-13.1-34.5-41-41.5-69.4
				c-1-4-5.1-6.5-9.1-5.5c-4,1-6.5,5-5.5,9.1c8.6,35.1,30.6,68.8,53.4,82c5.4,3.1,10.9,5.1,16.4,6.1c4.5,5.8,9.6,11.2,15.1,16
				l33.7,9.4l27.5-177.5L563.8,1168.3z"/>
			<path class="st24" d="M661.5,1287.5c-69.7-27.1-118.1-56-146.1-75.2c-18.2-12.5-27.4-34.4-23.7-56.2l35.9-209.4
				c3.7-21.6,18-39.9,38.1-48.5c57.6-24.7,113.8-38.8,163.3-45.7c0,0,27.7-2.2,63.1,1.3c23.3,2.3,76.6,18,110.5,28.5
				c19.1,5.9,34.5,20.3,41.8,39c14.2,36.6,37.3,98.5,44.6,131.9c25.4,115.4,21.3,106.9,21.3,106.9l26.3,177.5l-278.8,15.6
				l-71.3-32.5L661.5,1287.5z"/>
			<path class="st25" d="M834,653.1c0,0-24.7-50.6-90.3-27.5c-47.5-10.3-83.8,45.9-48.8,122.5l65.9,15.3L834,653.1z"/>
			<path class="st12" d="M799,796.3v89.5c0,21-17,38-37.9,38c-28.4,0-51.4-23-51.4-51.4v-76.1H799z"/>
			<path class="st11" d="M799,833.4v48.8c-39.8,0.2-66.3-51.3-66.3-51.3L799,833.4z"/>
			<path class="st12" d="M838.4,785c-2.4,12.4-5.8,25.1-10.8,36.3c-8.6,19.6-21.7,34.6-41.8,35c-46.9,1-83.1-63.1-83.1-63.1
				l7.5-87.5l35.6-40l98.1,60.6C844,726.3,844.2,754.7,838.4,785z"/>
			<path class="st25" d="M708.6,767.5c0,0,9.7-39.4,43.4-65c0,0,49.1,64.1,100.9,33.1s29.4-91.9-19.1-82.5l-55.6-6.3l-69.7,22.2
				l-11.9,54.7L708.6,767.5z"/>
			<path class="st26" d="M757.9,1221.3c-47.3-102.1-106.9-53.4-121.4-90.9c-20.4-52.5-16.6-112-16.7-130l-28.5,160.3
				c0,0,63.6,6,87.1,44.3L757.9,1221.3z"/>
			<path class="st16" d="M621.2,997.7c-1.8,13.7-3.9,27.4-6,41c-2.1,13.7-4.6,27.2-6.8,40.9c-2.4,13.6-4.9,27.2-7.5,40.8l-4.1,20.3
				c-1.5,6.8-2.8,13.5-4.4,20.3l-2.1-0.4c0.8-6.9,1.9-13.7,2.8-20.5l3.1-20.5c2.1-13.6,4.5-27.3,6.9-40.9
				c2.5-13.6,4.9-27.2,7.6-40.7c2.7-13.6,5.4-27.1,8.4-40.6L621.2,997.7z"/>
			<path class="st16" d="M897.4,972.3c3.8,17.8,7.3,35.7,10.7,53.6c3.5,17.9,6.6,35.8,9.9,53.7c3.2,17.9,6.3,35.9,9.3,53.8l4.4,27
				c1.3,9,2.8,18,4,27l-1.9,0.3c-1.9-8.9-3.7-17.8-5.5-26.7l-5.2-26.8c-3.4-17.9-6.7-35.8-9.9-53.7c-3.1-17.9-6.3-35.8-9.2-53.8
				c-3-18-5.9-35.9-8.5-53.9L897.4,972.3z"/>
			<path class="st26" d="M910.6,1055c3.3,32.5-1.7,200.8-80,203.3l0.8,36.7l123.3-7.5L910.6,1055z"/>
			<path class="st11" d="M749.6,1253.8c55.6-23.8,66.3-22.9,73.8-22.5c25.6,1.3,62.5,52.5,62.5,52.5l-0.6,9.4H744.6L749.6,1253.8z"
				/>
			<rect x="790.4" y="1284" class="st0" width="173.1" height="26.3"/>
			<polygon class="st9" points="1199,1310.2 898.1,1310.2 965.6,1041.4 1266.5,1041.4 			"/>
			<path class="st27" d="M1226.2,1200.3c-29.8-4.4-126-24.4-324.3,96.4l-4.6,16.7l301.7-3.1L1226.2,1200.3z"/>
			<g>
				<path class="st12" d="M1231.9,1260c-1.9,12.7-2.5,31.3-41.7,28.9l-11.6-5.9l10.9-12l23.6-12L1231.9,1260z"/>
				<path class="st12" d="M1235.6,1225.8c0,0,21.5,28-0.1,36.7c-23.4,9.4-45.9,8.4-45.9,8.4c10-28.1,42.5-26.3,42.5-26.3
					L1235.6,1225.8z"/>
				<path class="st12" d="M1236.3,1207.7c0,0,29.6,27.5,2.1,35.2c-38.8,10.9-50.8,11.7-50.8,11.7c-2.1-20.6,36.5-34,36.5-34
					L1236.3,1207.7z"/>
				<path class="st12" d="M1230.2,1183.8c0,0,40.4,24.6,2.5,38.3s-46.9,13.5-46.9,13.5c-2.1-20.6,38.5-27.7,38.5-27.7L1230.2,1183.8
					z"/>
				<path class="st28" d="M1185.8,1235.6c0,0,44.1-6.3,57.2-16.9"/>
				<path class="st28" d="M1187.5,1254.6c0,0,45.8-6.5,60.2-16.5"/>
				<path class="st28" d="M1189.6,1270.9c0,0,27.2,0.9,42.5-6.6"/>
			</g>
			<path class="st25" d="M762.7,1665c4.6-2.5,77.1,13.3,157.5-46.3l-103.8-29.6L762.7,1665z"/>
			<path class="st23" d="M1223.4,1320.9c3.5-4.9,6.4-12.2,2.1-16.3c-4.5-4.4-11.9-0.5-16.7,3.6c-8.4,7.2-16,15.1-23,23.5
				l-175.2,32.6l-240,58.3l41.3,52.7c120,8.8,188.3,11,263.4-2.3c38.3-6.8,72.5-13.7,98-34.5c6.1-5,11.8-13.3,7.9-20.1
				c-2.7-4.6-8.2-5.8-13.8-5.7c12.8-3,25.3-7.4,37.1-13.2c5.3-2.6,11.2-6.5,11-12.4c-0.1-4.2-3.5-7.8-7.4-9.3s-8.2-1.4-12.4-1.1
				c-16,1.2-31.8,4.7-46.8,10.3C1176.3,1367.9,1204.1,1348.1,1223.4,1320.9z M1148.6,1387.2c0,0,0-0.1,0.1-0.1c0.1,0,0.2,0,0.3-0.1
				C1148.8,1387.1,1148.7,1387.2,1148.6,1387.2z"/>
			<path class="st25" d="M821.5,1343.8c0,0,233.8-111.3,310-106.3s73.8,100,45,141.3s-96.3,96.3-345,80L821.5,1343.8z"/>
			<path class="st7" d="M938.4,1802.8c-12.7,3.6-30.6,4.4-55.3,0.5c0,0-32,8.3-63.5,14.8c-21.3,4.4-42.4,8-53.2,7.7
				c-0.9,0-1.8-0.1-2.8-0.2c-20.7-1.5-46.7-12.2-60.6-27.7c0,0,0-0.1-0.1-0.1c-3.8-4.3-6.7-8.9-8.2-13.7
				c-7.5-23.4,8.3-51.7,94.2-45.9c0,0,28.3-6.6,35-27.5c6.7-20.8-42.5-120.8-42.5-120.8l70-47.5l68.8,76.3c0,0,10.4,68.8,10.4,91.3
				c0,0,29.2,41.7,33.3,60C966.6,1781.7,960.8,1796.5,938.4,1802.8z"/>
			<path class="st16" d="M544.9,1169.6c8-3.1,16.2-5.6,24.4-7.9c4.1-1.1,8.3-2.2,12.5-3c2.1-0.4,4.3-0.8,6.4-1.1
				c1.1-0.1,2.2-0.3,3.3-0.3c1.2-0.1,2.4,0,3.5,0.1c9,0.9,17.1,3.8,25.2,6.8c8,3.1,15.9,6.5,23.7,10.2c7.8,3.7,15.3,7.8,22.7,12
				c7.4,4.3,14.7,8.8,21.8,13.6c14.1,9.7,27.7,20.4,39.3,33l-1.5,1.5c-6.3-5.7-12.8-11.1-19.6-16.1c-6.8-5.1-13.7-9.9-20.9-14.4
				c-14.2-9.3-29.1-17.4-44.2-24.9c-7.6-3.8-15.3-7.2-23.1-10.3c-7.8-2.9-15.9-6.1-23.8-7.1c-1-0.1-1.9-0.2-2.9-0.2
				c-1,0-2,0.1-3.1,0.2c-2.1,0.2-4.1,0.5-6.2,0.9c-4.1,0.7-8.3,1.6-12.4,2.5c-8.3,1.9-16.5,4.1-24.6,6.6L544.9,1169.6z"/>
			<path class="st23" d="M586.5,1496.9c28.1-1.9,55.8,0.1,75.8-6.9c21.5-7.5,77.5-2.5,77.5-2.5l-30.8-44.4l-125,31.3L586.5,1496.9z"
				/>
			<path class="st16" d="M587.7,1415c-28.8-46.3-28.8-137.5,7.5-178.8c41.4-47.1,130-65,176.3-10s131.3,256.3,148.8,392.5
				c0,0-93.8-31.3-157.5,46.3c0,0-83.8-191.3-101.3-261.3l-47.5,37.5L587.7,1415z"/>
			<path class="st7" d="M661.5,1403.8c0,0-12.5-4.6-30,7.1c0,0-136.7-2.9-167.1,27.9c-30.4,30.8-7.1,72.1,37.5,76.7
				c37.4,3.8,110.1-25.2,132.4-34.6c4.5-1.9,9.4-3.1,14.3-3.4l37-2.4L661.5,1403.8z"/>
			<path class="st12" d="M716,770c0,0-9.2-30.4-29.3-22.8c-20.2,7.6-9.4,47.1,30.4,58.1L716,770z"/>
			<path class="st16" d="M694.6,937.6c10,7,20.6,13.1,31.8,17.3c11.2,4.2,23.1,6.9,35,6.6c11.9-0.1,23.6-3.1,34.2-8.5l4-2
				c1.3-0.7,2.5-1.6,3.8-2.4c2.5-1.7,5.1-3.2,7.3-5.3l3.5-2.8l1.8-1.4c0.6-0.5,1.1-1.1,1.6-1.6c2.1-2.1,4.3-4.3,6.5-6.4l1.5,1.3
				c-2,2.4-4,4.7-6,7.1c-0.5,0.6-1,1.2-1.5,1.7l-1.7,1.6l-3.4,3.2c-2.2,2.2-4.8,4-7.3,5.8c-1.3,0.9-2.5,1.9-3.8,2.7l-4.1,2.3
				c-11,6.2-23.6,9.5-36.2,9.6c-12.6,0-25.2-2.7-36.6-7.6c-11.5-4.9-22.1-11.6-31.4-19.7L694.6,937.6z"/>
			<path class="st25" d="M640.7,1323.9l10.8,37.9c3.7,12.6,7.1,25.3,11,37.8c3.8,12.6,7.5,25.1,11.5,37.6c2,6.2,3.9,12.5,6.1,18.7
				c1.1,3.1,2,6.2,3.1,9.3c1.1,3.1,2.2,6.2,3.3,9.3l-1.8,0.8c-2.8-6-5.4-12-7.9-18.2c-2.5-6.1-4.7-12.3-7-18.5
				c-4.4-12.4-8.4-25-12.1-37.6c-3.6-12.7-7.2-25.3-10.3-38.1c-3.2-12.8-6.2-25.6-8.7-38.5L640.7,1323.9z"/>
			<path class="st29" d="M938.4,1802.8c-12.7,3.6-30.6,4.4-55.3,0.5c0,0-52.9,13.6-86.4,18.9c34.4-6.9,84.4-49.4,78.8-76.3
				C924.9,1762.2,938.3,1786.9,938.4,1802.8z"/>
			<path class="st26" d="M805.5,1807.5c-6.4,7.8-15.9,13.2-25.8,15.8c-5.2,1.4-10.6,2.2-16,2.3c-20.7-1.5-46.7-12.2-60.6-27.7
				c0,0,0-0.1-0.1-0.1c-1.5-2-2.9-4.1-4.1-6.2c7.4,6.8,15.4,12.4,24,16.7c4.3,2,8.7,4,13.3,5.4c2.2,0.9,4.5,1.4,6.8,2
				c2.3,0.7,4.6,1,7,1.4C768.7,1820.3,788.6,1818.4,805.5,1807.5z"/>
			<path class="st11" d="M707,774.4c-0.5-2.7-1.7-5.3-3.3-7.6c-1.5-2.3-3.4-4.4-5.5-5.9c-2.1-1.5-4.4-2.2-6.4-1.2
				c-2,1-3.7,3.5-5.1,6l-1.4-0.5c0.6-3,1.7-6.2,4.8-8.4c1.5-1.1,3.6-1.4,5.4-1.1c1.8,0.3,3.4,1.1,4.8,2.1c2.7,2,4.7,4.6,6.1,7.4
				c1.4,2.8,2.4,6,2,9.2L707,774.4z"/>
			<path class="st25" d="M825.9,773.6c-0.9,4.3-4.1,7.3-7.3,6.7c-3.1-0.6-5-4.7-4.1-9c0.9-4.3,4.1-7.3,7.3-6.7
				C825,765.3,826.8,769.3,825.9,773.6z"/>
			
				<ellipse transform="matrix(0.1609 -0.987 0.987 0.1609 -113.3881 1408.1874)" class="st25" cx="771.5" cy="770.8" rx="8" ry="5.8"/>
			<path class="st11" d="M797.9,777.6c0.3,3.5,0.4,7.1,0.5,10.5c0.1,1.3,0.8,2.5,1.9,3.7c1.1,1.2,2.4,2.4,3.6,4.2
				c0.6,0.9,1.1,2,1.3,3c0.2,1.1,0.3,2.1,0.2,3.2c-0.2,2.1-0.9,4.1-2.3,5.8c-0.7,0.8-1.6,1.5-2.6,2.1c-1,0.4-2.1,0.7-3.2,0.7
				c-2.1-0.1-4-0.9-5.5-2l0.7-1.3c1.6,0.5,3.2,0.9,4.7,0.7c1.4-0.2,2.5-1,3.3-2.1c1.5-2.3,1.8-5.8,0.3-8c-0.8-1.2-2-2.4-3.3-3.9
				c-1.2-1.4-2.4-3.6-2.3-5.9c0.3-3.6,0.7-7.2,1.3-10.7L797.9,777.6z"/>
			<path class="st25" d="M757.6,756.6c2-2,4.4-3.6,7-4.8c2.6-1.2,5.7-1.8,8.7-1.7c3,0.2,6,1.3,8.4,3.1c2.4,1.8,4.3,4,5.6,6.5
				l-1.2,0.9c-2.1-1.8-4.1-3.4-6.2-4.6c-2.2-1.2-4.5-2-6.9-2.1c-4.8-0.4-9.8,1.6-14.6,3.9L757.6,756.6z"/>
			<path class="st25" d="M808.5,760.9c0.8-2.7,3-4.8,5.5-6c2.5-1.3,5.2-1.8,8-1.8c2.7,0.1,5.5,0.8,7.9,2.2c2.4,1.4,4.4,3.5,5.4,6
				l-1.2,0.8c-3.4-3.4-7.7-5.1-12.2-5.2c-4.4-0.1-9.1,1.1-12,4.7L808.5,760.9z"/>
			<path class="st0" d="M774.3,819.6l33.2,2.4C807.5,822,789,846.5,774.3,819.6z"/>
			<path class="st30" d="M838.4,785c-2.4,12.4-5.8,25.1-10.8,36.3c-6.5-3.1-11-9.7-11-17.3c0-10.6,8.6-19.1,19.2-19.1
				C836.7,784.8,837.5,784.8,838.4,785z"/>
			
				<ellipse transform="matrix(0.922 -0.3872 0.3872 0.922 -250.7845 354.2986)" class="st30" cx="754" cy="799.6" rx="19.2" ry="19.2"/>
		</g>
		<g>
			<path class="st31" d="M484.4,761.7c21-23.3,33.8-54.1,33.8-87.9c0-72.5-58.8-131.3-131.3-131.3c-72.5,0-131.3,58.8-131.3,131.3
				c0,72.5,58.8,131.3,131.3,131.3c16.8,0,32.8-3.2,47.6-8.9l70.5,28.8L484.4,761.7z"/>
			<g>
				<circle class="st32" cx="328.3" cy="676.9" r="14"/>
				<circle class="st32" cx="387" cy="676.9" r="14"/>
				<circle class="st32" cx="445.6" cy="676.9" r="14"/>
			</g>
		</g>
		<g>
			<path class="st31" d="M820,303.5H561.8c-14.6,0-26.6,12-26.6,26.6v110.8c0,14.6,12,26.6,26.6,26.6h23.8l38.7,58.2l11.5-58.2H820
				c14.6,0,26.6-12,26.6-26.6V330.1C846.6,315.5,834.6,303.5,820,303.5z"/>
			<g>
				<rect x="580.3" y="343.8" class="st32" width="221.1" height="12.7"/>
				<rect x="580.3" y="377.3" class="st33" width="221.1" height="12.7"/>
				<rect x="580.3" y="410.8" class="st33" width="221.1" height="12.7"/>
			</g>
		</g>
	</g>
</g>
</svg>
