<?xml version="1.0" encoding="utf-8"?>
<!-- Generator: Adobe Illustrator 24.0.1, SVG Export Plug-In . SVG Version: 6.00 Build 0)  -->
<svg version="1.1" id="Layer_1" xmlns="http://www.w3.org/2000/svg" xmlns:xlink="http://www.w3.org/1999/xlink" x="0px" y="0px"
	 viewBox="0 0 960.2 239.5" style="enable-background:new 0 0 960.2 239.5;" xml:space="preserve">
<style type="text/css">
	.st0{fill-rule:evenodd;clip-rule:evenodd;fill:#40AB5D;}
	.st1{fill-rule:evenodd;clip-rule:evenodd;fill:url(#SVGID_1_);}
	.st2{fill-rule:evenodd;clip-rule:evenodd;fill:url(#SVGID_2_);}
	.st3{fill-rule:evenodd;clip-rule:evenodd;fill:url(#SVGID_3_);}
	.st4{fill-rule:evenodd;clip-rule:evenodd;fill:url(#SVGID_4_);}
	.st5{fill-rule:evenodd;clip-rule:evenodd;fill:url(#SVGID_5_);}
	.st6{fill-rule:evenodd;clip-rule:evenodd;fill:url(#SVGID_6_);}
	.st7{fill-rule:evenodd;clip-rule:evenodd;fill:url(#SVGID_7_);}
	.st8{fill-rule:evenodd;clip-rule:evenodd;fill:url(#SVGID_8_);}
	.st9{fill-rule:evenodd;clip-rule:evenodd;fill:url(#SVGID_9_);}
</style>
<g transform="translate(0 86.8)">
	<path d="M232.6,60.8c0,37,22.8,59.2,56.7,59.2c16.9,0,31.1-4.7,39-17.1V120h30.9V-56.3h-32.1v75c-7.3-12.4-20.8-17.9-37.7-17.9
		C256.4,0.6,232.6,23.3,232.6,60.8z M328.1,60.8c0,21.1-14.4,34.3-31.7,34.3c-17.9,0-31.7-13.2-31.7-34.3c0-21.5,13.8-35,31.7-35
		C313.7,25.8,328.1,39.5,328.1,60.8z M459.2,74.5c-3.7,13.7-13,20.5-27.7,20.5c-17.1,0-31.1-10.3-31.5-28.6h81
		c1-4.5,1.5-9.3,1.5-14.6c0-32.8-22.3-51.2-55.3-51.2c-35.2,0-59.4,25-59.4,59c0,37.8,26.7,60.6,63.6,60.6
		c27.9,0,46.8-11.6,55.1-34.8L459.2,74.5z M400,44.9c3-13.2,14-21,27.2-21c14.4,0,24.2,7.8,24.2,19.9l-0.2,1L400,44.9z M578.4,74.5
		c-3.7,13.7-13,20.5-27.7,20.5c-17.1,0-31.1-10.3-31.5-28.6h81c1-4.5,1.5-9.3,1.5-14.6c0-32.8-22.3-51.2-55.3-51.2
		c-35.2,0-59.4,25-59.4,59c0,37.8,26.7,60.6,63.6,60.6c27.9,0,46.8-11.6,55.1-34.8L578.4,74.5z M519.2,44.9c3-13.2,14-21,27.2-21
		c14.4,0,24.2,7.8,24.2,19.9l-0.2,1L519.2,44.9z M715,120.2V91.1h-67.5l65.6-63.9V0.6H609.3v27.7h63.4l-65.4,64.2v27.7L715,120.2z
		 M808.9,74.5c-3.7,13.7-13,20.5-27.7,20.5c-17.1,0-31.1-10.3-31.5-28.6h81c1-4.5,1.5-9.3,1.5-14.6c0-32.8-22.3-51.2-55.3-51.2
		c-35.2,0-59.4,25-59.4,59c0,37.8,26.7,60.6,63.6,60.6c27.9,0,46.8-11.6,55.1-34.8L808.9,74.5z M749.7,44.9c3-13.2,14-21,27.2-21
		c14.4,0,24.2,7.8,24.2,19.9l-0.2,1L749.7,44.9z"/>
	<path class="st0" d="M160,0.6h39.6v23.2H160V0.6z"/>
	
		<linearGradient id="SVGID_1_" gradientUnits="userSpaceOnUse" x1="-135.1905" y1="97.4512" x2="-135.4115" y2="83.4292" gradientTransform="matrix(1.6909 0 0 1.6909 408.5981 -108.6468)">
		<stop  offset="0" style="stop-color:#358C7B"/>
		<stop  offset="0.526" style="stop-color:#33A65E"/>
	</linearGradient>
	<path class="st1" d="M160,32.8h39.6v23.2H160V32.8z"/>
	
		<linearGradient id="SVGID_2_" gradientUnits="userSpaceOnUse" x1="-147.368" y1="115.6281" x2="-123.2326" y2="103.3308" gradientTransform="matrix(1.6909 0 0 1.6909 408.5981 -108.6468)">
		<stop  offset="0" style="stop-color:#222B90"/>
		<stop  offset="1" style="stop-color:#367B99"/>
	</linearGradient>
	<path class="st2" d="M160,64.9h39.6v23.2H160V64.9z"/>
	
		<linearGradient id="SVGID_3_" gradientUnits="userSpaceOnUse" x1="-231.8993" y1="128.4772" x2="-208.4797" y2="128.4772" gradientTransform="matrix(1.6909 0 0 1.6909 408.5981 -108.6468)">
		<stop  offset="0" style="stop-color:#FF9900"/>
		<stop  offset="1" style="stop-color:#FF8000"/>
	</linearGradient>
	<path class="st3" d="M16.5,97h39.6v23.2H16.5V97z"/>
	
		<linearGradient id="SVGID_4_" gradientUnits="userSpaceOnUse" x1="-203.5953" y1="128.4772" x2="-180.1758" y2="128.4772" gradientTransform="matrix(1.6909 0 0 1.6909 408.5981 -108.6468)">
		<stop  offset="0" style="stop-color:#FF8000"/>
		<stop  offset="1" style="stop-color:#CC1953"/>
	</linearGradient>
	<path class="st4" d="M64.3,97h39.6v23.2H64.3V97z"/>
	
		<linearGradient id="SVGID_5_" gradientUnits="userSpaceOnUse" x1="-175.2883" y1="128.4772" x2="-151.8687" y2="128.4772" gradientTransform="matrix(1.6909 0 0 1.6909 408.5981 -108.6468)">
		<stop  offset="0" style="stop-color:#CC1953"/>
		<stop  offset="1" style="stop-color:#241284"/>
	</linearGradient>
	<path class="st5" d="M112.2,97h39.6v23.2h-39.6L112.2,97z"/>
	
		<linearGradient id="SVGID_6_" gradientUnits="userSpaceOnUse" x1="-147.0101" y1="128.4772" x2="-123.5905" y2="128.4772" gradientTransform="matrix(1.6909 0 0 1.6909 408.5981 -108.6468)">
		<stop  offset="0" style="stop-color:#222B90"/>
		<stop  offset="1" style="stop-color:#3559A6"/>
	</linearGradient>
	<path class="st6" d="M160,97h39.6v23.2H160V97z"/>
	
		<linearGradient id="SVGID_7_" gradientUnits="userSpaceOnUse" x1="-176.2115" y1="113.1737" x2="-150.9455" y2="105.7852" gradientTransform="matrix(1.6909 0 0 1.6909 408.5981 -108.6468)">
		<stop  offset="0" style="stop-color:#CC1953"/>
		<stop  offset="1" style="stop-color:#241284"/>
	</linearGradient>
	<path class="st7" d="M112.2,64.9h39.6v23.2h-39.6L112.2,64.9z"/>
	
		<linearGradient id="SVGID_8_" gradientUnits="userSpaceOnUse" x1="-204.4533" y1="104.9147" x2="-179.3693" y2="114.0442" gradientTransform="matrix(1.6909 0 0 1.6909 408.5981 -108.6468)">
		<stop  offset="3.000000e-03" style="stop-color:#FFCC00"/>
		<stop  offset="1" style="stop-color:#CE1938"/>
	</linearGradient>
	<path class="st8" d="M64.3,64.9h39.6v23.2H64.3V64.9z"/>
	
		<linearGradient id="SVGID_9_" gradientUnits="userSpaceOnUse" x1="-201.6502" y1="81.4948" x2="-182.1724" y2="99.4687" gradientTransform="matrix(1.6909 0 0 1.6909 408.5981 -108.6468)">
		<stop  offset="3.000000e-03" style="stop-color:#FFD100"/>
		<stop  offset="1" style="stop-color:#FD5A22"/>
	</linearGradient>
	<path class="st9" d="M64.3,32.8h39.6v23.2H64.3V32.8z"/>
	<path d="M908.3,41.9v3.4h31.3v-9.1c0-20.5-12.8-35.4-34.3-35.4c-13.8,0-23.6,6.7-28.7,17.9V0.8h-32.3v119.4h32.3V43.3
		c0-12.2,6.6-18.9,16.6-18.9C902.4,24.5,908.3,33.1,908.3,41.9L908.3,41.9z"/>
</g>
</svg>
