<?xml version="1.0" encoding="utf-8"?>
<!-- Generator: Adobe Illustrator 24.0.1, SVG Export Plug-In . SVG Version: 6.00 Build 0)  -->
<svg version="1.1" id="Layer_1" xmlns="http://www.w3.org/2000/svg" xmlns:xlink="http://www.w3.org/1999/xlink" x="0px" y="0px"
	 viewBox="0 0 983.8 265.2" style="enable-background:new 0 0 983.8 265.2;" xml:space="preserve">
<style type="text/css">
	.st0{fill:#1877F2;}
</style>
<path class="st0" d="M87.8,218.1H53v-86.7H29.3v-28.2H53V83.1c0-23.8,10.5-40.9,45.2-40.9c7.3,0,18.9,1.5,18.9,1.5v26.2h-12.1
	c-12.3,0-17.1,3.7-17.1,14.1v19.2h28.8l-2.6,28.2H87.8L87.8,218.1z M167.6,100.9c-0.5,0-1,0-1.5,0c-32.3,0-47,24.3-47,58.7
	c0,43.4,19.1,60.7,47.3,60.7c16.1,0,26.7-6.8,33.1-19.4v17.1h33.1V103.2h-33.1v17.7C194.1,109.5,183.3,101.1,167.6,100.9z
	 M176,128.1c13.5,0,21.7,9.4,21.7,25.5l0,16.4c0,10.8-6.7,23.5-21.7,23.5c-23,0-22.4-24.9-22.4-33.2
	C153.6,132.5,165.9,128.1,176,128.1L176,128.1z M245.8,160.7c0-14-0.7-59.7,58.9-59.7c23.9,0,33.9,7.6,33.9,7.6l-8,24.9
	c0,0-10-5.5-23-5.5c-16.6,0-27.2,9.6-27.2,26.6l0,12.2c0,16.3,10.2,27.2,27.3,27.2c11.8,0,22.7-5.5,22.7-5.5l8,24.4
	c0,0-9.1,7.6-33.5,7.6C248.2,220.4,245.8,179.4,245.8,160.7L245.8,160.7z M532.6,101c32.3,0,47.2,24.3,47.2,58.7
	c0,43.4-19.1,60.7-47.3,60.7c-16.1,0-28-6.8-34.4-19.4v17.1l-32.7,0V45.7l34.7-3v76.6C505.2,105.9,521.6,101,532.6,101L532.6,101z
	 M522.8,128.1c-13.5,0-22.7,9.4-22.7,25.5l0,16.4c0,10.8,6.3,23.5,22.7,23.5c23,0,22.4-24.9,22.4-33.2
	C545.3,132.5,533,128.1,522.8,128.1z M398.8,101.1c-36.6,0-55.9,19.9-55.9,55.4v6.6c0,46,27.1,57.8,59.5,57.8
	c31.4,0,45.7-8.8,45.7-8.8l-6.5-23.4c0,0-16.7,7.1-35,7.1c-18.9,0-27.1-4.8-29.2-23h73.4V154C450.8,115.6,429.1,101.1,398.8,101.1
	L398.8,101.1z M399.6,124.5c12.7,0,20.9,7.8,20.4,25.8h-42.7C378.1,131.3,387,124.5,399.6,124.5L399.6,124.5z M649,100.9
	c-37.6,0-57.3,21.2-57.3,59.1c0,52.1,34.1,60.4,57.4,60.4c34.1,0,56.8-18.4,56.8-60C705.9,117.2,680.3,100.9,649,100.9z
	 M648.5,128.2c16.5,0,23.1,12.4,23.1,26.4v12.1c0,17-9.2,26.9-23.1,26.9c-13.1,0-22.2-9.2-22.2-26.9v-12.1
	C626.2,135.8,637.1,128.2,648.5,128.2z M775,100.9c-37.6,0-57.3,21.2-57.3,59.1c0,52.1,34.1,60.4,57.4,60.4
	c34.1,0,56.8-18.4,56.8-60C831.9,117.2,806.3,100.9,775,100.9z M774.5,128.2c16.5,0,23.1,12.4,23.1,26.4v12.1
	c0,17-9.2,26.9-23.1,26.9c-13.1,0-22.2-9.2-22.2-26.9v-12.1C752.2,135.8,763.1,128.2,774.5,128.2z M845,218.1V45.7l34.8-3v115.6
	l34.5-55.1H951l-36,57l37.4,57.9h-36.8l-35.8-56.2v56.2L845,218.1z"/>
</svg>
