<?xml version="1.0" encoding="utf-8"?>
<!-- Generator: Adobe Illustrator 24.0.1, SVG Export Plug-In . SVG Version: 6.00 Build 0)  -->
<svg version="1.1" id="Layer_1" xmlns="http://www.w3.org/2000/svg" xmlns:xlink="http://www.w3.org/1999/xlink" x="0px" y="0px"
	 viewBox="0 0 960.2 308" style="enable-background:new 0 0 960.2 308;" xml:space="preserve">
<style type="text/css">
	.st0{fill:#0063DB;}
	.st1{fill:#FF0084;}
</style>
<path class="st0" d="M55.6,147.9h-37v-45.5h38V90.8c0-56,25.5-75.5,75.7-75.5c13.6,0,24.1,2.2,32.1,3.6l-3.8,44.8
	c-5.2-1.8-10.5-2.9-19.9-2.9c-16,0-22.3,11.6-22.3,30v11.6H163v45.5h-44.6v142.7H55.6V147.9z M195.8,19.6h62.8v270.9h-62.8V19.6z
	 M312.2,24H375v47.7h-62.8V24z M312.2,102.4H375v188.2h-62.8V102.4z M563.7,156.2c-11.5-7.2-23-10.5-38-10.5
	c-27.2,0-48.1,19.5-48.1,52c0,30,24.4,49.5,51.6,49.5c14.3,0,28.6-3.2,39.1-9l1.4,48.4c-15.7,5.4-34.5,8.3-51.3,8.3
	c-60,0-105.7-36.1-105.7-98.2c0-62.5,45.7-98.6,105.7-98.6c18.8,0,35.6,3.3,49.9,10.5L563.7,156.2z M658.5,181.5h0.7l52.3-79.1h68.7
	l-63.1,86.3l68.4,101.9h-76l-50.2-93.2h-0.7v93.2h-62.8V19.6h62.8L658.5,181.5z"/>
<path class="st1" d="M938.6,154.4c-7-2.2-14-2.2-21.3-2.2c-29.3,0-45.7,22-45.7,58.9v79.5h-62.8V102.4H866V137h0.7
	c10.8-23.8,26.5-39,53.7-39c7.3,0,15,1.1,21.3,2.2L938.6,154.4z"/>
</svg>
