<?xml version="1.0" encoding="utf-8"?>
<!-- Generator: Adobe Illustrator 24.0.1, SVG Export Plug-In . SVG Version: 6.00 Build 0)  -->
<svg version="1.1" id="Layer_1" xmlns="http://www.w3.org/2000/svg" xmlns:xlink="http://www.w3.org/1999/xlink" x="0px" y="0px"
	 viewBox="0 0 973.1 359.3" style="enable-background:new 0 0 973.1 359.3;" xml:space="preserve">
<style type="text/css">
	.st0{fill:#F15A23;}
	.st1{fill:#6D6E70;}
</style>
<path class="st0" d="M146.8,13.9c1.8-1,4.5-0.3,5.1,1.8c0.7,1.7-0.5,3.3-1.4,4.7c-6.7,9.6-11.2,20.7-13.3,32.2
	c-1.3,0.5-1.7,1.9-1.3,3.2c0.6,0.2,1.3,0.4,1.9,0.6c13.1-1.1,26.4-0.9,39.3,1.8c23.5,4.7,45.4,16.6,62.2,33.6
	c16.8,16.8,28.6,38.6,33.4,61.8c5.3,25.2,2.3,52-8.2,75.5c-22.4,47.9-60.3,88.5-106.5,114.2c-1.5,0.7-3.6,0.7-4.7-0.8
	c-1.2-1.6-0.7-3.8,0.5-5.2c6.2-8.7,10.6-18.7,13-29.2c0.5-2.2,1.1-4.4,0.9-6.6c-0.8-1-2-0.7-3.1-0.7c-22.5,2.2-45.6-1.8-65.9-11.7
	c-21.7-10.5-40.2-27.6-52.4-48.4c-11.3-19.1-17.2-41.5-16.8-63.7c0.1-20.4,5.6-40.7,15.5-58.5C67.6,74.8,103.5,37.8,146.8,13.9
	 M145.5,131c-13.4,1.8-25.7,9.6-33.2,20.8c-5.1,7.7-8.1,16.8-8.1,26c-0.4,12.4,4.6,24.8,13.1,33.7c7.5,8,17.8,13.3,28.7,14.7
	c11.1,1.5,22.6-1.1,32-7.2c9.5-6.1,16.8-15.6,20.1-26.4c6.1-18.8-1.2-40.8-17.1-52.4C171,132.6,157.9,129.2,145.5,131L145.5,131z"/>
<path class="st1" d="M573.8,85.1c8.7-2.5,18.6,1.3,23.4,8.9c3.5,5.2,4.4,12.1,2.6,18.1c-2.3,7.6-9.3,13.7-17.2,14.8
	c-7.8,1.3-16.2-2.2-20.7-8.8c-4.8-6.7-5.1-16.2-0.8-23.3C563.9,90,568.5,86.4,573.8,85.1L573.8,85.1z M769.8,84.9
	c9.8-2.5,20.8,2.9,24.6,12.3c4.2,9.3,0.6,21.3-8.1,26.6c-5.1,3.3-11.5,4.1-17.3,2.5c-5.7-1.5-10.6-5.6-13.3-10.9
	c-3.1-6.1-3-13.8,0.3-19.8C758.8,90.3,764,86.3,769.8,84.9z M368.6,106.3c15.1-1.7,30.8,0.4,44.5,7.1c12.1,5.8,22.6,15,29.7,26.4
	c13.1,20.6,14.5,47.9,4.1,69.9c-5.9,12.6-15.7,23.3-27.6,30.6c-21.8,13.4-50,14.9-73.4,4.8c-13.7-6-25.6-16.2-33.2-29.2
	c-8.8-14.6-11.8-32.4-9-49.2c2.4-14.8,9.6-28.8,20.3-39.3C335.9,115.5,352,108.2,368.6,106.3 M372.8,141.3
	c-7.8,1.1-15.2,5-20.5,10.9c-13,14.5-12.8,38.8,0.5,53c7,7.7,17.6,11.9,28,11.1c8.9-0.5,17.7-4.5,23.6-11.3
	c13.7-15.2,12.6-41.3-2.6-55C394.1,142.9,383.1,139.7,372.8,141.3L372.8,141.3z M919.6,121.9c4.4,0,8.8,0,13.2,0c0,1,0,2,0,3
	c-1.6,0-3.3,0-4.9,0c0,4.4,0,8.7,0,13.1c-1.1,0-2.1,0-3.2,0c0-4.4,0-8.8,0-13.1c-1.7,0-3.4,0-5.1,0
	C919.6,123.8,919.6,122.8,919.6,121.9z M936.1,121.9c1.2,0,2.4,0,3.6,0.1c1.4,2.4,3,4.8,4.5,7.2c1.6-2.4,3.1-4.8,4.7-7.3
	c1.1,0,2.3,0,3.4,0c0,5.4,0,10.7,0,16.1c-1.1,0-2.1,0-3.2,0c0-3.6,0.1-7.2-0.1-10.8c-1.8,2.4-3.3,4.9-5,7.4
	c-1.7-2.5-3.3-5.1-4.9-7.6c0,3.7,0,7.4,0,11c-1.1,0-2.1,0-3.2,0C936.1,132.6,936.1,127.2,936.1,121.9L936.1,121.9z M727.7,129.4
	c1.3-0.9,2.7-1.4,4.1-2c1.5,0.7,3.3,1.7,3.2,3.6c0.1,31.3,0,62.5,0,93.8c-0.2,12.1-2.1,24.7-8.9,34.9c-6.1,9.2-15.9,15.3-26.4,18.2
	c-13.5,3.7-27.7,3.8-41.5,2.4c-12.3-1.4-24.4-4.6-35.6-9.9c-2-0.7-3.1-3-2-4.9c3-6.4,6.1-12.7,9.2-19c0.8-2.1,3.5-2.4,5.3-1.3
	c12.1,6.2,25.9,9.3,39.5,8.1c6.8-0.7,13.8-3.4,18.1-9c4.6-5.9,5.1-13.8,4.9-21c-5.9,6.6-13.2,12.2-21.8,14.4
	c-13.4,3.4-28.4,0.8-39.8-7.2c-9.2-6.4-15.6-16.5-18.2-27.4c-2.1-9-2.2-18.4-0.4-27.5c2.3-11.1,8.3-21.6,17.4-28.5
	c5.9-4.6,12.9-7.6,20.2-8.8c4.4-0.8,8.8-0.5,13.2-0.6c9.1,0,18.2,0,27.3,0c1,0,2.2-0.1,3,0.7c2.3,1.9,4.3,4.2,6.4,6.3
	C712.5,139.6,720.2,134.7,727.7,129.4 M669.1,168.5c-4.3,1.1-8.3,3.5-11.2,7c-6.5,7.8-6.2,20.5,1,27.7c8.5,8.8,24.5,8.8,32.9-0.1
	c7.5-7.7,7.4-21.5-0.2-29.1C685.9,168.2,676.9,166.5,669.1,168.5L669.1,168.5z M870.1,140.9c7-3.2,15-3.6,22.5-2.4
	c7.8,1.2,15.3,5,20.3,11.1c4.6,5.4,7.2,12.3,8.3,19.2c0.9,5.8,0.7,11.7,0.7,17.5v58.2c0.3,2.1-1.3,4.5-3.6,4.2c-10.3,0-20.7,0-31,0
	c-2,0.3-3.9-1.5-3.6-3.5c0-18.2,0-36.5,0-54.7c-0.1-5.2-1.1-10.7-4.9-14.6c-6.4-6.5-18.8-5-23.4,2.9c-2.4,3.9-2.9,8.5-2.9,13
	c0,17.8,0,35.5,0,53.3c0.2,1.7-1.1,3.5-2.9,3.4c-10,0.1-20.1,0-30.1,0.1c-1.4-0.1-3,0.2-4-1c-1.2-1.2-1-3.1-1.1-4.7
	c0.1-32.9,0-65.9,0-98.8c-0.2-2.1,1.5-4,3.6-4c10.1-0.1,20.1,0,30.2-0.1c1.8-0.1,4,0.7,4.2,2.6c0.2,4.2,0,8.3,0.1,12.5
	C857.2,149.4,863,144,870.1,140.9L870.1,140.9z M522.8,143.3c4.8-3.2,10.7-4.7,16.4-4.8c2-0.2,3.8,1.6,3.6,3.6c0,11,0,22,0,33
	c0.3,2.4-2.2,3.9-4.3,3.7c-7.9,0-16.1,2.5-21.5,8.5c-5.9,6.6-7.9,15.7-8.3,24.3c-0.1,11.2,0.1,22.4-0.1,33.6
	c0.2,2.1-1.7,3.8-3.8,3.6c-10.3,0-20.6,0-31,0c-1.9,0.3-3.7-1.5-3.4-3.4c0-33.9,0-67.8,0-101.7c-0.1-2.2,2.2-3.5,4.1-3.3
	c10.1,0,20.1,0,30.2,0c1.9-0.1,3.8,1.4,3.8,3.4c0.2,5.9,0,11.9,0.1,17.8C511.8,154.4,516.2,147.5,522.8,143.3L522.8,143.3z
	 M563.9,140.3c9.8-0.1,19.5,0,29.3-0.1c1.5,0.1,3.3-0.1,4.3,1.1c1.1,0.9,1,2.4,1.1,3.6c0,33.2,0,66.4,0,99.6c0.2,2-1.1,4.3-3.3,4.1
	c-10.5,0-21.1,0-31.6,0c-2.2,0.2-3.6-2.2-3.3-4.1c0-33.4,0-66.9,0-100.3C560,142.1,561.8,140.2,563.9,140.3L563.9,140.3z
	 M758.7,140.4c10.2-0.3,20.4,0,30.6-0.1c2-0.2,4.6,0.9,4.5,3.3c0.1,33.9,0,67.8,0,101.7c0.2,1.7-1.2,3.6-3.1,3.4
	c-10.6,0.1-21.1,0-31.7,0c-1.6,0.1-3-1.1-3.2-2.7c-0.4-2.4-0.2-4.8-0.2-7.1c0-31.5,0-63.1,0-94.6
	C755.5,142.4,756.8,140.6,758.7,140.4L758.7,140.4z M759.5,292.2c1.7-0.3,3.4-0.5,5.2-0.7c-0.1,13.6,0,27.2,0,40.8
	c-1.4,0-2.9,0-4.3,0c-0.1-0.8-0.2-1.6-0.3-2.3c-3.9,2.5-8.9,3.8-13.4,2.2c-2.8-1.1-4.2-4.2-4.2-7c0-4.5,0-8.9,0-13.4
	c-0.1-3,1.3-6.4,4.2-7.6c4.1-1.7,8.7-0.7,12.9-0.1C759.5,300,759.6,296.1,759.5,292.2 M747.5,311.7c-0.1,4.3,0,8.5,0,12.8
	c-0.1,1.5,0.6,3.2,2.2,3.6c3.6,1,7.1-0.9,9.9-3c-0.1-5.6,0-11.1,0-16.7c-3.1-0.4-6.3-1.1-9.4-0.6C748.3,308.1,747.4,310,747.5,311.7
	L747.5,311.7z M788.6,292.1c1.7-0.3,3.4-0.5,5.1-0.8c0,4.5,0,9,0,13.5c3.7-1.5,7.9-2.3,11.8-1.5c3.1,0.7,5.3,3.8,5.3,6.9
	c0,4.7,0.1,9.3,0,14c-0.1,3.3-2.2,6.6-5.4,7.5c-5.4,1.7-11.3,0.8-16.8-0.1C788.6,318.5,788.6,305.3,788.6,292.1 M793.7,309.7
	c0,6.1,0,12.2,0,18.3c2.9,0.3,6,0.8,8.9-0.1c1.7-0.4,3-1.9,3.2-3.6c0.4-3.7,0.2-7.5,0.2-11.2c0-1.9-0.2-4.3-2.2-5.2
	C800.3,306.9,796.8,308.5,793.7,309.7z M560.4,293.3c4.8,0,9.7,0,14.5,0c3.2,0,6.8,0.6,8.9,3.2c2.2,2.7,1.9,6.4,2,9.6
	c-0.1,3,0.1,6.4-1.9,8.9c-1.8,2.4-5,3.1-7.9,3.3c-3.5,0.2-7,0-10.6,0.1c0,4.6,0,9.2,0,13.8c-1.7,0-3.4,0-5.1,0
	C560.4,319.3,560.4,306.3,560.4,293.3 M565.4,298c0.1,5.2,0.1,10.4,0,15.7c4.1-0.1,8.4,0.5,12.4-0.4c3.3-1.1,2.6-5.1,2.7-7.8
	c-0.1-2.3,0.5-5.9-2.3-6.9C574.1,297.3,569.7,298,565.4,298L565.4,298z M861.2,332.2c0-13-0.1-25.9,0-38.9c7.6,0,15.3,0,22.9,0
	c0,1.5,0,3,0,4.5c-5.9,0-11.8,0-17.7,0c0,4,0,8.1,0,12.1c5.5,0,11,0,16.4,0c0,1.5,0,3,0,4.5c-5.5,0-11,0-16.5,0c0,4.3,0,8.6,0,13
	c6,0,11.9,0,17.9,0c0,1.6,0,3.2,0,4.8C876.5,332.2,868.8,332.2,861.2,332.2L861.2,332.2z M901.9,293.3c2.3,0,4.7,0,7,0.1
	c4.3,13,8.7,25.9,13.1,38.8c-1.8,0-3.5,0-5.3,0c-1.1-3.1-2.2-6.2-3.2-9.3h-16.3c-1.1,3.1-2.1,6.2-3.2,9.3l-5.3,0
	C893.1,319.2,897.5,306.3,901.9,293.3 M898.5,318.4c4.5,0,9.1,0,13.6,0c-2.3-7-4.5-14-6.8-20.9C903,304.4,900.8,311.4,898.5,318.4
	L898.5,318.4z M599,303.7c3.1-0.8,6.5-0.9,9.6,0.1c3.3,1,5.9,3.9,6.5,7.3c0.5,3.5,0.3,7,0.3,10.4c0,2.9-0.6,6.1-2.8,8.2
	c-2.5,2.5-6.2,3.1-9.6,3c-3.4-0.1-7.1-1.2-9.1-4.2c-2-2.9-1.8-6.5-1.8-9.9c0.1-3.5-0.4-7.1,1.2-10.4
	C594.3,306,596.6,304.4,599,303.7 M601.1,307.9c-2.4,0.5-3.9,2.9-3.9,5.2c0,3.8-0.3,7.6,0.2,11.3c1.1,4.2,6.7,4.8,10.1,3.1
	c3-1.5,2.8-5.3,2.8-8.1c-0.2-3.1,0.5-6.4-0.9-9.3C607.8,307.3,603.9,307.2,601.1,307.9z M668.3,304.9c3.1-1.9,6.9-2,10.4-1.5
	c2.9,0.4,5.7,2.2,6.8,5.1c1.4,3.7,0.8,7.7,0.9,11.5c-5.6,0-11.2,0-16.8,0c0.1,2.6-0.6,6.3,2.3,7.7c4.3,1.6,9,0.3,13.3-0.6
	c0.2,1.4,0.5,2.8,0.7,4.1c-5,1.4-10.5,2.3-15.6,0.8c-3.4-1-5.6-4.3-5.7-7.7c-0.2-3.7,0-7.5-0.1-11.2
	C664.4,310,665.5,306.6,668.3,304.9 M671.2,308.6c-2.1,1.7-1.7,4.7-1.7,7.2c4,0,8,0,12,0c-0.1-2.6,0.3-5.9-2.2-7.5
	C676.8,306.9,673.5,307,671.2,308.6L671.2,308.6z M694.9,303.7c1.5,0,3,0,4.5,0c0.1,1.3,0.2,2.6,0.3,3.9c2.4-1.8,5-3.2,7.7-4.5
	c0.2,1.5,0.5,3.1,0.7,4.6c-2.8,1.6-5.5,3.2-8.1,5c0,6.5,0,13.1,0,19.6c-1.7,0-3.4,0-5.1,0C694.9,322.7,694.9,313.2,694.9,303.7
	L694.9,303.7z M713.1,310.4c0.6-3.7,3.8-6.5,7.5-7c4-0.6,9-0.5,11.9,2.8c3.2,3.9,2,9.2,2.2,13.8c-5.6,0-11.2,0-16.8,0
	c0,2.7-0.4,6.7,2.8,7.9c4.3,1.2,8.7,0,13-0.8c0.2,1.4,0.4,2.7,0.6,4.1c-5.2,1.5-10.9,2.4-16.1,0.6c-3.6-1.3-5.3-5.3-5.2-8.9
	C712.9,318.8,712.5,314.6,713.1,310.4 M720,308.3c-2.5,1.6-2.2,4.9-2.2,7.5c4,0,8,0,12,0c-0.1-2.5,0.4-5.5-1.7-7.3
	C725.7,306.9,722.5,307,720,308.3L720,308.3z M815.8,303.7c1.7,0,3.3,0,5,0c2.6,8.1,5.1,16.1,7.7,24.2c2.6-8.1,5.2-16.1,7.8-24.2
	c1.7,0,3.3,0,5,0c-4.4,13.4-8.7,26.7-13.4,40l-4.8,0c1.3-3.8,2.6-7.6,3.9-11.3c-0.5,0-1.5-0.1-2-0.1
	C821.9,322.7,818.7,313.2,815.8,303.7L815.8,303.7z M620.5,303.7c1.6,0,3.3-0.1,4.9-0.1c1.5,7.7,3.1,15.4,4.6,23.2
	c2.3-7.7,4.5-15.4,6.8-23.1c2,0,4.1,0,6.1,0c2.2,7.7,4.5,15.4,6.7,23.1c1.6-7.7,3.1-15.4,4.7-23.1c1.6,0,3.2,0,4.8,0
	c-2.1,9.5-4,19.1-6.2,28.6c-2.1,0-4.3,0-6.4-0.1c-2.2-7.9-4.5-15.8-6.8-23.7c-2.2,7.9-4.5,15.8-6.8,23.7c-2.2,0-4.3,0-6.4,0
	C624.6,322.7,622.6,313.2,620.5,303.7L620.5,303.7z"/>
</svg>
