<?xml version="1.0" encoding="utf-8"?>
<!-- Generator: Adobe Illustrator 24.0.1, SVG Export Plug-In . SVG Version: 6.00 Build 0)  -->
<svg version="1.1" id="svg36" xmlns="http://www.w3.org/2000/svg" xmlns:xlink="http://www.w3.org/1999/xlink" x="0px" y="0px"
	 viewBox="0 0 960.2 269" style="enable-background:new 0 0 960.2 269;" xml:space="preserve">
<style type="text/css">
	.st0{fill:#E60019;}
	.st1{fill:#FFFFFF;}
</style>
<g id="g26" transform="translate(-1.1 -3)">
	<g id="g8">
		<path id="path4" class="st0" d="M381,109.8h29.2v91.8H381V109.8z"/>
		<path id="path6" class="st0" d="M416.4,109.8h28.1v12.6h0.5c6.8-9.9,15.6-15.2,28.3-15.2c20.1,0,31.9,14.4,31.9,34.8v59.7H476
			v-53.8c0-9.7-4.9-16.3-14.4-16.3c-9.7,0-16.1,8-16.1,19.4v50.7h-29.2L416.4,109.8z"/>
	</g>
	<circle id="circle10" class="st0" cx="395.7" cy="85.3" r="17.5"/>
	<path id="path12" class="st0" d="M710.7,108.5c-0.8-0.1-1.8-0.1-2.9-0.1c-11.1,0-18.6,4.9-25.1,15.7h-0.5v-14.3h-27.9v91.8h29.2
		v-41.2c0-19.1,10.6-27.9,27.3-26.4V108.5z"/>
	<path id="path14" class="st0" d="M854.1,143.7c-11.7-2.2-22.1-3.1-22.1-9.5c0-5.7,5.5-8.4,12.8-8.4c8,0,13.7,2.5,14.7,10.8h26.9
		c-1.4-18.1-15.4-29.4-41.4-29.4c-21.7,0-39.6,10-39.6,29.4c0,21.5,17,25.8,33,28.5c12.2,2.2,23.3,3.1,23.3,11.3
		c0,5.9-5.5,9.1-14.4,9.1c-8.8,0-14.6-3.7-16.5-11.3H803c2.1,18.9,18.6,30.3,44.5,30.3c24.1,0,41.8-10.4,41.8-30.5
		C889.2,150.5,870.2,146.5,854.1,143.7L854.1,143.7z"/>
	<path id="path16" class="st0" d="M757.6,183.3c-12,0-18.8-7.7-20.6-20.1h65.9c0.2-18.6-5.2-34.6-16.1-44.7
		c-7.9-7.1-18.3-11.5-31.4-11.5c-27.9,0-47.1,21-47.1,48.4c0,27.8,18.6,48.7,48.9,48.7c11.7,0,21-3.1,28.7-8.4
		c8-5.5,13.5-13.5,15.4-21.7h-28.5C770.4,179.9,765.4,183.3,757.6,183.3L757.6,183.3z M756,127.9c9.5,0,16.3,7,17.4,17.9h-36.2
		C739.2,135,745,127.9,756,127.9z"/>
	<path id="path18" class="st0" d="M940.7,180c-1.4,0.1-3.2,0.1-4.9,0.1c-6.2,0-10.2-1.8-10.2-9v-43h15.1v-18.3h-15.1v-29h-28.5v29
		h-9v18.3h9v49.3c0,19.7,12.2,25.3,29.2,25.3c6.5,0,11.4-0.5,14.4-1.1V180z"/>
	<path id="path20" class="st0" d="M557.4,180c-1.2,0-2.5,0.1-3.8,0.1c-6.2,0-10.2-1.8-10.2-9v-43h14v-18.3h-14v-29h-28.5v29h-9.5
		v18.3h9.5v49.3c0,19.7,12.2,25.3,29.2,25.3c5.8,0,10.3-0.4,13.3-0.9V180z"/>
	<path id="path22" class="st0" d="M556,155.6c0-27.4,19.2-48.4,47.1-48.4c13.1,0,23.5,4.3,31.4,11.5c10.9,10,16.3,26,16.1,44.7
		h-65.9c1.8,12.4,8.6,20.1,20.6,20.1c7.7,0,12.8-3.4,15.2-9.1h28.5c-2,8.2-7.3,16.1-15.4,21.7c-7.7,5.3-17,8.4-28.7,8.4
		C574.6,204.3,556,183.3,556,155.6L556,155.6z M621.1,145.9C620,135,613.2,128,603.7,128c-11.1,0-16.8,7-18.8,17.9H621.1z"/>
	<path id="path24" class="st0" d="M278.3,73.5H329c15.6,0,27,4.3,35,11.8c8.2,7.7,12.9,18.6,12.9,31.6c0,24.6-17,42-43.4,42h-25.7
		v42.9h-29.6V73.5z M330.3,133.7c11.5,0,17.9-6.8,17.9-17s-6.6-16.5-17.9-16.5h-22.4v33.5L330.3,133.7L330.3,133.7z"/>
</g>
<g id="g34" transform="translate(-1.1 -3)">
	<circle id="circle28" class="st1" cx="127.4" cy="140.9" r="109.9"/>
	<g id="g32">
		<path id="path30" class="st0" d="M127.4,31.1c-60.8,0-109.9,49.2-109.9,109.9c0,46.6,28.9,86.4,69.8,102.4
			c-1-8.7-1.8-22.1,0.4-31.6c2-8.6,12.8-54.6,12.8-54.6s-3.3-6.6-3.3-16.3c0-15.3,8.9-26.7,19.9-26.7c9.4,0,13.9,7.1,13.9,15.5
			c0,9.4-6,23.5-9.1,36.6c-2.6,10.9,5.5,19.9,16.3,19.9c19.5,0,34.5-20.6,34.5-50.3c0-26.3-18.9-44.7-45.9-44.7
			c-31.3,0-49.6,23.4-49.6,47.7c0,9.4,3.6,19.5,8.1,25c0.9,1.1,1,2.1,0.7,3.2c-0.8,3.4-2.7,10.9-3.1,12.5c-0.5,2-1.6,2.4-3.7,1.4
			c-13.6-6.5-22.1-26.6-22.1-42.7c0-34.6,25.1-66.5,72.6-66.5c38.1,0,67.7,27.1,67.7,63.5c0,37.9-23.9,68.4-57,68.4
			c-11.1,0-21.6-5.8-25.1-12.7c0,0-5.5,21-6.9,26.1c-2.4,9.6-9.1,21.5-13.7,28.8c10.3,3.2,21.2,4.9,32.6,4.9
			c60.7,0,109.9-49.2,109.9-109.9C237.3,80.3,188.1,31.1,127.4,31.1z"/>
	</g>
</g>
</svg>
