<?xml version="1.0" encoding="utf-8"?>
<!-- Generator: Adobe Illustrator 24.0.1, SVG Export Plug-In . SVG Version: 6.00 Build 0)  -->
<svg version="1.1" id="svg3336" xmlns="http://www.w3.org/2000/svg" xmlns:xlink="http://www.w3.org/1999/xlink" x="0px" y="0px"
	 viewBox="0 0 968.8 308" style="enable-background:new 0 0 968.8 308;" xml:space="preserve">
<style type="text/css">
	.st0{fill:#242424;}
	.st1{fill:url(#path3396_1_);}
	.st2{fill:#FFFFFF;}
</style>
<g id="g3344" transform="matrix(1.25 0 0 -1.25 -240.25 333.7506)">
	<g id="g2065">
		<path id="path3356" class="st0" d="M455.8,120.5c0,5.9,7.4,12.4,8.4,11.8c5.3-4.6,15.5-9.3,24.2-9.3c7.7,0,11.5,2.2,11.5,6.5
			c0,5-6.5,5-14.6,6.8c-13.6,2.8-27.3,8.4-27.3,25.1c0,16.7,12.4,27,34.7,27c21.4,0,30.7-7.4,30.7-15.5c0-7.1-8.4-13-9-12.4
			c-5.3,5-13.9,8.7-21.7,8.7c-7.4,0-10.8-2.2-10.8-6.2c0-4.6,6.5-4.3,15.2-6.2c16.1-3.4,28.2-10.2,28.2-25.4
			c0-17.7-12.1-27.6-36.9-27.6C464.5,103.7,455.8,111.8,455.8,120.5"/>
		<path id="path3360" class="st0" d="M533.6,116.4v58.9c0,7.7,3.7,11.8,10.5,11.8h3.7c7.4,0,11.2-4,11.2-11.8v-18.6h26v18.6
			c0,7.7,3.7,11.8,10.5,11.8h3.7c7.1,0,10.8-4,10.8-11.8v-58.9c0-7.7-3.7-11.8-10.8-11.8h-3.7c-6.8,0-10.5,4-10.5,11.8v19.2h-26
			v-19.2c0-7.7-3.7-11.8-11.2-11.8h-3.7C537.3,105,533.6,109,533.6,116.4"/>
		<path id="path3368" class="st0" d="M668.4,135.7c0-8.7-6.5-14.3-15.2-14.3c-6.2,0-10.2,3.1-10.2,8.1c0,8.4,11.2,11.8,19.5,11.8
			h5.6v-5.6H668.4z M654.1,188.6c-16.4,0-31.9-7.7-31.9-18c0-12.7,15.8-12.4,15.8-12.4c1.9,6.8,7.4,10.5,14.9,10.5
			c11.5,0,15.5-5.6,15.5-13.6h-5.6c-32.5,0-44.9-13-44.9-27.6c0-14.3,12.1-23.9,27.9-23.9c11.2,0,21.7,4,23.6,11.8
			c0.9-5.9,6.5-11.2,13.9-11.2c6.5,0,9.6,2.2,9.9,3.1V157C693.2,177.2,679.2,188.6,654.1,188.6"/>
		<path id="path3364" class="st0" d="M700.6,115.5v1.2c0,7.1,2.5,9.9,6.8,14.3l31,35h-25.7c-7.4,0-11.2,2.5-11.2,9.6v1.2
			c0,6.8,3.7,9.6,11.2,9.6h45.6c9.3,0,12.7-5,12.7-9.6v-1.2c0-7.1-2.8-9.9-6.8-14.3l-31.6-35h27.9c7.4,0,11.2-2.8,11.2-9.9v-0.9
			c0-6.8-3.7-9.9-11.2-9.9h-47.1C704.3,105.6,700.6,110.6,700.6,115.5"/>
		<path id="path3372" class="st0" d="M828,135.7c0-8.7-6.5-14.3-15.2-14.3c-6.2,0-10.2,3.1-10.2,8.1c0,8.4,11.2,11.8,19.5,11.8h5.6
			v-5.6H828z M813.4,188.6c-16.4,0-31.9-7.7-31.9-18c0-12.7,15.8-12.4,15.8-12.4c1.9,6.8,7.4,10.5,14.9,10.5
			c11.5,0,15.5-5.6,15.5-13.6h-5.6c-32.5,0-44.9-13-44.9-27.6c0-14.3,12.1-23.9,27.9-23.9c11.2,0,21.7,4,23.6,11.8
			c0.9-5.9,6.5-11.2,13.9-11.2c6.5,0,9.6,2.2,9.9,3.1V157C852.4,177.2,838.8,188.6,813.4,188.6"/>
		<path id="path3376" class="st0" d="M861.7,116.4V175c0,8.1,4,12.1,11.2,12.1h7.1c6.8,0,9-1.5,11.2-6.8l13.3-32.5l13.3,32.5
			c2.5,5.6,5,6.8,10.8,6.8h7.1c7.4,0,11.5-4,11.5-12.1v-58.6c0-7.7-2.8-11.8-9.9-11.8h-4c-6.8,0-9.9,4-9.9,11.8v34.7l-8.7-23.9
			c-1.2-3.1-1.2-6.2-10.8-6.2s-9.3,2.8-10.5,6.2l-8.4,22.6v-33.8c0-7.7-2.5-11.8-9.9-11.8h-4C864.8,105,861.7,109,861.7,116.4"/>
	</g>
	<g id="g2074">
		
			<linearGradient id="path3396_1_" gradientUnits="userSpaceOnUse" x1="-251.0418" y1="-267.8065" x2="-250.0418" y2="-267.8065" gradientTransform="matrix(0 325.7865 325.7865 0 87560.6875 81826.5625)">
			<stop  offset="0" style="stop-color:#2255FF"/>
			<stop  offset="1" style="stop-color:#00AAFF"/>
		</linearGradient>
		<path id="path3396" class="st1" d="M208.8,144.6c0-57.6,46.8-104.1,104.1-104.1c57.6,0,104.1,46.8,104.1,104.1
			c0,57.6-46.8,104.1-104.1,104.1C255.6,249.1,208.8,202.3,208.8,144.6"/>
		<path id="path3408" class="st2" d="M368.7,105.9c-9.9-10.8-27.6-27.9-28.5-28.5c-2.5-2.2-5.3-3.4-8.4-3.4s-6.2,1.2-8.7,3.7
			c-4.6,5-4.3,12.4,0.3,17c0.3,0.3,18,17,27.3,27.3c4.3,5,6.5,11.2,6.2,17.7c-0.3,6.8-3.7,13.3-9.3,18c-7.4,6.2-21.7,7.7-30.7-0.3
			c-5.3-5-11.8-11.8-12.1-12.1c-4.6-5-12.1-5.3-17-0.6s-5.3,12.1-0.6,17c0.3,0.3,7.4,8.1,13.6,13.6c17,15.5,45.2,15.8,62.6,0.6
			c10.5-9,16.7-21.4,17.7-34.7C382,128.2,377.7,115.5,368.7,105.9 M295.9,105c-11.2,0-22.3,3.7-31,11.2c-10.5,9-16.7,21.4-17.7,34.7
			c-0.9,13,3.7,25.4,12.4,35.3c9.9,10.8,27.6,27.9,28.5,28.5c5,4.6,12.4,4.3,17-0.3c4.6-5,4.3-12.4-0.3-17c-0.3-0.3-18-17-27.3-27.3
			c-4.3-5-6.5-11.2-6.2-17.7c0.3-6.8,3.7-13.3,9.3-18c7.4-6.2,21.7-7.7,30.7,0.3c5.3,5,11.8,11.8,12.1,12.1c4.6,5,12.1,5.3,17,0.6
			c5-4.6,5.3-12.1,0.6-17c-0.3-0.3-7.4-8.1-13.6-13.6C318.8,109,307.4,105,295.9,105"/>
	</g>
</g>
</svg>
