<?xml version="1.0" encoding="utf-8"?>
<!-- Generator: Adobe Illustrator 24.0.1, SVG Export Plug-In . SVG Version: 6.00 Build 0)  -->
<svg version="1.1" id="Layer_1" xmlns="http://www.w3.org/2000/svg" xmlns:xlink="http://www.w3.org/1999/xlink" x="0px" y="0px"
	 viewBox="0 0 604.4 603.6" style="enable-background:new 0 0 604.4 603.6;" xml:space="preserve">
<style type="text/css">
	.st0{fill:url(#SVGID_1_);}
	.st1{fill:#FCEEEB;}
	.st2{fill:url(#SVGID_2_);}
	.st3{fill:#34C2EB;}
	.st4{fill:#F5CAC9;}
	.st5{fill:#2699A2;}
	.st6{opacity:0.25;fill:url(#SVGID_3_);}
	.st7{opacity:0.25;fill:url(#SVGID_4_);}
	.st8{opacity:0.5;fill:#2D9FB2;}
	.st9{opacity:0.25;}
	.st10{fill:url(#SVGID_5_);}
	.st11{fill:url(#SVGID_6_);}
	.st12{fill:url(#SVGID_7_);}
	.st13{fill:#4A1D41;}
	.st14{fill:#F9C33C;}
	.st15{opacity:0.5;fill:#FAA43B;}
	.st16{fill:#FFCE64;}
	.st17{fill:#EFB4B4;}
	.st18{fill:#54264F;}
	.st19{fill:#BE3B67;}
	.st20{fill:#3A1733;}
	.st21{fill:url(#SVGID_8_);}
	.st22{fill:url(#SVGID_9_);}
	.st23{fill:#2F152A;}
	.st24{opacity:0.75;fill:url(#SVGID_10_);}
	.st25{opacity:0.75;fill:url(#SVGID_11_);}
	.st26{opacity:0.75;fill:url(#SVGID_12_);}
	.st27{fill:#F48996;}
	.st28{fill:#F17785;}
	.st29{fill:url(#SVGID_13_);}
	.st30{fill:#F0EFEF;}
	.st31{fill:#FFFFFF;}
	.st32{fill:url(#SVGID_14_);}
	.st33{fill:url(#SVGID_15_);}
	.st34{fill:url(#SVGID_16_);}
	.st35{fill:#F4E4EA;}
	.st36{fill:url(#SVGID_17_);}
</style>
<g>
	<g>
		<linearGradient id="SVGID_1_" gradientUnits="userSpaceOnUse" x1="763.8663" y1="872.5844" x2="-267.1151" y2="58.0808">
			<stop  offset="0" style="stop-color:#6D3768"/>
			<stop  offset="0.3707" style="stop-color:#813A77"/>
			<stop  offset="0.7343" style="stop-color:#8F3C82"/>
			<stop  offset="1" style="stop-color:#953D87"/>
		</linearGradient>
		<path class="st0" d="M591.2,475.8v46.4c0,18.3-14.8,33.1-33.1,33.1H12.3v-15.7h20.9v-81.3H12.3v-15.6h545.8c10.6,0,20,5,26.1,12.7
			C588.6,461.1,591.2,468.1,591.2,475.8z"/>
		<path class="st1" d="M317.1,458.3L317.1,458.3c13.8,25.3,13.8,55.9,0,81.3v0H33.3v-81.3H317.1z"/>
		<linearGradient id="SVGID_2_" gradientUnits="userSpaceOnUse" x1="869.3477" y1="739.0657" x2="-161.6334" y2="-75.4377">
			<stop  offset="0" style="stop-color:#7D1541"/>
			<stop  offset="0.2034" style="stop-color:#8F204C"/>
			<stop  offset="0.5215" style="stop-color:#A82F5A"/>
			<stop  offset="0.798" style="stop-color:#B83863"/>
			<stop  offset="1" style="stop-color:#BE3B67"/>
		</linearGradient>
		<path class="st2" d="M545.5,259.6v27.5c0,16.2-13.1,29.3-29.3,29.3h-483v-13.9h18.5v-58.3H33.3v-13.8h483c8.6,0,16.3,3.7,21.6,9.5
			C542.6,245.1,545.5,252,545.5,259.6z"/>
		<path class="st1" d="M275.5,244.2L275.5,244.2c12.2,22.4,12.2,35.9,0,58.3v0H51.8v-58.3H275.5z"/>
		<path class="st3" d="M515.1,316.3H31.5v14.4h19.2v97.7H31.5v14.4h483.6c16.8,0,30.4-13.6,30.4-30.4v-65.7
			C545.5,329.9,531.9,316.3,515.1,316.3z"/>
		<path class="st1" d="M271.4,330.7L271.4,330.7c17.6,30.2,17.6,67.5,0,97.7h0H50.8v-97.7H271.4z"/>
		<g>
			<ellipse class="st4" cx="172.4" cy="479.8" rx="121.6" ry="3.4"/>
		</g>
		<g>
			<path class="st4" d="M249.7,349.6c0,1.9-37.1,3.4-82.8,3.4S84,351.5,84,349.6c0-1.9,37.1-3.4,82.8-3.4S249.7,347.7,249.7,349.6z"
				/>
		</g>
		<g>
			<path class="st4" d="M249.7,261c0,1.9-32.9,3.4-73.6,3.4s-73.6-1.5-73.6-3.4c0-1.9,32.9-3.4,73.6-3.4S249.7,259.1,249.7,261z"/>
		</g>
		<g>
			<ellipse class="st4" cx="143" cy="284.5" rx="58.9" ry="3.4"/>
		</g>
		<g>
			<path class="st4" d="M228.5,375.4c0,1.9-27.6,3.4-61.6,3.4c-34,0-61.6-1.5-61.6-3.4s27.6-3.4,61.6-3.4
				C200.9,372,228.5,373.5,228.5,375.4z"/>
		</g>
		<g>
			<path class="st4" d="M228.5,401.3c0,1.9-33.7,3.4-75.3,3.4s-75.3-1.5-75.3-3.4c0-1.9,33.7-3.4,75.3-3.4S228.5,399.4,228.5,401.3z
				"/>
		</g>
		<g>
			<path class="st4" d="M260.8,515.3c0,1.9-39.6,3.4-88.4,3.4c-48.8,0-88.4-1.5-88.4-3.4c0-1.9,39.6-3.4,88.4-3.4
				C221.2,511.8,260.8,513.4,260.8,515.3z"/>
		</g>
		<g>
			<polygon class="st5" points="123.9,375.4 123.9,415.8 142.3,407.2 160.8,415.8 160.8,375.4 			"/>
			<polygon class="st5" points="123.9,375.4 123.9,415.8 142.3,407.2 160.8,415.8 160.8,375.4 			"/>
		</g>
		<linearGradient id="SVGID_3_" gradientUnits="userSpaceOnUse" x1="535.9014" y1="330.1206" x2="24.2373" y2="241.8337">
			<stop  offset="0" style="stop-color:#7D1541"/>
			<stop  offset="0.2034" style="stop-color:#8F204C"/>
			<stop  offset="0.5215" style="stop-color:#A82F5A"/>
			<stop  offset="0.798" style="stop-color:#B83863"/>
			<stop  offset="1" style="stop-color:#BE3B67"/>
		</linearGradient>
		<path class="st6" d="M478.9,316.3H33.3v-13.9c53.6,1.6,102.3,1.4,146.3,0h95.9c1.1-2,2.1-4,3-5.9
			c113.7-10.1,186.3-29.2,228.7-44.3c0.6,2.3,0.9,4.8,0.9,7.3v27.5C508.1,303.2,495,316.3,478.9,316.3z"/>
		<linearGradient id="SVGID_4_" gradientUnits="userSpaceOnUse" x1="544.0342" y1="282.988" x2="32.367" y2="194.7006">
			<stop  offset="0" style="stop-color:#7D1541"/>
			<stop  offset="0.2034" style="stop-color:#8F204C"/>
			<stop  offset="0.5215" style="stop-color:#A82F5A"/>
			<stop  offset="0.798" style="stop-color:#B83863"/>
			<stop  offset="1" style="stop-color:#BE3B67"/>
		</linearGradient>
		<path class="st7" d="M545.5,259.6v27.5c0,16.2-13.1,29.3-29.3,29.3h-22.7c16.2,0,29.3-13.1,29.3-29.3v-27.5
			c0-4.3-0.9-8.5-2.6-12.2c7-2.7,12.9-5.3,17.7-7.5C542.6,245.1,545.5,252,545.5,259.6z"/>
		<g>
			<path class="st8" d="M459.1,412.3v-37.2c-43.8,17.7-103.8,35.3-183.7,45.8c-1.2,2.5-2.5,5-3.9,7.5h-75.4
				c-48.8,2.9-103.5,3.2-164.5,0v14.4h397.2C445.5,442.7,459.1,429.1,459.1,412.3z"/>
			<path class="st8" d="M493.5,412.3v-52.7c-5.8,2.9-12.1,5.9-18.8,8.9v43.9c0,16.8-13.6,30.4-30.4,30.4h18.8
				C479.9,442.7,493.5,429.1,493.5,412.3z"/>
			<path class="st8" d="M541.2,331.1c-7.8,5.7-18.3,12.6-32,20.2v61c0,16.8-13.6,30.4-30.4,30.4h36.2c16.8,0,30.4-13.6,30.4-30.4
				v-65.7C545.5,341,543.9,335.7,541.2,331.1z"/>
		</g>
		<g class="st9">
			<linearGradient id="SVGID_5_" gradientUnits="userSpaceOnUse" x1="585.8996" y1="576.8807" x2="-3.2395" y2="468.5334">
				<stop  offset="0" style="stop-color:#6D3768"/>
				<stop  offset="0.3707" style="stop-color:#813A77"/>
				<stop  offset="0.7343" style="stop-color:#8F3C82"/>
				<stop  offset="1" style="stop-color:#953D87"/>
			</linearGradient>
			<path class="st10" d="M530.6,522.2v-39.3c-42.2,16.5-107.7,33.9-208.3,45.2c-1.4,3.9-3.2,7.8-5.2,11.6h-184
				c-37.3,0.7-77.5,0.8-120.8,0v15.7h485.2C515.8,555.3,530.6,540.5,530.6,522.2z"/>
			<linearGradient id="SVGID_6_" gradientUnits="userSpaceOnUse" x1="595.4173" y1="525.1295" x2="6.276" y2="416.7817">
				<stop  offset="0" style="stop-color:#6D3768"/>
				<stop  offset="0.3707" style="stop-color:#813A77"/>
				<stop  offset="0.7343" style="stop-color:#8F3C82"/>
				<stop  offset="1" style="stop-color:#953D87"/>
			</linearGradient>
			<path class="st11" d="M555.9,522.2v-46.4c0-1.3-0.1-2.6-0.2-3.8c-3.9,1.9-8.2,3.9-12.7,5.8v44.4c0,18.3-14.8,33.1-33.1,33.1h12.9
				C541,555.3,555.9,540.5,555.9,522.2z"/>
			<linearGradient id="SVGID_7_" gradientUnits="userSpaceOnUse" x1="597.7648" y1="512.3633" x2="8.629" y2="404.0165">
				<stop  offset="0" style="stop-color:#6D3768"/>
				<stop  offset="0.3707" style="stop-color:#813A77"/>
				<stop  offset="0.7343" style="stop-color:#8F3C82"/>
				<stop  offset="1" style="stop-color:#953D87"/>
			</linearGradient>
			<path class="st12" d="M584.2,455.4c-4.7,3.3-10.4,6.9-17.5,10.7c0.9,3,1.4,6.2,1.4,9.6v46.4c0,18.3-14.8,33.1-33.1,33.1h23
				c18.3,0,33.1-14.8,33.1-33.1v-46.4C591.2,468.1,588.6,461.1,584.2,455.4z"/>
		</g>
		<g>
			<ellipse class="st13" cx="274.7" cy="316.3" rx="241.5" ry="2.1"/>
		</g>
		<g>
			<ellipse class="st13" cx="299.1" cy="442.7" rx="265.8" ry="2.1"/>
		</g>
	</g>
	<g>
		<polygon class="st14" points="487.9,230.3 221.4,230.3 221.4,207.7 487.9,207.7 		"/>
		<polygon class="st15" points="487.9,230.3 221.4,230.3 221.4,222.9 487.9,223 		"/>
		<polygon class="st16" points="487.9,215.1 221.4,215 221.4,207.7 487.9,207.7 		"/>
		<path class="st17" d="M221.4,230.3l-10.9-5.4l-2.5-1.3l-11.6-4.5l11.6-4.6l2.5-1.3l10.9-5.5C230.1,219.6,221.4,230.3,221.4,230.3z
			"/>
		<path class="st18" d="M208,223.6l-11.6-4.5l11.6-4.6c0.7,1.4,1.1,2.9,1.1,4.6C209.2,220.6,208.8,222.2,208,223.6z"/>
		
			<rect x="478.9" y="207.7" transform="matrix(1 -2.189835e-03 2.189835e-03 1 -0.4784 1.0591)" class="st4" width="9" height="22.6"/>
		<path class="st19" d="M503.7,222.2L503.7,222.2c0,4.5-4.6,8.1-10.1,8.1h-5.7v-22.6h5.7c5.6,0,10.1,3.6,10.1,8.1L503.7,222.2z"/>
	</g>
	<g>
		<path class="st20" d="M145.3,329.1c-2.3,5.8-4.7,11.7-7,17.5c-1.7,4.2-3.4,9-1.4,13.1c1.7,3.6,5.9,5.4,9.9,5.8
			c3.9,0.4,7.8-0.4,11.2-2.4c5.4-3.3,8.6-9.4,9.7-15.7s0.4-12.6-0.4-18.9C159.9,328,152.4,327.9,145.3,329.1z"/>
		<path class="st20" d="M89,329.1c2.3,5.8,4.7,11.7,7,17.5c1.7,4.2,3.4,9,1.4,13.1c-1.7,3.6-5.9,5.4-9.9,5.8
			c-3.9,0.4-7.8-0.4-11.2-2.4c-5.4-3.3-8.6-9.4-9.7-15.7c-1.1-6.2-0.4-12.6,0.4-18.9C74.3,328,81.8,327.9,89,329.1z"/>
		<linearGradient id="SVGID_8_" gradientUnits="userSpaceOnUse" x1="69.1857" y1="187.1599" x2="183.7608" y2="362.842">
			<stop  offset="0" style="stop-color:#4A1D41"/>
			<stop  offset="9.703219e-03" style="stop-color:#4A1D41"/>
			<stop  offset="0.6139" style="stop-color:#52234B"/>
			<stop  offset="1" style="stop-color:#54264F"/>
		</linearGradient>
		<path class="st21" d="M189.7,251.3c-1.1,8.8-2.4,17.6-3.9,26.3c-4.1,24-9.7,35.1-16.7,54.7c-9.2,1.4-18.7,2.4-28.5,3.1
			c7.8-36.2,10.4-60.6,9.3-99.6c-10.7-2.4-21.8-4-32.8-4.7c-11.1,0.7-22.1,2.3-32.8,4.7c-1.1,38.9,1.6,63.3,9.3,99.6
			c-9.8-0.6-19.2-1.7-28.4-3.1c-9.7-29-16.6-47.9-20.7-81c-1.3-10.6-2.3-21.8,1.7-31.7c2.8-7.1,8-13.1,14.1-17.8
			c0.9-0.7,1.8-1.4,2.7-2c2-1.4,4-2.6,6.1-3.8c5.6-3.2,11.5-5.7,17.3-8.3c10,0.1,20.4-0.2,30.7-0.4c10.3,0.2,20.7,0.5,30.7,0.4
			c5.9,2.6,11.8,5.1,17.3,8.3c2.1,1.2,4.1,2.4,6.1,3.8c7.2,5,13.6,11.6,16.8,19.8C192,229.5,191,240.6,189.7,251.3z"/>
		<path class="st13" d="M189.7,251.3c-1.1,8.8-2.4,17.6-3.9,26.3c0-0.5,0-1,0-1.5c-0.5-18.7-6.9-38.1-21.1-50.2
			c-12.8-10.9-30.1-14.7-46.7-17.4c-19.1-3.1-38.4-5.4-57.7-6.7c0.2-0.2,0.5-0.4,0.7-0.5c8.5-0.1,25.6,0,38.8,0.1
			c3,0,5.7,0.1,8.1,0.1c5.5,0.1,9.2,0.1,9.2,0.1s7.5-0.1,17.3-0.2c4.5,0,9.5-0.1,14.5-0.1c4.5,0,9,0,13,0c4.5,0,8.4,0,11.3,0.1
			c6.4,4.8,11.9,11,14.8,18.4C192,229.5,191,240.6,189.7,251.3z"/>
		<linearGradient id="SVGID_9_" gradientUnits="userSpaceOnUse" x1="153.21" y1="224.6198" x2="62.5814" y2="101.5521">
			<stop  offset="0" style="stop-color:#651F5D"/>
			<stop  offset="0.2586" style="stop-color:#692260"/>
			<stop  offset="0.533" style="stop-color:#742869"/>
			<stop  offset="0.8135" style="stop-color:#86347A"/>
			<stop  offset="0.9747" style="stop-color:#953D87"/>
		</linearGradient>
		<path class="st22" d="M185.3,189.2c-0.1,1.8-0.4,3.8-0.8,5.7c-0.9,3.8-4.3,6.5-8.2,6.5c-2.8-0.1-8.1-0.1-14.4-0.1c-4,0-8.5,0-13,0
			c-4.9,0-9.9,0.1-14.5,0.1c-9.8,0.1-17.3,0.2-17.3,0.2s-3.7,0-9.2-0.1c-2.4,0-5.2,0-8.1-0.1c-15.1-0.1-35.5-0.2-41.9,0
			c-1.9,0-3.8-0.7-5.2-1.8c-1.5-1.1-2.5-2.8-3-4.7c-0.4-1.9-0.7-3.9-0.8-5.7c-0.1-1-0.1-1.9,0-2.7c0.3-5.8,10.2-41.3,13.2-46.7
			c0.9-1.7,1.9-3.3,3-5c4.4-6.9,9.9-13.2,16.8-17.6c3.2-2,6.5-3.5,10-4.8c-1.1-1.6-1.9-3.4-1.9-5.4c0-3.7,2.6-7,5.8-8.9
			c3.2-1.9,6.9-2.6,10.5-3.2c3.2-0.6,7.4-1.1,10.8-0.5c3.4-0.6,7.6-0.1,10.8,0.5c3.6,0.6,7.4,1.3,10.5,3.2c3.2,1.9,5.8,5.2,5.8,8.9
			c0,2-0.7,3.8-1.9,5.4c3.5,1.2,6.9,2.8,10,4.8c6.9,4.4,12.4,10.7,16.8,17.6c1,1.6,2,3.3,3,5c0.6,1.1,1.5,3.5,2.5,6.5
			c3.8,11.3,9.2,32.1,10,35.3c0.4,1.6,0.6,3.2,0.7,4.9C185.4,187.2,185.4,188.2,185.3,189.2z"/>
		<path class="st23" d="M133.6,109.9c-0.7,0.5-1.6,1-2.7,1.5c-3.2,1.6-8,3-13.5,3.1c-5.5,0.1-10.3-1.3-13.5-2.8
			c-1.4-0.7-2.5-1.3-3.3-1.9c0.3-0.3,0.5-0.7,0.8-1c3.4-3.7,9.2-6.1,15.7-6.1c6.4,0,12.1,2.3,15.5,5.9
			C133,109.1,133.3,109.5,133.6,109.9z"/>
		<linearGradient id="SVGID_10_" gradientUnits="userSpaceOnUse" x1="166.6964" y1="217.3082" x2="80.0811" y2="107.6177">
			<stop  offset="0" style="stop-color:#651F5D"/>
			<stop  offset="0.2586" style="stop-color:#692260"/>
			<stop  offset="0.533" style="stop-color:#742869"/>
			<stop  offset="0.8135" style="stop-color:#86347A"/>
			<stop  offset="0.9747" style="stop-color:#953D87"/>
		</linearGradient>
		<path class="st24" d="M184.5,194.8c-0.9,3.8-4.3,6.5-8.2,6.5c-2.8-0.1-8.1-0.1-14.4-0.1c-8.5,0-18.8,0.1-27.4,0.1
			c-9.8,0.1-17.3,0.2-17.3,0.2s-3.7,0-9.2-0.1c0-3.5-0.1-7-0.1-10.5c8.4-2.8,16.7-5.6,25.1-8.3c9.4-3.1,19-6.3,28.9-6.7
			c7.9-0.3,16.2,1.4,22.8,5.7c0.4,1.6,0.6,3.2,0.7,4.9C185.5,188.7,185.2,191.9,184.5,194.8z"/>
		<linearGradient id="SVGID_11_" gradientUnits="userSpaceOnUse" x1="129.8627" y1="246.3931" x2="43.2477" y2="136.703">
			<stop  offset="0" style="stop-color:#651F5D"/>
			<stop  offset="0.2586" style="stop-color:#692260"/>
			<stop  offset="0.533" style="stop-color:#742869"/>
			<stop  offset="0.8135" style="stop-color:#86347A"/>
			<stop  offset="0.9747" style="stop-color:#953D87"/>
		</linearGradient>
		<path class="st25" d="M49.7,194.8c0.9,3.8,4.3,6.5,8.2,6.5c2.8-0.1,8.1-0.1,14.4-0.1c8.5,0,18.8,0.1,27.4,0.1
			c9.8,0.1,17.3,0.2,17.3,0.2s3.7,0,9.2-0.1c0-3.5,0.1-7,0.1-10.5c-8.4-2.8-16.7-5.6-25.1-8.3c-9.4-3.1-19-6.3-28.9-6.7
			c-7.9-0.3-16.2,1.4-22.8,5.7c-0.4,1.6-0.6,3.2-0.7,4.9C48.8,188.7,49.1,191.9,49.7,194.8z"/>
		<linearGradient id="SVGID_12_" gradientUnits="userSpaceOnUse" x1="115.8954" y1="128.1865" x2="118.8892" y2="128.1865">
			<stop  offset="0" style="stop-color:#651F5D"/>
			<stop  offset="0.2586" style="stop-color:#692260"/>
			<stop  offset="0.533" style="stop-color:#742869"/>
			<stop  offset="0.8135" style="stop-color:#86347A"/>
			<stop  offset="0.9747" style="stop-color:#953D87"/>
		</linearGradient>
		<rect x="115.9" y="108.6" class="st26" width="3" height="39.2"/>
		<path class="st27" d="M127.2,105.8c0.1,1.9,0.3,3.8,0.6,5.6c-3.3,1.3-6.9,1.9-10.7,1.9s-7.4-0.7-10.7-1.9
			c0.6-3.9,0.9-7.9,0.8-11.8c-0.1-2.8-0.3-5.5-0.8-8.2c3.6,0.7,7.2,1.3,10.8,1.8c3.6-0.6,7.2-1.1,10.8-1.8
			C127.1,96.1,126.9,101,127.2,105.8z"/>
		<path class="st28" d="M127.2,105.8c-2.6,0.6-5.3,0.8-7.9,0.4c-4.6-0.7-9-3.1-12.2-6.5c-0.1-2.8-0.3-5.5-0.8-8.2
			c3.6,0.8,7.2,1.3,10.8,1.8c3.6-0.6,7.2-1.1,10.8-1.8C127.1,96.1,126.9,101,127.2,105.8z"/>
		<path class="st27" d="M106.1,67.4c1.3,4.8,0.2,9.9-0.7,14.8c-0.9,4.9-1.4,10.2,0.9,14.6c2.3,4.3,7.4,7,12.3,6.4
			c4.9-0.6,9.2-4.3,10.5-9c1.2-4.4-0.2-9.1-0.7-13.6c-0.6-4.9-0.4-10,0.8-14.8C122,61.7,112.8,62.4,106.1,67.4z"/>
		<linearGradient id="SVGID_13_" gradientUnits="userSpaceOnUse" x1="138.8186" y1="86.6344" x2="100.6282" y2="57.196">
			<stop  offset="0" style="stop-color:#7D1541"/>
			<stop  offset="0.2079" style="stop-color:#841945"/>
			<stop  offset="0.5424" style="stop-color:#982651"/>
			<stop  offset="0.9599" style="stop-color:#BA3965"/>
			<stop  offset="1" style="stop-color:#BE3B67"/>
		</linearGradient>
		<path class="st29" d="M128.5,84.9c-2.6-4.7-2.9-11.5-1.4-16.7c-6,2.5-13,2.8-19,0.2c0,0-0.1,0-0.1,0c1.3,4.9,0.3,10.2-2.6,14.3
			c0,0-5.3-13.6,0.4-20.2c0,0,7.5-15.1,26.6-2.6c0,0,0.2,2.7-1.9,4.9C130.5,64.7,136,70.7,128.5,84.9z"/>
		<path class="st27" d="M128,82.6c0.2-0.7,0.4-1.5,0.8-2.1c0.4-0.6,1.2-1.1,1.9-1c0.7,0.1,1.3,0.7,1.7,1.4c0.9,1.6,0.9,3.7,0,5.3
			c-0.9,1.6-2.6,2.7-4.5,2.8C128,86.8,127.5,84.7,128,82.6z"/>
		<path class="st27" d="M106.2,82.6c-0.2-0.7-0.4-1.5-0.8-2.1s-1.2-1.1-1.9-1c-0.7,0.1-1.3,0.7-1.7,1.4c-0.9,1.6-0.9,3.7,0,5.3
			c0.9,1.6,2.6,2.7,4.5,2.8C106.3,86.8,106.7,84.7,106.2,82.6z"/>
		<path class="st30" d="M119.5,92.5c0.5,0,0.9,0.5,0.7,0.9c-0.4,1.3-1.6,2.3-3.1,2.3c-1.5,0-2.7-1-3.1-2.3c-0.1-0.5,0.2-0.9,0.7-0.9
			H119.5z"/>
		<path class="st20" d="M156.4,144.8H77.9c-2.5,0-4.6,2.1-4.6,4.6v47.5c0,2.5,2.1,4.6,4.6,4.6h78.5c2.5,0,4.6-2.1,4.6-4.6v-47.5
			C161,146.8,158.9,144.8,156.4,144.8z"/>
		<rect x="109.9" y="170.1" class="st31" width="14.5" height="6.1"/>
		<g>
			<path class="st23" d="M134.4,109.3c-0.2,0.2-0.5,0.4-0.8,0.5c-0.7,0.5-1.6,1-2.7,1.5c-3.2,1.6-8,3-13.5,3.1
				c-5.5,0.1-10.3-1.3-13.5-2.8c-1.4-0.7-2.5-1.3-3.3-1.9c-0.3-0.2-0.5-0.4-0.7-0.6c-0.5-0.4-0.7-0.7-0.6-0.8c0.1-0.1,0.4-0.1,1,0.1
				c0.3,0.1,0.7,0.2,1.2,0.4c0.8,0.3,1.9,0.6,3.2,1c3.2,0.9,7.8,1.9,12.8,1.8c5.1-0.1,9.6-1.1,12.8-2.2c0.9-0.3,1.8-0.6,2.5-0.8
				c0.5-0.2,0.9-0.3,1.2-0.4c1-0.3,1.6-0.5,1.7-0.3C135.7,108.2,135.3,108.7,134.4,109.3z"/>
		</g>
		<g>
			<path class="st4" d="M109.3,133.4c-0.5,0-1-0.4-1.1-0.9c-1-6.7,0.9-14,5.1-19.3c0.4-0.5,1.1-0.6,1.6-0.2c0.5,0.4,0.6,1.1,0.2,1.6
				c-3.8,4.9-5.5,11.5-4.6,17.6c0.1,0.6-0.3,1.2-0.9,1.3C109.4,133.4,109.4,133.4,109.3,133.4z"/>
		</g>
		<g>
			<path class="st4" d="M122.3,140.8c-0.1,0-0.2,0-0.4-0.1c-0.6-0.2-0.9-0.8-0.7-1.4c1.6-4.6,2.8-8.7,3-13.1
				c0.1-4.8-1.4-9.1-4.2-11.8c-0.4-0.4-0.5-1.1,0-1.6c0.4-0.4,1.1-0.5,1.6,0c3.2,3.1,5,8,4.9,13.5c-0.1,4.7-1.5,9.2-3.1,13.7
				C123.2,140.5,122.8,140.8,122.3,140.8z"/>
		</g>
	</g>
	<g>
		<linearGradient id="SVGID_14_" gradientUnits="userSpaceOnUse" x1="414.8931" y1="442.8741" x2="390.7824" y2="375.9757">
			<stop  offset="0" style="stop-color:#651F5D"/>
			<stop  offset="0.2586" style="stop-color:#692260"/>
			<stop  offset="0.533" style="stop-color:#742869"/>
			<stop  offset="0.8135" style="stop-color:#86347A"/>
			<stop  offset="0.9747" style="stop-color:#953D87"/>
		</linearGradient>
		<path class="st32" d="M394.8,377.5c-5.3,8.4-0.9,20.6-6.9,28.4c-2.8,3.7-7.5,5.6-10.6,9.2c-4.4,4.9-5,12.4-2.3,18.4
			c2.7,6,8.2,10.4,14.4,12.6c6.2,2.2,12.9,2.4,19.4,1.6c6.4-0.8,12.9-2.6,18.1-6.4c9-6.7,12.8-18.7,11.8-29.8
			c-1-11.1-6.1-21.5-12.2-30.9c-1.7-2.5-3.4-5.1-5.9-6.9c-2.3-1.7-4.8-2.3-7.6-2.2c-2.2,0.1-4.3-0.5-6.4-0.5
			C401.8,371.3,397.2,373.6,394.8,377.5z"/>
		<g>
			<path class="st31" d="M373.5,428.5c-0.2,0-0.7-1.4-0.7-4.2c0-1.4,0.2-3.1,0.8-5c0.6-1.9,1.7-4,3.5-5.8c1.7-1.8,4-3.4,6.1-5.1
				c1.1-0.8,2.1-1.8,3-2.8c0.9-1,1.6-2.2,2.2-3.6c1.1-2.7,1.5-5.9,1.7-9.3c0.2-3.4,0.3-7,1.2-10.8c0.2-0.9,0.5-1.9,0.9-2.8
				c0.4-0.9,0.8-1.8,1.3-2.6c0.5-0.8,1.1-1.6,1.8-2.3c0.7-0.7,1.4-1.3,2.2-1.9c3.1-2.2,6.8-3.1,10.2-2.8c1.7,0.1,3.2,0.5,4.5,0.5
				c0.2,0,0.3,0,0.5,0l0.6,0c0.4,0,0.8,0,1.2,0.1c0.8,0.1,1.6,0.2,2.3,0.4c1.5,0.4,2.9,1.1,4,1.9c1.1,0.8,2.1,1.8,2.9,2.8
				c1.6,1.9,2.7,3.8,3.7,5.5c1,1.6,1.8,3.1,2.4,4.3c1.2,2.4,1.7,3.8,1.5,3.9c-0.2,0.1-1-1.1-2.5-3.3c-0.7-1.1-1.7-2.5-2.7-4
				c-1.1-1.5-2.3-3.3-3.8-5c-0.8-0.8-1.7-1.6-2.6-2.3c-1-0.7-2.1-1.2-3.3-1.4c-0.6-0.1-1.3-0.2-1.9-0.3c-0.3,0-0.7,0-1,0l-0.5,0
				c-0.2,0-0.4,0-0.6,0c-1.6,0-3.2-0.3-4.6-0.4c-2.8-0.1-5.9,0.7-8.5,2.5c-0.6,0.5-1.2,1-1.8,1.5c-0.5,0.6-1,1.2-1.4,1.9
				c-0.4,0.7-0.8,1.4-1.1,2.2c-0.3,0.8-0.6,1.6-0.8,2.4c-0.8,3.3-0.9,6.9-1.2,10.3c-0.2,3.5-0.7,7-2,10.1c-0.7,1.6-1.6,3-2.7,4.2
				c-1.1,1.2-2.3,2.2-3.5,3c-2.3,1.7-4.5,3-6.1,4.6c-1.6,1.5-2.7,3.3-3.4,5c-0.7,1.7-1,3.2-1.2,4.5
				C373.6,427,373.8,428.5,373.5,428.5z"/>
		</g>
		<path class="st27" d="M425.2,441.7c-3.1,1.9-6.8,2.7-10.4,2.3c-3.6-0.4-6.6-2.2-9.2-4.8c0.7-3.1,1.2-6.3,1.5-9.5
			c0.4-3.8,0.4-7.6,0.2-11.4c-0.2-4-0.8-7.9-1.6-11.8c4.8,2.2,9.6,4.6,13.3,8.4c0.1,2.1,0.2,4.2,0.5,6.2c0.3,2.4,0.7,4.8,1.2,7.1
			C421.8,432.9,423.2,437.4,425.2,441.7z"/>
		<path class="st28" d="M420.7,428.3c-5.3-1.9-10.1-5.4-13.4-9.9c-0.2-4-0.8-7.9-1.6-11.8c4.8,2.2,9.6,4.6,13.3,8.4
			c0.1,2.1,0.2,4.2,0.5,6.2C419.8,423.6,420.2,425.9,420.7,428.3z"/>
		<path class="st27" d="M405.4,406.1c0.3,1.2,0.6,2.3,0.8,3.5c0.1,0.4,0.1,0.9,0.1,1.3c0.1,0.2,0.2,0.4,0.4,0.5
			c2.1,3.1,4.9,5.8,8.4,6.9c3.5,1.1,7.8,0.3,10.1-2.6c2.1-2.7,2-6.6,1-9.8c-1-3.3-2.8-6.2-3.9-9.5c-0.6-1.6-0.9-3.4-1-5.1
			c0-1.4,0.2-2.8,0.8-4.1c-1.2,1.1-2.7,2-4.2,2.8c-2.6,1.3-5.3,2.2-7.8,3.7c-2.5,1.5-4.7,3.7-5.2,6.5
			C404.6,402.2,405,404.2,405.4,406.1z"/>
		<path class="st20" d="M384.9,548.4c-7.6-3.8-17.1-4.8-25.6-2.8c-2.6,0.6-5.2,1.6-7.1,3.2c-1.9,1.6-3,4.1-2.2,6.3
			c1.1,3.1,5.2,4.6,9,5.1c7.5,1.1,15.5-0.2,22-3.6C382.2,553.7,383.7,551.3,384.9,548.4z"/>
		<path class="st20" d="M377,549.2c1.7,3,1.2,6.9-0.3,10c-1.5,3.1-3.8,5.8-5.9,8.5c-2.1,2.8-4,5.8-4.4,9.2c-0.4,3.4,1,7.3,4.2,8.8
			c3.7,1.7,8.1-0.4,11.1-3.1c4.5-4.1,7.5-9.8,8.4-15.8c0.9-6-0.4-12.3-3.5-17.6C383.6,547.7,380,548.3,377,549.2z"/>
		<linearGradient id="SVGID_15_" gradientUnits="userSpaceOnUse" x1="485.469" y1="510.1581" x2="396.6844" y2="403.3155">
			<stop  offset="0" style="stop-color:#FAA43B"/>
			<stop  offset="0.2865" style="stop-color:#F9A93B"/>
			<stop  offset="0.7091" style="stop-color:#F9B73C"/>
			<stop  offset="1" style="stop-color:#F9C33C"/>
		</linearGradient>
		<path class="st33" d="M516.7,428.3L489,488.8c-3.5,7.6-13,10-19.7,5.1l-10.5-7.7l-19.5-14.3c0,0,0,0,0,0.1c-0.1,0.3-0.1,0.7-0.2,1
			c0,0,0,0,0,0c-2.2,10.3-3.9,28-5,35.6c-0.5,3.4-0.9,6.9-1.2,10.3c0,0.5-0.1,0.9-0.1,1.4c-0.1,0.9-0.1,1.8-0.2,2.7
			c-5.6,1.7-11.6,2.6-17.8,2.6c-6.2,0-12.2-0.9-17.8-2.6c0-0.9-0.1-1.8-0.2-2.7c0-0.5-0.1-0.9-0.1-1.4c-0.3-3.4-0.7-6.9-1.2-10.3
			c-0.3-1.7-0.5-3.9-0.8-6.4c-0.4-2.9-0.7-6.2-1.2-9.7c-1.1-9.1-2.5-19-4.1-24c-0.2-0.7-0.5-1.4-0.7-2.1c-2.2-6.5-4.8-12.9-7.8-19
			c4.6-6.5,11-11.6,18.6-14.6c0.1,0,0.2-0.1,0.3-0.1c0.8-0.3,1.6-0.6,2.4-0.8c4-1.3,8.2-2,12.6-2h0.4c4.4,0.1,8.6,0.8,12.6,2
			c20.1,5.8,47.8,39.5,48.2,40c0,0,0,0,0,0l31.2-47.8L516.7,428.3z"/>
		<path class="st15" d="M439.1,473.1c-2.2,10.3-3.9,28-5,35.6c-0.5,3.4-0.9,6.9-1.2,10.3c0,0.5-0.1,0.9-0.1,1.4
			c-0.1,0.9-0.1,1.8-0.2,2.7c-5.6,1.7-11.6,2.6-17.8,2.6c-6.2,0-12.2-0.9-17.8-2.6c0-0.9-0.1-1.8-0.2-2.7c0-0.5-0.1-0.9-0.1-1.4
			c-0.3-3.4-0.7-6.9-1.2-10.3c-0.3-1.7-0.5-3.9-0.8-6.4C426.2,520.3,437.3,480.5,439.1,473.1z"/>
		<path class="st27" d="M427.6,431.9c-2.9,7.7-7.5,12.7-12.8,12.7c-5.3,0-9.9-5-12.8-12.7c4-1.3,8.2-2,12.6-2h0.4
			C419.4,429.9,423.6,430.6,427.6,431.9z"/>
		<linearGradient id="SVGID_16_" gradientUnits="userSpaceOnUse" x1="462.1333" y1="577.1121" x2="369.5867" y2="442.4303">
			<stop  offset="0" style="stop-color:#4A1D41"/>
			<stop  offset="9.703219e-03" style="stop-color:#4A1D41"/>
			<stop  offset="0.6139" style="stop-color:#52234B"/>
			<stop  offset="1" style="stop-color:#54264F"/>
		</linearGradient>
		<path class="st34" d="M502.4,539.2c-2.1,7.2-7.8,12.9-14.4,16.3c-6.6,3.5-14,5-21.4,6c-30.1,4.1-60.9,2.1-91-1.4
			c0.3-17.3-6.5-33.8-12.7-50c-6.1-16.2-11.7-33.4-9-50.5c0.7-4.5,2.1-9,4.8-12.6c2.7-3.6,7-6.3,11.6-6.1c4.6,0.1,8.7,3,11.5,6.7
			c1.2,1.6,2.2,3.4,3.1,5.3c1.1,2.3,1.9,4.7,2.8,7c3.9,10.8,7.9,21.5,11.8,32.3c2,5.5,4.1,11.1,7.6,15.9c3.5,4.7,8.6,8.6,14.5,9.2
			c18.2,1.7,37.7-0.8,56-1.5c0.4,0,0.8,0,1.2,0c6.1-0.2,12.6-0.1,17.6,3.4C502.3,523.4,504.5,532,502.4,539.2z"/>
		<path class="st20" d="M477.4,515.8c-18.2,0.6-37.8,3.2-56,1.5c-5.9-0.5-11-4.4-14.5-9.2c-3.5-4.7-5.5-10.4-7.6-15.9
			c-3.9-10.6-7.7-21.2-11.6-31.8c0-0.1-0.1-0.2-0.1-0.3c-0.2-0.8-0.5-1.5-0.7-2.2c-0.8-2.6-1.4-3.6-1.3-3c-0.3-0.7-0.6-1.4-0.9-2.1
			c1.8,6,3.3,12,4.6,18.1c0.1,0.4,0.1,0.7,0.2,1.1c0.1,0.7,0.3,1.4,0.4,2.1c0,0.3,0.1,0.5,0.1,0.8c0.1,0.7,0.2,1.4,0.4,2.1
			c0.1,0.7,0.2,1.4,0.4,2.1c0.1,0.3,0.1,0.7,0.2,1c0,0,0,0.1,0,0.1c0,0,0,0,0,0c0,0.3,0.1,0.7,0.2,1.1c0.2,1.4,0.4,2.9,0.7,4.4
			c0,0.1,0,0.1,0,0.2c0.1,0.7,0.2,1.4,0.3,2.2c0.7,5.7,1.3,12,1.6,18.5c0.3,7.4,0.3,14.4,0,20.8c-0.1,1.6-0.2,3.1-0.2,4.7
			c0,0.4,0,0.8-0.1,1.1c0,0.4-0.1,0.7-0.1,1.1c-0.1,0.7-0.1,1.4-0.2,2.2c-0.1,0.7-0.1,1.4-0.2,2.1c-0.1,0.7-0.1,1.4-0.2,2
			c0,0.3-0.1,0.5-0.1,0.8c-0.1,1-0.2,2-0.3,3c-0.2,2.4-0.6,4.6-0.8,6.5c-0.1,0.9-0.2,1.8-0.4,2.7c-0.1,0.8-0.2,1.6-0.3,2.2
			c-0.4,2.7-0.6,4.2-0.5,4.2c0.1,0,0.5-1.4,1.1-4.1c0.1-0.7,0.3-1.4,0.5-2.2c0.2-0.8,0.3-1.7,0.5-2.6c0.3-1.9,0.7-4.1,1-6.5
			c0.1-1.1,0.3-2.3,0.5-3.5c20.7-6.5,41.3-13,62-19.5c7.4-2.3,15-4.6,22.6-5.7C478.2,515.8,477.8,515.8,477.4,515.8z"/>
		<path class="st27" d="M404.8,401.7c-0.2-0.5-0.4-1-0.7-1.4c-0.3-0.4-0.9-0.7-1.4-0.6c-0.5,0.1-0.8,0.4-1,0.8
			c-0.2,0.4-0.3,0.9-0.3,1.3c-0.1,1.7,0.5,3.4,1.6,4.8c1.1,1.3,2.6,2.3,4.3,2.6c-0.2-1.2-0.4-2.5-0.6-3.7c-0.1-0.7-0.3-1.5-0.6-2.1
			C405.7,402.7,405.5,402,404.8,401.7z"/>
		<path class="st31" d="M406.4,410.7c0,1.1-0.9,2.1-2.1,2.1c-1.1,0-2.1-0.9-2.1-2.1c0-1.1,0.9-4.2,2.1-4.2
			C405.5,406.6,406.4,409.6,406.4,410.7z"/>
		<path class="st35" d="M423.5,407.9c-1.2,0.6-2.5,0.9-3.8,0.9c-0.3,0-0.5,0.3-0.4,0.6c0.3,0.7,0.7,1.4,1.4,1.6
			c0.9,0.2,2-0.1,2.7-0.8c0.5-0.5,0.7-1.2,0.7-1.9C424,408,423.7,407.8,423.5,407.9z"/>
		<linearGradient id="SVGID_17_" gradientUnits="userSpaceOnUse" x1="510.5345" y1="453.4076" x2="461.7007" y2="414.0923">
			<stop  offset="0" style="stop-color:#4A1D41"/>
			<stop  offset="9.703219e-03" style="stop-color:#4A1D41"/>
			<stop  offset="0.6139" style="stop-color:#52234B"/>
			<stop  offset="1" style="stop-color:#54264F"/>
		</linearGradient>
		<path class="st36" d="M512,413.4h-50.7c-1.9,0-3.4,1.4-3.6,3.2l-3.9,31.1c-0.3,2.2,1.4,4.1,3.6,4.1H508c1.9,0,3.4-1.4,3.6-3.2
			l3.9-31.1C515.9,415.3,514.2,413.4,512,413.4z"/>
		<path class="st31" d="M375.8,559.9c0.1-1.9,0.3-5-0.1-9c-0.1-1-0.2-2.1-0.4-3.3c-0.2-1.2-0.4-2.4-0.6-3.7
			c-0.5-2.5-1.1-5.3-1.8-8.2c-0.4-1.5-0.8-2.9-1.3-4.5c-0.5-1.5-1-3.1-1.5-4.7c-1.1-3.2-2.2-6.5-3.5-9.9c-2.5-6.8-5.4-14.1-7.7-21.9
			c-2.8-9.1-4.5-18.1-4.5-26.3c0-8.1,1.3-15.7,4.8-20.6c1.7-2.4,3.9-4.2,6-5.2c2.1-1,4.2-1.3,5.9-1.1c1.7,0.1,3,0.6,3.8,0.9
			c0.9,0.3,1.3,0.5,1.4,0.4c0-0.1-0.3-0.4-1.1-0.9c-0.8-0.5-2.1-1.1-3.9-1.4c-1.8-0.3-4.2-0.2-6.7,0.8c-2.5,1-5,2.8-7,5.4
			c-2,2.6-3.5,6-4.4,9.7c-0.2,0.9-0.4,1.9-0.6,2.8c-0.1,1-0.3,2-0.4,3c-0.1,1-0.2,2-0.3,3.1c-0.1,0.5-0.1,1-0.1,1.6
			c0,0.5,0,1.1,0,1.6c-0.1,8.5,1.6,17.8,4.4,27.1c2.4,7.9,5.3,15.2,8,22c1.3,3.4,2.6,6.7,3.7,9.8c0.6,1.6,1.1,3.1,1.6,4.6
			c0.5,1.5,1,2.9,1.4,4.4c0.9,2.8,1.5,5.5,2.1,8c0.3,1.2,0.5,2.4,0.7,3.5c0.2,1.1,0.4,2.2,0.5,3.2c0.6,4.1,0.7,7.2,0.9,9.1l0,0.3
			l0.3,0c1.4,0,2.1,0,2.1-0.1C377.6,560.3,377,560.1,375.8,559.9z"/>
		<path class="st31" d="M512.8,413.2c-0.2-0.1-0.3-0.1-0.5-0.1c-0.2,0-0.4-0.1-0.6-0.1c-0.4,0-1-0.1-1.5-0.1
			c-2.3-0.2-5.7-0.3-9.8-0.4c-8.3-0.3-19.8-0.4-32.5-0.4c-1.6,0-3.2,0-4.7,0c-0.4,0-0.8,0-1.2,0l-0.6,0c-0.2,0-0.5,0-0.8,0.1
			c-1,0.2-2,0.6-2.7,1.4c-0.7,0.7-1.2,1.7-1.4,2.6l-0.1,0.4l0,0.3l-0.1,0.5c0,0.4-0.1,0.7-0.1,1.1c-0.2,1.4-0.3,2.8-0.5,4.2
			c-0.6,5.5-1.1,10.4-1.5,14.5c-0.4,4.1-0.7,7.5-0.8,9.8c0,0.3,0,0.6,0,0.8c0,0.3,0,0.6,0,0.8c0.1,0.5,0.3,0.9,0.4,1.2
			c0.3,0.6,0.7,0.8,0.7,0.7c0.1-0.1-0.1-0.4-0.2-0.9c-0.1-0.3-0.1-0.6-0.1-1c0-0.2,0-0.4,0.1-0.6c0.1-0.3,0.1-0.5,0.2-0.8
			c0.5-2.3,1-5.6,1.7-9.7c0.6-4.1,1.4-9,2.1-14.5c0.2-1.4,0.4-2.8,0.6-4.2c0-0.4,0.1-0.7,0.1-1.1l0.1-0.5l0-0.3l0-0.2
			c0.1-0.5,0.3-0.9,0.7-1.2c0.3-0.3,0.8-0.5,1.3-0.6c0.1,0,0.2,0,0.4,0l0.6,0c0.4,0,0.8,0,1.2,0c1.5,0,3.1,0,4.7,0
			c12.7,0,24.2-0.2,32.5-0.4c4.2-0.1,7.5-0.3,9.8-0.4c0.6,0,1.1-0.1,1.5-0.1c0.5-0.1,0.8-0.1,1.1-0.1c0.6,0,0.9,0.1,0.9,0
			C513.7,413.7,513.4,413.4,512.8,413.2z"/>
		<path class="st27" d="M516.6,431.7c1.7-2.9,1.8-6.7,0.5-9.1c-1.3-2.4-3.9-3.4-6.5-2.9c-1.3,0.2-2.6,0.9-3.6,2.1
			c-1.1,1.4-1.5,3.4-1.8,5.1c-0.4,2.3-0.8,4.8,0.1,6.5c0.7,1.3,2,1.8,3.3,1.9c1.3,0,2.7-0.4,4.1-0.8
			C513.9,434.2,515.8,433.1,516.6,431.7z"/>
	</g>
</g>
</svg>
