<?xml version="1.0" encoding="utf-8"?>
<!-- Generator: Adobe Illustrator 24.0.1, SVG Export Plug-In . SVG Version: 6.00 Build 0)  -->
<svg version="1.1" xmlns="http://www.w3.org/2000/svg" xmlns:xlink="http://www.w3.org/1999/xlink" x="0px" y="0px"
	 viewBox="0 0 597.4 580.9" style="enable-background:new 0 0 597.4 580.9;" xml:space="preserve">
<style type="text/css">
	.st0{opacity:0.33;fill:#B8E5FF;}
	.st1{fill:#B8E5FF;}
	.st2{fill:#94D5FF;}
	.st3{fill:#50BCFF;}
	.st4{opacity:0.68;fill:#94D5FF;}
	.st5{fill:#FFFFFF;}
	.st6{fill:#FFD245;}
	.st7{opacity:0.4;fill:#50BCFF;}
	.st8{opacity:0.83;fill:#FFFFFF;}
	.st9{opacity:0.36;}
	.st10{fill:#004DBE;}
	.st11{fill:#E79F8B;}
	.st12{fill:#C72C19;}
	.st13{fill:#D44459;}
	.st14{opacity:0.38;fill:#50BCFF;}
	.st15{opacity:0.51;fill:#F59711;}
	.st16{opacity:0.5;fill:#F55E11;}
	.st17{opacity:0.54;fill:#004DBE;}
	.st18{opacity:0.45;fill:#004DBE;}
	.st19{clip-path:url(#XMLID_4_);fill:#50BCFF;}
	.st20{opacity:0.24;clip-path:url(#XMLID_4_);fill:#50BCFF;}
	.st21{clip-path:url(#XMLID_5_);fill:#50BCFF;}
	.st22{opacity:0.24;clip-path:url(#XMLID_5_);fill:#50BCFF;}
	.st23{opacity:0.29;fill:#663BFF;}
	.st24{fill:#F59711;}
	.st25{opacity:0.3;fill:#D44459;}
	.st26{opacity:0.27;fill:#F59711;}
	.st27{opacity:0.1;fill:#D44459;}
	.st28{fill:#FFA18B;}
	.st29{clip-path:url(#SVGID_2_);fill:#50BCFF;}
	.st30{opacity:0.24;clip-path:url(#SVGID_2_);fill:#50BCFF;}
	.st31{fill:#FFC9B0;}
	.st32{opacity:0.3;fill:#FFC9B0;}
	.st33{clip-path:url(#XMLID_6_);fill:#FFC9B0;}
	.st34{opacity:0.21;}
	.st35{opacity:0.8;fill:#50BCFF;}
	.st36{opacity:0.51;fill:#94D5FF;}
	.st37{opacity:0.35;fill:#50BCFF;}
	.st38{opacity:0.46;fill:#50BCFF;}
	.st39{fill:#414379;}
</style>
<g id="BACKGROUND">
</g>
<g id="OBJECTS">
	<g>
		<g>
			<path class="st0" d="M10.9,377.4c4.9,39,33,32.5,37.5,77.8c1.6,16.2-10.4,26.3-16.4,40.3c-6.6,15.5-4.3,29.4,4.7,40h489.1
				c10.8-4.9,21.1-10,30.1-16.3c12.4-8.5,22.1-19.1,27.1-33.5c4.5-13.1,8-25.6-3.9-35.5c-6.4-5.4-13.1-9.5-18.9-14.5
				c-4.4-3.7-8.2-8-11.2-13.6c-21.3-40.9,6-76.9,16.1-117.9c1-4,1.9-8,2.6-12c1.8-10.3,2.7-20.7,1.6-30.8c-1-9.3-3.6-18.4-8.6-26.9
				c-7.5-12.8-26.8-31.8-47.5-28.1c-15.6,2.7-25.4,17.7-39.5,23.1c-17.7,6.8-37.4,1.4-50.7-8.7c-25.9-19.5-42.4-56.5-86.6-53.1
				c-15,1.1-25.1,13-38.2,18.4c-18.1,7.5-35.9,7.4-53.2,0.1c-19.9-8.4-33.5-23.9-53-32.8c-6.4-2.9-13.3-5.5-20.6-7.4
				c-15.7-4.2-32.8-5.7-49-2.5c-3.4,0.7-6.7,1.5-9.8,2.5c-54.1,16.6-56.6,71.2-54.1,111c1.2,18.2,15.8,49.7,5,68.5
				C52.6,344.2,6.1,339.7,10.9,377.4z"/>
			<g>
				<g>
					<polygon class="st1" points="491.3,535.4 495.8,535.4 496.4,515.4 484.9,515.4 					"/>
					<polygon class="st1" points="406.2,535.4 401.6,535.4 401.1,515.4 412.6,515.4 					"/>
				</g>
				
					<rect x="395.1" y="320.4" transform="matrix(-1 -1.224647e-16 1.224647e-16 -1 897.4699 838.0304)" class="st2" width="107.3" height="197.3"/>
				<g>
					<g>
						
							<rect x="404.2" y="335.3" transform="matrix(-1 -1.224647e-16 1.224647e-16 -1 897.4699 709.2998)" class="st1" width="89.1" height="38.8"/>
						<circle class="st2" cx="448.7" cy="354.6" r="5.9"/>
					</g>
					<g>
						
							<rect x="404.2" y="378.2" transform="matrix(-1 -1.224647e-16 1.224647e-16 -1 897.4699 795.1202)" class="st1" width="89.1" height="38.8"/>
						<circle class="st2" cx="448.7" cy="397.6" r="5.9"/>
					</g>
					<g>
						
							<rect x="404.2" y="421.1" transform="matrix(-1 -1.224647e-16 1.224647e-16 -1 897.4699 880.9406)" class="st1" width="89.1" height="38.8"/>
						<circle class="st2" cx="448.7" cy="440.5" r="5.9"/>
					</g>
					<g>
						
							<rect x="404.2" y="464" transform="matrix(-1 -1.224647e-16 1.224647e-16 -1 897.4699 966.761)" class="st1" width="89.1" height="38.8"/>
						<circle class="st2" cx="448.7" cy="483.4" r="5.9"/>
					</g>
				</g>
				
					<rect x="391.9" y="317.1" transform="matrix(-1 -1.224647e-16 1.224647e-16 -1 897.47 641.6652)" class="st1" width="113.6" height="7.4"/>
			</g>
			<g>
				<g>
					<g>
						<g>
							<path class="st2" d="M463.2,186.1c1.3-3.6-1.4-8.1-4.9-10.5c-2.3-1.5-5.1-2.5-6.5-4.6c0.1,2.7,0.8,5,2.6,7.6
								C456.4,181.4,459.4,184.3,463.2,186.1z"/>
							<path class="st1" d="M463.2,187.3c-0.5-2,1.6-3.8,2.9-4.9c1.3-1.1,2.8-2,4-3.2c2.5-2.6,2.6-7.7-0.2-10.5
								c0.8,0.7-0.4,3-0.8,3.7c-0.9,1.4-2.3,2.5-3.5,3.7C462.7,179,462.2,183.2,463.2,187.3z"/>
							<path class="st1" d="M462.5,183.6c0.6-1.8-1.2-4-2.4-5.2c-1.2-1.3-2.6-2.4-3.6-3.8c-2.2-3-1.9-7.9,1.1-10
								c-0.8,0.5,0.2,3,0.5,3.7c0.8,1.5,2.1,2.8,3.1,4.2C463.7,175.6,463.9,179.8,462.5,183.6z"/>
							<path class="st2" d="M463.6,183.1c0.6-0.2,1.3-1,1.6-1.5c0.6-0.9,0.9-1.8,1.1-2.9c0.4-2.5-0.3-5-0.5-7.5
								c-0.1-1.9,0-3.8,0.7-5.5c0.3-0.9,0.9-1.6,1.4-2.4c0-0.1-0.8,0.2-0.8,0.2c-5.1,2.3-6.1,7-5.2,11.8c0.3,1.5,0.5,3,1,4.5
								C463.1,180.9,463.8,182.1,463.6,183.1z"/>
						</g>
						<g>
							<polygon class="st1" points="456.5,195.9 467,195.9 470.4,184.9 453.1,184.9 							"/>
							<polygon class="st2" points="456,196.7 467.5,196.7 467.6,195 455.9,195 							"/>
							<polygon class="st2" points="452.8,186.2 470.8,186.2 471.1,182.8 452.4,182.8 							"/>
						</g>
					</g>
					<path class="st2" d="M391.4,175.7l-1.2,2.5c-0.5,0.9-1.4,1.6-2.4,1.8l-2.8,0.4c-2.6,0.4-3.7,3.6-1.8,5.5l2,2
						c0.8,0.7,1.1,1.8,0.9,2.8l-0.5,2.8c-0.4,2.6,2.3,4.6,4.6,3.4l2.5-1.3c0.9-0.5,2-0.5,3,0l2.5,1.3c2.3,1.2,5.1-0.8,4.6-3.4
						l-0.5-2.8c-0.2-1,0.2-2.1,0.9-2.8l2-2c1.9-1.9,0.9-5.1-1.8-5.5l-2.8-0.4c-1-0.2-1.9-0.8-2.4-1.8l-1.2-2.5
						C396,173.3,392.6,173.3,391.4,175.7z"/>
					<g>
						
							<rect x="421.3" y="154.6" transform="matrix(-1 -1.224647e-16 1.224647e-16 -1 854.0121 351.5786)" class="st2" width="11.5" height="42.3"/>
						
							<rect x="415" y="160.2" transform="matrix(-1 -1.224647e-16 1.224647e-16 -1 836.6168 357.1038)" class="st3" width="6.5" height="36.8"/>
						
							<rect x="432.5" y="169.5" transform="matrix(-1 -1.224647e-16 1.224647e-16 -1 874.6846 366.4313)" class="st1" width="9.6" height="27.4"/>
						
							<rect x="432.5" y="173.7" transform="matrix(-1 -1.224647e-16 1.224647e-16 -1 874.6846 350.5527)" class="st4" width="9.6" height="3.2"/>
						
							<rect x="432.5" y="190.4" transform="matrix(-1 -1.224647e-16 1.224647e-16 -1 874.6846 384.0741)" class="st4" width="9.6" height="3.2"/>
						
							<rect x="407.5" y="157.8" transform="matrix(-1 -1.224647e-16 1.224647e-16 -1 823.1183 354.6909)" class="st2" width="8.1" height="39.2"/>
						
							<rect x="409.6" y="169.6" transform="matrix(-1 -1.224647e-16 1.224647e-16 -1 823.1182 356.8081)" class="st1" width="3.8" height="17.6"/>
					</g>
					<g>
						<g>
							<g>
								<rect x="392.3" y="206.1" class="st2" width="6.8" height="16.4"/>
								<rect x="387.9" y="204.6" class="st2" width="15.6" height="4.7"/>
							</g>
							<g>
								<rect x="459.8" y="206.1" class="st2" width="6.8" height="16.4"/>
								<rect x="455.4" y="204.6" class="st2" width="15.6" height="4.7"/>
							</g>
						</g>
						<rect x="376.2" y="196.5" class="st1" width="106.3" height="8.9"/>
					</g>
				</g>
				<g>
					<g>
						<path class="st2" d="M512.7,248.1h6.9c0.2,0,0.5,0.2,0.5,0.4l12.3,20.8c0.2,0.4-0.2,0.9-0.6,0.9l-12,0c-0.2,0-0.5-0.2-0.5-0.4
							L512,249C511.9,248.6,512.2,248.1,512.7,248.1z"/>
						<polygon class="st3" points="526.1,239.7 489.8,239.7 484.9,270.3 521.2,270.3 						"/>
						<polygon class="st2" points="524.9,239.7 488.5,239.7 483.6,270.3 520,270.3 						"/>
						<polygon class="st5" points="521.5,242.5 490.9,242.5 486.9,267.5 517.5,267.5 						"/>
						<polygon class="st2" points="516.4,247.3 494.5,247.3 492.1,262.7 513.9,262.7 						"/>
					</g>
					<g>
						<path class="st2" d="M457.4,259.7c0,3.9,2.2,7.3,5.5,9c0.1,0,0.1,0.1,0.2,0.1c1.4,0.7,2.9,1.1,4.5,1.1c3.1,0,6-1.4,7.8-3.7
							c0.2-0.2,0.3-0.4,0.4-0.6c1.2-1.7,1.9-3.7,1.9-5.9c0-5.1-3.7-9.3-8.5-10c-0.2,0-0.3-0.1-0.5-0.1c-0.4,0-0.8-0.1-1.2-0.1
							c-5.1,0-9.4,3.8-10.1,8.7c0,0.2-0.1,0.4-0.1,0.6C457.4,259.2,457.4,259.5,457.4,259.7z"/>
						<path class="st1" d="M469.4,260.4c1,1.6,2.2,3.1,3.6,4.3c0.7,0.6,1.5,1.2,2.4,1.5c0.2-0.2,0.3-0.4,0.4-0.6
							c-1.3-0.5-2.3-1.4-3.3-2.4c-1.4-1.4-2.5-2.9-3.4-4.7c-0.9-1.8-1.3-3.9-1-5.9c0.1-0.9,0.4-1.8,0.9-2.6c0.1-0.1,0.1-0.2,0.2-0.3
							c-0.2,0-0.3-0.1-0.5-0.1c-0.1,0.2-0.2,0.4-0.3,0.6C466.9,253.5,467.6,257.4,469.4,260.4z"/>
						<path class="st1" d="M457.5,258.9c0.4,0.3,0.9,0.7,1.3,1c2.4,2.3,3.9,5.5,4.2,8.8c0.1,0,0.1,0.1,0.2,0.1
							c-0.1-3.5-1.6-6.8-4-9.3c-0.5-0.5-1-0.9-1.5-1.3C457.5,258.5,457.5,258.7,457.5,258.9z"/>
					</g>
					<g>
						<g>
							<g>
								<rect x="456.5" y="279" class="st2" width="6.8" height="16.4"/>
								<rect x="452.1" y="277.5" class="st2" width="15.6" height="4.7"/>
							</g>
							<g>
								<rect x="524" y="279" class="st2" width="6.8" height="16.4"/>
								<rect x="519.6" y="277.5" class="st2" width="15.6" height="4.7"/>
							</g>
						</g>
						<rect x="440.5" y="269.4" class="st1" width="106.3" height="8.9"/>
					</g>
				</g>
			</g>
			<g>
				<ellipse class="st2" cx="88.5" cy="464.4" rx="25.3" ry="24.1"/>
				<polygon class="st1" points="63.9,467.5 112.7,467.5 110.3,535.4 66.3,535.4 				"/>
				
					<rect x="60" y="463.4" transform="matrix(-1 -1.224647e-16 1.224647e-16 -1 175.4565 935.4305)" class="st2" width="55.4" height="8.7"/>
				<g>
					<path class="st1" d="M95.7,445.5c1.3,3.1,2.4,6.4,3.1,9.7c0.6,2.7,0.9,5.4,1.1,8.2H63.2c0.4-9,6-16.8,14.1-20.6
						c3,0.7,6.1,1.2,9.2,1.7C89.5,445,92.6,445.4,95.7,445.5z"/>
				</g>
			</g>
		</g>
		<g>
			
				<rect x="182.6" y="129.3" transform="matrix(-1 -1.224647e-16 1.224647e-16 -1 530.1085 367.7379)" class="st6" width="164.9" height="109.1"/>
			<path class="st6" d="M316.4,236.8c0.1,0.4-0.4,26.6-0.4,26.6l-14.1-26.5L316.4,236.8z"/>
			<g>
				<rect x="186.8" y="134.1" class="st5" width="156.5" height="99.5"/>
				<g>
					<path class="st7" d="M186.8,215.6h132.7c1.6,0,3-1.3,3-3v-78.6H186.8V215.6z"/>
					<path class="st8" d="M186.8,209.1h124.9c0.9,0,1.7-0.8,1.7-1.7v-73.3H186.8V209.1z"/>
					<g class="st9">
						<path class="st10" d="M196.4,154.8c1.5-1.4,4.6-0.9,6.6-1c6.1-0.1,12.1-0.2,18.2-0.2c0.3,0,0.6,0.2,0.6,0.5
							c0.1,4.3-0.1,8.7-0.4,13c2.5-3.1,5.2-6.1,8.4-8.7c0.2-0.1,0.5,0,0.4,0.2c-3.1,3.4-6.2,6.7-8.9,10.3c-0.3,0.4-1.1,0.3-1-0.2
							c0.3-4.7,0.5-9.4,0.4-14.1c-4.8,0-9.6,0.1-14.5,0.2c-2.4,0-4.8,0-7.2,0.2c-2.7,0.2-2.1,2.3-2.7,3.8c-0.1,0.3-0.6,0.3-0.7,0
							C194.9,157.6,195.3,155.8,196.4,154.8z"/>
						<path class="st10" d="M197.3,163.7c0.7,0.7,1.7,2.3,3.1,1.9c0.8-0.2,1-1.2,1.3-1.7c0.3-0.6,0.6-1.3,0.9-1.9
							c0.1-0.3,0.7-0.5,1-0.1c0.4,0.6,0.9,1.2,1.4,1.8c0.4,0.4,1.3,1.6,2.1,1.3c0.6-0.2,0.8-1.2,0.9-1.7c-0.4-0.8-0.6-1.6-0.5-2.5
							c0.1-0.4,0.8-0.5,1-0.1c0.4,0.8,0.6,1.7,0.6,2.5c0.2,0.3,0.3,0.5,0.5,0.8c0.7,0.8,1.6,1.8,2.7,2.2c1.5,0.5,2.4-0.7,2.8-1.7
							c0.2-0.6,0.7-2.6-0.3-2.7c-0.3,0-0.2-0.4,0.1-0.4c0.2,0,0.4,0,0.5,0c0.1,0,0.2,0,0.3,0.1c0.7,1.2,0.8,2.6,0.2,3.8
							c-0.5,1.1-1.6,2.1-3.2,1.9c-1.6-0.2-2.8-1.4-3.6-2.3c-0.1-0.1-0.1-0.2-0.2-0.2c-0.2,0.5-0.5,1.1-1.1,1.3
							c-1.7,0.9-3.4-1.2-4.4-2.6c-0.3,0.7-0.6,1.4-1,2.1c-0.3,0.7-0.8,1.2-1.8,1.3c-2,0.3-3.3-1.2-3.6-2.6
							C196.9,163.8,197.1,163.6,197.3,163.7z"/>
						<path class="st10" d="M188.6,152.1c0.2-0.2,0.6-0.2,0.9-0.3c0.3,0,0.7-0.1,1-0.2c0.4-0.1,0.9-0.5,0.9-0.9c0-0.4,0.8-0.4,0.8,0
							c0,0,0,0.1,0,0.1l0,0c-0.1,0.5-0.1,1.1,0.1,1.6c0.1,0.3,0.2,0.5,0.4,0.8c0.2,0.2,0.5,0.5,0.8,0.5c0.3,0,0.3-0.4,0.4-0.5
							c0.1-0.4,0.1-0.8,0.1-1.2c0-0.8,0-1.5-0.2-2.3c0-0.1,0.3-0.2,0.3,0c0.2,0.7,0.3,1.4,0.3,2.2c0,0.4,0,0.7,0,1.1
							c0,0.3,0,0.5-0.2,0.8c-0.1,0.2-0.3,0.4-0.6,0.4c-0.4,0.1-0.7-0.1-1-0.3c-0.5-0.3-0.8-0.8-1-1.3c-0.1-0.2-0.1-0.5-0.2-0.7
							c-0.1,0.1-0.3,0.2-0.5,0.3c-0.4,0.2-0.8,0.3-1.2,0.3c-0.4,0.1-0.9,0.1-1.2-0.1C188.5,152.3,188.5,152.1,188.6,152.1z"/>
						<path class="st10" d="M231.9,186.8c0.3,0.4,1.1,0.4,1.6,0.2c0.6-0.3,0.8-0.9,1.1-1.5c0.1-0.4,0.7-0.4,1-0.1
							c0.5,0.6,1,1.2,1.4,1.7c0.2,0.3,1.3,1.7,1.4,0.8c0.2-1.4-0.1-2.9-0.4-4.2c-0.1-0.5,0.8-0.7,0.9-0.2c0.3,1.2,0.9,2.3,1.8,3.3
							c0.7,0.8,2.2,2.3,3.5,2.1c0.8-0.2,0.9-1,1-1.5c0.1-0.7,0.2-1.4,0.1-2.1c-0.1-1.4-0.6-2.8-1.3-4c-0.2-0.3,0.4-0.6,0.6-0.3
							c0.9,1.4,1.5,3,1.6,4.7c0,1.2,0.1,3.4-1.5,3.9c-1.6,0.5-3.3-0.8-4.3-1.8c-0.4-0.4-0.7-0.8-1-1.2c0,0,0,0,0,0
							c0,0.7,0.3,1.9-0.5,2.3c-0.7,0.4-1.6,0-2.1-0.5c-0.6-0.6-1.1-1.3-1.7-2c-0.3,0.6-0.8,1.2-1.6,1.4c-0.9,0.2-2,0-2.2-0.9
							C231.2,186.7,231.7,186.5,231.9,186.8z"/>
						<path class="st10" d="M222.3,188.2c0.1-0.2,0.5-0.4,0.7-0.6c0.3-0.2,0.5-0.4,0.8-0.7c0.1-0.1,0.2-0.2,0.3-0.2
							c-0.1-0.2-0.2-0.4-0.2-0.5c-0.4-1.1-0.7-2.2-0.7-3.3c0-0.3,0.5-0.3,0.5,0c0.1,1.1,0.5,2.1,1.1,3.2c0,0,0,0.1,0.1,0.1
							c0.2-0.2,0.4-0.3,0.6-0.5l3.2-2.5c0.3-0.2,0.8,0.1,0.5,0.4c-1,0.9-2,1.8-3,2.7c-0.3,0.2-0.5,0.5-0.8,0.7
							c0.1,0.2,0.2,0.3,0.3,0.5c0.3,0.5,0.6,1.1,0.8,1.6c0.2,0.5-0.7,0.8-1,0.3c-0.3-0.5-0.6-1.1-0.8-1.6c0-0.1,0-0.1-0.1-0.2
							l-0.7,0.6c-0.3,0.2-0.5,0.5-0.9,0.6C222.5,189,222.1,188.6,222.3,188.2z"/>
						<path class="st10" d="M194.7,183.5c0.1-0.2,0.4-0.1,0.5,0.1c0.1,0.9,0.8,1.9,1.9,2.2c1.3,0.3,2.5-0.8,2.5-1.8
							c0-0.6,1.1-0.7,1.2-0.2c0.3,1,0.7,2.5,2.2,2.6c2.1,0.1,2.4-2.1,2.3-3.3c-0.1-0.5,0.9-0.6,1.1-0.1c0.4,1.4,1.4,2.8,3.1,3.4
							c2.5,0.8,2.8-1.8,2.7-3.2c0-0.5,0.9-0.6,1-0.1c0,0,0,0.1,0,0.1h0c0,0,0,0,0,0c0.1,0.3,0.1,0.6,0.1,0.9
							c0.1,0.7,0.5,1.4,1.1,1.8c0.3,0.1,0.7,0.3,0.9,0.1c0.2-0.1,0.1-0.6,0.1-0.8c0-0.6-0.3-1.2-0.7-1.7c-0.1-0.2,0.2-0.4,0.4-0.2
							c0.6,0.7,2,3.5,0,3.7c-0.8,0.1-1.6-0.7-2-1.2c0,0-0.1-0.1-0.1-0.1c-0.4,1.1-1.3,2-2.8,1.9c-1.7-0.1-3-1.1-3.8-2.3
							c-0.3,1.2-1.2,2.1-2.9,2.3c-1.6,0.1-2.5-0.7-3.1-1.8c-0.7,0.9-1.9,1.4-3.2,1.2C195.1,186.7,193.6,185,194.7,183.5z"/>
						<path class="st10" d="M252.7,138.8c0.1-0.2,0.4-0.4,0.7-0.2c7.9,3.8,15.8,7.7,23.5,11.8c0.3-0.2,0.6-0.4,0.9-0.6
							c0.1-0.1,0.3,0,0.4,0.1c0.1,0.2,0.2,0.4,0,0.6c-0.1,0.1-0.3,0-0.3-0.1c0,0,0,0,0,0c-0.1,0.1-0.3,0.2-0.4,0.3
							c0.7,0.4,1.4,0.8,2.1,1.1c0.2,0.1,0,0.4-0.2,0.3c-0.8-0.4-1.5-0.7-2.3-1.1c-0.3,0.3-0.6,0.5-0.9,0.9c-0.5,0.6-0.9,1.3-1.2,2
							c-0.2,0.4-0.4,0.9-0.4,1.5c3.3-0.2,6.5-0.5,9.8-0.8c0.5,0,0.6,0.6,0.1,0.7c-3.3,0.5-6.6,0.8-9.9,1c0.1,0.5,0.3,1,0.7,1.4
							c0.1,0.1,0.1,0.2-0.1,0.3c-0.9,0.2-1.3-0.6-1.4-1.2c0-0.1,0-0.2,0-0.3c-7.7,0.4-15.5,0.1-23.1-0.8c-0.2,0-0.4-0.2-0.4-0.4
							C250.5,149.6,251.2,144.1,252.7,138.8z M267.9,155.5c2,0,4-0.1,5.9-0.2c0.1-0.4,0.2-0.9,0.3-1.3c0.3-0.8,0.8-1.6,1.4-2.4
							c0.3-0.3,0.6-0.7,1-1c-7.7-3.7-15.3-7.5-23-11.1c-1.2,5-1.9,10.1-2.1,15.2C256.8,155.3,262.4,155.6,267.9,155.5z"/>
						<path class="st10" d="M241.2,143.9c0.5,0,1,0.3,1.5,0.4c0.5,0.2,1,0.4,1.4,0.5c1,0.4,2,0.7,3,1.2c0.1,0.1,0.1,0.3-0.1,0.2
							c-1-0.2-2-0.7-3-1c-0.5-0.2-1-0.3-1.5-0.5c-0.5-0.2-1-0.3-1.4-0.6C241,144,241,143.9,241.2,143.9z"/>
						<path class="st10" d="M237.3,142.2c0.3-0.2,0.8-0.1,1.1-0.1c0.5,0.1,1,0.1,1.5,0.2c0.5,0.1,1,0.1,1.5,0.2c0.2,0,0.5,0,0.7,0.1
							c0.2,0,0.6,0.1,0.8,0.2c0.2,0.1,0.1,0.3,0,0.3c-0.2,0.1-0.4,0-0.6,0c-0.2,0-0.4,0-0.6,0c-0.4,0-0.8-0.1-1.3-0.1l-1.3-0.1
							c-0.4,0-0.8-0.1-1.2-0.1c0,0,0,0,0,0c0.1,0.1,0.1,0.3,0.2,0.4c0.2,0.3,0.3,0.5,0.5,0.8c0.2,0.2,0.4,0.5,0.6,0.7
							c0.1,0.1,0.2,0.2,0.3,0.4c0.1,0.1,0.2,0.3,0.3,0.4c0.1,0.2-0.2,0.4-0.4,0.3c-0.4-0.2-0.7-0.4-1-0.7c-0.3-0.3-0.5-0.6-0.7-0.9
							c-0.2-0.3-0.4-0.6-0.6-1C237,142.8,237,142.4,237.3,142.2z"/>
						<path class="st10" d="M215.7,140.6c0.4-0.1,0.8-0.1,1.1-0.2c0.4-0.1,0.7-0.3,1.1-0.4c0.5-0.1,0.9-0.1,1.3,0.2
							c0.4,0.3,0.7,0.7,1,1c0.9,0.8,1.6-0.1,2-0.8c0.2-0.3,0.8-0.2,0.8,0.2c0.1,0.6,0.9,0.8,1.4,0.5c0.5-0.2,0.7-0.7,0.7-1.2
							c0-0.3,0.6-0.5,0.8-0.2c0.5,0.7,1.2,1.3,1.9,1.9c0.6,0.4,1.2,0.1,1.4-0.4c0.2-0.4,0.2-0.9,0-1.4c-0.1-0.4,0.6-0.6,0.8-0.2
							c0.2,0.7,0.7,1.4,1.4,1.9c0.5,0.4,1.5,0.6,1.9,0c0.3-0.4,0.3-1.1,0.3-1.6c0-0.1,0.1-0.1,0.1,0c0.3,0.6,0.6,1.2,0.2,1.9
							c-0.3,0.5-0.9,0.8-1.5,0.8c-0.9-0.1-1.7-0.6-2.3-1.2c-0.2,0.6-0.6,1.1-1.4,1.3c-1.2,0.2-2.2-0.9-3-1.8
							c-0.3,0.6-0.8,1.1-1.6,1.2c-0.7,0.1-1.3-0.2-1.7-0.6c-0.7,0.8-1.8,1.4-2.8,0.5c-0.5-0.4-0.8-1.3-1.7-1
							c-0.8,0.3-1.6,0.5-2.4,0.1C215.5,140.9,215.5,140.7,215.7,140.6z"/>
						<path class="st10" d="M214.1,145.2c0.7-0.2,1.5,0,2.2-0.2c0.8-0.1,1.5-0.3,2.3-0.4c0.7-0.1,1.4,0,2.1,0.3
							c0.4,0.2,1.9,1.2,2.2,0.4c0.1-0.3,0.5-0.4,0.8-0.2c0.7,0.5,1.6,1.1,2.6,1c0.9-0.1,1.7-1,0.8-1.5c-0.3-0.2,0.1-0.7,0.5-0.5
							c1.1,0.6,0.9,2-0.2,2.5c-1.3,0.6-2.7,0.1-3.8-0.6c-0.3,0.3-0.9,0.4-1.4,0.4c-1-0.1-1.7-0.9-2.7-1c-1-0.1-2,0.3-2.9,0.4
							c-0.8,0.1-1.8,0.3-2.4-0.3C213.9,145.4,214,145.2,214.1,145.2z"/>
					</g>
				</g>
				<g>
					<path class="st10" d="M237.2,233.6h75.9c-1.1-5.7-5.2-24.4-11.3-28.5c-5.1-3.5-11.3-6.5-19.7-7.6c-0.6-0.1-1.1-0.1-1.7-0.2
						c-0.8-0.1-1.5-0.2-2.4-0.2c0,0,0,0,0,0c-2.4-0.1-4.9-0.1-7.5,0.1h-0.1c-0.5,0-1.1,0.1-1.6,0.2c-0.5,0-1,0.1-1.5,0.2
						c-13.4,1.9-25.1,9.8-27.3,21.1c-0.3,1.7-0.6,3.3-0.9,4.7v0C237.9,228.8,237.4,232,237.2,233.6z"/>
					<path class="st3" d="M262.4,233.6h19.1c0.5-5.1,1.8-21.2,2-24.1c0.3-5.9,0.1-9-1.2-10.6c-0.5-0.6-1.1-1-1.9-1.2
						c-0.8-0.2-1.9-0.3-3.1-0.3c-1,0-2.1,0.1-3.4,0.2c-0.7,0.1-1.3,0.1-1.8,0.2c-1.3,0.1-2.4,0.3-3.3,0.6c-1,0.3-1.7,0.6-2.3,1
						c-1.5,1.1-1.9,2.8-2.3,5.5C263.5,209.4,262.4,228.3,262.4,233.6z"/>
					
						<rect x="267.8" y="186.8" transform="matrix(-1 -1.224647e-16 1.224647e-16 -1 549.2939 385.876)" class="st11" width="13.7" height="12.3"/>
					<g>
						<path class="st11" d="M235.7,189c0.3-4.5-0.4-9.1-2.7-13c-0.5-0.9-1.7-1.8-2.4-1.1c-0.3,0.3-0.4,0.8-0.4,1.3
							c-0.1,3.4,0.2,6.9,1,10.3c-0.5-1.2-2-1.7-3.2-1.4c-1.2,0.4-2,1.7-1.9,3c-0.3-1.3-2.3-1.4-3.2-0.5c-0.9,0.9-1.1,2.4-1.1,3.7
							c-0.5-0.7-1.6-0.5-2.1,0.2c-0.5,0.6-0.6,1.5-0.6,2.3c0,2.5,0.5,5,1.8,7.1c1.3,2.1,3.5,3.7,6,4
							C234.6,205.6,235.4,194.3,235.7,189z"/>
						<path class="st11" d="M232.4,202.1c0,0,6.5-3.7,4.2-7.8c-2.3-4.1-8.9-2-7.5,0.4c1.4,2.4,4.5,2,4.5,2L232.4,202.1z"/>
					</g>
					<path class="st5" d="M282,195.7c-0.7-0.1-4.3,2.6-8.1,2.4c-3.8-0.2-5.7-2-6.3-2.5c-0.6-0.6-3.7,5.7-3.2,6.4
						c0.5,0.7,1.9,3.4,3.3,2.9c1.4-0.5,5.3-5.2,5.3-5.2s3.6,5.7,4.9,5.7c1.3,0,5.6-2,5.9-5.1C283.9,197.1,282.9,195.8,282,195.7z"/>
					<polygon class="st10" points="219.8,202.1 220.1,233.6 240.8,233.6 239,223.3 239,223.3 235.1,201.7 233,201.7 233,201.7 
						232.8,201.8 232.5,201.8 221.8,202.1 					"/>
					<g>
						<path class="st10" d="M258.9,154c0.4-0.3,0.9-0.2,1.3,0.2c0.4,0.4,0.8,1.1,1,1.6c0.5,1.8,0.3,3.9,0,5.6
							c-0.3,1.6-0.7,3.2-1.5,4.6c0,0.1-0.1,0.1-0.1,0.2c-0.4,0.6-0.8,1.2-1.3,1.8c-0.1,0-0.2,0.1-0.3,0.1c-0.4,0-0.7-0.2-1-0.5
							c-1.9-1.8-1.4-4.6-1.1-6.7c0.4-2.4,1.3-4.7,2.6-6.6C258.7,154.2,258.8,154,258.9,154z"/>
						<path class="st11" d="M256.5,169.8c0,11.8,1.9,21.9,14.2,22.6c15.9,1,22.4-10.9,22.4-22.6s-8.2-21.3-18.3-21.3
							S256.5,158.1,256.5,169.8z"/>
						<path class="st5" d="M275.9,180.5c-0.5-0.8-2.9-0.6-5.8-0.9c-3.3-0.4-5.6-1-6.1-0.7c-1.1,0.6,1.1,5.4,5.4,5.8
							C272.4,185,276.8,182,275.9,180.5z"/>
						<path class="st10" d="M279,154.7c-3.4,2-6.7,4.1-10.3,5.6c-4.1,1.7-8.7,2.2-12.5-0.5c-0.9-0.6-2-2-0.6-2.7
							c0.9-0.5,2.1-0.3,3-0.4c-1.1,0.1-2.3-0.1-3.1-0.8c-0.9-0.7-1.4-1.9-1.1-2.9c0.2-0.8,0.8-1.4,1.4-1.8c1.9-1.5,4.3-2.2,6.8-2.7
							c0.4-0.1,0.8-0.2,1.3-0.2c-0.3-0.5-0.6-1-0.6-1.5c0.1-0.6,0.6-1,1.2-1.3c4.1-2.5,9.3-2.7,14.2-2.7c3.5,0,7.1,0.1,10.2,1.6
							c1.4,0.7,2.9,1.9,3.1,3.5c3.3,0.3,6.2,2.8,7.4,5.9c1.1,3,0.7,6.4-0.4,9.5c-1.1,3-2.6,6.4-3.7,7.1c-1.1,0.6-1.2-0.1-2.5,0.5
							c-1.3,0.6-1.4,2.5-2.4,2.6c-1,0.1-1-2.6-1.3-3.9c-0.6-2.5-0.5-5.2-1.2-7.7c-0.7-2.7-2.2-5.3-4.3-7.4c-0.3-0.3-0.7-0.7-1.1-0.9
							c-0.1,0-1.2,0.2-1.4,0.3c-0.6,0.2-1.2,0.6-1.8,0.9C279.1,154.7,279,154.7,279,154.7z"/>
						<g>
							<path class="st11" d="M292.9,170.6c1.3-2.4,3.3-4,5.2-2.4c0.6,0.5,1,1.6,1,2.6c0,1-0.2,2.1-0.6,3c-0.8,2.4-2.3,4.6-4.2,5.5
								c-0.7,0.3-1.5,0.5-2.1-0.1c-0.8-0.7-1-2.3-0.9-3.6C291.5,174.1,292,172.2,292.9,170.6z"/>
							<path class="st12" d="M297.7,170.7c-0.2-0.3-0.4-0.4-0.6-0.5c-0.6-0.1-1.2,0.3-1.6,0.8c-0.5,0.6-0.9,1.3-1.2,1.9
								c-0.4,0.7-0.6,1.5-0.8,2.3c0,0.2,0.2,0.2,0.2,0.1c0.3-1.3,1-2.6,1.7-3.6c0.1-0.2,0.2-0.3,0.4-0.4c0.2,0.7,0.2,1.4,0,2.1
								c-0.2,0.8-0.5,1.5-0.8,2.2c0,0.1,0,0.2,0.1,0.1c1-1.1,1.4-3.1,0.9-4.6c0.2-0.2,0.5-0.3,0.7-0.3c0.4,0,0.9,0.3,1,0.9
								c0,0.1,0.2,0.1,0.2,0C297.9,171.3,297.8,171,297.7,170.7z"/>
						</g>
						<g>
							<path d="M254.6,164.8c0.4-0.9,1.4-1.5,2.3-1.5c1,0,2.1,0.1,3.1,0.1c1.8,0.1,3.6,0.1,5.5,0.3c1.3,0.1,2.4,0.7,2.5,2.3
								c0,0,0,0,0,0.1c0,0,0,0,0,0c0.6-0.3,1.2-0.3,1.8-0.2c0.6,0.2,1.1,0.5,1.6,0.9c0,0,0,0,0,0c0-0.3,0.1-0.6,0.1-0.9
								c0.2-1.5,1.4-2.1,2.8-2.2c2-0.1,4.1,0,6.2,0c1.3,0,2.5,0,3.8,0c1.2,0,2.3,0.7,2.8,1.8c0.3,0.6,0.3,1.3,0.2,2c0,0,0.1,0,0.1,0
								c0.3,0,0.7,0.1,1,0.1c0.6,0.1,1.2,0.2,1.8,0.3c0.6,0.1,1.2,0.2,1.8,0.3c0.3,0.1,0.6,0.1,0.9,0.2c0.2,0.1,0.4,0.3,0.3,0.5
								c-0.3,0.4-1.1,0.2-1.5,0.2c-0.6,0-1.1-0.1-1.7-0.2c-0.6-0.1-1.1-0.1-1.7-0.2c-0.3,0-0.6-0.1-0.9-0.1c0,0-0.1,0-0.1,0
								c-0.3,2-0.7,4.1-1.4,6c-0.3,0.8-0.6,1.6-1.5,1.9c-0.8,0.3-1.7,0.2-2.5,0.2c-1.1,0-2.1-0.1-3.2-0.2c-1.9-0.2-3.9-0.4-5.6-1
								c-1.7-0.5-1.9-2-1.8-3.6c0-1.4,0.1-2.8,0.2-4.2c-0.5-0.4-1-0.7-1.6-0.9c-0.2-0.1-0.4-0.1-0.6-0.1c-0.1,0-0.1,0-0.2,0
								c0,0-0.1,0-0.1,0c0,0,0,0-0.1,0c0,0,0,0,0,0c-0.1,0-0.2,0.1-0.2,0.1c0,0,0,0,0,0c0,0-0.1,0.1-0.1,0.1c0,0-0.1,0.1,0,0.1
								c0-0.1,0,0.1,0,0.1c0,0,0,0.1,0,0c0,0.1-0.1,0.2-0.1,0.3c0,0-0.1,0-0.1,0.1c0,1.4-0.1,2.9-0.2,4.2c-0.1,1.5-0.4,3-2.1,3.3
								c-1.7,0.3-3.5,0.2-5.1,0.1c-0.9-0.1-1.8-0.1-2.7-0.3c-0.7-0.1-1.4-0.1-2-0.5c-0.6-0.4-0.9-1.1-1-1.8c-0.4-1.9-0.6-4-0.6-5.9
								C254.2,166.3,254.3,165.5,254.6,164.8z"/>
							<path class="st5" d="M272.4,173.3c0.1,0.8,0.5,1.2,1.3,1.4c2.9,0.7,6.2,1.1,9.3,0.9c1.1-0.1,1.3-0.6,1.7-1.5
								c0.3-0.8,0.6-1.7,0.8-2.5c0.3-1.4,0.8-2.8,0.7-4.2c-0.1-1.9-0.9-2.2-2.7-2.2c-0.8,0-1.7,0-2.5,0c-1.7,0-3.3,0-4.9,0
								c-0.7,0-1.3-0.1-2,0c-0.8,0.1-1.1,0.4-1.2,1.1c-0.2,1.6-0.3,3.2-0.4,4.8C272.4,171.9,272.3,172.6,272.4,173.3z"/>
							<path class="st5" d="M255.5,170.1c0.1,0.8,0.2,1.5,0.4,2.3c0.2,0.9,0.4,1.3,1.2,1.5c2.6,0.5,5.4,0.6,8.1,0.3
								c0.7-0.1,1.1-0.4,1.3-1.2c0.1-0.7,0.1-1.4,0.2-2.1c0.1-1.6,0.1-3.1,0.1-4.7c0-0.8-0.3-1.1-1-1.2c-0.6-0.1-1.2-0.1-1.8-0.1
								c-1.4-0.1-2.9-0.2-4.3-0.2c-0.7,0-1.4-0.1-2.1-0.1c-1.4-0.1-2.1,0.1-2.3,1.8C255.1,167.7,255.4,168.9,255.5,170.1z"/>
						</g>
					</g>
				</g>
				<g>
					<g>
						<path class="st13" d="M327.2,224.7c0,2.7,2.2,4.9,4.9,4.9c2.7,0,4.9-2.2,4.9-4.9c0-2.7-2.2-4.9-4.9-4.9
							C329.4,219.9,327.2,222.1,327.2,224.7z"/>
					</g>
				</g>
			</g>
		</g>
		<g>
			<path class="st10" d="M378.3,441.9c-1.3,0-2.3,0.2-3,1.4c-0.5,0.7-0.7,1.6-0.7,2.4c-0.1,0.7,0.2,1.6-0.4,2
				c-0.9,0.6-2.6,0.7-3.6,0.5c-1.8-0.3-2.7-1.2-2-3c0.7-1.7,2.1-3,3.7-3.8c1.3-0.6,2.6-1.1,4-1.2c0.6,0,1.1,0.2,1.6,0.6
				C377.9,441,378.6,441.6,378.3,441.9z"/>
			<path class="st10" d="M394.7,462c3-1,8.2,9.9,9.5,11.7c4.9,7,8.4,15,10.7,23.2c3.2,11.1,6.5,22.3,5.2,33.9
				c-0.8,7.6-5.6,13.1-13.8,12.2c-3.9-0.4-11.4-1-14.5-3.2c-1.5-1-1.6-2.3-0.3-4.1c1.3-1.8,2.2-1.4,4.4-1c4.2,0.8,7.7,1.9,11.3-1.3
				c3.5-3.2,3.9-8.7,3.7-13.2c-0.3-6.6-1.6-12.9-3.3-19.3c-2.2-8-5.4-15.3-8.4-23c-1.3-3.4-3.3-7-4-10.6c-0.5-2.1,0-3.8-0.7-5.8
				C394.8,461.5,395.2,461.4,394.7,462z"/>
			<path class="st14" d="M409.8,540.5c1.8-1.6,3.1-3.6,4-5.7c2-4.9,2.3-10.4,2.2-15.6c-0.2-5.8-1-11.5-2-17.2
				c-0.8-4.8-1.7-9.5-3-14.2c-0.5-1.8-1-3.5-1.6-5.2c2.3,4.6,4.1,9.4,5.5,14.3c3.2,11.1,6.5,22.3,5.2,33.9
				c-0.8,7.6-5.6,13.1-13.8,12.2c-0.2,0-0.5-0.1-0.8-0.1C407.1,542.4,408.5,541.6,409.8,540.5z"/>
			<g>
				<path class="st6" d="M338.5,539.6c2,1.9,16.9,4.3,30.7,5c2.9,0.1,5.7,0.2,8.3,0.2c6.5,0,14.7,0.2,17-1.6
					c5.4-4.4,18.7-79.2-4.2-92.3c-5.2-3-17.7-4.7-22.5-4.5c-0.6,0-1.1,0.1-1.7,0.1c-15.2,1.8-23.7,18.8-27.4,43.6
					C333.7,523.5,335.1,536.3,338.5,539.6z"/>
				<path class="st15" d="M369.2,544.6c2.9,0.1,5.7,0.2,8.3,0.2c6.5,0,14.7,0.2,17-1.6c5.4-4.4,18.7-79.2-4.2-92.3
					c-2.3-1.3-6.1-2.4-9.9-3.2c-1.9-0.4-3.9-0.7-5.7-0.9c-2.8-0.3-5.3-0.5-6.9-0.4c-0.6,0-1.1,0.1-1.7,0.1
					c5.9,0.6,10.6,4.7,12.8,11.9C385.4,479.5,378.7,518.7,369.2,544.6z"/>
				<path class="st16" d="M374.6,446.8c2.2,1.2,4.2,2.7,5.8,4.5c3.7,4.1,6.2,9.3,7.9,14.5c1.7,5.2,2.5,10.7,2.9,16.2
					c0.4,5.8-0.2,11.6-0.6,17.4c-0.4,6.5-1.6,12.8-2.2,19.3c0,0.5,1.4,0.9,1.8,0.6c0.5,0.1,1,0.1,1.1-0.1c0.9-3.7,1.2-7.6,1.7-11.4
					c0.4-3.7,0.8-7.4,1-11.1c0.6-11.4,0.2-23.3-3.9-34c-2-5.2-4.8-10.6-9.1-14.3c-0.2-0.2-0.5-0.4-0.7-0.6
					C378.4,447.3,376.5,447,374.6,446.8z"/>
			</g>
			<path class="st10" d="M347.7,473.9c0.2-0.9,0.4-1.9,1.1-2.5c0.8-0.6,2-0.6,3-0.6c3,0,6.2,0.2,9.5,0.5c1.5,0.1,3,0.2,4.5,0.6
				c0.3,0.1,2,0.1,2.6,1c0.3,0.5,0.1,2.4,0,4c-0.1,1.9-0.2,3.5-1.1,3.8c-0.4,0-0.7,0.1-1,0.2c-0.4,0-0.9-0.1-1.3-0.1
				c-0.9-0.1-1.7-0.2-2.6-0.3c-1.6-0.2-3.2-0.3-4.8-0.5c-3-0.3-5.8-0.7-8.6-1.1c-0.6-0.1-1.3-0.3-1.6-1c-0.2-0.4-0.2-0.9-0.1-1.4
				C347.5,475.6,347.6,474.7,347.7,473.9z"/>
			<path class="st3" d="M384.6,449.8c1.1,0.1,0.2-6.3-0.8-7.6c-1.6-2.1-4.4-2.8-6.9-3c-2.9-0.3-8.7,2.7-8.6,6.4
				c1.7-3.1,7.1-6.4,10-2.8c1.3,1.6,0,4,0.8,5.3C380.3,449.7,383.5,449.7,384.6,449.8z"/>
			<g>
				<path class="st3" d="M331.2,541c1.7,1.3,16.9,3.8,26.9,4c3.6,0.1,6.5-0.2,8-0.8c3.2-1.5,5.1-15.6,4.7-30
					c-0.3-10.7-3.7-20-10.3-23c-3-1.4-5.9-2-8.7-2c-1.2,0-2.3,0.1-3.5,0.3c-9.9,1.9-17.2,11.9-18.7,24.9
					C327.4,532.4,328.8,539.2,331.2,541z"/>
				<path class="st17" d="M348.3,489.5c4,0.4,6.7,3.2,7.4,4.5c3.6,6.6,4.6,14.9,4.8,22.5c0.3,8.8,0,19.6-2.5,28.5
					c3.6,0.1,6.5-0.2,8-0.8c3.2-1.5,5.1-15.6,4.7-30c-0.3-10.7-3.7-20-10.3-23c-3-1.4-5.9-2-8.7-2
					C350.6,489.2,349.5,489.3,348.3,489.5z"/>
			</g>
			<path class="st10" d="M390,518c-1.8,0-2.5,5.7-2.1,6.2c0.4,0.6,2.7,0.7,3.3,0.3C391.7,524.2,391.8,518,390,518z"/>
		</g>
		<g>
			<g>
				<g>
					<polygon points="255.6,544.9 259.7,544.9 246,423.9 234.8,423.9 					"/>
					<polygon points="121,544.9 117,544.9 130.6,423.9 141.9,423.9 					"/>
					<polygon points="149.3,544.9 145.2,544.9 158.9,423.9 170.1,423.9 					"/>
					<polygon points="228.9,544.9 232.9,544.9 219.2,423.9 208,423.9 					"/>
				</g>
				<polygon class="st10" points="108.5,286.3 129.8,410.2 179.8,410.2 158.5,286.3 				"/>
				<polygon class="st18" points="114.6,286.3 135.9,410.2 179.8,410.2 158.5,286.3 				"/>
				
					<rect x="129.8" y="410.2" transform="matrix(-1 -1.224647e-16 1.224647e-16 -1 377.7333 837.0421)" class="st10" width="118.1" height="16.7"/>
				
					<rect x="205.5" y="410.2" transform="matrix(-1 -1.224647e-16 1.224647e-16 -1 453.4271 837.0421)" class="st18" width="42.4" height="16.7"/>
			</g>
			<g>
				<g>
					<defs>
						<path id="XMLID_14_" d="M281,468.8c0,0,21.4,4.2,16.4,9.2c-5,5-33.4,9.7-34.8,7.8c-1.4-1.9-5.6-16-5.6-16l19.7-8.9L281,468.8z
							"/>
					</defs>
					<use xlink:href="#XMLID_14_"  style="overflow:visible;fill:#FFFFFF;"/>
					<clipPath id="XMLID_4_">
						<use xlink:href="#XMLID_14_"  style="overflow:visible;"/>
					</clipPath>
					<path class="st19" d="M268.4,482.1c-2.5-1.9-5.2-3.7-8.3-4.1c-0.6-0.1-1.3,0-1.5,0.5c-0.1,0.3-0.1,0.6-0.1,0.9
						c0.2,1.7,1,3.1,2,4.5c1,1.4,2.1,2.7,3.4,3.7c1.4,1,3,1.6,4.7,1.6c1.3-0.1,4.2-1.1,4.1-2.8C272.7,484.9,269.4,483,268.4,482.1z"
						/>
					<path class="st19" d="M288.6,479.9c-0.1,1.5,0,3.3,1.2,4.2c1.3,1,3.2,0.7,4.6,0c2-1,3.8-2.6,4.8-4.6c1-2,1.1-4.5,0.2-6.5
						c-0.4-0.8-0.8-1.5-1.4-2.1c-0.7-0.9-1.5-1.8-2.6-2.2c-0.9-0.4-2.4-0.7-3.2,0.1c-0.8,0.8-1.3,2.3-1.7,3.3
						C289.5,474.6,288.8,477.2,288.6,479.9z"/>
					<path class="st20" d="M285.1,482c-4,1-8,1.1-12,1c-2.1-0.1-4.5-0.5-5.1-2.5c-0.5-1.6,0.4-3.5,1.5-5c1.7-2.5,4-4.7,6.5-6.2
						c1-0.6,2.1-1.2,3.1-2c1-0.8,1.8-1.9,2-3.1c0.2-1.3-0.5-2.4-1.4-3.1c-0.9-0.7-2.1-0.9-3.2-1c-5.1-0.6-10.8,0.4-15.4,4
						c-4.6,3.6-7.6,10.1-6.2,15.3c0.7,2.8,2.5,5,4.6,6.7c5,4,11.8,5.6,18.5,4.3c4.6-0.9,9.2-3.1,13.2-6.3c1.9-1.5,6.3-4.4,7.6-6.5
						c2-3.2-3.1,0.5-4.1,1.1C291.9,480.4,288,481.3,285.1,482z"/>
				</g>
				<g>
					<defs>
						<path id="XMLID_13_" d="M252.6,481.2c0,0,17.9,12.4,11.3,15c-6.6,2.6-34.5-4.5-35-6.8c-0.5-2.3,1.3-16.9,1.3-16.9l21.6-0.3
							L252.6,481.2z"/>
					</defs>
					<use xlink:href="#XMLID_13_"  style="overflow:visible;fill:#FFFFFF;"/>
					<clipPath id="XMLID_5_">
						<use xlink:href="#XMLID_13_"  style="overflow:visible;"/>
					</clipPath>
					<path class="st21" d="M235.7,488.3c-1.5-2.7-3.3-5.5-5.9-7c-0.5-0.3-1.1-0.5-1.6-0.2c-0.2,0.2-0.4,0.5-0.5,0.7
						c-0.5,1.6-0.3,3.3,0,4.9c0.3,1.7,0.8,3.3,1.7,4.8c0.9,1.5,2.1,2.7,3.7,3.3c1.2,0.4,4.3,0.7,4.9-0.9
						C238.5,492.6,236.3,489.5,235.7,488.3z"/>
					<path class="st21" d="M255.1,494.4c-0.7,1.4-1.3,3-0.6,4.4c0.8,1.4,2.6,1.9,4.3,1.8c2.2-0.1,4.5-0.8,6.2-2.3
						c1.7-1.5,2.8-3.6,2.8-5.9c0-0.8-0.2-1.7-0.4-2.5c-0.3-1.1-0.7-2.2-1.5-3.1c-0.7-0.8-2-1.6-3-1.2c-1,0.4-2.1,1.6-2.9,2.3
						C258,489.9,256.4,492,255.1,494.4z"/>
					<path class="st22" d="M251.1,494.9c-4.1-0.7-7.8-2.2-11.4-3.9c-1.9-0.9-4-2.2-3.7-4.4c0.2-1.6,1.8-3,3.3-4
						c2.6-1.6,5.5-2.7,8.4-3.1c1.2-0.2,2.4-0.2,3.6-0.5c1.2-0.3,2.4-1,3.1-2.1c0.7-1.1,0.5-2.4-0.1-3.4c-0.6-1-1.6-1.7-2.6-2.2
						c-4.4-2.6-10.1-3.9-15.7-2.5c-5.6,1.5-11,6.2-11.9,11.5c-0.5,2.9,0.3,5.6,1.6,8c3,5.7,8.5,9.8,15.2,11.4
						c4.6,1.1,9.7,0.8,14.6-0.5c2.3-0.6,7.5-1.5,9.5-2.9c3.1-2.1-3-0.8-4.2-0.6C257.9,496.2,254,495.4,251.1,494.9z"/>
				</g>
				<g>
					<path class="st13" d="M157.2,377.7c0,0-6.2,29.3,11.7,29.8c17.8,0.5,65.9,2.3,65.9,2.3l22.8,66.4l27.3-9.9
						c0,0-19.6-73.2-26.9-79.3c-7.4-6-54.2-9.8-63.3-9.5C185.5,377.7,157.2,377.7,157.2,377.7z"/>
					<path class="st23" d="M157.2,377.7c0,0-6.2,29.3,11.7,29.8c17.8,0.5,65.9,2.3,65.9,2.3l22.8,66.4l27.3-9.9
						c0,0-19.6-73.2-26.9-79.3c-7.4-6-54.2-9.8-63.3-9.5C185.5,377.7,157.2,377.7,157.2,377.7z"/>
					<g>
						<polygon class="st24" points="285.7,467.7 258,477.5 253.3,469 283.8,457.8 						"/>
						<polygon class="st25" points="285.7,467.7 258,477.5 253.3,469 283.8,457.8 						"/>
						<path class="st26" d="M272.5,469.6c2.3-2,4.4-4.3,6.1-6.8c0.8-1.2,1.6-2.5,2.3-3.9l2.9-1.1l1.9,9.9l-21.5,7.6
							C267.2,473.7,270,471.8,272.5,469.6z"/>
					</g>
				</g>
				<g>
					<g>
						<path class="st13" d="M141.5,378.8c0,0-6.4,31.1,12.1,31.6s68.4,2.5,68.4,2.5l5.2,67l28-1c0,0-1.7-83.8-9.3-90.2
							c-7.7-6.4-56.3-10.4-65.7-10.1C170.8,378.8,141.5,378.8,141.5,378.8z"/>
						<path class="st27" d="M234.6,479c1-2,1.6-4.1,2.1-6.3c0.5-2.2,1.1-4.5,1.5-6.7c1.1-5.3,1.7-10.7,2.2-16.2
							c0.4-4.7,0.7-9.4,1.1-14.2c0.4-4.5,0.8-9,0.8-13.5c0.1-8.8-1-17.8-6.1-25.2c-4.2-6.1-9.6-11-15.8-15c11.8,1.7,22.3,4,25.5,6.7
							c7.7,6.4,9.3,90.2,9.3,90.2l-21,0.7C234.3,479.5,234.4,479.3,234.6,479z"/>
						<path class="st27" d="M141.5,378.8c0,0,2.7,0,6.6,0c0,0.4,0,0.9,0.1,1.3c0.1,1.9,0.4,3.9,0.8,5.8c0.4,1.8,0.8,3.6,1.6,5.3
							c1.7,3.3,4.8,5.7,7.9,7.7c3.2,2.1,6.7,3.8,10.3,5.1c7.7,2.9,15.9,4.3,24,5.2c5.5,0.6,10.9,0.9,16.4,1.4c2.7,0.2,5.3,0.5,8,1
							c1,0.2,2,0.4,3,0.7c0.4,0.1,1,0.3,1.3,0.7c-5.6-0.2-50.5-2-67.8-2.4C135,409.9,141.5,378.8,141.5,378.8z"/>
						<g>
							<g>
								<path class="st24" d="M234.3,468.8C234.3,468.8,234.3,468.8,234.3,468.8c0.2,0,0.3-0.1,0.3-0.3l-0.1-1.6
									c0-0.1-0.1-0.3-0.3-0.2c-0.1,0-0.3,0.1-0.2,0.3l0.1,1.6C234,468.7,234.1,468.8,234.3,468.8z"/>
							</g>
							<g>
								<path class="st24" d="M233.9,463.9C233.9,463.9,233.9,463.9,233.9,463.9c0.2,0,0.3-0.1,0.3-0.3l-0.2-3.3
									c0-0.1-0.1-0.3-0.3-0.2c-0.1,0-0.3,0.1-0.2,0.3l0.2,3.3C233.6,463.8,233.8,463.9,233.9,463.9z M233.4,457.3
									C233.4,457.3,233.4,457.3,233.4,457.3c0.2,0,0.3-0.1,0.3-0.3l-0.3-3.3c0-0.1-0.1-0.3-0.3-0.2c-0.1,0-0.3,0.1-0.2,0.3
									l0.3,3.3C233.1,457.2,233.3,457.3,233.4,457.3z M232.9,450.7C232.9,450.7,232.9,450.7,232.9,450.7c0.2,0,0.3-0.1,0.3-0.3
									c-0.1-1.1-0.2-2.2-0.3-3.3c0-0.1-0.1-0.3-0.3-0.2c-0.1,0-0.3,0.1-0.2,0.3c0.1,1.1,0.2,2.2,0.3,3.3
									C232.6,450.6,232.7,450.7,232.9,450.7z M232.3,444.1C232.4,444.1,232.4,444.1,232.3,444.1c0.2,0,0.3-0.1,0.3-0.3l-0.3-3.3
									c0-0.1-0.1-0.3-0.3-0.2c-0.1,0-0.3,0.1-0.2,0.3l0.3,3.3C232.1,444,232.2,444.1,232.3,444.1z M231.8,437.5
									C231.8,437.5,231.8,437.5,231.8,437.5c0.2,0,0.3-0.1,0.3-0.3l-0.3-3.3c0-0.1-0.1-0.3-0.3-0.2c-0.1,0-0.3,0.1-0.2,0.3
									l0.3,3.3C231.5,437.4,231.7,437.5,231.8,437.5z M231.2,430.9C231.2,430.9,231.3,430.9,231.2,430.9c0.2,0,0.3-0.1,0.3-0.3
									l-0.3-3.3c0-0.1-0.1-0.3-0.3-0.2c-0.1,0-0.3,0.1-0.2,0.3l0.3,3.3C231,430.8,231.1,430.9,231.2,430.9z M230.6,424.3
									C230.6,424.3,230.7,424.3,230.6,424.3c0.2,0,0.3-0.1,0.3-0.3c-0.1-1.1-0.2-2.2-0.3-3.3c0-0.1-0.1-0.3-0.3-0.2
									c-0.1,0-0.3,0.1-0.2,0.3c0.1,1.1,0.2,2.2,0.3,3.3C230.4,424.2,230.5,424.3,230.6,424.3z M230,417.7
									C230,417.7,230,417.7,230,417.7c0.2,0,0.3-0.1,0.3-0.3c-0.1-1.1-0.2-2.2-0.3-3.3c0-0.1-0.2-0.3-0.3-0.2
									c-0.1,0-0.3,0.1-0.2,0.3c0.1,1.1,0.2,2.2,0.3,3.3C229.8,417.6,229.9,417.7,230,417.7z M229.3,411.1
									C229.3,411.1,229.3,411.1,229.3,411.1c0.2,0,0.3-0.2,0.3-0.3c-0.1-1.2-0.3-2.3-0.4-3.3c0-0.1-0.2-0.3-0.3-0.2
									c-0.1,0-0.3,0.2-0.2,0.3c0.1,1,0.3,2.1,0.4,3.3C229.1,411,229.2,411.1,229.3,411.1z M228.5,404.5
									C228.5,404.5,228.5,404.5,228.5,404.5c0.2,0,0.3-0.2,0.3-0.3c-0.2-1.4-0.4-2.5-0.6-3.3c0-0.1-0.2-0.2-0.3-0.2
									c-0.1,0-0.2,0.2-0.2,0.3c0.2,0.7,0.4,1.8,0.6,3.2C228.2,404.4,228.4,404.5,228.5,404.5z M225.5,399.7c0.1,0,0.3-0.1,0.3-0.2
									c0-0.1-0.1-0.3-0.2-0.3c-0.8-0.1-1.9-0.2-3.3-0.3c-0.1,0-0.3,0.1-0.3,0.2c0,0.1,0.1,0.3,0.2,0.3
									C223.5,399.5,224.6,399.6,225.5,399.7C225.4,399.7,225.4,399.7,225.5,399.7z M218.8,399.1c0.1,0,0.3-0.1,0.3-0.3
									c0-0.1-0.1-0.3-0.2-0.3c-1-0.1-2.1-0.2-3.3-0.2c-0.2,0-0.3,0.1-0.3,0.3c0,0.1,0.1,0.3,0.3,0.3
									C216.7,399,217.8,399,218.8,399.1C218.8,399.1,218.8,399.1,218.8,399.1z M212.2,398.7c0.1,0,0.3-0.1,0.3-0.3
									c0-0.1-0.1-0.3-0.3-0.3c-1.1-0.1-2.2-0.1-3.3-0.2c-0.2,0-0.3,0.1-0.3,0.3c0,0.2,0.1,0.3,0.3,0.3
									C210,398.5,211.1,398.6,212.2,398.7C212.2,398.7,212.2,398.7,212.2,398.7z M205.6,398.3c0.1,0,0.3-0.1,0.3-0.3
									c0-0.1-0.1-0.3-0.3-0.3l-3.3-0.2c-0.1,0-0.3,0.1-0.3,0.3c0,0.1,0.1,0.3,0.3,0.3L205.6,398.3
									C205.6,398.3,205.6,398.3,205.6,398.3z M199,397.9c0.1,0,0.3-0.1,0.3-0.3c0-0.1-0.1-0.3-0.3-0.3l-3.3-0.2
									c-0.1,0-0.3,0.1-0.3,0.3c0,0.1,0.1,0.3,0.3,0.3L199,397.9C199,397.9,199,397.9,199,397.9z M192.4,397.5
									c0.1,0,0.3-0.1,0.3-0.3c0-0.1-0.1-0.3-0.3-0.3l-3.3-0.2c-0.1,0-0.3,0.1-0.3,0.3c0,0.1,0.1,0.3,0.3,0.3L192.4,397.5
									C192.4,397.5,192.4,397.5,192.4,397.5z M185.8,397.1c0.1,0,0.3-0.1,0.3-0.3c0-0.1-0.1-0.3-0.3-0.3c-1.1-0.1-2.2-0.1-3.3-0.2
									c-0.2,0-0.3,0.1-0.3,0.3c0,0.1,0.1,0.3,0.3,0.3C183.5,397,184.6,397,185.8,397.1C185.8,397.1,185.8,397.1,185.8,397.1z
									 M179.2,396.7c0.1,0,0.3-0.1,0.3-0.3c0-0.1-0.1-0.3-0.3-0.3c-1.1-0.1-2.2-0.1-3.3-0.2c-0.2,0-0.3,0.1-0.3,0.3
									c0,0.1,0.1,0.3,0.3,0.3C176.9,396.5,178,396.6,179.2,396.7C179.2,396.7,179.2,396.7,179.2,396.7z M172.5,396.2
									c0.1,0,0.3-0.1,0.3-0.2c0-0.1-0.1-0.3-0.2-0.3c-1.2-0.1-2.3-0.2-3.3-0.3c-0.2,0-0.3,0.1-0.3,0.2c0,0.1,0.1,0.3,0.2,0.3
									C170.2,396,171.3,396.1,172.5,396.2C172.5,396.2,172.5,396.2,172.5,396.2z M165.9,395.6c0.1,0,0.3-0.1,0.3-0.2
									c0-0.1-0.1-0.3-0.2-0.3c-1.7-0.2-2.2-0.4-2.3-0.5c-0.2-0.1-0.4-0.3-0.7-0.4c-0.1-0.1-0.3-0.1-0.4,0.1
									c-0.1,0.1-0.1,0.3,0.1,0.4c0.2,0.2,0.5,0.3,0.7,0.5C163.6,395.2,164,395.4,165.9,395.6C165.9,395.6,165.9,395.6,165.9,395.6
									z M160.3,392.6c0.1,0,0.1,0,0.2-0.1c0.1-0.1,0.1-0.3,0-0.4c-0.8-0.8-1.5-1.6-2.1-2.5c-0.1-0.1-0.3-0.2-0.4-0.1
									c-0.1,0.1-0.2,0.3-0.1,0.4c0.6,0.9,1.3,1.7,2.2,2.5C160.1,392.6,160.2,392.6,160.3,392.6z"/>
							</g>
							<g>
								<path class="st24" d="M156.7,387.5C156.7,387.5,156.8,387.5,156.7,387.5c0.2-0.1,0.3-0.2,0.3-0.4c-0.2-0.5-0.3-1-0.5-1.5
									c0-0.1-0.2-0.2-0.3-0.2c-0.1,0-0.2,0.2-0.2,0.3c0.1,0.5,0.3,1.1,0.5,1.6C156.5,387.4,156.6,387.5,156.7,387.5z"/>
							</g>
						</g>
					</g>
					<g>
						<polygon class="st24" points="255.8,479.8 226.4,480.7 224.5,471.2 257,469.8 						"/>
						<path class="st26" d="M242.6,477.7c2.8-1.2,5.5-2.8,7.9-4.6c1.2-0.9,2.3-1.9,3.4-3l3.1-0.1l-1.2,10l-22.7,0.7
							C236.3,479.9,239.5,479,242.6,477.7z"/>
					</g>
				</g>
				<g>
					<path class="st28" d="M203.4,316.9c0,0,19.1,21.6,21.9,22.5c2.8,0.9,32.4,5.9,32.4,5.9l1.6,9.5c0,0-35.9,3.5-40,1.1
						c-4.1-2.5-28.4-23-28.4-23L203.4,316.9z"/>
				</g>
				<path class="st3" d="M216.7,328c0,0-15.8-24.9-22.8-26.7c-6.9-1.8-20.1,3.5-12.7,17.3s16.8,23.7,16.8,23.7
					S212.2,340.6,216.7,328z"/>
				<path class="st14" d="M191.3,301c1.9,2.5,3.5,5.2,5,8c1.9,3.4,3.5,7,5.1,10.6c1.6,3.6,3.1,7.3,4.4,11.1c0.9,2.6,1.6,5.3,2.2,7.9
					c-5,3.1-10,3.7-10,3.7s-9.4-9.9-16.8-23.7C174.7,306.4,184.2,300.9,191.3,301z"/>
				<g>
					<defs>
						<path id="SVGID_1_" d="M139.4,344.3c2-29,3.3-36.2,6.7-40.4c3.4-4.2,15.7-6,24.5-6.4c8.7-0.3,21.4,2.1,25.1,4.6
							c3.6,2.5,5.8,13,5.2,26.2c-0.5,11.4-2.9,23.5-2.8,28.7c0.2,9.8,2.1,13.5,3.5,20.8c-10.9,7.6-53.1,11.7-62.1,9.8
							C138.5,377.8,138.5,358.3,139.4,344.3z"/>
					</defs>
					<use xlink:href="#SVGID_1_"  style="overflow:visible;fill:#FFFFFF;"/>
					<clipPath id="SVGID_2_">
						<use xlink:href="#SVGID_1_"  style="overflow:visible;"/>
					</clipPath>
					<path class="st29" d="M185.7,304.3c0.3,1.3-0.3,2.7-1.2,3.7c-0.9,1-2.3,1.5-3.5,1.8c-2.5,0.7-8.1-0.1-10.6-2.9
						c-4.2,10-9.1,20.6-18.9,26c-2.7,1.5-5.6,2.7-8.7,3.1c-3.1,0.4-6.3-0.1-8.7-1.9c-2.8-2.1-4.1-5.8-4.1-9.4
						c0-3.6,1.1-7.2,2.4-10.6c2.2-5.9,5-11.7,9.6-15.9c6.9-6.4,16.6-8.3,25.6-8.6c7.6-0.3,15.1,0.4,22.1,2.9
						c6.8,2.4,13.1,6.7,17.2,12.7c5.3,7.8,6.6,18.5,3.4,27.8c-0.5,0.1-1.4,0.2-1.8-0.1c-4.8-3-7.3-8.9-10.3-14
						C195,313.4,190.6,308.3,185.7,304.3z"/>
					<path class="st30" d="M155.7,369.5c1.3,3.9,2.7,8,5.7,10.9c5,4.8,12.9,5.1,18.6,8.9c-1.5,4.2-6.5,5.9-10.8,6.9
						c-8.6,2-17.8,3.5-26.1,0.5c-2.8-1-5.6-2.6-7.2-5.1c-1.3-2-1.8-4.3-2.1-6.7c-1.8-11.6-1.3-23.5-0.6-35.3
						c0.7-12.4,1.6-24.7,2.6-37.1c0.3-3.5,0.7-7.2,2.6-10.1c1.2-1.8,3-3.2,5-3.9c3.1-1.1,2.6,1.2,2.4,3.6
						c-0.4,5.5-0.5,11.1-0.2,16.6c0.6,11,2.4,21.9,5,32.5C152,357.4,153.7,363.5,155.7,369.5z"/>
					<path class="st30" d="M177.4,385.6c4.6-1.7,9-3.2,13.3-5.5c2-1.1,4.1-2.3,5-4.2c-2.4-0.3-4.8,0-7.2,0.2
						c-3.9,0.4-7.8,0.9-11.6,1.3c4.1-1.4,7.9-3.6,11.6-5.7c1.9-1.1,7.1-3.2,5.6-6.2c-0.5-1-1.7-1.5-2.6-2.1
						c-1.1-0.8-1.3-1.9-0.6-3.1c0.9-1.6,2.6-2.6,4.1-3.6c1.6-1.1,3.1-2.2,4.5-3.6c0.8-0.8,1.5-1.6,2.2-2.5c0.3,2.4-0.2,4.9-0.1,7.3
						c0.1,2.4,0.9,4.8,1.4,7.2c1.3,5.4,1.4,11,0.5,16.4c-0.2,1-0.4,2-1,2.8c-0.7,1-1.9,1.6-3.1,2.1c-6,2.6-12.9,3.3-19.6,3.9
						C175.9,390.7,172.9,387.3,177.4,385.6z"/>
				</g>
				<g>
					<g>
						<path class="st31" d="M246.6,341.9c-1.1-2.8-3.4-5.2-6.1-7c-0.8-0.6-1.7-1.1-2.6-1.4c-1.9-0.6-4.2-0.3-6,0.1
							c-2.3,0.5-4.5,1.5-6.7,2.3c-2,0.8-4.1,1.6-6.1,2.4c-0.5,0.2-1,0.5-1.5,0.6c-4.2,0.5-30,3.9-34.7,4c-4.8-5-12-18.5-12-18.5
							s-12.9,1.6-16.8,9c0-0.2,15.7,22.2,18,23.5c2.3,1.2,12.9-0.5,25.7-3.8c9.7-2.5,18.1-5.1,21.6-6.2c0.5,0.1,1.1,0.2,1.7,0.3
							c6.8,0.5,5.7-3.4,6.1-3.6l-0.2-0.2c1.3,0.5,2.6,0.9,4,1.3c0.5,0.2,1.3,0.3,1.5-0.2c0.2-0.3-0.1-0.7-0.3-1.1
							c-0.9-1.1-1.8-2.1-2.9-3.1c2.2,1.5,4.4,2.9,6.6,4.4c0.4,0.3,1,0.6,1.4,0.3c0.4-0.3,0.2-0.8,0-1.3c-1.1-2.1-2.7-4-4.8-5.5
							c1.5,1.1,2.9,2.2,4.4,3.3c1,0.8,2,1.5,3.1,2.2c1,0.6,2.2,1.2,3.2,0.8c0.1,0,0.3-0.1,0.3-0.2c0-0.1,0-0.2-0.1-0.4
							c-1.3-2.5-3.5-4.4-5.7-6.4c2,1.5,3.9,3,5.9,4.5c0.8,0.6,1.7,1.2,2.6,1c0.2,0,0.4-0.1,0.5-0.3
							C246.9,342.5,246.7,342.2,246.6,341.9z"/>
						<path class="st31" d="M175,342.4c1.5-1.8,2.5-3.7,3.2-5.6c-3.8-5.7-7.3-12.3-7.3-12.3s-12.9,1.6-16.8,9
							c0-0.1,6.6,9.2,11.8,16.2C169.6,348.4,172.9,344.8,175,342.4z"/>
						<path class="st32" d="M227.3,342.2c-1.6,0.2-3,0.8-4.5,1.2c-1.5,0.4-3,0.5-4.5,0.8c-4,0.7-7.8,2.1-11.6,3.4
							c-7.2,2.3-14.5,4.4-21.9,6c-4.5,1-9.3,2.3-14.1,2c0.7,0.8,1.2,1.3,1.5,1.4c2.3,1.2,12.9-0.5,25.7-3.8
							c9.7-2.5,18.1-5.1,21.6-6.2c0.5,0.1,1.1,0.2,1.7,0.3c6.8,0.5,5.7-3.4,6.1-3.6l-0.2-0.2c1.3,0.5,2.6,0.9,4,1.3
							c0.3,0.1,0.8,0.2,1.1,0.1C230.5,343.7,228.9,343,227.3,342.2z"/>
					</g>
					<g>
						<g>
							<path class="st3" d="M180,334.8c-1.2-1.7-10.8-16.7-14.1-22.4c-1.7-3-3.7-5.9-6.6-8.2c-2.1-1.6-7.9-5.2-12-0.3
								c-0.2,0.3-0.4,0.5-0.6,0.8c-0.2,0.3-0.4,0.6-0.6,1c-2.8,4.8-2,11.4-0.3,17c0.3,1.1,0.7,2.2,1.2,3.2
								c2.9,6.7,7.8,15.1,12.6,21.3C165.8,346.7,176.8,340.9,180,334.8z"/>
						</g>
					</g>
					<g>
						<g>
							<path class="st14" d="M146.4,323c1.2,1.7,2.5,3.3,3.8,4.8c2.2,2.7,4.7,5.2,7.1,7.6c2.4,2.4,4.9,4.8,7.5,7
								c0.9,0.8,1.8,1.5,2.8,2.3c-3,1.3-5.9,2.2-8.3,2.4c-4.8-6.1-9.7-14.5-12.6-21.3c-0.5-1.1-0.9-2.1-1.2-3.2
								c-0.1-0.4-0.2-0.7-0.3-1.1C145.7,322,146,322.5,146.4,323z"/>
						</g>
					</g>
				</g>
				<g>
					<defs>
						<path id="XMLID_3_" d="M184.2,289.4l-14.9-2.1l-1.6,12.2c-0.1,0.9,0.1,1.8,0.7,2.5c1.3,1.5,4,4.1,8.4,4.6
							c4.6,0.5,5.1-1.6,5.1-2.9c-0.1-1.2,0.1-2.4,0.3-3.6L184.2,289.4z"/>
					</defs>
					<use xlink:href="#XMLID_3_"  style="overflow:visible;fill:#FFC9B0;"/>
					<clipPath id="XMLID_6_">
						<use xlink:href="#XMLID_3_"  style="overflow:visible;"/>
					</clipPath>
					<path class="st33" d="M186.9,297.8c-12.3,0.5-17.5-11.3-17.2-11.8c0.4-0.6,1.6-0.6,2.6-0.4c6.7,1.1,16,4.2,17.1,6.7
						C190.5,294.8,188.6,297.8,186.9,297.8z"/>
				</g>
				<g>
					<path d="M158.6,275.9c0.8,0,1.7-0.1,2.3-0.6c0.6-0.5,0.7-1.4,1-2c1.1-2.1,3.5-3.3,5.7-1.8c5.4,3.7,2.8,9.9,2.4,10.9
						c-0.7,1.4-2.2,2.7-3.7,3.2c-0.5,0.2-1.5,0.4-1.6-0.4c-0.1-0.4,0.4-0.8,0.5-1.2c-1,0.4-1.9,0.9-3.1,0.9c-1.3,0-3.5-0.3-4.2-1.6
						c-0.7-1.3,0.6-1.9,1.7-2.5c-1.7,0.1-3.4-2.2-4-3.5C154.7,275.5,157.5,275.9,158.6,275.9z"/>
					<g>
						<path d="M206.8,248.4c0.5,0.9,0.8,1.8,1,2.8c0.5,2.5,0.5,5,0.1,7.6c-0.2,1.1-0.4,2.2-1,3.1c-0.8,1.3-2.3,2.2-3.7,2.9
							c-0.9,0.4-1.9,0.8-2.8,0.4c-0.6-0.2-1.1-0.8-1.4-1.3c-1.1-2-0.8-4.3-0.4-6.5c0.3-2.1,0.7-4.2,1.6-6.2c0.7-1.5,1.6-2.8,2.9-3.8
							C204.6,246.4,205.9,247,206.8,248.4z"/>
					</g>
					<g>
						<path class="st31" d="M183.6,294.1c8.9,2.1,13.7,0,16.3-3c0.2-0.2,0.4-0.5,0.6-0.7c2.4-3.4,4.4-10.8,5-13.7
							c0-0.2,0.1-0.5,0.1-0.7c0,0,0-0.1,0-0.1c0.7-4.1,1-8.6,0.8-13.2c-0.7-19.8-17.3-28.4-31.5-21.8c-5.3,2.5-9.9,7.1-12.6,12.6
							c-0.2,0.4-0.4,0.9-0.6,1.3C153.3,274.7,166.7,290.1,183.6,294.1z"/>
						<g class="st34">
							<g>
								<path class="st13" d="M198.2,290c0.4,0.5,1,0.9,1.7,1.1c0.2-0.2,0.4-0.5,0.6-0.7c2.4-3.4,4.4-10.8,5-13.7
									c0-0.2,0.1-0.5,0.1-0.7c-1.1,0.1-2.2,0.8-3,1.6c-2.8,2.6-4.6,6-4.9,9.5C197.5,288.1,197.6,289.2,198.2,290z"/>
								<path class="st13" d="M171.9,286.7c-0.2-0.2-0.4-0.3-0.6-0.5c-3.2-2.7-6.7-8.3-3.5-12.6c1.6-2.1,4.5-2.6,6.9-1.8
									c2.3,0.9,4.1,3,5.2,5.3c0.8,1.7,1.4,3.7,1.3,5.6c-0.1,2-1.1,3.9-2.7,5C176.3,289.2,173.8,288.1,171.9,286.7z"/>
							</g>
						</g>
					</g>
					<g>
						<path d="M153.2,259.1c0.3,1.7,0.6,3.3,1.1,5c0.2,0.6,0.9,4.5,1.4,4.6c0.2,0.1,0.5,0.1,0.7,0.1c0.5,0,1-0.3,1.3-0.7
							c0.7-0.7,1.4-1.6,2.7-1.5c1.7,0.2,3.1,4.2,4.8,4.2c2.2,0.1,3-2,3.6-4c-0.1-2.1,0.1-3.2-0.5-7.7c0-0.1,0-0.3,0-0.4
							c0.1-0.2,0.2-0.4,0.3-0.5c1.3-1.9,3.6-2.6,5.6-3.6c1.3-0.7,2.4-1.7,3.4-2.6c1.3-1.1,2.4-2.3,3.1-3.9c0.7-1.5,1-3.1,1.5-4.6
							c2.6,3.1,6.1,5.8,9.8,7.6c2.6,1.2,5.5,2.4,8.3,3.1c2.2,0.5,5.6,1.1,7.5-0.5c1.7-1.5,1.7-3.6,1.2-5.7c-0.6-3.1-2.8-5.1-5.2-7.1
							c-6.5-5.3-14.8-8.9-23.3-9.3c-1.9-0.1-3.8,0-5.6,0.2c-2.5,0.3-4.9,0.9-7.2,1.8c-0.8,0.3-1.6,0.6-2.3,1c-0.6,0.3-1.2,0.6-1.8,1
							c-1.9,1.2-3.8,2.7-5.4,4.4c-2.4,2.5-4.1,5.6-4.9,8.8c0,0,0,0.1,0,0.1C152.6,252.4,152.7,255.8,153.2,259.1z"/>
						<path class="st10" d="M158.3,240.1c1.4,0.5,3.7-1,4.9-1.2c3.3-0.6-0.3,4.2,0.1,5.4c0.4,1.3,2.1,1.4,3.3,1.2
							c1.9-0.2,2.9-1.5,4.5-2.2c1.2-0.5,2.4,0,2.8,1.3c0.2,0.9-0.9,3.3-0.2,3.9c1,0.9,3.8-0.6,4.5-1.2c1.4-1.2,2.4-3.6,1.7-5.4
							c-0.2-0.6-1.7-0.7-2.4-1.1c-1.3-0.7-2.4-1.5-3.7-2.2c-1.8-0.9-3.5-2.2-5.4-3c-0.9-0.3-1.9-0.7-2.9-1c-0.6,0.3-1.2,0.6-1.8,1
							C161.7,236.9,159.9,238.4,158.3,240.1z"/>
						<path class="st10" d="M167.7,233.7c0.9,0.4,1.8,0.9,2.8,1.3c2.1,0.8,4.2,1.7,6.1,2.8c1.7,0.9,3.5,1.9,5,3.1
							c0.9,0.7,2,2.5,2.7,2.5c1.8,2.6,5.5,2.5,8,1.3c1.5-0.7,1.9-1.8,0.2-2.6c-1.9-1-4.2-0.9-6.1-1.8c-1.5-0.7-2.9-1.9-2.3-3.7
							c0.4-1.1,1.6-2.7-0.3-3.1c-1.4-0.3-3.1,1.1-4.5,1.3c-1.3,0.2-1.9,0-2.7-1.1c-0.6-0.8-0.9-1.4-1.8-1.9
							C172.5,232.2,170,232.8,167.7,233.7z"/>
					</g>
					<g>
						<path d="M198.6,273.4c-0.2,1.4,0.3,2.7,1.2,2.8c0.9,0.1,1.8-0.9,2-2.3c0.2-1.4-0.3-2.7-1.2-2.8
							C199.7,271,198.8,272,198.6,273.4z"/>
						<path d="M180.1,271c-0.2,1.5,0.4,2.8,1.4,2.9c1,0.2,2.1-0.9,2.3-2.4c0.2-1.5-0.4-2.8-1.4-2.9
							C181.3,268.5,180.3,269.5,180.1,271z"/>
						<path class="st12" d="M193.9,282.5c-2-0.2-4.1-0.6-6-1.5c-1.9-0.9-3.4-2.1-4.9-3.4c-0.1-0.1-0.4,0-0.2,0.2
							c2.3,3.4,7,5.3,11.1,5.1C194.2,282.9,194.2,282.5,193.9,282.5z"/>
						<path class="st12" d="M193.8,279c1.2-0.3,2.4-1.2,2.4-2.5c0-0.6-0.3-1.2-0.8-1.5c-0.4-0.3-0.9-0.3-1.3-0.6
							c-1-0.6-0.5-1.7-0.2-2.5c0.4-1.3,0.7-2.7,1.5-3.9c0.1-0.2,0.4-0.1,0.4,0.1c-0.1,0.7-0.3,1.4-0.6,2.1c-0.3,0.7-0.5,1.4-0.7,2.2
							c-0.1,0.4-0.5,1-0.2,1.3c0.1,0.2,0.4,0.3,0.7,0.4c0.5,0.2,0.9,0.4,1.3,0.8c0.6,0.7,0.8,1.8,0.3,2.7c-0.5,1-1.6,1.5-2.6,1.6
							C193.7,279.3,193.7,279.1,193.8,279z"/>
						<path d="M199,261.9c-0.3,0.8,0.9,0.7,2.6,1.2c1.8,0.5,1.9,2,2.4,2c0.5-0.1,0.5-2.8-1.8-3.7C200.4,260.7,199.2,261.4,199,261.9
							z"/>
						<path d="M188,260c0.2,0.7-2,0.4-4.4,0.3c-2.4-0.2-4.1,1.6-4.4,0.9c-0.3-0.6,1.4-2.7,4.4-2.7C186.4,258.4,187.9,259.5,188,260z
							"/>
					</g>
					<g>
						<path class="st31" d="M164.7,268.2c-1.3-3.3-3.9-5.9-7.7-4.7c-1.2,0.4-2.2,1.4-2.6,2.6c-0.4,1.2-0.4,2.5-0.2,3.7
							c0.5,3.1,2.1,6.1,4.9,7.9c1,0.7,2.3,1.1,3.5,0.7c1.6-0.6,2.4-2.3,2.8-3.8C165.8,272.8,165.6,270.4,164.7,268.2z"/>
						<path class="st32" d="M160.5,265.2c0.9,0.9,1.4,2.2,2.3,3.1c0.6,0.6,1,1.6,2.1,0.5c0,0,0,0,0,0c-0.1-0.2-0.1-0.4-0.2-0.6
							c-1.2-3.1-3.6-5.6-7-4.9C158.7,263.7,159.7,264.4,160.5,265.2z"/>
						<path class="st12" d="M156.8,266.6c0.4-0.2,0.8-0.3,1.2-0.3c1,0.1,1.8,0.7,2.4,1.5c0.6,0.8,0.9,1.8,1.2,2.7c0.3,1,0.5,2,0.4,3
							c0,0.2-0.4,0.2-0.4,0c0-1.7-0.7-3.4-1.5-4.8c-0.1-0.2-0.3-0.4-0.4-0.6c-0.5,0.7-0.8,1.5-0.8,2.4c-0.1,1,0.2,1.9,0.5,2.9
							c0,0.1-0.1,0.2-0.2,0.1c-1.2-1.7-1.1-4.1,0.2-5.7c-0.3-0.3-0.6-0.5-1.1-0.7c-0.7-0.2-1.6,0-2,0.6c-0.1,0.1-0.3,0-0.2-0.1
							C156.3,267.1,156.5,266.8,156.8,266.6z"/>
					</g>
				</g>
			</g>
		</g>
		<g>
			<g>
				<g>
					<polygon points="460.3,544.9 465.4,544.9 448.1,370.1 433.8,370.1 					"/>
					<polygon points="173,544.9 167.9,544.9 185.2,370.1 199.5,370.1 					"/>
				</g>
				<g>
					<rect x="177.1" y="354.9" class="st10" width="279.1" height="19.1"/>
					
						<rect x="177.1" y="354.9" transform="matrix(-1 -1.224647e-16 1.224647e-16 -1 633.284 717.2206)" class="st18" width="279.1" height="7.5"/>
					
						<rect x="171" y="349.4" transform="matrix(-1 -1.224647e-16 1.224647e-16 -1 633.2839 708.1763)" class="st10" width="291.3" height="9.5"/>
				</g>
			</g>
			<g>
				<g>
					<path class="st2" d="M366.9,287.3h-76c-1.5,0-2.8,0.9-3.3,2.3l-20.4,54.5h81.8l20.1-53.6C369.7,288.9,368.6,287.3,366.9,287.3z
						"/>
					<rect x="230.9" y="344.1" class="st2" width="120.9" height="5.7"/>
					<path class="st3" d="M245.3,349c-3.1-0.6-9-2.1-12.4-4.9h-2v5.7h18.8C248.3,349.6,246.8,349.3,245.3,349z"/>
					<rect x="270" y="344.1" class="st3" width="81.8" height="5.7"/>
					<g>
						
							<rect x="278.7" y="345.8" transform="matrix(-1 -1.224647e-16 1.224647e-16 -1 580.9598 694.108)" class="st35" width="23.5" height="2.4"/>
						
							<rect x="343.7" y="345.8" transform="matrix(-1 -1.224647e-16 1.224647e-16 -1 692.9012 694.108)" class="st35" width="5.4" height="2.4"/>
						
							<rect x="336.5" y="345.8" transform="matrix(-1 -1.224647e-16 1.224647e-16 -1 678.4519 694.108)" class="st35" width="5.4" height="2.4"/>
					</g>
					<path class="st3" d="M369.7,287.3h-76c-1.5,0-2.8,0.9-3.3,2.3L270,344.1h81.8l20.1-53.6C372.5,288.9,371.4,287.3,369.7,287.3z"
						/>
					<path class="st36" d="M369.7,287.3h-64c31.1,0.8,47.8,1.7,54.2,2.7c6.4,0.9,10.7,2.4,9.6,7.1l2.5-6.6
						C372.5,288.9,371.4,287.3,369.7,287.3z"/>
					<path class="st37" d="M352.2,339.6c-16.8,4.5-38.2,3.4-51.6-8.9c-7.1-6.5-10.6-16.5-10.4-26c0.1-5.4,1.1-12,3.6-17.5h0
						c-1.5,0-2.8,0.9-3.3,2.3L270,344.1h81.8l1.8-4.9C353.2,339.3,352.7,339.5,352.2,339.6z"/>
					<g>
						<path class="st38" d="M276.5,346.9c0,0.9-0.7,1.6-1.6,1.6c-0.9,0-1.6-0.7-1.6-1.6c0-0.9,0.7-1.6,1.6-1.6
							C275.8,345.4,276.5,346.1,276.5,346.9z"/>
						<path class="st35" d="M276,346.9c0,0.6-0.5,1-1,1c-0.6,0-1-0.5-1-1c0-0.6,0.5-1,1-1C275.5,345.9,276,346.4,276,346.9z"/>
					</g>
				</g>
				<g>
					<g>
						<path class="st39" d="M312.1,325.7l5.8-4.6c0.5-0.4,1.2-0.6,1.8-0.5l6,1.3c1.4,0.3,3-1.3,2.7-2.7l-1.4-6
							c-0.1-0.6,0.1-1.2,0.5-1.8l4.6-5.8c1.1-1.4,0.4-3.1-1.2-2.8l-6.6,0.9c-0.6,0.1-1.2-0.1-1.5-0.6l-3.2-4.9
							c-0.8-1.2-2.8-0.6-3.4,1l-2.7,6.5c-0.3,0.6-0.8,1.2-1.4,1.4l-6.5,2.8c-1.6,0.7-2.1,2.7-0.9,3.4l4.9,3.1
							c0.5,0.3,0.7,0.8,0.6,1.5l-0.9,6.6C309,326.2,310.7,326.8,312.1,325.7z"/>
						<path class="st6" d="M312.1,323.4l6.2-5c0.2-0.1,0.4-0.2,0.6-0.2l6.5,1.4c0.5,0.1,1-0.4,0.9-0.9l-1.5-6.5c0-0.2,0-0.4,0.2-0.6
							l4.9-6.3c0.4-0.5,0.1-1-0.4-1l-7.1,1c-0.2,0-0.4,0-0.5-0.2l-3.4-5.3c-0.3-0.4-0.9-0.2-1.2,0.3l-2.9,7.1
							c-0.1,0.2-0.3,0.4-0.5,0.5l-7.1,3c-0.5,0.2-0.7,0.9-0.3,1.2l5.3,3.4c0.2,0.1,0.2,0.3,0.2,0.5l-0.9,7.1
							C311.1,323.6,311.6,323.8,312.1,323.4z"/>
						<path class="st5" d="M316.2,315.1l2.2-1.7c0.1-0.1,0.1-0.1,0.2-0.1l2.2,0.5c0.2,0,0.4-0.2,0.3-0.3l-0.5-2.2
							c0-0.1,0-0.1,0.1-0.2l1.7-2.2c0.1-0.2,0-0.4-0.1-0.3l-2.5,0.3c-0.1,0-0.1,0-0.2-0.1l-1.2-1.8c-0.1-0.1-0.3-0.1-0.4,0.1l-1,2.5
							c0,0.1-0.1,0.1-0.2,0.2l-2.4,1c-0.2,0.1-0.2,0.3-0.1,0.4l1.8,1.2c0.1,0,0.1,0.1,0.1,0.2l-0.3,2.5
							C315.8,315.2,316,315.2,316.2,315.1z"/>
					</g>
					<path class="st5" d="M335.3,326.2c-1.7,5.9-7.3,10.5-12.5,10.3c-5.2-0.3-8-5.3-6.3-11.3c1.7-5.9,7.3-10.5,12.5-10.3
						C334.1,315.2,337,320.3,335.3,326.2z"/>
					<path class="st13" d="M333.6,326.1c-1.4,4.9-6,8.6-10.2,8.4c-4.2-0.2-6.6-4.4-5.2-9.2c1.4-4.9,6-8.6,10.2-8.4
						C332.6,317.2,334.9,321.3,333.6,326.1z"/>
					<path class="st6" d="M320.1,325c0.1-0.2,0.3-0.3,0.6-0.1c0.7,0.6,1.6-0.9,1.9-1.3c0.7-0.9,1.5-1.8,2.2-2.7
						c0.3-0.3,1-0.2,1.1,0.3c0.1,0.6,0,1.2,0,1.9c0.1-0.2,0.2-0.3,0.3-0.5c0.4-0.6,1-1.1,1.8-0.8c0.8,0.3,0.8,1.2,0.8,1.9
						c0,1.7-0.5,3.4-1,5.1c-0.1,0.4-0.3,0.8-0.4,1.2c-0.1,0.4-0.2,0.8-0.4,1.2c0,0,0.1,0,0.1,0c0.1-0.1,0.3-0.2,0.4-0.3
						c0.3-0.2,0.5-0.5,0.8-0.8c0.6-0.7,1-1.4,1.4-2.2c0.3-0.6,0.8-1.8,0.2-2.4c-0.3-0.3,0.1-0.7,0.4-0.4c1.1,1,0.4,2.8-0.1,3.9
						c-0.3,0.7-0.8,1.4-1.3,2c-0.4,0.5-1,1.1-1.6,1.4c-0.6,0.2-1.4,0-1.5-0.8c0-0.4,0.1-0.8,0.2-1.2c0.1-0.5,0.3-1,0.4-1.4
						c0.5-1.8,1.1-3.5,1-5.4c0-0.1,0-0.3,0-0.4l0,0c-0.1,0.1-0.1,0.1-0.2,0.2c-0.3,0.4-0.6,0.8-0.8,1.3c-0.5,0.9-0.9,1.8-1.1,2.8
						c-0.2,0.7-1.2,0.5-1.3-0.2c-0.1-1.3,0.3-2.6,0.5-4c-0.6,0.8-1.3,1.6-2,2.4c-0.4,0.4-1,0.8-1.7,0.7
						C320.3,326.1,319.8,325.6,320.1,325z"/>
				</g>
			</g>
			<g>
				<g>
					<path class="st2" d="M392.1,303.4c3.3-2.7,3.6-7.8,2.4-11.6c-0.6-1.9-1.2-4-1.5-6c-0.2-1.7-0.4-3.5,0.2-5.1
						c-0.4,0.7-1,1.2-1.4,1.9c-0.7,1.1-1.1,2.3-1.6,3.5c-0.6,1.9-1.1,3.8-1.1,5.9c0,2,0.5,3.9,0.8,5.8c0.2,1.3,0.4,2.6,0.8,3.8
						C390.9,302,391.6,303.8,392.1,303.4z"/>
					<path class="st2" d="M395.1,303.7c4-1.6,6.8-4.2,8.2-7.9c0.6-1.6,1-3.2,1.3-4.9c0.1-0.8,0.4-1.7,0.4-2.5c0,0.5-0.4,0.9-0.7,1.2
						c-0.7,0.7-1.4,1.3-2.2,2c-0.8,0.7-1.6,1.4-2.5,2c-1,0.7-2,1.3-2.9,2.1c-1.7,1.5-3.1,3.5-3.7,5.8c-0.2,0.8-0.1,1.9,0.2,2.2
						C393.6,303.9,394.4,304,395.1,303.7z"/>
					<path class="st2" d="M392.2,303.3c0.6-0.9-0.4-2.6-0.9-3.4c-1.2-1.7-3.1-3.2-5-4.2c-2.1-1.1-4.4-1.9-6.6-2.7
						c-0.9-0.3-2-0.6-2.8-1.2c-0.4-0.3-1.1-0.7-1.3-1.3c0,2.5,1.8,4.6,3.3,6.4c1.6,1.9,3.3,3.3,5.5,4.3c1.3,0.6,2.6,1.1,4,1.6
						c0.8,0.3,1.6,0.5,2.4,0.6C391.4,303.5,392,303.7,392.2,303.3z"/>
					<path class="st10" d="M377.2,275.2c1.9,1.9,3.5,4.2,4.9,6.5c1.6,2.4,3,4.9,4.2,7.5c2.5,5,4.5,10.3,5.6,15.8
						c0,0.2-0.3,0.3-0.3,0.1c-1.7-5.3-3.5-10.6-6.1-15.6c-1.2-2.4-2.5-4.7-4-7c-1.5-2.4-3.3-4.6-4.8-6.9
						C376.6,275.3,377,275,377.2,275.2z"/>
					<path class="st10" d="M395,290.4c1.3-4.4,3.1-9.1,6.5-12.4c0.1-0.1,0.3,0,0.2,0.2c-2.8,3.8-4.6,8.1-5.9,12.7
						c-1.3,4.8-1.7,9.7-2.3,14.7c0,0.3-0.4,0.3-0.5,0C392.6,300.5,393.6,295.2,395,290.4z"/>
					<path class="st13" d="M402.6,281.9c0.8,0,1.9-0.3,2.6-0.8c0.6-0.4,0.9-1.1,1.1-1.8c0.3-0.8,0.7-1.4,1.4-1.9
						c0.9-0.7,1.8-1.3,3-1.4c0.2,0,0.8,0,0.9-0.2c0.1-0.4-0.8-0.9-1.1-1c-0.8-0.4-1.7-0.6-2.5-0.6c-0.6,0-1.3,0.3-1.8,0.3
						c0.6-0.5,1.1-1.5,1.2-2.3c0.1-0.8-0.2-2.4-1.1-2.7c-0.6-0.2-0.6,0.8-0.7,1.2c-0.1,0.7-0.5,1.9-1,2.4c0-1.1-0.6-2.8-1.8-3.2
						c-0.1,0.7,0.5,1.6,0.2,2.3c-0.2-0.4-0.5-0.8-0.9-1.2c-0.2-0.2-0.6-0.7-1-0.6c0.2,0.5,0.2,1.2,0.3,1.7c0.1,1.2-0.9,1.6-1.6,2.4
						c-0.4,0.4-0.9,0.7-1.2,1.3c-0.4,0.8-0.4,1.8-0.3,2.7C398.3,279.9,399.6,281.8,402.6,281.9z"/>
					<path class="st13" d="M370.9,271.8c-0.1,0-0.4-0.1-0.5-0.2c-0.1-0.5,1.5-0.7,1.7-0.8c0.6-0.1,1.1-0.1,1.7,0
						c0.2,0,0.5,0.2,0.6,0c0.1-0.2-0.3-0.8-0.4-0.9c-0.1-0.3-0.4-0.6-0.3-0.9c0.7-0.1,2,0.6,2.2,1.3c0.4-0.6,0.5-1.3,1-1.9
						c0.2-0.3,0.5-0.6,0.8-0.8c0.2-0.1,0.6-0.2,0.8,0c0.2,0.1,0.1,0.5,0.1,0.7c0,0.6-0.2,1.3,0,1.9c0.2,0.8,0.8,1,1.4,1.4
						c0.4,0.2,0.8,0.6,1.1,1c0.5,0.5,0.8,1.2,0.8,1.9c0.1,1.4-0.7,2.7-1.8,3.5c-0.3,0.2-0.6,0.4-0.9,0.6c-2,1.1-5.1,1.6-6.3-0.9
						c-0.5-1.1-0.5-2.2-0.4-3.4c0-0.2,0-0.4-0.1-0.6c-0.2-0.3-0.6-0.5-0.9-0.5c-0.3-0.1-0.8-0.2-0.3-0.4c0.4-0.2,0.9-0.1,1.2-0.1
						c-0.3-0.3-0.6-0.5-0.9-0.7C371.4,272,371.2,271.9,370.9,271.8z"/>
				</g>
				<g>
					<path class="st6" d="M376.2,328.7c0-5.1,2.5-8.6,6.3-10.6c2.5-1.3,4.2-3.8,4.2-6.7v-8.2h10.6v8.2c0,2.9,1.7,5.4,4.2,6.7
						c3.8,2,6.3,5.5,6.3,10.6c0,3.4-1.1,7-2.9,10.2c-1.7,2.9-5.7,6.1-5.7,9.5v0h-14.4l0,0c0-3.3-4-6.6-5.7-9.5
						C377.3,335.7,376.2,332.1,376.2,328.7z"/>
					<path class="st24" d="M386.2,304.6h11.6c0.3,0,0.6-0.3,0.6-0.6v-0.7c0-0.3-0.3-0.6-0.6-0.6h-11.6c-0.3,0-0.6,0.3-0.6,0.6v0.7
						C385.6,304.3,385.9,304.6,386.2,304.6z"/>
					<path class="st24" d="M384.4,347.6h15.3c0.3,0,0.6,0.3,0.6,0.6v0.7c0,0.3-0.3,0.6-0.6,0.6h-15.3c-0.3,0-0.6-0.3-0.6-0.6v-0.7
						C383.8,347.9,384,347.6,384.4,347.6z"/>
				</g>
			</g>
		</g>
	</g>
</g>
</svg>
