<svg viewBox="0 0 133 32" fill="none" xmlns="http://www.w3.org/2000/svg">
<g>
<path fill-rule="evenodd" clip-rule="evenodd" d="M66.4552 28.1105C66.0729 28.1105 65.2318 27.9228 65.2318 26.7809V25.8995H65.1821C64.6777 26.6375 63.9982 27.2381 63.2049 27.6475C62.4113 28.0569 61.5287 28.2621 60.6364 28.2447C56.7599 28.2447 54.2863 25.2596 54.2863 21.5619C54.2863 17.8641 56.8402 14.9442 60.6097 14.9442C61.4822 14.9311 62.3452 15.1274 63.1268 15.5167C63.9083 15.9059 64.5855 16.477 65.1019 17.182H65.1554V8.93968C65.1554 7.7671 66.004 7.55249 66.4017 7.55249C66.7993 7.55249 67.6518 7.7671 67.6518 8.93968V26.7809C67.6518 27.9228 66.826 28.1105 66.4552 28.1105ZM61.0609 26.141C63.6146 26.141 65.312 24.0104 65.312 21.5849C65.312 19.1593 63.6146 17.0057 61.0609 17.0057C58.3272 17.0057 56.8899 19.19 56.8899 21.5619C56.8899 23.9338 58.3272 26.141 61.0609 26.141ZM46.7167 26.1946C48.6052 26.1946 50.4901 24.9952 50.4901 22.6003C50.4901 19.9639 48.0204 19.1516 45.975 19.1516C44.9389 19.1516 44.7517 18.435 44.7517 18.0595C44.7517 17.684 44.9389 16.9674 45.975 16.9674C47.9401 16.9674 49.9855 16.2777 49.9855 13.8521C49.9855 11.963 48.4563 10.7367 46.6633 10.7367C46.0754 10.7261 45.4947 10.8645 44.9746 11.1392C44.4545 11.4139 44.0123 11.8159 43.6888 12.3078C43.5831 12.4927 43.433 12.6482 43.252 12.7599C43.1803 12.8042 43.1045 12.8412 43.0259 12.8703C42.9066 12.9146 42.7808 12.9408 42.6527 12.9477C42.498 12.9545 42.3434 12.9298 42.1986 12.8749C42.1345 12.8507 42.0729 12.8209 42.0143 12.7858C41.9406 12.7416 41.8719 12.6891 41.8095 12.6292C41.7457 12.5679 41.6893 12.4996 41.6413 12.4257C41.6053 12.37 41.5741 12.3113 41.548 12.2499C41.4872 12.1071 41.456 11.9535 41.4562 11.7982C41.4845 11.4311 41.6354 11.0842 41.8844 10.8134C43.0313 9.34962 44.7248 8.57557 46.7702 8.57557C49.9052 8.57557 52.5622 10.3612 52.5622 13.6912C52.5715 14.6761 52.2482 15.6352 51.6452 16.4129C51.0421 17.1905 50.1946 17.7411 49.2399 17.9752V18.0097C50.3198 18.1925 51.299 18.7566 52.0001 19.6C52.7014 20.4433 53.0783 21.5102 53.063 22.608C53.063 26.3632 49.9816 28.3558 46.7665 28.3558C44.2968 28.3558 42.3048 27.4514 41.1082 25.6428C40.9017 25.3631 40.7821 25.0285 40.7642 24.681C40.7675 24.5249 40.8021 24.3709 40.8653 24.2282C40.9288 24.0855 41.0199 23.9569 41.1334 23.85C41.2471 23.743 41.3807 23.6597 41.5267 23.605C41.6727 23.5502 41.828 23.5253 41.9837 23.5314C42.366 23.5314 42.7024 23.6618 43.1536 24.2978C43.5374 24.8918 44.0661 25.3777 44.6896 25.7096C45.313 26.0415 46.0108 26.2085 46.7167 26.1946ZM69.0588 21.5619C69.0588 25.4474 71.9797 28.2447 75.8334 28.2447C79.6832 28.2447 82.6345 25.4666 82.6345 21.5772C82.6345 17.6878 79.6869 14.9442 75.8334 14.9442C71.9797 14.9442 69.0588 17.6763 69.0588 21.5619ZM71.628 21.5619C71.628 19.1631 73.1572 17.0057 75.8334 17.0057C78.5439 17.0057 80.0388 19.167 80.0388 21.5619C80.0388 23.9568 78.5096 26.141 75.8334 26.141C73.1572 26.141 71.628 23.9607 71.628 21.5619ZM93.7101 24.907C93.8452 24.9019 93.98 24.9242 94.1064 24.9729C94.2326 25.0215 94.3478 25.0954 94.4447 25.19C94.5415 25.2847 94.6183 25.3981 94.6702 25.5233C94.676 25.5373 94.6814 25.5513 94.6864 25.5655C94.6982 25.5978 94.7082 25.6306 94.7165 25.6638C94.7249 25.6974 94.7316 25.7316 94.7364 25.766C94.7435 25.8164 94.7469 25.8675 94.7461 25.9187C94.7441 26.1345 94.6898 26.3467 94.588 26.537C94.4861 26.7272 94.3396 26.8898 94.1613 27.0107C93.0829 27.8449 91.7493 28.2784 90.3879 28.2369C86.4845 28.2369 83.6668 25.6006 83.6668 21.5771C83.6668 17.5537 86.5379 14.9441 90.3879 14.9441C91.7123 14.9032 93.0125 15.3079 94.081 16.0937C94.1518 16.14 94.218 16.1924 94.2793 16.2502C94.3765 16.3423 94.4605 16.448 94.5285 16.5643C94.5699 16.6352 94.605 16.7092 94.6334 16.7855C94.6812 16.9137 94.7103 17.0485 94.7194 17.1858C94.725 17.3331 94.6998 17.4798 94.6453 17.6166C94.5908 17.7535 94.5083 17.8773 94.4032 17.9803C94.2979 18.0832 94.1723 18.1629 94.0345 18.2141C93.9623 18.241 93.8876 18.2598 93.8116 18.2702C93.7428 18.2796 93.6729 18.2822 93.6031 18.2778C93.3392 18.2778 93.0984 18.1974 92.6205 17.7989C91.9968 17.2936 91.2165 17.0225 90.4145 17.0325C87.811 17.0325 86.2971 19.163 86.2971 21.5848C86.2971 24.0066 87.7613 26.1141 90.3879 26.1141C91.2759 26.1396 92.1437 25.846 92.8346 25.2864C93.0748 25.0637 93.3836 24.9299 93.7101 24.907ZM99.0193 25.0776C98.2558 24.3626 97.7998 23.378 97.7473 22.3321L106.399 22.3474C107.278 22.3474 107.73 21.9489 107.73 21.0676C107.735 20.792 107.717 20.5163 107.676 20.2437C107.198 16.7835 104.858 14.9442 101.701 14.9442C98.015 14.9442 95.2126 17.6534 95.2126 21.6232C95.2126 25.593 98.0303 28.2562 101.853 28.2562C102.738 28.2916 103.62 28.1416 104.444 27.8156C105.267 27.4897 106.014 26.995 106.636 26.3633C106.871 26.1198 107.007 25.7975 107.018 25.4589C107.022 25.3192 106.997 25.1802 106.945 25.0506C106.892 24.9211 106.814 24.8038 106.714 24.7063C106.614 24.6087 106.495 24.5329 106.365 24.4837C106.292 24.4564 106.217 24.4375 106.14 24.4275C106.079 24.4195 106.017 24.4172 105.956 24.4205C105.791 24.4222 105.629 24.457 105.479 24.5229C105.329 24.5887 105.193 24.6842 105.08 24.8036C104.659 25.2379 104.155 25.5823 103.598 25.8161C103.041 26.0498 102.442 26.1682 101.838 26.164C100.793 26.1822 99.7826 25.7926 99.0193 25.0776ZM101.708 16.8985C104.017 16.8985 105.187 18.4695 105.241 20.4698H97.7473C97.8343 19.4827 98.2913 18.5653 99.0262 17.9026C99.7613 17.2399 100.72 16.881 101.708 16.8985ZM117.433 26.0873H117.352C116.45 27.4438 115.016 28.2178 113.128 28.2178C111.136 28.2178 108.559 27.233 108.559 24.3285C108.559 20.5234 113.074 20.0674 117.326 20.0674V19.7226C117.326 17.8602 116.079 16.9521 114.217 16.9521C113.154 16.9729 112.123 17.3162 111.258 17.9368C111.042 18.0996 110.783 18.1932 110.513 18.2051C110.385 18.2052 110.258 18.1795 110.141 18.1297C110.094 18.11 110.05 18.0868 110.007 18.0602C109.979 18.0427 109.952 18.0236 109.925 18.0031C109.891 17.9761 109.858 17.9468 109.827 17.9151C109.738 17.8233 109.668 17.7145 109.622 17.5952C109.606 17.5538 109.593 17.5113 109.582 17.4682C109.563 17.3872 109.555 17.3039 109.557 17.2203C109.557 17.0222 109.608 16.8274 109.705 16.6549C109.802 16.4823 109.942 16.3379 110.111 16.2355C111.39 15.3614 112.91 14.9098 114.458 14.9441C118.098 14.9441 119.719 17.1015 119.719 19.8988V26.8231C119.719 27.9151 118.954 28.1029 118.602 28.1029C118.547 28.1043 118.492 28.1018 118.437 28.0953C118.329 28.0825 118.224 28.0545 118.124 28.0119C117.973 27.9476 117.837 27.8516 117.726 27.7302C117.698 27.6989 117.671 27.6661 117.646 27.6321C117.628 27.607 117.61 27.5812 117.594 27.5547C117.547 27.4776 117.509 27.395 117.481 27.3086C117.43 27.1521 117.414 26.9865 117.433 26.8231V26.0873ZM116.714 21.8722C114.244 21.8722 111.109 22.1366 111.109 24.2671C111.109 25.7578 112.44 26.2406 113.686 26.2406C116.026 26.2406 117.326 24.6695 117.326 22.5389V21.8799L116.714 21.8722ZM124.207 17.3545H124.127V16.3812C124.127 15.2393 123.355 15.0515 122.957 15.0515C122.559 15.0515 121.764 15.2316 121.764 16.3812V26.7273C121.764 27.896 122.586 28.1105 123.01 28.1105C123.435 28.1105 124.261 27.8768 124.261 26.7273V21.1864C124.261 18.6841 125.667 17.0326 127.633 17.0326C129.945 17.0326 130.504 18.845 130.504 20.8951V26.7273C130.504 27.896 131.326 28.1105 131.75 28.1105C132.174 28.1105 133 27.8768 133 26.7273V20.0674C133 17.228 131.54 14.9289 128.298 14.9289C126.501 14.9289 124.819 15.9941 124.207 17.3545Z" fill="black"/>
<path d="M29.3249 8.15796H9.02422C8.11419 8.15796 7.37646 8.89738 7.37646 9.8095V30.1568C7.37646 31.0689 8.11419 31.8084 9.02422 31.8084H29.3249C30.2349 31.8084 30.9726 31.0689 30.9726 30.1568V9.8095C30.9726 8.89738 30.2349 8.15796 29.3249 8.15796Z" fill="url(#paint0_radial)"/>
<path fill-rule="evenodd" clip-rule="evenodd" d="M9.02445 8.3495C8.22 8.3495 7.56786 9.00314 7.56786 9.80945V30.1568C7.56786 30.9631 8.22 31.6167 9.02445 31.6167H29.3251C30.1295 31.6167 30.7817 30.9631 30.7817 30.1568V9.80945C30.7817 9.00314 30.1295 8.3495 29.3251 8.3495H9.02445ZM7.18555 9.80945C7.18555 8.79151 8.00885 7.96631 9.02445 7.96631H29.3251C30.3407 7.96631 31.164 8.79151 31.164 9.80945V30.1568C31.164 31.1747 30.3407 31.9999 29.3251 31.9999H9.02445C8.00885 31.9999 7.18555 31.1747 7.18555 30.1568V9.80945Z" fill="black"/>
<path d="M35.6715 29.8541L34.9948 29.9806C31.424 30.5783 27.2531 31.1071 23.3764 30.4902C12.71 28.7888 5.49583 24.0718 1.32865 16.0938C0.019225 13.4143 -0.335603 10.3664 0.32318 7.45673C0.49241 6.24194 0.973219 5.09194 1.71861 4.11915C2.43087 3.01906 3.41286 2.12057 4.57064 1.50964C4.76562 1.40618 4.95295 1.31805 5.15557 1.23758C6.00398 0.7815 6.91278 0.448627 7.85468 0.24895C8.12749 0.191178 8.40313 0.147691 8.68046 0.118666C15.8679 -0.62472 22.2104 2.11891 28.0597 8.5105C30.2083 10.8364 31.6802 13.856 32.8539 16.5076C33.5497 18.0672 33.695 18.9754 33.3585 19.6345C33.2668 19.8142 33.1355 19.9707 32.9745 20.0922C32.8136 20.2137 32.6272 20.2969 32.4295 20.3357C31.7834 20.4698 30.9882 20.1939 29.7763 19.4122C29.3467 19.065 28.9615 18.666 28.6294 18.2243C28.1449 17.6327 27.6185 17.0769 27.0543 16.5613C26.7448 16.8986 26.3476 17.1428 25.9073 17.2664C24.9554 17.4656 24.3399 16.6609 24.0799 16.2777C23.4051 15.8125 22.679 15.4267 21.916 15.1282C22.5277 15.5995 23.0629 16.3314 23.3382 17.7798C23.8352 18.5807 27.5436 21.0752 28.6905 21.3818C29.3213 21.3818 30.0745 21.4853 30.5447 22.0371C31.0609 22.6463 30.927 23.382 30.8238 24.0909C30.8238 24.1331 30.8238 24.1752 30.8238 24.2174C31.4432 24.4856 33.0642 24.6964 33.8823 24.7998C34.5562 24.8504 35.2221 24.9789 35.8665 25.183C37.3154 25.8268 38.7797 26.6545 38.6459 27.9037C38.5121 29.1529 37.0822 29.5629 35.6983 29.8503L35.6715 29.8541Z" fill="black"/>
<path d="M24.8059 15.6646C25.5935 16.8678 25.9529 16.2623 26.7175 15.5649C27.4209 14.948 29.688 18.2473 30.273 18.6304C32.8459 20.282 33.0103 19.2321 31.9781 16.9061C30.7814 14.2238 29.3592 11.3575 27.3483 9.16569C22.363 3.68609 16.3951 0.271884 8.79863 1.06125C5.11699 1.44444 0.838952 4.80884 1.25185 8.7825C1.63416 12.5301 5.3502 13.5302 8.51573 13.718C10.7561 13.8521 12.6523 12.2963 14.7588 12.6106C16.9762 12.9401 17.0106 14.4345 19.2739 13.4689C19.9697 13.17 24.0375 14.879 24.8136 15.6646" fill="url(#paint1_linear)"/>
<path d="M19.1557 2.67455L19.9586 13.4958L18.1617 13.9403L16.7395 13.902L6.76123 1.70508L19.1557 2.67455Z" fill="#630A19"/>
<path d="M28.5644 22.3436C30.3727 22.3436 29.9789 23.11 29.7992 24.4397C29.6463 25.5892 34.6584 25.7004 35.4574 26.0567C38.9747 27.6125 37.9883 28.5168 34.8419 29.0456C31.1794 29.6587 27.2225 30.1454 23.5294 29.5552C14.3539 28.0915 6.62747 24.1906 2.16974 15.6378C0.00586747 11.4956 0.564039 4.67098 5.0103 2.34886C9.2157 0.160851 12.8171 3.35664 15.2218 6.56393C16.9154 8.82474 16.6019 11.8941 18.395 13.8943C20.2759 15.998 21.8625 14.9941 22.4245 18.0404C22.5965 18.9831 27.211 22.0716 28.5644 22.3398" fill="url(#paint2_linear)"/>
<path opacity="0.4" d="M35.6679 27.785C32.0092 28.4019 28.0485 28.8847 24.3553 28.2984C15.1799 26.8308 7.45344 22.9338 2.99571 14.3772C1.46648 11.4381 1.30208 7.13877 2.93072 4.06177C0.45718 7.12728 0.415126 12.2697 2.1661 15.6379C6.62383 24.1868 14.3427 28.0915 23.5257 29.5553C27.2188 30.1454 31.1719 29.6588 34.8383 29.0457C36.9945 28.6625 38.1338 28.1452 37.5144 27.3405C36.913 27.5422 36.2951 27.691 35.6679 27.785Z" fill="#CE103F"/>
<defs>
<radialGradient id="paint0_radial" cx="0" cy="0" r="1" gradientUnits="userSpaceOnUse" gradientTransform="translate(15.3361 17.1361) scale(18.1138 18.1555)">
<stop stop-color="#373638"/>
<stop offset="1"/>
</radialGradient>
<linearGradient id="paint1_linear" x1="1.20597" y1="10.185" x2="32.5859" y2="10.185" gradientUnits="userSpaceOnUse">
<stop stop-color="#6B0920"/>
<stop offset="0.6" stop-color="#760823"/>
<stop offset="1" stop-color="#800726"/>
</linearGradient>
<linearGradient id="paint2_linear" x1="19.3163" y1="9.52981" x2="19.3163" y2="28.3061" gradientUnits="userSpaceOnUse">
<stop stop-color="#D21040"/>
<stop offset="0.18" stop-color="#CE103F"/>
<stop offset="0.38" stop-color="#C10F3B"/>
<stop offset="0.59" stop-color="#AB0F34"/>
<stop offset="0.79" stop-color="#8E0D2B"/>
<stop offset="1" stop-color="#680C20"/>
</linearGradient>
</defs>
</g>
</svg>
