<svg viewBox="0 0 158 32" fill="none" xmlns="http://www.w3.org/2000/svg">
<g>
<path fill-rule="evenodd" clip-rule="evenodd" d="M68.9268 22.5856C68.9268 23.7668 69.7946 23.9564 70.1909 23.9564C70.5753 23.9564 71.4313 23.7668 71.4352 22.5856V4.1916C71.4352 2.98268 70.5357 2.76538 70.1394 2.76538C69.7431 2.76538 68.8436 2.98268 68.8436 4.1916V12.6775H68.7881C68.2523 11.9515 67.5501 11.3638 66.7402 10.9631C65.9302 10.5625 65.0361 10.3606 64.132 10.3743C60.2248 10.3743 57.5818 13.3925 57.5818 17.2089C57.5818 21.0251 60.1416 24.0987 64.1598 24.0987C65.0851 24.1173 66.0005 23.9056 66.8232 23.4828C67.6459 23.0599 68.3498 22.4393 68.8715 21.677H68.9268V22.5856ZM68.9941 17.2326C68.9941 19.7293 67.2347 21.9259 64.5917 21.9259C61.7664 21.9259 60.2684 19.6503 60.2684 17.2049C60.2684 14.7595 61.7544 12.5115 64.5917 12.5115C67.2467 12.5115 68.9941 14.7358 68.9941 17.2326ZM40.6256 21.8705H40.5462C39.607 23.269 38.121 24.0671 36.1873 24.0671C34.1228 24.0671 31.4321 23.0517 31.4321 20.0571C31.4321 16.1342 36.1159 15.6681 40.5224 15.6681V15.3086C40.5224 13.3885 39.2266 12.4562 37.3008 12.4562C36.1922 12.4731 35.115 12.8274 34.2139 13.4715C33.9906 13.6367 33.7228 13.7316 33.4452 13.7441C33.3126 13.7442 33.1817 13.7177 33.0596 13.6663C33.0247 13.6517 32.9909 13.6351 32.9582 13.6167C32.9218 13.5963 32.887 13.5737 32.8535 13.549C32.8113 13.5177 32.7717 13.483 32.7347 13.4452C32.6422 13.3505 32.5698 13.2383 32.5219 13.1152C32.4737 12.9922 32.4508 12.8608 32.4545 12.7288C32.4547 12.5242 32.5083 12.3231 32.6097 12.1452C32.7111 11.9673 32.857 11.8185 33.0331 11.7135C34.3592 10.8055 35.9381 10.3356 37.5466 10.3703C41.319 10.3703 42.9991 12.5905 42.9991 15.4745V22.6409C42.9991 23.7668 42.2066 23.9564 41.842 23.9564C41.6723 23.9609 41.5036 23.929 41.3473 23.863C41.2645 23.828 41.1861 23.7838 41.1135 23.7314C41.0493 23.685 40.9897 23.6322 40.9357 23.5736C40.8773 23.5102 40.8262 23.4408 40.7831 23.3668C40.7413 23.2953 40.707 23.2194 40.6811 23.1403C40.6732 23.1162 40.666 23.0918 40.6596 23.0673C40.6532 23.0427 40.6476 23.0179 40.643 22.9929L40.6345 22.9416C40.6292 22.9058 40.6258 22.8697 40.6238 22.8337C40.6203 22.7695 40.6223 22.7051 40.6294 22.6409L40.6256 21.8705ZM39.8845 17.5248C37.3246 17.5248 34.0752 17.8014 34.0752 19.9979C34.0752 21.5347 35.4503 22.0285 36.7461 22.0285C39.1672 22.0285 40.5186 20.4088 40.5186 18.2122V17.5327L39.8845 17.5248ZM53.7261 21.598H53.6429C53.0089 22.9966 51.2653 24.0948 49.4028 24.0948C46.0425 24.0948 44.5288 21.7047 44.5288 18.797V11.9348C44.5288 10.7259 45.3848 10.5047 45.8246 10.5047C46.2644 10.5047 47.1163 10.7259 47.1163 11.9348V17.9437C47.1163 20.0572 47.6951 21.9259 50.0924 21.9259C52.1293 21.9259 53.5874 20.2232 53.5874 17.6435V11.9348C53.5874 10.7259 54.4434 10.5047 54.8832 10.5047C55.3232 10.5047 56.1751 10.7259 56.1751 11.9348V22.6015C56.1751 23.7867 55.3508 23.9724 54.9863 23.9724C54.6218 23.9724 53.7459 23.7827 53.7459 22.6015L53.7261 21.598ZM74.9898 7.67993C74.6622 7.66671 74.346 7.55772 74.0804 7.36636C73.8147 7.1751 73.6114 6.91006 73.4958 6.60431C73.3803 6.29856 73.3577 5.96571 73.4308 5.64723C73.4664 5.49252 73.5237 5.34457 73.6003 5.20751C73.6344 5.14655 73.6723 5.08782 73.7139 5.03158C73.7427 4.99271 73.7731 4.9551 73.8052 4.91874C73.8375 4.88228 73.8714 4.84717 73.9068 4.81351C74.1442 4.5882 74.4428 4.43764 74.7653 4.38054C75.0881 4.32335 75.4205 4.36222 75.7212 4.49233C76.0217 4.62234 76.2773 4.83772 76.4558 5.11164C76.6344 5.38556 76.7283 5.70587 76.7254 6.03255C76.7231 6.14559 76.7093 6.25776 76.6845 6.36752C76.6606 6.47333 76.6263 6.57692 76.5822 6.67674C76.4922 6.87996 76.363 7.06341 76.2016 7.21658C76.123 7.29113 76.0377 7.35778 75.9468 7.41575C75.851 7.4768 75.7488 7.52821 75.642 7.56901C75.434 7.64858 75.2123 7.68629 74.9898 7.67993ZM76.2856 22.5185C76.2856 23.7274 75.4296 23.9447 74.9898 23.9447C74.5498 23.9447 73.7058 23.7392 73.7058 22.5185V11.9347C73.7058 10.7258 74.5618 10.5047 75.0016 10.5047C75.4414 10.5047 76.2974 10.7258 76.2974 11.9347L76.2856 22.5185ZM78.2193 17.2089C78.2193 21.2147 81.2468 24.0987 85.2412 24.0987C89.2315 24.0987 92.2906 21.2187 92.2906 17.2089C92.2906 13.1989 89.2354 10.3743 85.2412 10.3743C81.2468 10.3743 78.2193 13.2029 78.2193 17.2089ZM80.8823 17.2089C80.8823 14.7358 82.4673 12.5155 85.2412 12.5155V12.5115C88.0507 12.5115 89.6001 14.72 89.6001 17.2089C89.6001 19.6978 88.0151 21.9496 85.2412 21.9496C82.4673 21.9496 80.8823 19.682 80.8823 17.2089ZM94.2719 11.9347C94.2719 10.7258 95.124 10.5047 95.5638 10.5047C96.0036 10.5047 96.8596 10.7258 96.8596 11.9347V25.3866C96.8596 27.9941 96.0671 30.3249 92.7027 30.3249C91.6527 30.3249 91.0503 29.9298 91.0503 29.1397C91.0428 28.9958 91.0666 28.8519 91.12 28.718C91.1449 28.6554 91.1761 28.5956 91.2129 28.5396C91.2548 28.4757 91.304 28.4167 91.3597 28.3638C91.4129 28.3131 91.4716 28.2687 91.5342 28.231C91.5948 28.1947 91.659 28.1648 91.7262 28.1418C91.8628 28.095 92.0081 28.0784 92.1521 28.0928H92.4808C93.9391 28.0928 94.2719 26.9708 94.2719 25.4024V11.9347ZM95.5638 7.67993C95.2365 7.66671 94.9201 7.55772 94.6544 7.36636C94.3888 7.1751 94.1856 6.91006 94.0701 6.60431L94.0533 6.55714C94.0347 6.50313 94.019 6.44835 94.0061 6.39299C93.9925 6.33473 93.9821 6.2758 93.9749 6.21648C93.9654 6.13826 93.9616 6.05936 93.9635 5.98047C93.966 5.86878 93.9797 5.75718 94.0049 5.64723C94.039 5.49869 94.0931 5.35633 94.1655 5.22391C94.2028 5.15552 94.2448 5.08984 94.2915 5.02724C94.3079 5.00516 94.3247 4.98346 94.3423 4.96224L94.3752 4.92366C94.4087 4.88546 94.4439 4.84871 94.4809 4.81351C94.6241 4.67771 94.7893 4.56901 94.9689 4.49156C94.9876 4.48346 95.0066 4.47574 95.0257 4.46831C95.0629 4.45385 95.1006 4.44073 95.1389 4.42896C95.2045 4.4088 95.2715 4.3926 95.3396 4.38054C95.6621 4.32335 95.9945 4.36222 96.2952 4.49233C96.5959 4.62234 96.8513 4.83772 97.0299 5.11164C97.2085 5.38556 97.3023 5.70587 97.2994 6.03255C97.2987 6.06814 97.2967 6.10363 97.2936 6.13893C97.2903 6.17742 97.2857 6.21571 97.2797 6.25371C97.2569 6.39896 97.2151 6.54104 97.1553 6.67607C97.1421 6.70549 97.1282 6.73452 97.1137 6.76307C97.0998 6.79027 97.0851 6.81708 97.0696 6.84351C96.9895 6.98047 96.8902 7.10566 96.7745 7.21532C96.6133 7.36839 96.4233 7.48818 96.2157 7.56795C96.0079 7.64761 95.7864 7.68571 95.5638 7.67993ZM107.626 21.598H107.709V22.6015C107.709 23.7827 108.557 23.9724 108.946 23.9724C109.334 23.9724 110.158 23.7867 110.158 22.6015V11.9348C110.158 10.7259 109.302 10.5047 108.863 10.5047C108.423 10.5047 107.571 10.7259 107.571 11.9348V17.6435C107.571 20.2232 106.112 21.9259 104.072 21.9259C101.678 21.9259 101.1 20.0572 101.1 17.9437V11.9348C101.1 10.7259 100.244 10.5047 99.8038 10.5047C99.364 10.5047 98.512 10.7259 98.512 11.9348V18.797C98.512 21.7047 100.026 24.0948 103.386 24.0948C105.249 24.0948 106.992 22.9966 107.626 21.598ZM114.343 12.8671H114.426C115.06 11.4646 116.804 10.3703 118.666 10.3703C122.026 10.3703 123.54 12.7407 123.54 15.6681V22.5185C123.54 23.7274 122.688 23.9447 122.244 23.9447C121.801 23.9447 120.952 23.7274 120.952 22.5185V16.5175C120.952 14.4039 120.374 12.5352 117.977 12.5352C115.94 12.5352 114.481 14.238 114.481 16.8178V22.5185C114.481 23.7274 113.626 23.9447 113.186 23.9447C112.746 23.9447 111.894 23.7274 111.894 22.5185V11.8518C111.894 10.6666 112.718 10.477 113.13 10.477C113.542 10.477 114.343 10.6706 114.343 11.8518V12.8671ZM125.413 26.9232C125.388 26.9854 125.368 27.0494 125.354 27.1146C125.334 27.2047 125.325 27.297 125.327 27.3896C125.343 27.615 125.41 27.834 125.524 28.0292C125.638 28.2245 125.796 28.3909 125.985 28.5155C127.567 29.6948 129.49 30.3297 131.466 30.3249C136.89 30.3249 138.681 26.8681 138.681 23.0794V11.8795C138.681 10.6983 137.853 10.5047 137.441 10.5047C137.029 10.5047 136.173 10.6943 136.173 11.8795V12.7921H136.118C135.609 12.0169 134.908 11.3853 134.084 10.9578C133.26 10.5302 132.339 10.3211 131.41 10.3505C127.416 10.3505 124.856 13.3768 124.856 17.1299C124.856 20.883 127.447 23.8459 131.438 23.8459C133.284 23.8459 135.071 23.0518 136.034 21.5979H136.09V23.2809C136.09 25.9713 134.937 28.0849 131.493 28.0849C130.038 28.0472 128.64 27.5147 127.531 26.5758C127.256 26.3339 126.906 26.1943 126.54 26.1807C126.38 26.1775 126.221 26.2065 126.072 26.2662C125.923 26.3258 125.789 26.4147 125.675 26.5276C125.562 26.6405 125.473 26.775 125.413 26.9232ZM136.288 17.0943C136.288 19.674 134.525 21.677 131.854 21.677C129.127 21.677 127.531 19.4805 127.531 17.0943C127.531 14.5975 129.127 12.5115 131.854 12.5115C134.497 12.5115 136.288 14.6251 136.288 17.0943ZM140.968 4.1916C140.968 2.98268 141.824 2.76538 142.26 2.76538C142.696 2.76538 143.551 2.98268 143.551 4.1916V22.5185C143.551 23.7274 142.699 23.9447 142.26 23.9447C141.82 23.9447 140.964 23.7274 140.964 22.5185L140.968 4.1916ZM148.978 20.8307C148.187 20.0932 147.714 19.0776 147.661 17.999L156.624 18.0029C157.532 18.0029 157.999 17.5921 157.999 16.6874C158.003 16.5032 157.997 16.3191 157.98 16.1358C157.971 16.035 157.959 15.9344 157.944 15.8341C157.449 12.2666 155.027 10.3743 151.75 10.3743C147.934 10.3743 145.014 13.195 145.014 17.2641C145.014 21.3333 147.938 24.0987 151.901 24.0987C152.82 24.1378 153.737 23.9851 154.593 23.6504C155.45 23.3156 156.226 22.8064 156.874 22.155C157.117 21.9022 157.258 21.5688 157.27 21.2187C157.274 21.0748 157.247 20.9318 157.193 20.7985C157.138 20.6652 157.057 20.5445 156.953 20.4441C156.85 20.3436 156.727 20.2655 156.592 20.2146C156.457 20.1636 156.313 20.141 156.169 20.1481C155.998 20.1494 155.829 20.185 155.673 20.2529C155.516 20.3207 155.375 20.4195 155.257 20.5432C154.822 20.9909 154.3 21.3463 153.723 21.5879C153.146 21.8296 152.527 21.9526 151.901 21.9496C150.818 21.9694 149.77 21.568 148.978 20.8307ZM151.762 12.4009C154.156 12.4009 155.368 14.0207 155.424 16.0789H147.661C147.75 15.062 148.223 14.1167 148.984 13.434C149.746 12.7513 150.738 12.3821 151.762 12.4009Z" fill="black"/>
<path d="M22.9473 4.40088H1.90566C0.962408 4.40088 0.197754 5.16321 0.197754 6.10359V27.0814C0.197754 28.0218 0.962408 28.7841 1.90566 28.7841H22.9473C23.8906 28.7841 24.6553 28.0218 24.6553 27.0814V6.10359C24.6553 5.16321 23.8906 4.40088 22.9473 4.40088Z" fill="url(#paint0_radial)"/>
<path fill-rule="evenodd" clip-rule="evenodd" d="M1.90604 4.59843C1.07221 4.59843 0.396265 5.27233 0.396265 6.10362V27.0814C0.396265 27.9127 1.07221 28.5866 1.90604 28.5866H22.9477C23.7816 28.5866 24.4575 27.9127 24.4575 27.0814V6.10362C24.4575 5.27233 23.7816 4.59843 22.9477 4.59843H1.90604ZM0 6.10362C0 5.05414 0.853362 4.20337 1.90604 4.20337H22.9477C24.0004 4.20337 24.8538 5.05414 24.8538 6.10362V27.0814C24.8538 28.1309 24.0004 28.9816 22.9477 28.9816H1.90604C0.853362 28.9816 0 28.1309 0 27.0814V6.10362Z" fill="black"/>
<path d="M24.3389 24.4187H21.6284L22.8806 28.3733L24.3389 24.4187Z" fill="white"/>
<path d="M16.1079 0.54123C16.4317 0.44779 16.7717 0.424053 17.1053 0.471595C17.439 0.519136 17.7588 0.636869 18.0433 0.816983C18.3279 0.997098 18.5708 1.23548 18.7559 1.51631C18.941 1.79714 19.0641 2.114 19.1171 2.44588C19.17 2.77776 19.1516 3.11706 19.0629 3.44129C18.9743 3.76552 18.8176 4.06725 18.6031 4.32648C18.3886 4.58571 18.1213 4.79651 17.8188 4.9449C17.5164 5.09328 17.1858 5.17586 16.8489 5.18716C13.5445 5.71552 10.585 7.5283 8.61883 10.2282C6.6527 12.9282 5.84033 16.2951 6.35975 19.5911C6.71534 21.8248 7.9462 23.8262 9.78167 25.1553C11.6171 26.4843 13.9069 27.0323 16.1475 26.6785C18.644 26.2835 20.867 23.8183 20.9027 21.3294C20.9384 18.4415 18.1288 16.9047 15.4897 16.9047C14.762 16.9012 14.0388 17.0187 13.3499 17.2523C12.6524 17.4933 11.848 17.4025 11.6578 16.5531C11.4874 15.8025 12.1333 15.0597 12.6207 14.5778C12.6881 14.5067 12.7515 14.4435 12.803 14.3842C13.7387 13.5517 14.8936 13.0034 16.1317 12.8039C17.1891 12.6373 18.2691 12.68 19.31 12.9295C20.3509 13.179 21.3323 13.6305 22.1981 14.2582C23.064 14.8859 23.7973 15.6775 24.3563 16.5878C24.9152 17.4981 25.2888 18.5092 25.4558 19.5635C25.6687 20.8966 25.6159 22.2586 25.3005 23.5714C24.9851 24.8842 24.4132 26.1221 23.6175 27.2144C22.8218 28.3067 21.818 29.232 20.6633 29.9372C19.5087 30.6424 18.226 31.1138 16.8885 31.3244C15.167 31.5976 13.4084 31.5298 11.7132 31.125C10.0179 30.7201 8.41934 29.9862 7.00876 28.9652C5.59818 27.9441 4.40325 26.6559 3.49229 25.1742C2.58133 23.6925 1.97218 22.0464 1.69967 20.3299C0.9818 15.8014 2.0959 11.174 4.79734 7.46377C7.49877 3.75354 11.5667 1.26379 16.1079 0.54123V0.54123Z" fill="url(#paint1_linear)"/>
<path d="M6.70868 29.3768C5.23952 28.3201 3.99517 26.9834 3.04767 25.4441C2.10016 23.9047 1.46832 22.1933 1.18871 20.4089V20.4089C1.04073 19.4825 0.96653 18.5459 0.966798 17.6079V17.6079C0.974782 13.3726 2.49479 9.2785 5.25463 6.0587C8.01446 2.83891 11.8339 0.703733 16.0288 0.0355556V0.0355556C16.1783 0.0119454 16.3293 5.70886e-05 16.4806 9.69532e-10V9.69532e-10C17.1642 -1.77249e-05 17.8255 0.243025 18.3456 0.685461C18.8656 1.1279 19.2103 1.74072 19.3178 2.41383V2.41383C19.3414 2.56413 19.3533 2.71602 19.3535 2.86815V2.86815C19.3516 3.54941 19.1066 4.20777 18.6622 4.72533C18.2179 5.24289 17.6032 5.58587 16.9284 5.69284C14.0874 6.15119 11.5025 7.60167 9.63542 9.78511C7.76836 11.9685 6.74083 14.7427 6.73642 17.6119V17.6119C6.7358 18.2483 6.78615 18.8837 6.887 19.5121V19.5121C7.04936 20.5529 7.41739 21.5512 7.96974 22.4491C8.52209 23.347 9.24777 24.1266 10.1047 24.7427V24.7427C11.4697 25.7384 13.117 26.2752 14.8083 26.2756V26.2756C15.237 26.2746 15.665 26.2402 16.0883 26.1728V26.1728C17.2542 25.9548 18.3108 25.3473 19.084 24.4504V24.4504C19.8731 23.5968 20.3348 22.493 20.3878 21.3333V21.3333V21.282C20.3906 20.7217 20.2541 20.1694 19.9907 19.6744C19.7273 19.1794 19.345 18.7572 18.878 18.4454V18.4454C17.8793 17.7661 16.6949 17.4102 15.486 17.4262V17.4262C14.8122 17.4216 14.1425 17.5298 13.5046 17.7462V17.7462C13.2439 17.8393 12.9692 17.8874 12.6923 17.8884C12.3543 17.8959 12.0222 17.7993 11.7413 17.6119V17.6119C11.4321 17.3854 11.2199 17.0511 11.1469 16.6756V16.6756C11.1199 16.5576 11.1066 16.437 11.1072 16.316C11.131 15.36 11.8047 14.6884 12.2485 14.2262L12.4149 14.0523H12.4347C13.442 13.1557 14.6871 12.5673 16.0209 12.3575V12.3575C16.4875 12.2676 16.9606 12.2148 17.4356 12.1995C19.2591 12.2004 21.0352 12.7786 22.5078 13.8509C23.4297 14.5153 24.2104 15.3552 24.8049 16.3221C25.3994 17.2891 25.7957 18.3639 25.9711 19.4844V19.4844C26.0613 20.0515 26.1063 20.6248 26.1059 21.199V21.199C26.1106 23.4715 25.3873 25.686 24.0413 27.52C23.2074 28.6688 22.1532 29.6413 20.9397 30.3811C19.7263 31.121 18.3777 31.6135 16.972 31.8301C16.247 31.9433 15.5144 32.0001 14.7806 32C11.8787 31.9993 9.05206 31.0793 6.70868 29.3728V29.3768ZM16.1913 1.04296C12.235 1.67092 8.63215 3.68278 6.02832 6.71811C3.42449 9.75344 1.98979 13.6139 1.98124 17.6079V17.6079C1.98087 18.493 2.0511 19.3768 2.19126 20.2509V20.2509C2.45048 21.9016 3.03537 23.4848 3.91211 24.9088C4.78885 26.3328 5.94004 27.5694 7.29912 28.5472V28.5472C9.47048 30.1303 12.0906 30.9839 14.7806 30.9847C15.4603 30.981 16.1387 30.9242 16.8095 30.8148V30.8148C18.0813 30.6179 19.3012 30.1711 20.3984 29.5003C21.4957 28.8296 22.4484 27.9484 23.2012 26.9077V26.9077C24.4162 25.2477 25.0711 23.246 25.0716 21.1911C25.0768 20.6729 25.041 20.1551 24.9646 19.6425V19.6425C24.8102 18.6544 24.4607 17.7067 23.9363 16.8542C23.4118 16.0018 22.7229 15.2616 21.9094 14.6765V14.6765C20.6106 13.7311 19.0438 13.2219 17.4356 13.2227V13.2227C17.0282 13.223 16.6215 13.2547 16.2191 13.3175V13.3175C15.0874 13.495 14.0301 13.9912 13.1718 14.7477V14.7477C13.1163 14.8109 13.0569 14.8701 12.9895 14.9373C12.5655 15.3323 12.1256 15.9368 12.1494 16.3042C12.1436 16.3501 12.1436 16.3966 12.1494 16.4425V16.4425C12.1681 16.5701 12.2347 16.6858 12.3357 16.7664V16.7664C12.4443 16.8313 12.5697 16.8629 12.6963 16.8573V16.8573C12.8599 16.8556 13.022 16.8262 13.1757 16.7704V16.7704C13.917 16.5112 14.6965 16.3777 15.482 16.3753V16.3753C16.9053 16.359 18.2989 16.7812 19.4724 17.5842C20.0714 17.9946 20.5602 18.5453 20.8959 19.188C21.2317 19.8306 21.4042 20.5455 21.3982 21.2701V21.2701V21.3333C21.3404 22.7455 20.7783 24.0906 19.8132 25.1259C18.8928 26.1945 17.6351 26.919 16.2468 27.1802V27.1802C15.771 27.2557 15.2901 27.294 14.8083 27.2948V27.2948C12.901 27.2934 11.0433 26.689 9.50235 25.5684V25.5684C8.53329 24.8757 7.71198 23.9979 7.08613 22.986C6.46028 21.9741 6.04238 20.8484 5.85671 19.6741V19.6741C5.74812 18.992 5.69379 18.3025 5.69424 17.6119V17.6119C5.70086 14.4941 6.82126 11.4806 8.85454 9.11182C10.8878 6.74301 13.701 5.17375 16.7897 4.68543V4.68543C17.2241 4.61689 17.6198 4.39635 17.9059 4.06334C18.192 3.73033 18.3498 3.30662 18.351 2.86815V2.86815C18.3509 2.77022 18.343 2.67246 18.3272 2.5758V2.5758C18.2576 2.1424 18.0356 1.74782 17.7009 1.46264C17.3662 1.17747 16.9407 1.0203 16.5004 1.01926V1.01926C16.4035 1.01947 16.3068 1.02739 16.2111 1.04296V1.04296L16.1279 0.541235L16.2111 1.04296H16.1913Z" fill="#231F20"/>
<path d="M15.1529 14.799C15.156 14.9874 15.2149 15.1706 15.3222 15.3258C15.4294 15.4809 15.5803 15.601 15.7557 15.6709C15.9312 15.7409 16.1235 15.7576 16.3085 15.7189C16.4934 15.6803 16.6628 15.588 16.7954 15.4537C16.9279 15.3193 17.0177 15.149 17.0534 14.964C17.0891 14.779 17.0692 14.5876 16.9962 14.4138C16.9232 14.24 16.8003 14.0916 16.643 13.9872C16.4856 13.8829 16.3009 13.8272 16.1119 13.8271C15.9847 13.8277 15.859 13.8533 15.7418 13.9025C15.6247 13.9517 15.5185 14.0236 15.4293 14.1139C15.3402 14.2043 15.2698 14.3113 15.2224 14.4289C15.175 14.5465 15.1513 14.6723 15.1529 14.799Z" fill="white"/>
<path d="M21.6953 26.5562L21.9767 27.5043L22.258 28.4564L22.9435 27.7374L23.6291 27.0184L22.6622 26.7892L21.6953 26.5562Z" fill="white"/>
<path d="M17.78 29.2188L17.4432 30.1511L17.1143 31.0834L18.0891 30.9057L19.0678 30.7279L18.4219 29.9733L17.78 29.2188Z" fill="white"/>
<path d="M12.4945 29.3926L11.8486 30.1432L11.1987 30.8938L12.1735 31.0795L13.1523 31.2652L12.8234 30.3289L12.4945 29.3926Z" fill="white"/>
<path d="M7.92121 27.2275L6.98206 27.5554L6.04688 27.8833L6.79978 28.5273L7.55665 29.1752L7.73893 28.1994L7.92121 27.2275Z" fill="white"/>
<path d="M4.54535 23.4665L3.55468 23.4112L2.56006 23.3599L3.0118 24.2409L3.45958 25.1258L4.00246 24.2962L4.54535 23.4665Z" fill="white"/>
<path d="M6.70868 29.3768C5.23952 28.3201 3.99517 26.9834 3.04767 25.4441C2.10016 23.9047 1.46832 22.1933 1.18871 20.4089V20.4089C1.04073 19.4825 0.96653 18.5459 0.966798 17.6079V17.6079C0.974782 13.3726 2.49479 9.2785 5.25463 6.0587C8.01446 2.83891 11.8339 0.703733 16.0288 0.0355556V0.0355556C16.1783 0.0119454 16.3293 5.70886e-05 16.4806 9.69532e-10V9.69532e-10C17.1642 -1.77249e-05 17.8255 0.243025 18.3456 0.685461C18.8656 1.1279 19.2103 1.74072 19.3178 2.41383V2.41383C19.3414 2.56413 19.3533 2.71602 19.3535 2.86815V2.86815C19.3516 3.54941 19.1066 4.20777 18.6622 4.72533C18.2179 5.24289 17.6032 5.58587 16.9284 5.69284C14.0874 6.15119 11.5025 7.60167 9.63542 9.78511C7.76836 11.9685 6.74083 14.7427 6.73642 17.6119V17.6119C6.7358 18.2483 6.78615 18.8837 6.887 19.5121V19.5121C7.04936 20.5529 7.41739 21.5512 7.96974 22.4491C8.52209 23.347 9.24777 24.1266 10.1047 24.7427V24.7427C11.4697 25.7384 13.117 26.2752 14.8083 26.2756V26.2756C15.237 26.2746 15.665 26.2402 16.0883 26.1728V26.1728C17.2542 25.9548 18.3108 25.3473 19.084 24.4504V24.4504C19.8731 23.5968 20.3348 22.493 20.3878 21.3333V21.3333V21.282C20.3906 20.7217 20.2541 20.1694 19.9907 19.6744C19.7273 19.1794 19.345 18.7572 18.878 18.4454V18.4454C17.8793 17.7661 16.6949 17.4102 15.486 17.4262V17.4262C14.8122 17.4216 14.1425 17.5298 13.5046 17.7462V17.7462C13.2439 17.8393 12.9692 17.8874 12.6923 17.8884C12.3543 17.8959 12.0222 17.7993 11.7413 17.6119V17.6119C11.4321 17.3854 11.2199 17.0511 11.1469 16.6756V16.6756C11.1199 16.5576 11.1066 16.437 11.1072 16.316C11.131 15.36 11.8047 14.6884 12.2485 14.2262L12.4149 14.0523H12.4347C13.442 13.1557 14.6871 12.5673 16.0209 12.3575V12.3575C16.4875 12.2676 16.9606 12.2148 17.4356 12.1995C19.2591 12.2004 21.0352 12.7786 22.5078 13.8509C23.4297 14.5153 24.2104 15.3552 24.8049 16.3221C25.3994 17.2891 25.7957 18.3639 25.9711 19.4844V19.4844C26.0613 20.0515 26.1063 20.6248 26.1059 21.199V21.199C26.1106 23.4715 25.3873 25.686 24.0413 27.52C23.2074 28.6688 22.1532 29.6413 20.9397 30.3811C19.7263 31.121 18.3777 31.6135 16.972 31.8301C16.247 31.9433 15.5144 32.0001 14.7806 32C11.8787 31.9993 9.05206 31.0793 6.70868 29.3728V29.3768ZM16.1913 1.04296C12.235 1.67092 8.63215 3.68278 6.02832 6.71811C3.42449 9.75344 1.98979 13.6139 1.98124 17.6079V17.6079C1.98087 18.493 2.0511 19.3768 2.19126 20.2509V20.2509C2.45048 21.9016 3.03537 23.4848 3.91211 24.9088C4.78885 26.3328 5.94004 27.5694 7.29912 28.5472V28.5472C9.47048 30.1303 12.0906 30.9839 14.7806 30.9847C15.4603 30.981 16.1387 30.9242 16.8095 30.8148V30.8148C18.0813 30.6179 19.3012 30.1711 20.3984 29.5003C21.4957 28.8296 22.4484 27.9484 23.2012 26.9077V26.9077C24.4162 25.2477 25.0711 23.246 25.0716 21.1911C25.0768 20.6729 25.041 20.1551 24.9646 19.6425V19.6425C24.8102 18.6544 24.4607 17.7067 23.9363 16.8542C23.4118 16.0018 22.7229 15.2616 21.9094 14.6765V14.6765C20.6106 13.7311 19.0438 13.2219 17.4356 13.2227V13.2227C17.0282 13.223 16.6215 13.2547 16.2191 13.3175V13.3175C15.0874 13.495 14.0301 13.9912 13.1718 14.7477V14.7477C13.1163 14.8109 13.0569 14.8701 12.9895 14.9373C12.5655 15.3323 12.1256 15.9368 12.1494 16.3042C12.1436 16.3501 12.1436 16.3966 12.1494 16.4425V16.4425C12.1681 16.5701 12.2347 16.6858 12.3357 16.7664V16.7664C12.4443 16.8313 12.5697 16.8629 12.6963 16.8573V16.8573C12.8599 16.8556 13.022 16.8262 13.1757 16.7704V16.7704C13.917 16.5112 14.6965 16.3777 15.482 16.3753V16.3753C16.9053 16.359 18.2989 16.7812 19.4724 17.5842C20.0714 17.9946 20.5602 18.5453 20.8959 19.188C21.2317 19.8306 21.4042 20.5455 21.3982 21.2701V21.2701V21.3333C21.3404 22.7455 20.7783 24.0906 19.8132 25.1259C18.8928 26.1945 17.6351 26.919 16.2468 27.1802V27.1802C15.771 27.2557 15.2901 27.294 14.8083 27.2948V27.2948C12.901 27.2934 11.0433 26.689 9.50235 25.5684V25.5684C8.53329 24.8757 7.71198 23.9979 7.08613 22.986C6.46028 21.9741 6.04238 20.8484 5.85671 19.6741V19.6741C5.74812 18.992 5.69379 18.3025 5.69424 17.6119V17.6119C5.70086 14.4941 6.82126 11.4806 8.85454 9.11182C10.8878 6.74301 13.701 5.17375 16.7897 4.68543V4.68543C17.2241 4.61689 17.6198 4.39635 17.9059 4.06334C18.192 3.73033 18.3498 3.30662 18.351 2.86815V2.86815C18.3509 2.77022 18.343 2.67246 18.3272 2.5758V2.5758C18.2576 2.1424 18.0356 1.74782 17.7009 1.46264C17.3662 1.17747 16.9407 1.0203 16.5004 1.01926V1.01926C16.4035 1.01947 16.3068 1.02739 16.2111 1.04296V1.04296L16.1279 0.541235L16.2111 1.04296H16.1913Z" fill="black"/>
<defs>
<radialGradient id="paint0_radial" cx="0" cy="0" r="1" gradientUnits="userSpaceOnUse" gradientTransform="translate(8.448 13.6572) scale(18.7751 18.718)">
<stop stop-color="#373638"/>
<stop offset="1"/>
</radialGradient>
<linearGradient id="paint1_linear" x1="21.2395" y1="12.717" x2="0.988571" y2="25.2006" gradientUnits="userSpaceOnUse">
<stop stop-color="#AFD04F"/>
<stop offset="0.99" stop-color="#5B8E2A"/>
</linearGradient>
</defs>
</g>
</svg>
