<svg viewBox="0 0 185 32" fill="none" xmlns="http://www.w3.org/2000/svg">
<g>
<path fill-rule="evenodd" clip-rule="evenodd" d="M83.3568 22.6463C82.9363 22.6463 82.0113 22.4444 82.0113 21.1865V20.2231H81.9567C81.4005 21.0346 80.6512 21.6946 79.776 22.1434C78.901 22.5922 77.9279 22.8157 76.945 22.7936C72.6816 22.7936 69.9655 19.5205 69.9655 15.4566C69.9655 11.3926 72.7826 8.1701 76.945 8.1701C77.9045 8.15572 78.8536 8.37121 79.713 8.79858C80.5726 9.22596 81.3172 9.8529 81.8852 10.627H81.9441V1.59885C81.9441 0.315694 82.8774 0.0800781 83.3147 0.0800781C83.752 0.0800781 84.6896 0.315694 84.6896 1.59885V21.1865C84.6727 22.4444 83.7645 22.6463 83.3568 22.6463ZM77.4243 20.484C80.2328 20.484 82.0996 18.1449 82.0996 15.4861C82.0996 12.8273 80.2328 10.4377 77.4243 10.4377C74.418 10.4377 72.8372 12.8357 72.8372 15.4356C72.8372 18.0355 74.4223 20.484 77.4243 20.484ZM52.0739 19.2143C51.9351 19.1609 51.7869 19.1362 51.638 19.142C51.2802 19.1609 50.9398 19.3036 50.6754 19.5458C49.9146 20.1584 48.9603 20.4791 47.9844 20.4503C45.0917 20.4503 43.4857 18.1406 43.4857 15.4819C43.4857 12.8231 45.1507 10.4839 48.0139 10.4839C48.8953 10.4764 49.7522 10.7737 50.4399 11.3253C50.9655 11.7671 51.2303 11.8512 51.5204 11.8512C51.6818 11.8614 51.8433 11.8375 51.995 11.7813C52.1465 11.725 52.2847 11.6375 52.4003 11.5245C52.5161 11.4115 52.6068 11.2755 52.6666 11.1253C52.7265 10.975 52.7542 10.8138 52.7481 10.6523C52.7444 10.5986 52.7378 10.5453 52.7286 10.4925C52.7167 10.4239 52.7 10.3562 52.6791 10.2898C52.6442 10.1793 52.5968 10.0727 52.5376 9.97204C52.4159 9.76477 52.2476 9.58852 52.046 9.45747C50.8741 8.58577 49.444 8.13241 47.9844 8.1701C43.7505 8.1701 40.5972 11.073 40.5972 15.4861C40.5972 19.8992 43.6959 22.7936 47.9887 22.7936C49.4853 22.8385 50.9513 22.3644 52.1385 21.4516C52.3336 21.3181 52.4937 21.1392 52.605 20.9305C52.7162 20.7217 52.7754 20.4892 52.7776 20.2526C52.7793 20.1037 52.7509 19.956 52.6939 19.8185C52.637 19.681 52.5526 19.5565 52.4461 19.4527C52.3393 19.3487 52.2129 19.2677 52.0739 19.2143ZM53.8581 15.4566C53.8581 19.7267 57.0704 22.7936 61.3085 22.7936C65.5424 22.7936 68.7881 19.714 68.7881 15.4482C68.7881 11.1823 65.5465 8.1701 61.3085 8.1701C57.0704 8.1701 53.8581 11.1865 53.8581 15.4566ZM56.6836 15.4566C56.6836 12.8273 58.3654 10.4587 61.3085 10.4587C64.2894 10.4587 65.9335 12.8231 65.9335 15.4566C65.9335 18.0902 64.2517 20.484 61.3085 20.484C58.3654 20.484 56.6836 18.086 56.6836 15.4566ZM90.5032 19.3207C89.6635 18.5356 89.162 17.4547 89.1043 16.3065L98.6274 16.298C99.5945 16.298 100.091 15.8563 100.091 14.8929C100.097 14.5903 100.077 14.2876 100.032 13.9884C99.5063 10.1853 96.9331 8.1701 93.456 8.1701C89.3944 8.1701 86.3168 11.1991 86.3168 15.5323C86.3168 19.8655 89.4155 22.8104 93.62 22.8104C94.5927 22.8499 95.5629 22.6858 96.4685 22.3286C97.3742 21.9715 98.1954 21.4292 98.8797 20.7364C99.0472 20.5624 99.1692 20.3521 99.2375 20.1242C99.2743 20.0014 99.2956 19.8736 99.3001 19.7435C99.3044 19.5901 99.2769 19.4375 99.2192 19.2953C99.2016 19.2515 99.1811 19.209 99.1581 19.168L99.1371 19.1324C99.1265 19.1151 99.1156 19.0982 99.1041 19.0816C99.0846 19.0533 99.0638 19.026 99.0419 18.9996C99.0179 18.9709 98.9924 18.9434 98.9655 18.9172C98.8557 18.8101 98.7249 18.7269 98.5812 18.6729C98.4377 18.6189 98.2845 18.5952 98.1314 18.6035C97.9507 18.6044 97.7721 18.6422 97.6066 18.7145C97.5481 18.7401 97.4917 18.7697 97.4377 18.8033C97.4178 18.8156 97.3983 18.8285 97.3792 18.8417C97.3552 18.8584 97.3317 18.8758 97.3092 18.894C97.2593 18.9339 97.2123 18.9773 97.1685 19.0241C96.7044 19.499 96.1497 19.8754 95.537 20.1314C94.9246 20.3872 94.2669 20.5171 93.6031 20.5134C92.4543 20.5334 91.3426 20.1057 90.5032 19.3207ZM93.456 10.3409C95.9996 10.3409 97.2862 12.0658 97.3451 14.2576H89.1043C89.1999 13.175 89.7021 12.1689 90.5095 11.4421C91.3172 10.7152 92.3699 10.3218 93.456 10.3409ZM112.33 19.1419C112.479 19.1362 112.627 19.1608 112.766 19.2142C112.905 19.2676 113.031 19.3487 113.138 19.4526C113.244 19.5565 113.329 19.681 113.386 19.8185C113.443 19.9559 113.471 20.1036 113.469 20.2526C113.467 20.4895 113.407 20.7222 113.295 20.9311C113.241 21.0319 113.175 21.1257 113.1 21.2107C113.019 21.3017 112.927 21.3827 112.826 21.4515C111.64 22.3636 110.176 22.8378 108.68 22.7935C104.383 22.7935 101.285 19.8991 101.285 15.486C101.285 11.0729 104.442 8.17 108.68 8.17C110.139 8.13303 111.567 8.58628 112.738 9.45736C112.785 9.48766 112.83 9.52043 112.873 9.55545C112.896 9.57394 112.918 9.59304 112.94 9.61266C112.964 9.63505 112.988 9.65826 113.011 9.6822C113.095 9.76919 113.169 9.86615 113.231 9.97122C113.272 10.0412 113.307 10.114 113.337 10.189C113.395 10.3367 113.43 10.4929 113.44 10.6522C113.446 10.8138 113.418 10.975 113.358 11.1252C113.298 11.2754 113.208 11.4114 113.092 11.5244C112.976 11.6374 112.838 11.7249 112.687 11.7812C112.642 11.7977 112.597 11.8115 112.55 11.8224C112.525 11.8283 112.5 11.8334 112.475 11.8377C112.388 11.8521 112.3 11.8567 112.212 11.8511C111.922 11.8511 111.657 11.767 111.132 11.3252C110.444 10.773 109.587 10.4757 108.706 10.4838C105.842 10.4838 104.177 12.823 104.177 15.4818C104.177 18.1406 105.788 20.4545 108.68 20.4545C109.655 20.4829 110.608 20.1622 111.367 19.5499C111.631 19.3068 111.971 19.1627 112.33 19.1419ZM124.102 20.425H124.191V21.2453C124.171 21.4246 124.189 21.606 124.246 21.7773C124.302 21.9486 124.394 22.1058 124.516 22.2387C124.548 22.2736 124.582 22.3065 124.617 22.3375C124.631 22.3495 124.645 22.3611 124.659 22.3724L124.697 22.401C124.712 22.4119 124.727 22.4225 124.742 22.4327C124.757 22.4432 124.773 22.4535 124.79 22.4633C124.807 22.4735 124.824 22.4835 124.841 22.4931C124.86 22.5034 124.88 22.5134 124.899 22.5228C124.917 22.5313 124.935 22.5392 124.952 22.5468C125.069 22.5962 125.192 22.6277 125.318 22.6403C125.371 22.6457 125.424 22.6477 125.477 22.6463C125.864 22.6463 126.705 22.4444 126.705 21.2453V13.6139C126.705 10.547 124.922 8.17853 120.92 8.17853C119.212 8.1435 117.536 8.6437 116.126 9.60886C115.94 9.72071 115.785 9.87909 115.677 10.0686C115.57 10.2581 115.513 10.4721 115.513 10.6901L115.512 10.7166L115.513 10.7502L115.514 10.7881L115.517 10.8198C115.526 10.9164 115.549 11.0115 115.584 11.1023C115.635 11.2335 115.712 11.3532 115.81 11.4543C115.908 11.5555 116.025 11.636 116.154 11.6911C116.284 11.7462 116.423 11.775 116.564 11.7754C116.861 11.7631 117.147 11.6604 117.384 11.4809C118.338 10.7946 119.48 10.4173 120.655 10.3998C122.702 10.3998 124.073 11.3926 124.073 13.4415V13.8201C119.402 13.8201 114.432 14.3165 114.432 18.4983C114.432 21.6829 117.266 22.7641 119.457 22.7641C121.534 22.7641 123.11 21.9185 124.102 20.425ZM117.237 18.4267C117.237 16.0876 120.684 15.7973 123.404 15.7973L124.073 15.81V16.5251C124.073 18.8642 122.643 20.5891 120.07 20.5891C118.7 20.5891 117.237 20.0633 117.237 18.4267ZM131.553 10.8374H131.641C132.313 9.34808 134.164 8.17853 136.14 8.17853C139.705 8.17853 141.311 10.7027 141.311 13.8201V21.1276C141.311 22.415 140.407 22.6463 139.936 22.6463C139.465 22.6463 138.566 22.415 138.566 21.1276V14.7246C138.566 12.4738 137.952 10.4882 135.408 10.4882C133.247 10.4882 131.7 12.3014 131.7 15.0486V21.1276C131.7 22.415 130.792 22.6463 130.325 22.6463C129.858 22.6463 128.954 22.415 128.954 21.1276V9.76878C128.954 8.50668 129.829 8.30897 130.266 8.30897C130.703 8.30897 131.553 8.51089 131.553 9.76878V10.8374ZM144.759 29.4322C147.357 29.4322 148.526 28.2122 149.548 25.6881L155.77 10.3494C155.879 10.1096 155.939 9.85084 155.947 9.58791C155.948 9.41217 155.912 9.23818 155.842 9.07713C155.771 8.91608 155.668 8.77157 155.539 8.65274C155.498 8.61586 155.456 8.58166 155.411 8.55034C155.358 8.51264 155.301 8.47916 155.242 8.45019C155.215 8.43653 155.186 8.4239 155.157 8.41229C155.135 8.40336 155.113 8.39494 155.09 8.38723C154.923 8.33084 154.747 8.30999 154.572 8.32581C154.106 8.32581 153.551 8.52774 153.202 9.46589L149.489 19.4028H149.43L145.255 9.40704C144.873 8.49826 144.347 8.32581 143.88 8.32581C143.701 8.31616 143.522 8.34286 143.354 8.40428C143.313 8.41907 143.273 8.43581 143.235 8.4544C143.196 8.47279 143.159 8.49302 143.122 8.51521C143.102 8.52733 143.082 8.53996 143.063 8.55311C143.006 8.59204 142.951 8.63548 142.9 8.68314C142.769 8.80577 142.665 8.95368 142.593 9.11781C142.52 9.28194 142.482 9.45901 142.48 9.63834C142.483 9.91103 142.541 10.1803 142.653 10.4293L148.043 22.415L147.164 24.7246C146.454 26.6136 145.692 27.0343 144.641 27.0343C144.36 27.0343 144.145 27.0048 143.939 27.0048C143.789 27.0019 143.639 27.0295 143.5 27.0858C143.36 27.1421 143.233 27.2259 143.127 27.3323C143.021 27.4388 142.937 27.5657 142.881 27.7053C142.843 27.7991 142.818 27.8976 142.807 27.9979C142.801 28.0466 142.799 28.0957 142.8 28.1449C142.8 28.9905 143.679 29.4322 144.759 29.4322ZM163.717 22.7936C159.483 22.7936 156.267 19.7267 156.267 15.4566C156.267 11.1865 159.483 8.1701 163.717 8.1701C167.951 8.1701 171.197 11.1823 171.197 15.4482C171.197 19.714 167.955 22.7936 163.717 22.7936ZM163.717 10.4587C160.774 10.4587 159.092 12.8273 159.092 15.4566C159.092 18.086 160.774 20.484 163.717 20.484C166.66 20.484 168.342 18.0902 168.342 15.4566C168.342 12.8231 166.698 10.4587 163.717 10.4587ZM175.33 10.8374H175.258L175.241 9.76878C175.241 8.51089 174.392 8.30897 173.955 8.30897C173.518 8.30897 172.639 8.50668 172.639 9.76878V21.1276C172.639 22.415 173.547 22.6463 174.014 22.6463C174.48 22.6463 175.389 22.415 175.389 21.1276V15.0486C175.389 12.3014 176.936 10.4882 179.097 10.4882C181.641 10.4882 182.255 12.4738 182.255 14.7246V21.1276C182.255 22.415 183.159 22.6463 183.625 22.6463C184.092 22.6463 185 22.415 185 21.1276V13.8201C185 10.7027 183.394 8.17853 179.829 8.17853C177.852 8.17853 176.002 9.34808 175.33 10.8374Z" fill="black"/>
<path d="M28.9763 1.82593H6.65051C5.6497 1.82593 4.83838 2.63773 4.83838 3.63914V25.9782C4.83838 26.9796 5.6497 27.7914 6.65051 27.7914H28.9763C29.9771 27.7914 30.7884 26.9796 30.7884 25.9782V3.63914C30.7884 2.63773 29.9771 1.82593 28.9763 1.82593Z" fill="url(#paint0_radial)" stroke="black"/>
<path d="M30.5536 10.6943C30.604 6.02873 20.7698 2.83563 20.7698 2.83563C20.7698 2.83563 13.6684 1.15283 12.3818 0.227295C12.3818 0.227295 13.1681 2.33079 14.4042 2.90714C14.4042 2.90714 8.81643 1.96899 7.52986 1.94375L11.007 4.57311C11.007 4.57311 6.20965 8.7801 5.33092 8.63285C5.33092 8.63285 7.08839 8.9021 8.10167 8.21215C8.10167 8.21215 4.654 12.4696 3.70799 12.5369H5.83546C4.70445 14.855 3.94344 16.7439 3.94344 16.7439C3.94344 16.7439 -4.36461 32.0531 5.89011 30.9257C9.43966 30.5895 12.9626 30.0146 16.4349 29.205C16.6284 29.3396 16.826 29.4701 17.0194 29.5921C23.1032 33.4457 31.0623 26.9543 31.0623 26.9543L27.9678 18.8222L28.6279 17.0468C29.2376 16.7944 33.9003 18.6202 33.9003 18.6202C34.4806 19.5289 34.0601 21.258 34.0601 21.258C39.8287 15.7805 30.5536 10.6943 30.5536 10.6943Z" fill="white"/>
<path d="M27.43 19.0283C27.43 19.0283 29.8812 24.6909 23.2591 30.0464C16.6371 35.4019 12.6428 28.0481 12.6428 28.0481C14.8502 26.4705 15.586 22.7978 15.586 22.7978C6.02079 29.8445 5.91568 23.6392 5.91568 23.6392L4.96967 24.5521L7.38725 19.6425C6.96163 20.3793 6.43043 21.0498 5.81057 21.6324L6.23101 16.7944L5.28501 18.1617L6.33613 14.6909L4.72581 14.9518C4.23389 16.054 3.94378 16.786 3.94378 16.786C2.9575 18.6617 2.14001 20.6214 1.50098 22.6421C2.49744 25.6459 4.62911 28.7843 6.42862 30.8626C9.79736 30.5212 13.1401 29.9591 16.4353 29.1798C16.6287 29.3144 16.8263 29.4448 17.0197 29.5668C23.1036 33.4204 31.0627 26.929 31.0627 26.929L28.2667 19.6047C28.0011 19.3939 27.7216 19.2013 27.43 19.0283V19.0283Z" fill="#E6E6E6"/>
<path d="M30.5818 10.6944V10.6566C29.9553 10.5851 29.2574 10.6944 29.4634 11.6073C29.8166 13.1808 29.8166 14.5985 27.0711 14.3461C24.3255 14.0937 22.9507 15.36 22.9507 15.36C22.9507 15.36 27.378 15.1034 28.6267 17.0891V17.0344C29.2364 16.7819 33.4409 19.1968 33.4409 19.1968C33.7952 19.8266 34.0103 20.5253 34.0715 21.2456C39.8905 15.7807 30.5818 10.6944 30.5818 10.6944Z" fill="url(#paint1_linear)"/>
<path d="M1.07119 30.6901C0.717879 30.3956 0.437585 30.0231 0.252297 29.6019C0.0670083 29.1807 -0.018236 28.7224 0.0032512 28.2627V28.2627C0.0032512 26.5799 0.907214 24.6573 1.96674 22.8525C2.82778 21.4313 3.77705 20.0656 4.80897 18.7633V18.7633C3.96807 17.7789 3.49297 17.152 3.48876 17.1478C3.42781 17.0688 3.3884 16.9754 3.37439 16.8765C3.36039 16.7777 3.37227 16.6769 3.40888 16.5841V16.5841C3.40888 16.5841 4.00171 15.0948 4.91829 13.147C4.91829 13.147 5.31351 12.9451 3.13138 12.5917C3.13138 12.2888 5.86429 10.9467 7.04575 9.0536L3.97228 9.28919C5.65407 8.51931 10.6322 4.66151 10.6322 4.66151L7.29802 1.88069C7.0878 1.66193 13.5375 2.57484 13.5375 2.57484C12.7428 1.63669 11.4857 0.0506511 11.4857 0.0506511C11.452 -0.218596 14.0084 0.673285 14.0084 0.673285C15.1035 1.03173 16.2164 1.33363 17.3425 1.57779V1.57779C19.1631 1.99849 26.5293 4.07253 29.4556 7.08473C30.3815 7.94881 30.9765 9.10958 31.1374 10.3662C32.0341 10.9065 32.8786 11.529 33.6601 12.2257V12.2257C35.0518 13.4878 36.3131 15.3725 36.3257 17.5727C36.3257 17.5727 36.3762 18.3889 35.2242 20.5976L34.6944 21.7503C34.48 21.9312 32.3777 18.6539 31.5368 18.3637C30.7132 18.0614 29.8705 17.814 29.0141 17.6232V17.6232L28.5937 18.818L31.4317 27.3834C31.3855 27.3834 26.6302 31.3464 21.383 31.3717C19.7307 31.3905 18.1084 30.9303 16.7118 30.0465L16.325 29.794C12.9041 30.5755 9.43674 31.1376 5.94418 31.4768V31.4768C5.43172 31.5331 4.91667 31.5626 4.40113 31.5652V31.5652C2.91695 31.5652 1.82799 31.2749 1.07119 30.6691V30.6901ZM4.94351 18.5404C5.1243 18.7507 3.97648 21.7208 2.959 23.4415H2.94639C1.92049 25.1537 1.13005 26.9964 1.14266 28.2627C1.12224 28.5514 1.17067 28.8407 1.28398 29.107C1.39729 29.3732 1.57222 29.6087 1.79436 29.794V29.794C2.24003 30.16 3.0557 30.4377 4.40113 30.4377C4.87457 30.4341 5.34751 30.4061 5.81804 30.3536V30.3536C9.34386 30.0142 12.8429 29.438 16.2914 28.6287V28.6287C16.3708 28.6098 16.4532 28.6076 16.5335 28.622C16.6138 28.6365 16.6903 28.6674 16.7581 28.7128V28.7128C16.9473 28.8433 17.1407 28.9695 17.3299 29.0873C18.5407 29.8472 19.9455 30.2403 21.3746 30.2189V30.2189C24.8643 30.2189 28.4003 28.1155 29.9139 27.0679C30.0989 26.9417 30.2503 26.8323 30.368 26.744L27.4249 19.0284C27.3735 18.8928 27.3735 18.7432 27.4249 18.6077V18.6077L28.085 16.8323C28.1125 16.7591 28.1547 16.6922 28.2089 16.6358C28.2631 16.5794 28.3282 16.5346 28.4003 16.5042V16.5042C28.525 16.4559 28.6576 16.4316 28.7913 16.4327V16.4327C29.5229 16.4327 30.7338 16.8534 31.9152 17.2741C33.0757 17.6947 34.6313 20.2947 34.665 20.6943L35.0476 19.6384C35.2319 18.9327 35.339 18.209 35.3671 17.4802V17.4802C35.4218 15.0359 32.5627 12.6632 31.0743 11.704C30.5866 11.3801 30.2755 11.2076 30.2755 11.2076L30.5488 10.7027L30.2755 11.2118C30.1837 11.1633 30.107 11.0907 30.0537 11.0017C30.0003 10.9127 29.9723 10.8107 29.9728 10.7069V10.7069V10.6943C29.9728 9.28078 28.7913 7.83778 27.1179 6.643C25.5435 5.56279 23.8507 4.66647 22.0726 3.97156V3.97156C21.3073 3.66025 20.765 3.47514 20.622 3.42886C20.1469 3.35313 12.7512 0.828944 12.7092 0.812116L14.9712 3.25637L7.57131 1.93959L11.4016 4.60261L6.98268 8.35945C7.12564 8.35945 9.41287 7.47177 9.20265 8.07337C7.82391 9.70421 6.21154 11.1219 4.41795 12.2804C4.41795 12.2804 6.3436 12.4739 6.25951 12.6506L6.35201 12.8189C5.51112 14.5648 4.86363 16.0709 4.60295 16.6977C4.85942 17.0048 4.94351 18.5404 4.94351 18.5404V18.5404Z" fill="black"/>
<path d="M21.2944 11.2075C21.3249 11.5629 21.2475 11.9192 21.0722 12.2298C20.897 12.5403 20.6321 12.7907 20.3123 12.9482C19.9924 13.1057 19.6325 13.1628 19.2797 13.1122C18.9268 13.0616 18.5975 12.9056 18.3347 12.6646C18.072 12.4236 17.8881 12.1088 17.8071 11.7615C17.7261 11.4142 17.7517 11.0505 17.8807 10.718C18.0097 10.3855 18.2361 10.0997 18.5301 9.89809C18.8241 9.69644 19.1721 9.58831 19.5285 9.58785C19.7512 9.57656 19.9738 9.60965 20.1835 9.68521C20.3932 9.76078 20.5859 9.8773 20.7502 10.028C20.9145 10.1787 21.0472 10.3606 21.1406 10.5631C21.2341 10.7656 21.2864 10.9847 21.2944 11.2075Z" fill="url(#paint2_radial)"/>
<path d="M20.5591 11.2076C20.5786 11.4145 20.5351 11.6224 20.4344 11.8042C20.3337 11.9859 20.1805 12.1329 19.9948 12.226C19.8091 12.319 19.5997 12.3537 19.3939 12.3256C19.1882 12.2974 18.9957 12.2077 18.8418 12.0682C18.688 11.9286 18.5798 11.7458 18.5316 11.5437C18.4834 11.3416 18.4973 11.1296 18.5716 10.9356C18.6459 10.7416 18.7771 10.5745 18.9479 10.4564C19.1188 10.3383 19.3213 10.2746 19.529 10.2737C19.789 10.2622 20.043 10.3539 20.2359 10.5287C20.4288 10.7036 20.5449 10.9476 20.5591 11.2076Z" fill="black"/>
<path opacity="0.8" d="M19.8236 10.3241C19.8321 10.4337 19.8073 10.5433 19.7526 10.6386C19.6979 10.7339 19.6157 10.8105 19.5168 10.8584C19.4179 10.9063 19.3069 10.9233 19.1982 10.9072C19.0895 10.8911 18.9881 10.8426 18.9074 10.7681C18.8266 10.6935 18.7702 10.5964 18.7455 10.4893C18.7207 10.3822 18.7288 10.2702 18.7687 10.1678C18.8086 10.0654 18.8784 9.97736 18.969 9.9152C19.0596 9.85303 19.1668 9.81961 19.2767 9.81928C19.3458 9.81647 19.4148 9.8273 19.4796 9.85115C19.5445 9.87501 19.6041 9.91142 19.6549 9.95831C19.7057 10.0052 19.7467 10.0616 19.7757 10.1244C19.8046 10.1872 19.8209 10.255 19.8236 10.3241V10.3241Z" fill="white"/>
<path d="M20.0927 11.3886C20.0994 11.4646 20.0831 11.5408 20.0459 11.6073C20.0086 11.6738 19.9521 11.7276 19.8838 11.7614C19.8155 11.7953 19.7385 11.8078 19.663 11.7972C19.5875 11.7866 19.5169 11.7535 19.4605 11.7021C19.4042 11.6508 19.3646 11.5836 19.3471 11.5094C19.3295 11.4352 19.3348 11.3574 19.3622 11.2862C19.3896 11.2151 19.4378 11.1538 19.5006 11.1105C19.5634 11.0672 19.6378 11.0439 19.714 11.0436C19.7616 11.0414 19.8091 11.0485 19.8538 11.0646C19.8986 11.0807 19.9397 11.1055 19.9749 11.1376C20.0101 11.1696 20.0386 11.2083 20.0588 11.2514C20.079 11.2944 20.0905 11.3411 20.0927 11.3886V11.3886Z" fill="#0071BC"/>
<path d="M28.3745 17.3667C28.3745 17.3667 25.8518 15.3431 22.9507 15.3726C22.9507 15.3726 23.5393 14.4891 29.2868 16.5253L28.3745 17.3667Z" fill="black"/>
<path d="M33.0713 18.7676C31.417 17.3563 29.5782 16.1773 27.6055 15.2632C27.6055 15.2632 32.7181 17.0049 33.2184 18.4184L33.0713 18.7676Z" fill="#231F20"/>
<path d="M26.7441 11.0519L26.9753 11.1235C26.9753 11.1235 19.546 11.4769 14.8496 8.67079C10.4811 6.06667 24.7427 10.4335 26.7441 11.0519Z" fill="white"/>
<path d="M30.7593 10.9845C30.7593 10.9845 29.5652 11.3337 29.9857 12.2466C29.9857 12.2466 29.4979 13.2268 27.3242 11.8259C27.3242 11.8259 29.2162 12.6673 29.1448 11.8974C29.0733 11.1275 29.6367 9.72238 30.5491 10.2819L30.7593 11.2663" fill="black"/>
<path d="M4.271 24.2702C4.271 24.2702 6.47835 22.659 7.03754 21.115C7.03754 21.115 5.38939 25.7427 4.72508 26.1297L4.271 24.2702Z" fill="#231F20"/>
<path d="M4.65332 21.8891L5.98693 17.5054L4.96884 24.5521L4.65332 21.8891Z" fill="#231F20"/>
<defs>
<radialGradient id="paint0_radial" cx="0" cy="0" r="1" gradientUnits="userSpaceOnUse" gradientTransform="translate(13.5879 11.6787) scale(19.9208 19.9327)">
<stop stop-color="#373638"/>
<stop offset="1"/>
</radialGradient>
<linearGradient id="paint1_linear" x1="22.9507" y1="15.9532" x2="35.993" y2="15.9532" gradientUnits="userSpaceOnUse">
<stop stop-color="#F48020"/>
<stop offset="1" stop-color="#F7A920"/>
</linearGradient>
<radialGradient id="paint2_radial" cx="0" cy="0" r="1" gradientUnits="userSpaceOnUse" gradientTransform="translate(19.5285 11.2075) scale(1.6944 1.69542)">
<stop stop-color="#121212"/>
<stop offset="0.51" stop-color="#0F0F0F"/>
<stop offset="0.86" stop-color="#060606"/>
<stop offset="1"/>
</radialGradient>
</defs>
</g>
</svg>
