<svg viewBox="0 0 315 32" fill="none" xmlns="http://www.w3.org/2000/svg">
<g id="logo">
<path id="elements" fill-rule="evenodd" clip-rule="evenodd" d="M182.326 5.87479e-05H183.393C183.482 -0.00112578 183.571 0.0156131 183.654 0.0492876C183.737 0.0829621 183.812 0.13289 183.875 0.196125C183.939 0.25936 183.989 0.33462 184.022 0.417466C184.056 0.500311 184.073 0.589062 184.072 0.678482V31.1723C184.072 31.2609 184.054 31.3487 184.02 31.4306C183.986 31.5124 183.935 31.5866 183.872 31.6489C183.809 31.7112 183.734 31.7603 183.652 31.7935C183.57 31.8266 183.482 31.843 183.393 31.8419H182.326C182.237 31.843 182.149 31.8266 182.067 31.7935C181.984 31.7603 181.91 31.7112 181.846 31.6489C181.783 31.5866 181.733 31.5124 181.699 31.4306C181.665 31.3487 181.647 31.2609 181.647 31.1723V0.678482C181.646 0.589062 181.663 0.500311 181.696 0.417466C181.73 0.33462 181.78 0.25936 181.843 0.196125C181.907 0.13289 181.982 0.0829621 182.065 0.0492876C182.148 0.0156131 182.236 -0.00112578 182.326 5.87479e-05ZM169.957 8.35257L169.973 8.35262H169.956L169.957 8.35257ZM173.458 9.03376C172.355 8.5528 171.16 8.32024 169.957 8.35257C168.206 8.34915 166.493 8.87421 165.045 9.85924C163.512 10.8907 162.292 12.3231 161.518 14.0003C160.667 15.798 160.236 17.7652 160.257 19.7536V20.6347C160.236 22.6196 160.683 24.5816 161.562 26.3617C162.384 28.0326 163.642 29.451 165.203 30.4674C166.737 31.458 168.526 31.9814 170.353 31.9741C171.86 32.06 173.365 31.7575 174.722 31.0956C176.079 30.4338 177.243 29.4348 178.103 28.1943C178.153 28.122 178.189 28.0405 178.208 27.9544C178.227 27.8683 178.229 27.7793 178.213 27.6925C178.197 27.6058 178.165 27.5229 178.117 27.4488C178.069 27.3746 178.008 27.3106 177.935 27.2603L177.186 26.7229C177.042 26.6216 176.866 26.5789 176.692 26.6035C176.518 26.628 176.361 26.718 176.251 26.855C175.609 27.7144 174.772 28.4089 173.809 28.8815C172.739 29.3441 171.58 29.5666 170.414 29.5335C169.053 29.5353 167.721 29.1336 166.588 28.3793C165.374 27.5785 164.404 26.46 163.784 25.1458C163.088 23.7318 162.732 22.1751 162.743 20.5995V20.1149H178.103C178.282 20.1126 178.453 20.0404 178.58 19.9136C178.707 19.7869 178.779 19.6157 178.782 19.4365V18.3175C178.897 15.7026 178.025 13.1398 176.339 11.1368C175.545 10.2329 174.561 9.51494 173.458 9.03376ZM165.142 12.8989C163.92 14.2371 163.125 15.9089 162.858 17.7008L176.41 17.6919C176.354 16.5293 176.054 15.3915 175.528 14.3527C175.019 13.2766 174.223 12.3618 173.227 11.7095C172.257 11.0882 171.126 10.7636 169.973 10.7756C169.062 10.7601 168.159 10.9419 167.325 11.3084C166.491 11.6749 165.746 12.2175 165.142 12.8989ZM196.618 8.35272C194.86 8.34608 193.142 8.87133 191.689 9.85935C190.158 10.8931 188.939 12.3249 188.162 14.0004C187.318 15.7995 186.893 17.7667 186.919 19.7537V20.6348C186.898 22.6197 187.345 24.5817 188.224 26.3618C189.047 28.035 190.308 29.454 191.874 30.4675C193.404 31.4593 195.191 31.9829 197.015 31.9742C198.505 32.0417 199.988 31.7304 201.324 31.0694C202.661 30.4083 203.809 29.4191 204.659 28.1944C204.759 28.0488 204.799 27.8696 204.77 27.6952C204.74 27.5207 204.643 27.3647 204.5 27.2605L203.742 26.723C203.6 26.6223 203.425 26.5798 203.253 26.6044C203.08 26.629 202.924 26.7188 202.816 26.8552C202.171 27.7149 201.331 28.4094 200.365 28.8816C199.295 29.3456 198.136 29.5682 196.97 29.5336C195.609 29.5354 194.277 29.1337 193.144 28.3794C191.934 27.5743 190.965 26.4569 190.34 25.1459C189.646 23.7315 189.293 22.1746 189.309 20.5996V20.115H204.738C204.918 20.115 205.091 20.0435 205.218 19.9163C205.346 19.7891 205.417 19.6165 205.417 19.4366V18.3176C205.528 15.7004 204.65 13.1373 202.957 11.1369C202.168 10.2379 201.192 9.52266 200.097 9.04162C199.001 8.56057 197.814 8.32542 196.618 8.35272ZM189.511 17.7009C189.771 15.9087 190.564 14.2358 191.786 12.899C192.391 12.2181 193.136 11.6758 193.97 11.3093C194.803 10.9428 195.707 10.7608 196.618 10.7757C197.773 10.7593 198.908 11.0842 199.88 11.7096C200.874 12.3643 201.67 13.2784 202.181 14.3528C202.703 15.393 203.003 16.53 203.063 17.692L189.511 17.7009ZM227.195 10.0353C228.739 9.04728 230.538 8.53269 232.371 8.55515H232.362C234.866 8.55515 236.815 9.31287 238.049 10.749C239.283 12.1852 239.927 14.3085 239.927 17.0839V31.1017C239.928 31.1911 239.911 31.2799 239.878 31.3627C239.844 31.4456 239.794 31.5208 239.731 31.584C239.667 31.6473 239.592 31.6972 239.509 31.7309C239.426 31.7646 239.338 31.7813 239.248 31.7801H238.181C238.092 31.7813 238.003 31.7646 237.92 31.7309C237.837 31.6972 237.762 31.6473 237.698 31.584C237.635 31.5208 237.585 31.4456 237.552 31.3627C237.518 31.2799 237.501 31.1911 237.502 31.1017V17.1808C237.502 15.031 237.061 13.357 236.241 12.3878C235.421 11.4186 234.152 10.9781 232.309 10.9781C231.204 10.9553 230.109 11.2026 229.121 11.6985C228.133 12.1945 227.281 12.9241 226.64 13.8239C225.929 14.698 225.48 15.7546 225.344 16.8724V31.1017C225.345 31.1904 225.328 31.2784 225.295 31.3606C225.262 31.4429 225.213 31.5178 225.151 31.5809C225.088 31.644 225.014 31.6941 224.932 31.7283C224.85 31.7625 224.762 31.7801 224.674 31.7801H223.598C223.508 31.7813 223.42 31.7646 223.337 31.7309C223.254 31.6972 223.179 31.6473 223.115 31.584C223.052 31.5208 223.002 31.4456 222.968 31.3627C222.935 31.2799 222.918 31.1911 222.919 31.1017V16.7315C223.05 15.1599 222.605 13.5943 221.667 12.3261C220.873 11.4274 219.542 10.9781 217.717 10.9781C216.678 10.9715 215.654 11.2272 214.74 11.7216C213.826 12.216 213.051 12.9331 212.489 13.8063C211.677 14.9474 211.118 16.2478 210.849 17.6213V31.1017C210.849 31.2816 210.777 31.4542 210.65 31.5814C210.522 31.7086 210.35 31.7801 210.17 31.7801H209.076C208.987 31.7813 208.898 31.7646 208.815 31.7309C208.732 31.6972 208.657 31.6473 208.594 31.584C208.53 31.5208 208.48 31.4456 208.447 31.3627C208.413 31.2799 208.396 31.1911 208.398 31.1017V9.62124C208.397 9.53256 208.415 9.44476 208.449 9.36294C208.484 9.28112 208.534 9.20691 208.597 9.14461C208.66 9.08232 208.735 9.03318 208.817 9.00005C208.9 8.96692 208.988 8.95046 209.076 8.95163H210.17C210.348 8.95161 210.52 9.02188 210.647 9.14721C210.774 9.27254 210.846 9.44284 210.849 9.62124V12.1499C211.416 11.3709 212.107 10.6895 212.894 10.1323C214.316 9.16272 215.987 8.62371 217.707 8.57995C219.427 8.53619 221.124 8.98954 222.593 9.88556C223.522 10.5442 224.234 11.4644 224.638 12.5288C225.31 11.5305 226.18 10.6816 227.195 10.0353ZM252.579 8.35262C250.822 8.34598 249.104 8.87123 247.651 9.85925C246.12 10.893 244.9 12.3248 244.124 14.0003C243.273 15.798 242.842 17.7652 242.863 19.7536V20.6347C242.842 22.6196 243.289 24.5816 244.168 26.3617C244.991 28.0349 246.252 29.4539 247.818 30.4674C249.348 31.4592 251.135 31.9828 252.958 31.9741C254.459 32.0523 255.954 31.7461 257.303 31.0846C258.652 30.4231 259.809 29.4282 260.664 28.1943C260.715 28.122 260.751 28.0405 260.77 27.9544C260.789 27.8683 260.79 27.7793 260.775 27.6925C260.759 27.6058 260.727 27.5229 260.679 27.4488C260.631 27.3746 260.569 27.3106 260.497 27.2603L259.747 26.7229C259.606 26.6222 259.43 26.5797 259.258 26.6043C259.086 26.6289 258.93 26.7187 258.822 26.8551C258.175 27.7129 257.335 28.407 256.371 28.8815C255.301 29.3455 254.142 29.5681 252.976 29.5335C251.614 29.5353 250.283 29.1336 249.149 28.3793C247.94 27.5741 246.971 26.4568 246.346 25.1458C245.653 23.7311 245.3 22.1744 245.314 20.5995V20.1149H260.744C260.923 20.1126 261.095 20.0404 261.221 19.9137C261.348 19.7869 261.42 19.6157 261.423 19.4365V18.3175C261.533 15.7003 260.655 13.1372 258.963 11.1368C258.168 10.2329 257.185 9.51494 256.082 9.03376C254.978 8.55258 253.783 8.32003 252.579 8.35262ZM245.464 17.7008C245.733 15.9079 246.531 14.236 247.756 12.8989C248.361 12.218 249.106 11.6757 249.94 11.3092C250.774 10.9427 251.677 10.7607 252.588 10.7756C253.744 10.7592 254.879 11.0841 255.85 11.7095C256.842 12.3669 257.637 13.2803 258.152 14.3527C258.673 15.3929 258.974 16.5299 259.033 17.6919L245.464 17.7008ZM268.917 10.0881C270.35 9.05696 272.072 8.50493 273.837 8.51104H273.846C276.341 8.51104 278.263 9.27757 279.489 10.7049C280.714 12.1322 281.358 14.2644 281.358 17.0486V31.0664C281.356 31.2456 281.283 31.4168 281.157 31.5436C281.03 31.6703 280.858 31.7425 280.679 31.7448H279.603C279.423 31.7448 279.251 31.6733 279.123 31.5461C278.996 31.4189 278.925 31.2463 278.925 31.0664V17.0398C278.916 14.9164 278.457 13.304 277.673 12.3701C276.888 11.4362 275.548 10.9604 273.784 10.9604C272.978 10.9466 272.178 11.0955 271.431 11.3983C270.684 11.7011 270.006 12.1515 269.438 12.7225C268.152 14.0018 267.266 15.6274 266.889 17.401V31.0664C266.889 31.2463 266.818 31.4189 266.691 31.5461C266.563 31.6733 266.391 31.7448 266.211 31.7448H265.144C264.964 31.7448 264.791 31.6733 264.664 31.5461C264.536 31.4189 264.465 31.2463 264.465 31.0664V9.58594C264.465 9.40601 264.536 9.23345 264.664 9.10622C264.791 8.97899 264.964 8.90752 265.144 8.90752H266.211C266.391 8.90752 266.563 8.97899 266.691 9.10622C266.818 9.23345 266.889 9.40601 266.889 9.58594V12.0529C267.464 11.3009 268.147 10.6387 268.917 10.0881ZM294.742 29.3835C292.582 29.6918 291.356 29.6037 290.783 28.7579C290.297 27.8379 290.08 26.7997 290.157 25.7623V11.1718H294.363C294.541 11.1718 294.713 11.1015 294.84 10.9762C294.967 10.8509 295.039 10.6806 295.042 10.5022V9.42727C295.042 9.24734 294.97 9.07478 294.843 8.94755C294.715 8.82032 294.543 8.74885 294.363 8.74885H290.157V3.62984C290.155 3.45062 290.082 3.27938 289.956 3.15265C289.829 3.02591 289.658 2.9537 289.478 2.95142H288.385C288.205 2.95142 288.032 3.02289 287.905 3.15012C287.777 3.27735 287.706 3.44991 287.706 3.62984V8.74885H284.408C284.228 8.74885 284.056 8.82032 283.928 8.94755C283.801 9.07478 283.729 9.24734 283.729 9.42727V10.5022C283.732 10.6806 283.804 10.8509 283.931 10.9762C284.058 11.1015 284.23 11.1718 284.408 11.1718H287.706V25.9032C287.595 27.4944 288.007 29.0782 288.879 30.4143C289.359 30.9632 289.963 31.3913 290.64 31.6637C291.317 31.9362 292.048 32.0455 292.776 31.9826C293.611 32.0197 294.447 31.9245 295.253 31.7007C295.403 31.6453 295.528 31.5389 295.607 31.4004C295.686 31.2618 295.714 31.0999 295.685 30.943L295.509 29.9297C295.477 29.7572 295.379 29.6039 295.236 29.502C295.093 29.4002 294.916 29.3577 294.742 29.3835ZM310.754 20.2647C311.773 20.7833 312.636 21.5614 313.258 22.5203L313.267 22.4938C313.817 23.4487 314.092 24.5376 314.06 25.6392C314.078 26.5463 313.872 27.4439 313.46 28.2523C313.048 29.0607 312.442 29.755 311.697 30.2737C309.977 31.4537 307.919 32.0442 305.834 31.9565C303.62 32.0558 301.434 31.4377 299.6 30.1944C298.826 29.6649 298.194 28.9531 297.761 28.1218C297.327 27.2904 297.105 26.3652 297.114 25.4278C297.114 25.2494 297.184 25.0781 297.31 24.9512C297.435 24.8242 297.606 24.7517 297.784 24.7494H298.86C299.032 24.749 299.199 24.8144 299.325 24.9322C299.451 25.0501 299.527 25.2115 299.539 25.3837C299.559 25.9857 299.724 26.574 300.02 27.0985C300.317 27.6231 300.735 28.0685 301.24 28.397C302.623 29.2262 304.224 29.6221 305.834 29.5336C307.35 29.6072 308.849 29.1833 310.101 28.3265C310.561 28.0392 310.941 27.6424 311.209 27.1719C311.477 26.7013 311.623 26.1716 311.636 25.6304C311.636 23.3661 309.59 21.8506 305.464 20.9696C302.642 20.3881 300.72 19.6039 299.574 18.6259C298.978 18.1063 298.507 17.4598 298.194 16.7341C297.881 16.0083 297.735 15.2216 297.766 14.432C297.764 13.5702 297.969 12.7205 298.363 11.954C298.758 11.1875 299.33 10.5266 300.032 10.0267C301.665 8.86572 303.638 8.27994 305.64 8.36148C307.783 8.25192 309.901 8.87325 311.644 10.1236C312.407 10.7105 313.02 11.4705 313.431 12.3407C313.842 13.2109 314.039 14.1664 314.007 15.1281C314.007 15.308 313.936 15.4806 313.808 15.6078C313.681 15.735 313.508 15.8065 313.328 15.8065H312.235C312.146 15.8077 312.057 15.791 311.974 15.7573C311.891 15.7236 311.816 15.6737 311.752 15.6104C311.689 15.5472 311.639 15.4719 311.605 15.3891C311.572 15.3063 311.555 15.2175 311.556 15.1281C311.561 14.5261 311.42 13.9318 311.147 13.3953C310.874 12.8587 310.476 12.3954 309.987 12.0443C308.729 11.1282 307.195 10.6682 305.64 10.7404C304.202 10.6602 302.776 11.0465 301.575 11.8417C301.154 12.1163 300.808 12.4911 300.568 12.9325C300.328 13.3739 300.202 13.868 300.2 14.3704C300.155 15.0278 300.322 15.6822 300.676 16.2382C301.155 16.7987 301.759 17.2392 302.439 17.5246C303.695 18.0711 305.004 18.4845 306.345 18.7581C307.873 19.0693 309.355 19.5756 310.754 20.2647Z" fill="#80B341"/>
<path id="envato" fill-rule="evenodd" clip-rule="evenodd" d="M129.203 12.8461C129.472 12.8778 129.744 12.8524 130.001 12.7714C130.259 12.6905 130.497 12.5559 130.699 12.3765C130.901 12.1971 131.063 11.977 131.173 11.7307C131.284 11.4844 131.341 11.2174 131.341 10.9474C131.341 10.6774 131.284 10.4104 131.173 10.1641C131.063 9.91781 130.901 9.69772 130.699 9.51835C130.497 9.33897 130.259 9.20438 130.001 9.12343C129.744 9.04249 129.472 9.01702 129.203 9.04872H125.068V4.86364C125.103 4.54394 125.069 4.22055 124.971 3.91453C124.872 3.60851 124.71 3.3267 124.495 3.08744C124.28 2.84818 124.017 2.65683 123.723 2.52584C123.429 2.39485 123.111 2.32715 122.789 2.32715C122.467 2.32715 122.149 2.39485 121.855 2.52584C121.561 2.65683 121.298 2.84818 121.083 3.08744C120.868 3.3267 120.706 3.60851 120.607 3.91453C120.509 4.22055 120.475 4.54394 120.51 4.86364V24.7229C120.51 29.3045 122.776 31.7715 127.052 31.7715C128.044 31.7946 129.031 31.6178 129.953 31.2516C130.316 31.0996 130.628 30.8473 130.853 30.5243C131.078 30.2013 131.206 29.821 131.222 29.4278C131.232 29.1845 131.192 28.9418 131.103 28.7149C131.014 28.4881 130.88 28.2821 130.707 28.1099C130.535 27.9377 130.329 27.803 130.102 27.7144C129.875 27.6259 129.632 27.5853 129.389 27.5952C129.11 27.609 128.835 27.6564 128.569 27.7362C128.259 27.8274 127.939 27.8749 127.616 27.8771C125.853 27.8771 125.068 26.7406 125.068 24.3V12.8461H129.203ZM100.179 10.7489C102.441 9.18931 105.137 8.3816 107.885 8.44051C113.739 8.44051 117.266 11.7269 117.266 17.216V29.3835C117.304 29.6797 117.278 29.9807 117.189 30.2658C117.1 30.5509 116.95 30.8134 116.75 31.0352C116.549 31.257 116.304 31.4329 116.029 31.5508C115.754 31.6687 115.458 31.7259 115.159 31.7183C114.855 31.7268 114.553 31.6697 114.274 31.5512C113.994 31.4327 113.743 31.2554 113.538 31.0313C113.333 30.8073 113.179 30.5418 113.086 30.253C112.993 29.9641 112.963 29.6585 112.999 29.3571V28.1941C112.174 29.3982 111.055 30.3719 109.748 31.0226C108.441 31.6733 106.989 31.9795 105.531 31.9122C101.484 31.9122 97.4014 29.78 97.4014 25.0046C97.4014 18.3702 105.16 17.4362 112.787 17.4362V16.9428C112.787 13.956 110.838 12.1939 107.444 12.1939C105.587 12.2196 103.783 12.8164 102.277 13.9031C101.879 14.1958 101.404 14.3644 100.911 14.3877C100.673 14.3879 100.438 14.3401 100.219 14.2472C100 14.1542 99.8027 14.0181 99.638 13.8469C99.4733 13.6758 99.3449 13.4731 99.2606 13.2511C99.1762 13.0291 99.1376 12.7924 99.1471 12.5551C99.1462 12.1902 99.2409 11.8314 99.4219 11.5145C99.6029 11.1976 99.8638 10.9337 100.179 10.7489ZM112.857 20.8195H111.852C107.673 20.8195 102.118 21.2424 102.171 24.9077C102.171 28.009 105.539 28.2557 106.58 28.2557C110.398 28.2557 112.857 25.7535 112.857 21.8768V20.8195ZM61.1709 9.53853C62.441 8.80554 63.8846 8.42638 65.3512 8.44057C71.5142 8.44057 73.7096 13.1455 73.7273 17.542V29.1985C73.7619 29.5206 73.7283 29.8464 73.6287 30.1547C73.5291 30.463 73.3656 30.7468 73.149 30.9878C72.9323 31.2288 72.6673 31.4215 72.3713 31.5535C72.0752 31.6854 71.7546 31.7536 71.4305 31.7536C71.1063 31.7536 70.7857 31.6854 70.4896 31.5535C70.1936 31.4215 69.9286 31.2288 69.712 30.9878C69.4953 30.7468 69.3319 30.463 69.2322 30.1547C69.1326 29.8464 69.099 29.5206 69.1336 29.1985V18.987C69.1336 14.5111 67.6171 12.3349 64.1961 12.3349C60.7752 12.3349 58.3858 15.2865 58.3858 19.5068V29.1985C58.4137 29.5175 58.375 29.8387 58.2721 30.1418C58.1691 30.445 58.0042 30.7234 57.7878 30.9595C57.5714 31.1955 57.3082 31.384 57.015 31.5129C56.7218 31.6419 56.4049 31.7084 56.0845 31.7084C55.7642 31.7084 55.4473 31.6419 55.1541 31.5129C54.8609 31.384 54.5977 31.1955 54.3813 30.9595C54.1649 30.7234 54 30.445 53.897 30.1418C53.7941 29.8387 53.7554 29.5175 53.7833 29.1985V11.1102C53.7424 10.8022 53.7689 10.4889 53.8608 10.1921C53.9527 9.89526 54.1079 9.62186 54.3158 9.39073C54.5236 9.1596 54.7791 8.97623 55.0647 8.85327C55.3502 8.73031 55.6591 8.67067 55.9699 8.67846C56.3667 8.67846 58.1301 8.793 58.1301 11.1102V12.608C58.8507 11.3315 59.9008 10.2715 61.1709 9.53853ZM28.708 20.247C28.708 13.4099 33.5573 8.44067 40.2406 8.44067C46.0598 8.44067 50.0274 11.9473 50.8386 17.8064C50.9131 18.2902 50.9456 18.7796 50.9356 19.269C50.9356 20.8461 50.1332 21.6126 48.4933 21.6126H33.4163C33.5336 23.3935 34.331 25.0612 35.6437 26.2713C36.9564 27.4814 38.6841 28.1414 40.4698 28.1149C41.5167 28.1242 42.5546 27.9203 43.5201 27.5159C44.4857 27.1115 45.3588 26.5149 46.0862 25.7625C46.2929 25.5393 46.542 25.3597 46.8191 25.2341C47.0962 25.1085 47.3956 25.0395 47.6997 25.0312C47.9586 25.019 48.2172 25.0602 48.4594 25.1523C48.7016 25.2444 48.9222 25.3854 49.1075 25.5664C49.2928 25.7474 49.4388 25.9647 49.5364 26.2045C49.634 26.4444 49.6811 26.7019 49.6747 26.9607C49.6488 27.5854 49.3874 28.1771 48.9429 28.6171C47.8423 29.7348 46.52 30.6101 45.0607 31.1867C43.6015 31.7633 42.0377 32.0285 40.4698 31.9652C33.5044 31.9652 28.708 27.0841 28.708 20.247ZM46.3331 18.1412C46.192 14.4143 43.8644 12.1059 40.2406 12.1059C38.5518 12.0726 36.9121 12.6745 35.6465 13.7923C34.3809 14.9102 33.5818 16.4623 33.4074 18.1412H46.3331ZM94.5177 8.6787C93.9864 8.68723 93.473 8.87184 93.0581 9.20354C92.6431 9.53524 92.3502 9.99524 92.2252 10.5113L85.9299 26.3706L79.6875 10.5113C79.5552 9.99095 79.2542 9.52898 78.8315 9.19747C78.4089 8.86596 77.8883 8.68355 77.351 8.6787C76.7539 8.66688 76.1764 8.89207 75.745 9.30493C75.3137 9.7178 75.0637 10.2847 75.0498 10.8814C75.0532 11.3289 75.1524 11.7705 75.3408 12.1765L82.5707 29.2428C83.4524 31.2957 84.8455 31.7274 85.8858 31.7274C86.9263 31.7274 88.337 31.2957 89.201 29.2428L96.4838 12.0884C96.6575 11.6903 96.7533 11.2626 96.766 10.8285C96.7663 10.5378 96.7076 10.2501 96.5935 9.98279C96.4793 9.71544 96.3121 9.47399 96.102 9.27304C95.8918 9.0721 95.6431 8.91582 95.3708 8.81367C95.0984 8.71151 94.8082 8.6656 94.5177 8.6787ZM132.404 20.1501C132.404 13.3658 137.456 8.44067 144.404 8.44067C151.387 8.44067 156.457 13.3658 156.457 20.1501C156.477 21.7266 156.177 23.2908 155.575 24.7484C154.974 26.2059 154.083 27.5266 152.957 28.6307C151.83 29.7348 150.492 30.5995 149.022 31.1726C147.552 31.7457 145.981 32.0153 144.404 31.9652C141.227 32.0171 138.156 30.8213 135.852 28.6348C134.736 27.5245 133.856 26.2009 133.264 24.7432C132.671 23.2854 132.379 21.7232 132.404 20.1501ZM137.148 20.1325C137.148 24.0885 139.634 28.0621 144.404 28.0621C147.905 28.0621 151.652 25.551 151.652 20.1501C151.652 14.7491 147.896 12.2733 144.404 12.2733C140.913 12.2733 137.148 14.7315 137.148 20.1325Z" fill="#141614"/>
<path id="symbol" d="M20.8433 6.35277C17.149 2.02673 5.19318 10.4145 5.29017 21.2076C5.2879 21.3401 5.23422 21.4665 5.14046 21.5602C5.0467 21.6539 4.92018 21.7075 4.7876 21.7098C4.70052 21.7088 4.61514 21.6857 4.53953 21.6425C4.46393 21.5993 4.4006 21.5376 4.35557 21.4631C3.6567 19.9525 3.29565 18.3079 3.29753 16.6436C3.29664 15.3917 3.49913 14.1479 3.89709 12.9608C3.93174 12.8585 3.92987 12.7474 3.8918 12.6464C3.85373 12.5454 3.7818 12.4607 3.68826 12.4067C3.59472 12.3527 3.48535 12.3327 3.37874 12.3502C3.27214 12.3677 3.1749 12.4216 3.10356 12.5026C1.58642 14.1573 0.583654 16.2172 0.217452 18.4313C-0.14875 20.6455 0.137423 22.9183 1.0411 24.9727C1.94478 27.0272 3.42694 28.7747 5.30699 30.0022C7.18703 31.2297 9.38378 31.8843 11.6296 31.8861C27.9057 31.5601 24.1408 10.2119 20.8433 6.35277Z" fill="#80B341"/>
</g>
</svg>
