<svg viewBox="0 0 169 32" fill="none" xmlns="http://www.w3.org/2000/svg">
<g>
<path d="M43.4658 6.59602C36.2468 6.59602 31.0088 11.964 31.0088 19.35C31.0098 26.736 36.1898 32 43.7138 32C45.4065 32.0701 47.0951 31.7854 48.6712 31.1643C50.2473 30.5431 51.6761 29.5991 52.8658 28.393C53.3358 27.929 53.6168 27.309 53.6558 26.651C53.6627 26.3713 53.6119 26.0932 53.5066 25.834C53.4013 25.5748 53.2437 25.3401 53.0436 25.1444C52.8436 24.9488 52.6054 24.7965 52.3439 24.697C52.0825 24.5975 51.8033 24.5529 51.5238 24.566C51.1953 24.575 50.8719 24.6495 50.5726 24.7851C50.2732 24.9208 50.0041 25.1149 49.7808 25.356C48.9949 26.1692 48.0517 26.8139 47.0087 27.2509C45.9657 27.6879 44.8446 27.9081 43.7138 27.898C41.7856 27.9261 39.9202 27.213 38.5025 25.9058C37.0848 24.5986 36.223 22.7971 36.0948 20.873H52.3808C54.1518 20.873 55.0188 20.045 55.0188 18.341C55.0296 17.8123 54.9944 17.2837 54.9138 16.761C54.0378 10.375 49.7518 6.59602 43.4658 6.59602V6.59602ZM43.4658 10.556C47.3808 10.556 49.8948 13.049 50.0468 17.066H36.0858C36.2759 15.2533 37.14 13.5782 38.5069 12.3725C39.8737 11.1668 41.6436 10.5185 43.4658 10.556V10.556ZM70.5898 6.59602C69.0059 6.58081 67.447 6.99042 66.0752 7.78219C64.7034 8.57397 63.5689 9.71898 62.7898 11.098V9.51802C62.7898 7.01502 60.8858 6.89102 60.4568 6.89102C60.1212 6.88282 59.7878 6.94738 59.4796 7.08027C59.1713 7.21315 58.8955 7.41121 58.6711 7.66082C58.4467 7.91043 58.2789 8.20568 58.1795 8.52628C58.08 8.84687 58.0511 9.1852 58.0948 9.51802V29.021C58.0644 29.3657 58.1061 29.7129 58.2173 30.0406C58.3284 30.3683 58.5066 30.6692 58.7405 30.9243C58.9743 31.1793 59.2587 31.3828 59.5756 31.5219C59.8924 31.661 60.2348 31.7325 60.5808 31.732C61.1019 31.7317 61.61 31.5684 62.0337 31.265C62.4574 30.9616 62.7756 30.5333 62.9438 30.04C63.0538 29.712 63.0968 29.365 63.0658 29.02V18.55C63.0658 14.001 65.6468 10.813 69.3428 10.813C73.0378 10.813 74.6758 13.163 74.6758 17.999V29.02C74.6285 29.4562 74.6972 29.8971 74.8749 30.2982C75.0526 30.6993 75.3329 31.0465 75.6877 31.3045C76.0425 31.5626 76.459 31.7225 76.8954 31.7681C77.3317 31.8136 77.7724 31.7433 78.1728 31.564C78.6544 31.3491 79.0556 30.9872 79.3188 30.5302C79.582 30.0731 79.6937 29.5445 79.6378 29.02V16.428C79.6178 11.678 77.2478 6.59602 70.5898 6.59602V6.59602ZM102.095 6.85302C101.521 6.86283 100.967 7.06249 100.519 7.42075C100.071 7.77901 99.7545 8.27566 99.6188 8.83302L92.8188 25.908L86.0758 8.83302C85.933 8.27046 85.6079 7.77104 85.1513 7.41281C84.6946 7.05459 84.1322 6.85773 83.5518 6.85302C82.9069 6.84041 82.2833 7.08374 81.8174 7.52977C81.3515 7.9758 81.0813 8.58822 81.0658 9.23302C81.0698 9.71602 81.1768 10.193 81.3808 10.632L89.1908 29.059C90.1428 31.286 91.6468 31.753 92.7708 31.753C93.8948 31.753 95.4188 31.286 96.3518 29.068L104.219 10.537C104.406 10.1069 104.51 9.64495 104.524 9.17602C104.523 8.86208 104.46 8.55146 104.336 8.26278C104.213 7.9741 104.032 7.7133 103.806 7.49602C103.579 7.27838 103.311 7.10913 103.016 6.99859C102.722 6.88805 102.409 6.83852 102.095 6.85302V6.85302ZM116.533 6.59602C113.567 6.5341 110.656 7.40276 108.209 9.08002C107.869 9.28171 107.587 9.56869 107.391 9.91261C107.196 10.2565 107.094 10.6455 107.095 11.041C107.084 11.2977 107.125 11.5539 107.216 11.7942C107.306 12.0345 107.445 12.2539 107.623 12.439C107.801 12.6241 108.015 12.7711 108.252 12.8712C108.488 12.9712 108.743 13.0222 109 13.021C109.533 12.9956 110.046 12.8133 110.476 12.497C112.102 11.3231 114.051 10.6785 116.057 10.651C119.724 10.651 121.828 12.555 121.828 15.771V16.314C113.59 16.314 105.209 17.324 105.209 24.49C105.209 29.65 109.619 31.952 113.99 31.952C115.558 32.0229 117.118 31.6941 118.524 30.9965C119.93 30.2989 121.136 29.2554 122.028 27.964V29.221C121.993 29.5452 122.027 29.8731 122.129 30.1829C122.231 30.4926 122.398 30.777 122.619 31.017C122.84 31.2572 123.11 31.4471 123.41 31.5741C123.711 31.701 124.036 31.7621 124.362 31.753C124.688 31.766 125.013 31.7074 125.314 31.5813C125.615 31.4551 125.884 31.2646 126.104 31.023C126.324 30.7821 126.488 30.4959 126.585 30.1845C126.682 29.8731 126.71 29.5442 126.666 29.221V16.076C126.666 10.136 122.857 6.59602 116.533 6.59602V6.59602ZM120.819 19.988H121.905V21.13C121.905 25.318 119.247 28.012 115.124 28.012C114 28.012 110.362 27.755 110.362 24.405C110.305 20.426 116.305 19.988 120.819 19.988V19.988ZM139.562 11.355C139.849 11.3948 140.142 11.3718 140.42 11.2877C140.698 11.2035 140.954 11.0602 141.171 10.8676C141.388 10.675 141.561 10.4376 141.678 10.1719C141.794 9.9061 141.852 9.61822 141.847 9.32802C141.857 9.03447 141.803 8.74225 141.689 8.47167C141.574 8.20109 141.402 7.95865 141.185 7.76119C140.968 7.56373 140.71 7.41598 140.429 7.32823C140.149 7.24047 139.853 7.21481 139.562 7.25302H135.095V2.73202C135.15 2.21154 135.039 1.68692 134.778 1.23322C134.517 0.779516 134.119 0.419973 133.642 0.206021C133.324 0.0650698 132.981 -0.00763491 132.634 -0.00738461C132.286 -0.00713431 131.943 0.0660654 131.626 0.207474C131.308 0.348882 131.024 0.555346 130.792 0.813493C130.56 1.07164 130.384 1.37571 130.277 1.70602C130.17 2.03702 130.134 2.38602 130.171 2.73202V24.186C130.171 29.136 132.619 31.8 137.238 31.8C138.31 31.827 139.377 31.633 140.371 31.23C140.762 31.0675 141.1 30.7965 141.343 30.449C141.586 30.1014 141.725 29.6917 141.743 29.268C141.753 29.0053 141.708 28.7433 141.612 28.4986C141.516 28.2539 141.37 28.0316 141.184 27.8457C140.998 27.6599 140.776 27.5144 140.531 27.4184C140.286 27.3225 140.025 27.2781 139.762 27.288C139.461 27.3031 139.164 27.3545 138.876 27.441C138.541 27.5348 138.195 27.5859 137.847 27.593C135.943 27.593 135.095 26.365 135.095 23.729V11.355H139.562V11.355ZM155.981 6.59602C148.476 6.59602 143.019 11.916 143.019 19.246C142.992 20.9456 143.308 22.6332 143.948 24.2081C144.588 25.7829 145.538 27.2126 146.743 28.412C149.233 30.7716 152.55 32.0599 155.981 32C163.4 32 169 26.518 169 19.246C169 11.974 163.524 6.59602 155.981 6.59602V6.59602ZM155.981 27.793C150.828 27.793 148.143 23.5 148.143 19.227C148.143 13.392 152.209 10.737 155.981 10.737C159.752 10.737 163.809 13.411 163.809 19.246C163.809 25.08 159.762 27.793 155.981 27.793V27.793Z" fill="#141614"/>
<path d="M22.5139 4.33998C18.5239 -0.333022 5.60988 8.71998 5.71388 20.388C5.71131 20.5311 5.65324 20.6676 5.55194 20.7687C5.45063 20.8699 5.314 20.9277 5.17088 20.93C5.07704 20.9287 4.98504 20.9037 4.90353 20.8572C4.82202 20.8106 4.75367 20.7442 4.70488 20.664C3.37755 17.7767 3.20054 14.4921 4.20988 11.479C4.24872 11.3681 4.24761 11.2472 4.20674 11.137C4.16588 11.0269 4.08783 10.9345 3.98608 10.8758C3.88433 10.8171 3.76527 10.7958 3.64948 10.8155C3.53368 10.8353 3.42842 10.8949 3.35188 10.984C1.19973 13.2761 0.00119185 16.3018 -0.000116654 19.446C-0.0294088 21.9303 0.69027 24.3659 2.06514 26.4354C3.44002 28.5048 5.40634 30.1122 7.70788 31.048C9.23688 31.67 10.8739 31.981 12.5239 31.962C30.1429 31.562 26.0759 8.50898 22.5139 4.33998V4.33998Z" fill="#80B341"/>
</g>
</svg>
