<svg viewBox="0 0 263 33" fill="none" xmlns="http://www.w3.org/2000/svg">
<g id="logo">
<path fill-rule="evenodd" clip-rule="evenodd" d="M184.37 29.3133C182.055 29.6428 180.757 29.5487 180.136 28.645C179.616 27.659 179.384 26.5465 179.468 25.4349V9.84585H183.956C184.051 9.84711 184.146 9.82923 184.235 9.79325C184.323 9.75727 184.403 9.70392 184.471 9.63636C184.539 9.5688 184.592 9.48839 184.628 9.39987C184.664 9.31136 184.682 9.21653 184.68 9.12099V7.98194C184.682 7.8864 184.664 7.79157 184.628 7.70306C184.592 7.61454 184.539 7.53413 184.471 7.46657C184.403 7.39901 184.323 7.34566 184.235 7.30968C184.146 7.2737 184.051 7.25582 183.956 7.25708H179.468V1.77832C179.465 1.58684 179.388 1.40388 179.253 1.26847C179.117 1.13306 178.935 1.05591 178.743 1.05347H177.576C177.384 1.05347 177.2 1.12984 177.064 1.26577C176.928 1.40171 176.852 1.58608 176.852 1.77832V7.25708H173.333C173.237 7.25582 173.143 7.2737 173.054 7.30968C172.966 7.34566 172.885 7.39901 172.818 7.46657C172.75 7.53413 172.697 7.61454 172.661 7.70306C172.625 7.79157 172.607 7.8864 172.608 7.98194V9.12099C172.607 9.21653 172.625 9.31136 172.661 9.39987C172.697 9.48839 172.75 9.5688 172.818 9.63636C172.885 9.70392 172.966 9.75727 173.054 9.79325C173.143 9.82923 173.237 9.84711 173.333 9.84585H176.852V25.5949C176.735 27.2948 177.175 28.9866 178.103 30.4147C178.617 31.0006 179.261 31.4575 179.983 31.7486C180.706 32.0397 181.486 32.1568 182.262 32.0904C183.154 32.1351 184.047 32.0333 184.906 31.7891C185.065 31.7304 185.198 31.6187 185.284 31.4729C185.37 31.3271 185.402 31.1562 185.377 30.989L185.179 29.9064C185.147 29.7222 185.044 29.5576 184.894 29.4471C184.743 29.3366 184.555 29.2887 184.37 29.3133ZM204.732 7.25723H203.565C203.469 7.25596 203.375 7.27385 203.286 7.30983C203.198 7.34581 203.117 7.39915 203.05 7.46671C202.982 7.53428 202.929 7.61469 202.893 7.7032C202.857 7.79172 202.839 7.88654 202.84 7.98208V24.0607C202.612 25.6525 201.779 27.0952 200.516 28.0897C199.082 29.0991 197.357 29.6085 195.605 29.5394C194.834 29.5991 194.061 29.4845 193.341 29.2043C192.621 28.924 191.973 28.4851 191.446 27.9203C190.385 26.4528 189.863 24.6637 189.969 22.8557V7.98208C189.969 7.78984 189.892 7.60547 189.756 7.46953C189.621 7.3336 189.436 7.25723 189.244 7.25723H188.096C187.904 7.25723 187.72 7.3336 187.584 7.46953C187.448 7.60547 187.372 7.78984 187.372 7.98208V22.7804C187.372 25.7457 188.106 28.0521 189.47 29.643C190.834 31.2339 192.933 32.0905 195.652 32.0905C197.5 32.1598 199.333 31.741 200.968 30.8762C201.66 30.4867 202.293 30.0018 202.85 29.4359V30.9421C202.85 31.1343 202.926 31.3187 203.062 31.4546C203.198 31.5905 203.382 31.6669 203.574 31.6669H204.732C204.923 31.6645 205.106 31.5873 205.241 31.4519C205.377 31.3165 205.454 31.1335 205.456 30.9421V7.98208C205.456 7.78984 205.38 7.60547 205.244 7.46953C205.108 7.3336 204.924 7.25723 204.732 7.25723ZM215.486 28.645C216.107 29.5487 217.406 29.6428 219.72 29.3133C219.906 29.2862 220.095 29.3332 220.246 29.4441C220.398 29.5551 220.499 29.7211 220.529 29.9064L220.727 30.989C220.753 31.1562 220.72 31.3271 220.634 31.4729C220.548 31.6187 220.415 31.7304 220.257 31.7891C219.398 32.0347 218.504 32.1365 217.613 32.0904C216.837 32.1568 216.056 32.0397 215.333 31.7486C214.611 31.4575 213.967 31.0006 213.454 30.4147C212.525 28.9866 212.086 27.2948 212.202 25.5949V9.84585H208.683C208.491 9.84585 208.307 9.76948 208.171 9.63354C208.035 9.4976 207.959 9.31324 207.959 9.12099V7.98194C207.959 7.78969 208.035 7.60532 208.171 7.46939C208.307 7.33345 208.491 7.25708 208.683 7.25708H212.249V1.77832C212.249 1.58608 212.326 1.40171 212.462 1.26577C212.597 1.12984 212.782 1.05347 212.974 1.05347H214.141C214.324 1.06759 214.495 1.14987 214.62 1.28406C214.746 1.41825 214.816 1.59461 214.818 1.77832V7.25708H219.306C219.402 7.25584 219.497 7.27367 219.586 7.30953C219.675 7.3454 219.756 7.3986 219.825 7.46603C219.893 7.53346 219.947 7.61379 219.984 7.70236C220.021 7.79092 220.04 7.88595 220.04 7.98194V9.12099C220.04 9.21698 220.021 9.31201 219.984 9.40057C219.947 9.48914 219.893 9.56947 219.825 9.6369C219.756 9.70433 219.675 9.75753 219.586 9.79339C219.497 9.82926 219.402 9.84709 219.306 9.84585H214.818V25.4349C214.734 26.5465 214.965 27.6594 215.486 28.645ZM239.545 22.0083C238.882 20.9932 237.959 20.1741 236.873 19.6361C235.381 18.8962 233.8 18.352 232.168 18.0169C230.734 17.7229 229.334 17.2812 227.991 16.699C227.264 16.4002 226.619 15.9323 226.109 15.334C225.734 14.7389 225.556 14.0405 225.601 13.3383C225.601 12.8 225.735 12.2701 225.992 11.7967C226.248 11.3234 226.618 10.9214 227.069 10.6272C228.35 9.7775 229.871 9.36477 231.406 9.45046C233.069 9.37192 234.709 9.86341 236.054 10.8437C236.577 11.2187 237.001 11.7137 237.293 12.287C237.584 12.8604 237.734 13.4953 237.729 14.1385C237.728 14.234 237.746 14.3288 237.782 14.4174C237.818 14.5059 237.871 14.5863 237.939 14.6538C238.006 14.7214 238.087 14.7747 238.175 14.8107C238.263 14.8467 238.358 14.8646 238.454 14.8633H239.62C239.716 14.8633 239.81 14.8446 239.898 14.8081C239.986 14.7717 240.065 14.7183 240.133 14.651C240.2 14.5837 240.253 14.5038 240.29 14.4159C240.326 14.3279 240.345 14.2337 240.345 14.1385C240.376 13.109 240.163 12.0868 239.723 11.1557C239.283 10.2246 238.629 9.41117 237.814 8.78209C235.952 7.4475 233.694 6.7838 231.406 6.89935C229.269 6.8079 227.163 7.43417 225.422 8.67854C224.672 9.2121 224.061 9.91811 223.64 10.7372C223.219 11.5563 223.001 12.4644 223.004 13.3854C222.969 14.2306 223.124 15.0729 223.458 15.8501C223.792 16.6273 224.296 17.3195 224.933 17.8757C226.156 18.9206 228.207 19.7584 231.218 20.3797C235.631 21.3211 237.804 22.9403 237.804 25.3596C237.793 25.9371 237.639 26.5028 237.354 27.0056C237.07 27.5085 236.666 27.9327 236.177 28.2402C234.843 29.1545 233.248 29.6104 231.632 29.5393C229.914 29.6327 228.206 29.2098 226.73 28.3249C226.192 27.9722 225.747 27.4959 225.431 26.9358C225.115 26.3757 224.938 25.7481 224.914 25.1054C224.902 24.9214 224.82 24.7489 224.686 24.623C224.551 24.4971 224.374 24.4272 224.189 24.4276H223.042C222.849 24.4276 222.665 24.504 222.529 24.6399C222.393 24.7759 222.317 24.9602 222.317 25.1525C222.309 26.1548 222.548 27.1436 223.012 28.0317C223.477 28.9199 224.153 29.6801 224.98 30.2453C226.937 31.5737 229.27 32.2341 231.632 32.128C233.861 32.2272 236.061 31.5959 237.899 30.33C238.694 29.7758 239.34 29.034 239.779 28.1703C240.219 27.3065 240.439 26.3476 240.42 25.3784C240.448 24.1954 240.145 23.0281 239.545 22.0083ZM254.779 18.1676H261.187C261.419 18.1676 261.641 18.2598 261.805 18.424C261.969 18.5882 262.062 18.8109 262.062 19.0431V19.8621C262.063 19.9778 262.041 20.0927 261.998 20.2C261.954 20.3073 261.89 20.4049 261.809 20.4872C261.727 20.5695 261.63 20.6348 261.524 20.6794C261.417 20.724 261.302 20.7469 261.187 20.7469H254.779V27.4871C254.779 27.7218 254.686 27.9469 254.52 28.1128C254.354 28.2788 254.129 28.372 253.894 28.372H253.066C252.951 28.372 252.836 28.3491 252.729 28.3045C252.623 28.2599 252.526 28.1946 252.444 28.1123C252.363 28.03 252.299 27.9324 252.255 27.8251C252.212 27.7178 252.19 27.6029 252.191 27.4871V20.7469H246.066C245.95 20.7469 245.836 20.724 245.729 20.6794C245.622 20.6348 245.525 20.5695 245.444 20.4872C245.363 20.4049 245.298 20.3073 245.255 20.2C245.212 20.0927 245.19 19.9778 245.191 19.8621V19.0431C245.191 18.8109 245.283 18.5882 245.447 18.424C245.611 18.2598 245.834 18.1676 246.066 18.1676H252.191V11.4086C252.19 11.2928 252.212 11.178 252.255 11.0707C252.299 10.9633 252.363 10.8657 252.444 10.7834C252.526 10.7011 252.623 10.6358 252.729 10.5912C252.836 10.5466 252.951 10.5237 253.066 10.5237H253.894C254.129 10.5237 254.354 10.6169 254.52 10.7829C254.686 10.9488 254.779 11.1739 254.779 11.4086V18.1676Z" fill="#80B341"/>
<path fill-rule="evenodd" clip-rule="evenodd" d="M139.385 11.6811C139.675 11.7153 139.968 11.6879 140.246 11.6005C140.524 11.5131 140.781 11.3679 140.999 11.1742C141.217 10.9806 141.391 10.743 141.51 10.4772C141.63 10.2113 141.691 9.92314 141.691 9.63171C141.691 9.34028 141.63 9.05209 141.51 8.78625C141.391 8.52045 141.217 8.2829 140.999 8.08929C140.781 7.89568 140.524 7.75041 140.246 7.66303C139.968 7.57567 139.675 7.54818 139.385 7.58239H134.924V3.06518C134.961 2.72011 134.925 2.37105 134.819 2.04075C134.712 1.71044 134.537 1.40627 134.306 1.14802C134.074 0.889772 133.79 0.683236 133.473 0.541851C133.155 0.400465 132.812 0.327393 132.465 0.327393C132.118 0.327393 131.775 0.400465 131.457 0.541851C131.14 0.683236 130.856 0.889772 130.625 1.14802C130.393 1.40627 130.218 1.71044 130.111 2.04075C130.005 2.37105 129.969 2.72011 130.006 3.06518V24.5004C130.006 29.4456 132.451 32.1084 137.064 32.1084C138.134 32.1334 139.199 31.9425 140.194 31.5473C140.585 31.3832 140.922 31.1109 141.165 30.7622C141.407 30.4136 141.546 30.0031 141.563 29.5787C141.574 29.3161 141.53 29.0542 141.434 28.8093C141.338 28.5645 141.194 28.3421 141.007 28.1562C140.822 27.9704 140.599 27.825 140.355 27.7294C140.11 27.6338 139.848 27.59 139.585 27.6007C139.284 27.6156 138.988 27.6667 138.701 27.7529C138.366 27.8513 138.021 27.9026 137.673 27.905C135.771 27.905 134.924 26.6783 134.924 24.044V11.6811H139.385ZM108.072 9.41746C110.513 7.73414 113.421 6.86233 116.386 6.92591C122.702 6.92591 126.507 10.4731 126.507 16.3978V29.5309C126.548 29.8506 126.52 30.1755 126.424 30.4832C126.328 30.791 126.166 31.0743 125.95 31.3137C125.733 31.5531 125.469 31.743 125.172 31.8702C124.875 31.9975 124.556 32.0592 124.233 32.051C123.906 32.0602 123.58 31.9985 123.279 31.8706C122.977 31.7427 122.706 31.5514 122.485 31.3095C122.264 31.0677 122.097 30.7811 121.997 30.4694C121.897 30.1576 121.864 29.8277 121.903 29.5024V28.2471C121.013 29.5468 119.806 30.5978 118.396 31.3001C116.986 32.0024 115.419 32.3329 113.846 32.2603C109.48 32.2603 105.076 29.9589 105.076 24.8045C105.076 17.6436 113.446 16.6355 121.674 16.6355V16.1029C121.674 12.8791 119.572 10.9771 115.91 10.9771C113.907 11.0049 111.961 11.649 110.336 12.822C109.906 13.1379 109.394 13.3199 108.862 13.345C108.605 13.3453 108.352 13.2937 108.116 13.1934C107.879 13.093 107.667 12.9461 107.489 12.7613C107.311 12.5766 107.173 12.3579 107.082 12.1182C106.991 11.8786 106.949 11.6231 106.959 11.367C106.958 10.9731 107.06 10.5859 107.256 10.2438C107.451 9.90177 107.732 9.61692 108.072 9.41746ZM121.75 20.2873H120.666C116.157 20.2873 110.164 20.7437 110.222 24.6999C110.222 28.0473 113.855 28.3136 114.978 28.3136C119.097 28.3136 121.75 25.6128 121.75 21.4285V20.2873ZM65.989 8.11107C67.3593 7.31991 68.9167 6.91066 70.4989 6.92598C77.1478 6.92598 79.5163 12.0043 79.5354 16.7497V29.3312C79.5727 29.6789 79.5364 30.0305 79.429 30.3633C79.3215 30.6961 79.1451 31.0024 78.9115 31.2625C78.6777 31.5227 78.3918 31.7307 78.0724 31.8731C77.753 32.0155 77.4071 32.0891 77.0575 32.0891C76.7077 32.0891 76.3618 32.0155 76.0424 31.8731C75.7231 31.7307 75.4372 31.5227 75.2035 31.2625C74.9697 31.0024 74.7934 30.6961 74.6859 30.3633C74.5784 30.0305 74.5422 29.6789 74.5795 29.3312V18.3093C74.5795 13.4782 72.9434 11.1293 69.2527 11.1293C65.5621 11.1293 62.9844 14.3152 62.9844 18.8704V29.3312C63.0145 29.6755 62.9727 30.0222 62.8617 30.3494C62.7506 30.6767 62.5727 30.9771 62.3392 31.232C62.1057 31.4867 61.8218 31.6902 61.5055 31.8293C61.1892 31.9685 60.8473 32.0403 60.5016 32.0403C60.1561 32.0403 59.8142 31.9685 59.4979 31.8293C59.1816 31.6902 58.8976 31.4867 58.6641 31.232C58.4307 30.9771 58.2528 30.6767 58.1417 30.3494C58.0306 30.0222 57.9889 29.6755 58.019 29.3312V9.80743C57.9749 9.47499 58.0035 9.13682 58.1026 8.81647C58.2018 8.49611 58.3692 8.20102 58.5935 7.95154C58.8177 7.70207 59.0933 7.50415 59.4014 7.37143C59.7094 7.23871 60.0427 7.17434 60.378 7.18275C60.8061 7.18275 62.7085 7.30638 62.7085 9.80743V11.4241C63.4859 10.0463 64.6188 8.90217 65.989 8.11107ZM30.9668 19.6693C30.9668 12.2896 36.1984 6.92609 43.4086 6.92609C49.6866 6.92609 53.967 10.711 54.8421 17.035C54.9225 17.5572 54.9576 18.0855 54.9468 18.6137C54.9468 20.316 54.0811 21.1433 52.3119 21.1433H36.0463C36.1728 23.0655 37.0331 24.8656 38.4493 26.1717C39.8655 27.4779 41.7294 28.1902 43.6559 28.1616C44.7853 28.1717 45.905 27.9516 46.9467 27.5151C47.9884 27.0786 48.9303 26.4347 49.7151 25.6225C49.9381 25.3816 50.2068 25.1878 50.5057 25.0522C50.8047 24.9166 51.1277 24.8422 51.4558 24.8332C51.7351 24.82 52.0141 24.8645 52.2754 24.9639C52.5367 25.0633 52.7747 25.2155 52.9746 25.4109C53.1745 25.6063 53.332 25.8408 53.4373 26.0996C53.5426 26.3586 53.5934 26.6365 53.5865 26.9158C53.5585 27.5901 53.2765 28.2288 52.797 28.7037C51.6096 29.9101 50.1831 30.8549 48.6087 31.4772C47.0345 32.0996 45.3474 32.3858 43.6559 32.3175C36.1413 32.3175 30.9668 27.049 30.9668 19.6693ZM49.9814 17.3964C49.8292 13.3737 47.3181 10.8821 43.4086 10.8821C41.5867 10.8462 39.8177 11.4959 38.4523 12.7024C37.0869 13.909 36.2248 15.5843 36.0367 17.3964H49.9814ZM101.965 7.18301C101.392 7.19221 100.838 7.39148 100.39 7.7495C99.9424 8.10752 99.6265 8.60403 99.4916 9.161L92.7 26.2789L85.9654 9.161C85.8227 8.5994 85.498 8.10077 85.042 7.74295C84.586 7.38513 84.0244 7.18824 83.4447 7.18301C82.8006 7.17025 82.1775 7.41331 81.7121 7.85894C81.2468 8.30457 80.9771 8.91642 80.9621 9.56047C80.9658 10.0435 81.0728 10.5201 81.2761 10.9584L89.076 29.379C90.0272 31.5949 91.5301 32.0608 92.6524 32.0608C93.7749 32.0608 95.2969 31.5949 96.229 29.379L104.086 10.8633C104.273 10.4336 104.377 9.97192 104.39 9.50337C104.391 9.1896 104.327 8.87907 104.204 8.59059C104.081 8.30202 103.901 8.04141 103.674 7.82451C103.447 7.60763 103.179 7.43894 102.885 7.32869C102.591 7.21842 102.278 7.16887 101.965 7.18301ZM142.838 19.5647C142.838 12.242 148.288 6.92609 155.784 6.92609C163.318 6.92609 168.787 12.242 168.787 19.5647C168.809 21.2664 168.485 22.9547 167.836 24.528C167.187 26.1011 166.226 27.5266 165.011 28.7184C163.796 29.9101 162.352 30.8434 160.766 31.462C159.18 32.0806 157.485 32.3716 155.784 32.3175C152.357 32.3735 149.044 31.0828 146.558 28.7228C145.354 27.5244 144.405 26.0957 143.766 24.5224C143.126 22.9489 142.811 21.2627 142.838 19.5647ZM147.956 19.5457C147.956 23.8157 150.638 28.1046 155.784 28.1046C159.561 28.1046 163.604 25.3943 163.604 19.5647C163.604 13.7351 159.551 11.0628 155.784 11.0628C152.018 11.0628 147.956 13.7161 147.956 19.5457Z" fill="#141614"/>
<path d="M22.4816 4.67244C18.4961 0.00308299 5.59768 9.05647 5.70231 20.7061C5.69986 20.8491 5.64195 20.9856 5.5408 21.0867C5.43965 21.1878 5.30315 21.2457 5.16012 21.2482C5.06618 21.2471 4.97406 21.2222 4.89249 21.1755C4.81093 21.1289 4.74261 21.0623 4.69403 20.9819C3.94006 19.3514 3.55055 17.5763 3.55258 15.7799C3.55162 14.4287 3.77007 13.0862 4.1994 11.8048C4.23679 11.6944 4.23477 11.5745 4.1937 11.4655C4.15263 11.3565 4.07502 11.2651 3.97411 11.2068C3.8732 11.1485 3.7552 11.1269 3.64019 11.1458C3.52518 11.1647 3.42028 11.2229 3.34331 11.3103C1.70656 13.0963 0.624741 15.3197 0.229668 17.7095C-0.165405 20.0994 0.14333 22.5526 1.11825 24.77C2.09318 26.9876 3.69219 28.8738 5.72046 30.1987C7.74872 31.5236 10.1187 32.2301 12.5415 32.2321C30.1008 31.8802 26.0391 8.83779 22.4816 4.67244Z" fill="#80B341"/>
</g>
</svg>
