<svg viewBox="0 0 241 32" fill="none" xmlns="http://www.w3.org/2000/svg">
<g id="logo">
<path fill-rule="evenodd" clip-rule="evenodd" d="M185.613 0.594855C185.308 0.955773 185.133 1.40997 185.118 1.8831C185.133 2.35624 185.308 2.81044 185.613 3.17136C185.963 3.49364 186.423 3.6707 186.898 3.66684C187.37 3.65233 187.823 3.47764 188.183 3.17136C188.374 3.01709 188.527 2.8205 188.63 2.597C188.733 2.37351 188.782 2.12917 188.775 1.8831C188.761 1.40997 188.587 0.955773 188.282 0.594855C188.113 0.407595 187.908 0.257886 187.678 0.155416C187.447 0.0529476 187.199 0 186.947 0C186.696 0 186.446 0.0529476 186.217 0.155416C185.987 0.257886 185.781 0.407595 185.613 0.594855ZM178.199 19.2339C179.081 19.6253 179.911 20.1246 180.67 20.7204C181.258 21.1603 181.72 21.7476 182.01 22.423C182.334 23.2431 182.502 24.1172 182.503 24.9996C182.527 25.9252 182.322 26.8424 181.909 27.6702C181.494 28.4981 180.884 29.2114 180.131 29.7472C179.294 30.2961 178.388 30.7294 177.436 31.0354C176.346 31.3671 175.214 31.5341 174.075 31.5309C172.807 31.5326 171.544 31.3659 170.32 31.0354C169.316 30.7559 168.376 30.2848 167.552 29.6481C166.793 29.07 166.178 28.3238 165.755 27.4679C165.36 26.6702 165.157 25.7909 165.161 24.9005C165.159 24.8086 165.176 24.7174 165.21 24.6321C165.243 24.5468 165.294 24.4694 165.359 24.4044C165.424 24.3395 165.501 24.2885 165.586 24.2545C165.671 24.2205 165.762 24.2043 165.854 24.2068H166.941C167.033 24.2043 167.123 24.2205 167.209 24.2545C167.293 24.2885 167.371 24.3395 167.435 24.4044C167.5 24.4694 167.551 24.5468 167.585 24.6321C167.619 24.7174 167.635 24.8086 167.632 24.9005C167.679 25.6093 167.918 26.2918 168.325 26.8734C168.721 27.4035 169.227 27.8427 169.807 28.1617C170.426 28.4951 171.092 28.7292 171.784 28.8553C173.426 29.1479 175.112 29.0803 176.726 28.6571C177.4 28.4295 178.034 28.095 178.604 27.6662C179.069 27.3392 179.443 26.899 179.691 26.3869C179.957 25.974 180.095 25.4911 180.087 24.9996C180.118 24.5607 180.051 24.1204 179.889 23.7113C179.655 23.2691 179.351 22.8675 178.99 22.5222C178.411 22.0404 177.782 21.6236 177.112 21.2789C176.097 20.8328 175.037 20.5004 173.95 20.288C172.665 19.9817 171.578 19.6844 170.588 19.3871C169.699 19.0999 168.864 18.6644 168.118 18.0989C167.461 17.5928 166.922 16.9506 166.537 16.216C166.182 15.415 165.99 14.5515 165.97 13.6755C165.968 12.8141 166.172 11.9647 166.564 11.1982C166.983 10.4295 167.555 9.75505 168.243 9.2162C168.977 8.63093 169.816 8.19348 170.714 7.92796C171.771 7.60351 172.871 7.43657 173.976 7.43248C175.147 7.42975 176.312 7.59664 177.436 7.92796C178.418 8.20436 179.335 8.67617 180.131 9.31531C180.912 9.86922 181.532 10.6217 181.928 11.4954C182.323 12.4015 182.525 13.3804 182.522 14.3692C182.524 14.461 182.507 14.5523 182.473 14.6376C182.44 14.7229 182.389 14.8003 182.324 14.8653C182.26 14.9301 182.183 14.9812 182.097 15.0152C182.012 15.0492 181.921 15.0654 181.829 15.0629H180.742C180.65 15.0654 180.56 15.0492 180.474 15.0152C180.39 14.9812 180.312 14.9301 180.248 14.8653C180.183 14.8003 180.132 14.7229 180.098 14.6376C180.064 14.5523 180.048 14.461 180.051 14.3692C180.072 13.7823 179.935 13.2002 179.655 12.6846C179.439 12.1486 179.097 11.6728 178.658 11.2972C178.089 10.8684 177.454 10.5338 176.78 10.3063C175.913 10.0119 175 9.87758 174.084 9.90988C173.172 9.91182 172.264 10.0453 171.388 10.3063C170.763 10.4619 170.185 10.7715 169.708 11.2072C169.347 11.5525 169.044 11.9541 168.81 12.3963C168.629 12.8024 168.528 13.2399 168.513 13.6845C168.524 14.1533 168.589 14.6191 168.711 15.0719C168.912 15.448 169.18 15.784 169.501 16.0628C170.064 16.526 170.699 16.8941 171.38 17.153C172.479 17.5507 173.601 17.8816 174.74 18.1439C175.919 18.4188 177.076 18.7833 178.199 19.2339ZM186.304 8.02696H187.391C187.483 8.02448 187.574 8.04073 187.659 8.07471C187.744 8.1087 187.821 8.15971 187.886 8.22462C187.951 8.28954 188.001 8.367 188.035 8.45228C188.069 8.53756 188.086 8.62888 188.083 8.72065V30.711C188.086 30.8028 188.069 30.8941 188.035 30.9793C188.001 31.0647 187.951 31.1422 187.886 31.207C187.821 31.2719 187.744 31.3229 187.659 31.3569C187.574 31.3909 187.483 31.4071 187.391 31.4047H186.304C186.213 31.4071 186.121 31.3909 186.036 31.3569C185.951 31.3229 185.874 31.2719 185.809 31.207C185.745 31.1422 185.693 31.0647 185.659 30.9793C185.626 30.8941 185.61 30.8028 185.612 30.711V8.72065C185.61 8.62888 185.626 8.53756 185.659 8.45228C185.693 8.367 185.745 8.28954 185.809 8.22462C185.874 8.15971 185.951 8.1087 186.036 8.07471C186.121 8.04073 186.213 8.02448 186.304 8.02696ZM198.434 29.2247C198.767 29.2362 199.099 29.2029 199.422 29.1256C199.616 29.123 199.805 29.1794 199.965 29.2871C200.126 29.3949 200.25 29.5491 200.321 29.7292L200.528 30.7382C200.541 30.906 200.5 31.0738 200.412 31.2165C200.323 31.3593 200.19 31.4695 200.033 31.5309C199.823 31.6551 199.585 31.7234 199.342 31.7292C199.119 31.8041 198.885 31.8376 198.65 31.8282H197.464C196.761 31.8412 196.06 31.7408 195.388 31.5309C194.758 31.2886 194.189 30.9068 193.726 30.4138C193.262 29.8301 192.925 29.1549 192.737 28.4319C192.521 27.4595 192.421 26.4644 192.441 25.4681V2.775C192.438 2.68323 192.455 2.59191 192.489 2.50663C192.523 2.42135 192.573 2.34388 192.638 2.27898C192.703 2.21406 192.78 2.16305 192.865 2.12907C192.95 2.09508 193.041 2.07884 193.133 2.08132H194.238C194.33 2.07884 194.421 2.09508 194.505 2.12907C194.591 2.16305 194.668 2.21406 194.733 2.27898C194.798 2.34388 194.848 2.42135 194.882 2.50663C194.916 2.59191 194.933 2.68323 194.93 2.775V8.0271H199.126C199.217 8.02462 199.309 8.04087 199.394 8.07485C199.479 8.10883 199.556 8.15983 199.621 8.22475C199.685 8.28966 199.737 8.36713 199.771 8.45241C199.805 8.5377 199.82 8.629 199.818 8.72077V9.81084C199.82 9.90261 199.805 9.99392 199.771 10.0792C199.737 10.1645 199.685 10.2419 199.621 10.3069C199.556 10.3718 199.479 10.4227 199.394 10.4567C199.309 10.4907 199.217 10.507 199.126 10.5046H194.876V25.369C194.824 26.0987 194.891 26.832 195.074 27.54C195.229 27.9251 195.428 28.2908 195.667 28.6302C195.825 28.8784 196.073 29.056 196.359 29.1256C197.036 29.3065 197.743 29.3403 198.434 29.2247ZM217.726 10.4054C216.925 9.5188 215.949 8.80993 214.859 8.32439C213.043 7.52424 211.017 7.34295 209.089 7.80832C207.161 8.27369 205.438 9.36003 204.185 10.9008C203.268 11.979 202.566 13.2238 202.118 14.5674C201.591 16.0635 201.325 17.6386 201.328 19.2249V20.1259C201.326 21.7092 201.592 23.2813 202.118 24.7743C202.603 26.1216 203.341 27.3632 204.292 28.4319C205.208 29.4441 206.297 30.2832 207.509 30.9093C208.775 31.5105 210.16 31.8183 211.562 31.8103C212.427 31.8149 213.29 31.7151 214.131 31.5129C214.876 31.3088 215.604 31.0437 216.306 30.7201C216.956 30.4071 217.561 30.0071 218.103 29.531C218.623 29.0451 219.092 28.5079 219.505 27.9275C219.592 27.7651 219.619 27.5771 219.583 27.3962C219.547 27.2154 219.449 27.0528 219.307 26.9365L218.516 26.3509C218.366 26.2465 218.185 26.1992 218.004 26.2174C217.822 26.2355 217.653 26.318 217.528 26.45C217.148 26.9525 216.717 27.4143 216.243 27.8284C215.828 28.1658 215.36 28.4335 214.859 28.6211C214.394 28.8446 213.891 28.979 213.376 29.0175C211.772 29.3246 210.112 29.1166 208.632 28.4229C207.668 27.9652 206.823 27.2899 206.161 26.45C205.431 25.6031 204.861 24.6291 204.481 23.5763C204.081 22.4174 203.881 21.1989 203.888 19.9727V19.4772H219.603C219.695 19.4797 219.786 19.4635 219.871 19.4295C219.956 19.3955 220.034 19.3445 220.099 19.2796C220.162 19.2147 220.214 19.1372 220.248 19.0519C220.282 18.9667 220.297 18.8753 220.295 18.7836V17.5404C220.331 16.1537 220.097 14.7733 219.603 13.4774C219.17 12.347 218.533 11.3057 217.726 10.4054ZM213.97 10.7027C214.762 11.0839 215.468 11.6235 216.045 12.2882C216.609 13.0106 217.062 13.8119 217.393 14.6666C217.662 15.4681 217.828 16.3005 217.887 17.144H204.05C204.189 16.3272 204.421 15.5292 204.741 14.7657C205.128 13.8573 205.663 13.0199 206.323 12.2882C206.949 11.5662 207.724 10.991 208.596 10.6036C209.45 10.247 210.368 10.0717 211.294 10.0888C212.218 10.1059 213.13 10.3149 213.97 10.7027ZM238.06 20.8105C238.722 21.3325 239.242 22.0144 239.569 22.7924C239.859 23.5151 239.958 24.2998 239.857 25.0717C239.887 25.9926 239.69 26.9067 239.286 27.7342C238.882 28.5617 238.282 29.2775 237.539 29.8193C236.703 30.3683 235.796 30.8015 234.844 31.1075C233.754 31.4393 232.621 31.6062 231.483 31.603C230.214 31.6047 228.952 31.4381 227.727 31.1075C226.724 30.828 225.784 30.357 224.959 29.7202C224.201 29.1421 223.586 28.396 223.162 27.5401C222.767 26.7423 222.564 25.8631 222.57 24.9726C222.566 24.8808 222.583 24.7895 222.617 24.7043C222.651 24.619 222.701 24.5415 222.766 24.4766C222.831 24.4117 222.909 24.3607 222.994 24.3267C223.079 24.2927 223.169 24.2765 223.261 24.279H224.348C224.44 24.2765 224.531 24.2927 224.616 24.3267C224.701 24.3607 224.779 24.4117 224.844 24.4766C224.908 24.5415 224.959 24.619 224.993 24.7043C225.027 24.7895 225.042 24.8808 225.04 24.9726C225.086 25.6814 225.326 26.364 225.732 26.9455C226.13 27.4757 226.634 27.9149 227.215 28.2338C227.834 28.5673 228.501 28.8014 229.192 28.9275C230.833 29.2201 232.52 29.1524 234.134 28.7292C234.809 28.5018 235.442 28.1671 236.011 27.7383C236.476 27.4114 236.85 26.9711 237.098 26.459C237.365 26.0462 237.502 25.5632 237.494 25.0717C237.526 24.6328 237.458 24.1925 237.296 23.7835C237.062 23.3412 236.759 22.9397 236.398 22.5943C235.816 22.1315 235.187 21.7328 234.52 21.4052C233.505 20.959 232.444 20.6266 231.357 20.4141C230.072 20.1079 228.985 19.8106 227.997 19.5133C227.106 19.2261 226.271 18.7906 225.526 18.225C224.869 17.7191 224.329 17.0768 223.944 16.3422C223.61 15.525 223.442 14.6489 223.449 13.7657C223.447 12.9043 223.651 12.0549 224.043 11.2883C224.462 10.5197 225.034 9.84522 225.724 9.30638C226.456 8.72111 227.295 8.28365 228.195 8.01813C229.252 7.69368 230.35 7.52675 231.456 7.52266C232.626 7.51993 233.792 7.6868 234.915 8.01813C235.898 8.29454 236.814 8.76635 237.61 9.40548C238.392 9.9594 239.013 10.7119 239.407 11.5856C239.803 12.4917 240.005 13.4706 240.001 14.4594C240.003 14.5512 239.988 14.6425 239.954 14.7278C239.92 14.8131 239.868 14.8905 239.804 14.9555C239.739 15.0203 239.662 15.0714 239.576 15.1054C239.492 15.1393 239.4 15.1556 239.309 15.1531H238.221C238.13 15.1556 238.039 15.1393 237.955 15.1054C237.869 15.0714 237.792 15.0203 237.727 14.9555C237.662 14.8905 237.611 14.8131 237.577 14.7278C237.543 14.6425 237.527 14.5512 237.53 14.4594C237.552 13.8724 237.416 13.2903 237.134 12.7748C236.892 12.2291 236.519 11.7524 236.047 11.3874C235.478 10.9586 234.844 10.624 234.17 10.3965C233.302 10.1021 232.389 9.96775 231.473 10.0001C230.561 10.002 229.654 10.1355 228.778 10.3965C228.152 10.5521 227.574 10.8617 227.098 11.2974C226.736 11.6427 226.434 12.0443 226.2 12.4864C226.018 12.8925 225.917 13.3301 225.903 13.7747C225.913 14.2434 225.979 14.7093 226.101 15.1621C226.302 15.5382 226.57 15.8742 226.891 16.153C227.454 16.6162 228.088 16.9843 228.769 17.2431C229.869 17.6409 230.991 17.9718 232.13 18.2341C233.308 18.509 234.466 18.8735 235.589 19.3241C236.471 19.7155 237.3 20.2148 238.06 20.8105Z" fill="#80B341"/>
<path fill-rule="evenodd" clip-rule="evenodd" d="M133.416 12.2386C133.693 12.2714 133.974 12.2451 134.24 12.1614C134.507 12.0779 134.752 11.9388 134.961 11.7535C135.17 11.5681 135.337 11.3407 135.451 11.0863C135.565 10.8318 135.624 10.556 135.624 10.2771C135.624 9.99818 135.565 9.72234 135.451 9.46789C135.337 9.21349 135.17 8.98611 134.961 8.8008C134.752 8.61549 134.507 8.47644 134.24 8.39281C133.974 8.30919 133.693 8.28288 133.416 8.31563H129.144V3.99203C129.18 3.66175 129.145 3.32765 129.043 3.0115C128.941 2.69535 128.774 2.40422 128.552 2.15704C128.33 1.90986 128.058 1.71217 127.754 1.57685C127.45 1.44152 127.122 1.37158 126.789 1.37158C126.457 1.37158 126.128 1.44152 125.824 1.57685C125.521 1.71217 125.249 1.90986 125.027 2.15704C124.805 2.40422 124.637 2.69535 124.535 3.0115C124.434 3.32765 124.399 3.66175 124.435 3.99203V24.5085C124.435 29.2418 126.776 31.7904 131.193 31.7904C132.218 31.8143 133.238 31.6316 134.19 31.2533C134.565 31.0963 134.888 30.8356 135.12 30.5019C135.353 30.1682 135.485 29.7754 135.501 29.3691C135.512 29.1178 135.47 28.8671 135.378 28.6326C135.286 28.3983 135.148 28.1855 134.969 28.0076C134.792 27.8297 134.579 27.6906 134.344 27.599C134.11 27.5076 133.859 27.4657 133.608 27.4759C133.319 27.4901 133.035 27.5391 132.761 27.6216C132.44 27.7158 132.11 27.7648 131.776 27.7671C129.955 27.7671 129.144 26.593 129.144 24.0716V12.2386H133.416ZM103.431 10.072C105.768 8.46087 108.553 7.62643 111.392 7.68729C117.44 7.68729 121.083 11.0824 121.083 16.7531V29.3234C121.123 29.6294 121.096 29.9403 121.004 30.2349C120.912 30.5294 120.757 30.8006 120.55 31.0297C120.343 31.2589 120.09 31.4406 119.806 31.5624C119.521 31.6842 119.216 31.7433 118.907 31.7355C118.593 31.7442 118.281 31.6852 117.992 31.5628C117.703 31.4404 117.444 31.2572 117.232 31.0257C117.02 30.7943 116.861 30.52 116.765 30.2217C116.669 29.9232 116.638 29.6075 116.675 29.2961V28.0946C115.823 29.3386 114.667 30.3445 113.317 31.0167C111.966 31.689 110.466 32.0053 108.96 31.9358C104.779 31.9358 100.561 29.733 100.561 24.7995C100.561 17.9455 108.577 16.9806 116.456 16.9806V16.4709C116.456 13.3852 114.443 11.5648 110.936 11.5648C109.018 11.5914 107.154 12.2079 105.598 13.3306C105.187 13.633 104.696 13.8072 104.187 13.8312C103.941 13.8314 103.698 13.7821 103.472 13.6861C103.245 13.59 103.042 13.4494 102.871 13.2725C102.701 13.0958 102.569 12.8864 102.482 12.657C102.394 12.4277 102.355 12.1831 102.364 11.938C102.363 11.561 102.461 11.1903 102.648 10.8629C102.835 10.5355 103.105 10.263 103.431 10.072ZM116.529 20.4759H115.49C111.173 20.4759 105.434 20.9128 105.489 24.6994C105.489 27.9034 108.968 28.1582 110.044 28.1582C113.988 28.1582 116.529 25.5732 116.529 21.5682V20.4759ZM63.1311 8.82165C64.4433 8.0644 65.9347 7.67269 67.4498 7.68735C73.8168 7.68735 76.0849 12.5479 76.1031 17.0899V29.1323C76.1389 29.465 76.1042 29.8016 76.0013 30.1201C75.8984 30.4386 75.7295 30.7318 75.5057 30.9808C75.2818 31.2298 75.0081 31.4288 74.7023 31.5652C74.3964 31.7015 74.0651 31.7719 73.7303 31.7719C73.3954 31.7719 73.0642 31.7015 72.7583 31.5652C72.4525 31.4288 72.1787 31.2298 71.9549 30.9808C71.7311 30.7318 71.5623 30.4386 71.4593 30.1201C71.3564 29.8016 71.3217 29.465 71.3574 29.1323V18.5828C71.3574 13.9587 69.7907 11.7105 66.2565 11.7105C62.7223 11.7105 60.2539 14.7598 60.2539 19.1198V29.1323C60.2827 29.4618 60.2427 29.7936 60.1364 30.1068C60.03 30.42 59.8596 30.7076 59.6361 30.9515C59.4125 31.1954 59.1406 31.3901 58.8377 31.5233C58.5348 31.6565 58.2074 31.7252 57.8764 31.7252C57.5455 31.7252 57.2181 31.6565 56.9152 31.5233C56.6123 31.3901 56.3404 31.1954 56.1168 30.9515C55.8933 30.7076 55.7229 30.42 55.6165 30.1068C55.5102 29.7936 55.4702 29.4618 55.499 29.1323V10.4453C55.4568 10.1271 55.4841 9.80344 55.5791 9.49681C55.674 9.19019 55.8344 8.90774 56.0491 8.66896C56.2638 8.43018 56.5278 8.24074 56.8228 8.11371C57.1178 7.98668 57.4369 7.92507 57.758 7.93311C58.1679 7.93311 59.9897 8.05145 59.9897 10.4453V11.9926C60.7341 10.6739 61.819 9.57884 63.1311 8.82165ZM29.5938 19.8845C29.5938 12.8211 34.6036 7.68745 41.5081 7.68745C47.5199 7.68745 51.6188 11.3101 52.4569 17.3631C52.5338 17.8629 52.5674 18.3685 52.5571 18.8741C52.5571 20.5034 51.7281 21.2953 50.0339 21.2953H34.4579C34.5791 23.1351 35.4029 24.858 36.759 26.1082C38.1152 27.3583 39.9 28.0402 41.7449 28.0128C42.8264 28.0224 43.8987 27.8117 44.8961 27.394C45.8937 26.9762 46.7957 26.3598 47.5472 25.5825C47.7607 25.3519 48.018 25.1664 48.3043 25.0366C48.5906 24.9069 48.8999 24.8356 49.2141 24.827C49.4815 24.8144 49.7487 24.857 49.9989 24.9521C50.2491 25.0473 50.477 25.1929 50.6685 25.3799C50.8599 25.5669 51.0107 25.7914 51.1116 26.0392C51.2124 26.287 51.261 26.553 51.2544 26.8204C51.2277 27.4658 50.9576 28.077 50.4984 28.5316C49.3614 29.6863 47.9953 30.5906 46.4877 31.1863C44.9802 31.7819 43.3646 32.0559 41.7449 31.9905C34.5489 31.9905 29.5938 26.9479 29.5938 19.8845ZM47.8022 17.709C47.6565 13.8587 45.2518 11.4739 41.5081 11.4739C39.7634 11.4395 38.0694 12.0613 36.7619 13.2161C35.4544 14.371 34.6289 15.9745 34.4487 17.709H47.8022ZM97.5817 7.93336C97.0328 7.94217 96.5024 8.1329 96.0738 8.47557C95.645 8.81825 95.3424 9.29348 95.2133 9.82658L88.7096 26.2108L82.2606 9.82658C82.1239 9.28905 81.813 8.81179 81.3763 8.4693C80.9397 8.12682 80.4019 7.93837 79.8468 7.93336C79.2299 7.92115 78.6333 8.15379 78.1876 8.58032C77.7421 9.00686 77.4838 9.59248 77.4694 10.2089C77.4729 10.6712 77.5754 11.1274 77.77 11.5468L85.2393 29.178C86.1501 31.2989 87.5894 31.7449 88.6641 31.7449C89.739 31.7449 91.1964 31.2989 92.089 29.178L99.6129 11.4558C99.7923 11.0446 99.8913 10.6027 99.9044 10.1543C99.9047 9.85396 99.8441 9.55673 99.7262 9.28062C99.6082 9.00442 99.4355 8.75498 99.2184 8.54737C99.0013 8.33978 98.7443 8.17833 98.463 8.0728C98.1816 7.96726 97.8818 7.91983 97.5817 7.93336ZM136.723 19.7844C136.723 12.7755 141.942 7.68745 149.12 7.68745C156.334 7.68745 161.572 12.7755 161.572 19.7844C161.592 21.413 161.282 23.029 160.66 24.5349C160.04 26.0406 159.119 27.405 157.956 28.5457C156.791 29.6863 155.409 30.5796 153.891 31.1717C152.372 31.7638 150.749 32.0423 149.12 31.9905C145.838 32.0441 142.665 30.8088 140.285 28.5499C139.132 27.4028 138.223 26.0354 137.611 24.5295C136.998 23.0234 136.697 21.4095 136.723 19.7844ZM141.624 19.7662C141.624 23.8531 144.192 27.9582 149.12 27.9582C152.737 27.9582 156.608 25.364 156.608 19.7844C156.608 14.2046 152.727 11.6468 149.12 11.6468C145.513 11.6468 141.624 14.1864 141.624 19.7662Z" fill="#141614"/>
<path d="M21.4686 5.53036C17.652 1.06113 5.3005 9.72649 5.4007 20.8769C5.39836 21.0138 5.3429 21.1443 5.24604 21.2411C5.14917 21.338 5.01846 21.3933 4.8815 21.3957C4.79153 21.3947 4.70333 21.3708 4.62522 21.3262C4.54711 21.2815 4.48169 21.2178 4.43517 21.1408C3.71316 19.5802 3.34016 17.8812 3.34211 16.1618C3.34119 14.8685 3.55038 13.5835 3.96151 12.3571C3.99731 12.2514 3.99538 12.1367 3.95605 12.0323C3.91672 11.928 3.84241 11.8405 3.74577 11.7847C3.64913 11.7289 3.53614 11.7082 3.426 11.7263C3.31588 11.7444 3.21542 11.8001 3.14172 11.8838C1.57436 13.5932 0.538403 15.7213 0.160081 18.0087C-0.218242 20.2962 0.0774024 22.6442 1.01099 24.7666C1.94458 26.8891 3.4758 28.6944 5.41808 29.9626C7.36035 31.2307 9.62981 31.907 11.95 31.9088C28.7648 31.572 24.8753 9.51718 21.4686 5.53036Z" fill="#80B341"/>
</g>
</svg>
