<svg viewBox="0 0 258 32" fill="none" xmlns="http://www.w3.org/2000/svg">
<g id="logo">
<path fill-rule="evenodd" clip-rule="evenodd" d="M219.324 10.9502C220.234 10.9275 221.139 11.0779 221.993 11.3931C222.682 11.6589 223.318 12.0439 223.874 12.5308C223.951 12.6001 224.026 12.6711 224.099 12.7441C224.201 12.8464 224.3 12.9526 224.396 13.0623C224.673 13.3794 224.915 13.7251 225.121 14.0938C225.422 14.627 225.677 15.1848 225.884 15.761V25.4868C225.814 25.6592 225.737 25.8286 225.654 25.9951C225.471 26.3633 225.258 26.7163 225.018 27.05C224.638 27.5615 224.175 28.0049 223.648 28.3613C223.068 28.748 222.43 29.0413 221.759 29.2295C221.521 29.2954 221.282 29.3513 221.04 29.3972C220.811 29.4407 220.581 29.4749 220.35 29.5C220.007 29.5371 219.662 29.5542 219.316 29.551C218.401 29.5835 217.494 29.3735 216.685 28.9419C215.877 28.5105 215.198 27.8728 214.715 27.0935C214.159 26.2041 213.761 25.2261 213.536 24.2017C213.327 23.2798 213.198 22.3423 213.15 21.3994C213.133 21.0806 213.126 20.7612 213.129 20.4417V20.0249C213.12 18.76 213.256 17.498 213.536 16.2646C213.76 15.2454 214.158 14.2727 214.715 13.3904C215.201 12.6394 215.861 12.0168 216.638 11.5754C216.989 11.3896 217.357 11.2434 217.738 11.1382C218.26 10.9934 218.804 10.9265 219.35 10.9417L219.324 10.9502ZM227.599 0H226.543C226.365 0 226.196 0.0705566 226.07 0.195801C225.945 0.321289 225.875 0.491211 225.875 0.668701V11.3149C225.371 10.739 224.788 10.2388 224.142 9.83008C223.84 9.64429 223.528 9.47778 223.206 9.33154C222.808 9.15088 222.397 9.00098 221.975 8.88354C221.13 8.64771 220.254 8.53076 219.377 8.53613C218.867 8.52881 218.359 8.56982 217.86 8.65771C217.114 8.78906 216.387 9.02515 215.702 9.36108C214.608 9.91089 213.66 10.7146 212.938 11.7058C212.16 12.8005 211.593 14.0317 211.266 15.3354C211.103 15.9705 210.974 16.6133 210.881 17.261C210.751 18.178 210.69 19.105 210.703 20.0334V20.4502C210.684 22.0056 210.873 23.5566 211.266 25.0613C211.578 26.3608 212.121 27.5933 212.869 28.7C213.586 29.7319 214.547 30.5701 215.666 31.1396C216.785 31.7095 218.026 31.9929 219.281 31.9651C220.157 31.9731 221.031 31.8679 221.881 31.6523C222.021 31.6167 222.16 31.5776 222.298 31.5354C222.399 31.5044 222.5 31.4717 222.6 31.4373C222.794 31.3706 222.985 31.2974 223.173 31.218C223.477 31.0896 223.774 30.9448 224.064 30.7839C224.698 30.4299 225.281 29.9917 225.797 29.4814L225.849 29.4294V30.8882C225.848 30.9763 225.864 31.0637 225.897 31.1455C225.931 31.2271 225.979 31.3013 226.042 31.3635C226.104 31.426 226.178 31.4751 226.259 31.5083C226.297 31.5237 226.336 31.5356 226.376 31.5437C226.423 31.5532 226.469 31.5576 226.516 31.5569H227.599C227.622 31.5571 227.645 31.5562 227.667 31.5542L227.723 31.5469C227.768 31.5391 227.813 31.5261 227.857 31.5085C227.939 31.4753 228.014 31.4263 228.076 31.364C228.14 31.302 228.189 31.2278 228.223 31.146C228.258 31.0645 228.275 30.9768 228.275 30.8882V0.668701C228.274 0.576904 228.255 0.487305 228.219 0.404785C228.202 0.366699 228.182 0.330078 228.157 0.29541C228.133 0.259766 228.106 0.226318 228.074 0.195312C227.948 0.0700684 227.777 0 227.599 0ZM187.794 29.4648C187.653 29.4817 187.516 29.4961 187.387 29.5073C186.702 29.5996 186.006 29.5674 185.333 29.4119C185.059 29.3306 184.812 29.1741 184.622 28.9602C184.36 28.6448 184.173 28.2734 184.077 27.8748L184.027 27.6746C184.005 27.5759 183.984 27.4768 183.966 27.3774C183.934 27.2114 183.909 27.0444 183.89 26.8767C183.866 26.6755 183.851 26.4734 183.844 26.271C183.84 26.1746 183.839 26.0779 183.84 25.9812L183.843 25.7993V11.3582H188.002C188.103 11.3582 188.202 11.335 188.293 11.2917C188.36 11.2598 188.423 11.2163 188.476 11.1628C188.603 11.0378 188.675 10.8677 188.678 10.6895V9.604C188.678 9.51562 188.66 9.42798 188.626 9.34619L188.603 9.29443L188.572 9.24243C188.559 9.22192 188.544 9.20215 188.529 9.18311L188.502 9.15259L188.479 9.12817L188.438 9.09155C188.414 9.07104 188.388 9.05249 188.361 9.03564C188.329 9.01562 188.295 8.99829 188.26 8.98389C188.216 8.96606 188.17 8.95312 188.123 8.94507C188.083 8.93823 188.043 8.93506 188.002 8.93555H183.843V3.85547C183.843 3.67798 183.773 3.50806 183.647 3.38257C183.522 3.25732 183.353 3.18677 183.175 3.18677H182.092C181.916 3.18896 181.748 3.26025 181.623 3.38501C181.498 3.51001 181.427 3.67871 181.425 3.85547V8.93555H178.211C178.123 8.93433 178.035 8.95068 177.953 8.98389C177.932 8.99243 177.912 9.00195 177.893 9.0127L177.859 9.03174C177.814 9.05908 177.773 9.09155 177.736 9.12866C177.674 9.19092 177.625 9.26514 177.592 9.34692C177.559 9.42847 177.542 9.51587 177.543 9.604V10.6895C177.543 10.8669 177.613 11.0369 177.739 11.1624C177.771 11.1946 177.805 11.2229 177.843 11.2476C177.864 11.2612 177.885 11.2739 177.907 11.2852C177.931 11.2969 177.954 11.3074 177.979 11.3164L178.039 11.3357C178.095 11.3506 178.152 11.3582 178.211 11.3582H181.468V25.7993C181.463 26.0134 181.465 26.2275 181.473 26.4412C181.501 27.1824 181.607 27.9189 181.789 28.6389C181.969 29.3574 182.31 30.0256 182.785 30.5928C183.231 31.1001 183.806 31.4756 184.449 31.6782C185.107 31.8772 185.79 31.9739 186.477 31.9648H186.988H187.637L187.767 31.9644C187.846 31.9631 187.925 31.9597 188.003 31.9507C188.096 31.9399 188.188 31.9207 188.278 31.8867C188.501 31.864 188.719 31.8145 188.928 31.739C188.982 31.7192 189.032 31.6929 189.078 31.6606L189.115 31.6323L189.149 31.6042L189.181 31.572C189.218 31.5334 189.25 31.4902 189.276 31.4431C189.354 31.3064 189.381 31.147 189.353 30.9922L189.18 29.9849C189.15 29.8132 189.055 29.6602 188.914 29.5579C188.817 29.4878 188.704 29.4456 188.588 29.4341L188.527 29.4309L188.467 29.4329L188.426 29.4377L188.383 29.3857C188.18 29.4155 187.983 29.4424 187.794 29.4648ZM174.934 21.2578C174.202 20.6733 173.383 20.2048 172.509 19.8684C172.203 19.749 171.895 19.6362 171.584 19.53C171.468 19.4902 171.351 19.4514 171.234 19.4133L171.061 19.3584C170.428 19.1589 169.787 18.9873 169.139 18.8438C168.042 18.6116 166.966 18.2891 165.924 17.8799C165.756 17.8162 165.591 17.7456 165.429 17.6685C165.293 17.6038 165.16 17.5342 165.028 17.4602C164.716 17.2837 164.418 17.0813 164.139 16.855C163.926 16.6895 163.746 16.488 163.606 16.261C163.529 16.1362 163.463 16.0037 163.411 15.8652C163.342 15.6333 163.29 15.3965 163.259 15.1572C163.231 14.9546 163.219 14.75 163.22 14.5452C163.223 14.3274 163.249 14.1111 163.3 13.9004C163.322 13.8079 163.348 13.7166 163.38 13.6265C163.417 13.5225 163.459 13.4204 163.506 13.3208C163.705 12.8784 164.001 12.4866 164.373 12.1746C164.877 11.7688 165.457 11.4678 166.08 11.2888C167.753 10.8083 169.527 10.8083 171.2 11.2888C171.864 11.5007 172.481 11.8367 173.02 12.2788C173.252 12.4695 173.46 12.6846 173.644 12.9199C173.823 13.1487 173.977 13.3965 174.103 13.6594C174.346 14.1572 174.473 14.7034 174.475 15.2573C174.474 15.3457 174.489 15.4338 174.521 15.5159L174.546 15.5691L174.561 15.5986C174.568 15.6106 174.575 15.6223 174.584 15.6338L174.601 15.6594L174.635 15.7029L174.666 15.7354C174.728 15.7981 174.803 15.8472 174.885 15.8799C174.94 15.9021 174.999 15.9163 175.058 15.9226L175.102 15.9258L175.143 15.926H176.226C176.284 15.926 176.342 15.9185 176.397 15.9038C176.509 15.8738 176.613 15.8142 176.698 15.73C176.823 15.6047 176.893 15.4346 176.893 15.2573C176.901 14.3057 176.703 13.3635 176.312 12.4958C176.054 11.9397 175.714 11.4277 175.304 10.9763C175.094 10.7456 174.866 10.5305 174.623 10.3335C173.848 9.72388 172.967 9.2644 172.024 8.979C170.925 8.64966 169.783 8.48853 168.636 8.50122C167.555 8.48779 166.479 8.64307 165.447 8.96143C165.121 9.06006 164.802 9.18066 164.494 9.32227C163.965 9.56494 163.464 9.86914 163.003 10.2295C162.328 10.7446 161.775 11.4028 161.383 12.1572C161.011 12.9009 160.818 13.7219 160.82 14.554C160.799 15.4248 160.977 16.2891 161.34 17.0808C161.699 17.8174 162.231 18.4553 162.89 18.9392C163.466 19.3564 164.09 19.7036 164.747 19.9739C164.937 20.0522 165.13 20.1243 165.326 20.1897C166.375 20.5476 167.446 20.8376 168.531 21.0581C169.147 21.1826 169.754 21.3459 170.348 21.5471C170.775 21.6919 171.195 21.856 171.608 22.0393C172.268 22.3372 172.879 22.7356 173.418 23.2202C173.746 23.5029 174.012 23.8477 174.204 24.2339L174.238 24.3035L174.285 24.4099C174.357 24.5974 174.411 24.79 174.45 24.9858C174.493 25.2048 174.516 25.4277 174.519 25.6519C174.514 26.1208 174.399 26.582 174.181 26.9978C174.018 27.3054 173.816 27.5889 173.579 27.8408C173.534 27.8887 173.487 27.9353 173.44 27.981C173.345 28.072 173.246 28.1582 173.141 28.2395C172.586 28.6736 171.955 28.9978 171.278 29.1948C169.718 29.6255 168.078 29.676 166.495 29.3423C166.132 29.2739 165.776 29.176 165.429 29.0496C165.3 29.0024 165.173 28.9514 165.047 28.8965C164.873 28.821 164.704 28.738 164.537 28.6477C164.443 28.5942 164.35 28.5376 164.26 28.4778C164.145 28.4006 164.032 28.3184 163.924 28.231C163.623 27.9871 163.354 27.7041 163.124 27.3884C162.738 26.8086 162.522 26.1316 162.501 25.4346C162.488 25.2642 162.411 25.105 162.285 24.989C162.202 24.9128 162.104 24.8591 161.998 24.8313C161.942 24.8167 161.884 24.8091 161.825 24.8093H160.768C160.738 24.8093 160.708 24.8115 160.677 24.8157L160.633 24.8232C160.591 24.8318 160.55 24.8445 160.511 24.8611C160.429 24.8953 160.355 24.9453 160.293 25.0083C160.261 25.0405 160.233 25.0757 160.209 25.1133C160.2 25.127 160.191 25.1411 160.184 25.1553L160.176 25.1711L160.167 25.1882L160.149 25.2283C160.116 25.3103 160.1 25.3982 160.101 25.4868C160.099 26.3635 160.3 27.2285 160.69 28.0137C161.103 28.8303 161.696 29.543 162.423 30.0979C163.235 30.7183 164.154 31.1836 165.135 31.47C166.305 31.8157 167.52 31.9824 168.74 31.9648C169.078 31.9688 169.416 31.9575 169.752 31.9314C170.52 31.8721 171.281 31.7349 172.024 31.522C172.959 31.2646 173.84 30.8379 174.623 30.2629C174.966 30.0049 175.278 29.7109 175.556 29.387C175.79 29.1135 176 28.8184 176.181 28.5054C176.227 28.4265 176.27 28.3467 176.312 28.2656C176.709 27.4705 176.911 26.5925 176.902 25.7039C176.916 24.8499 176.758 24.002 176.434 23.2117C176.308 22.9241 176.157 22.6494 175.984 22.3906C175.874 22.2273 175.755 22.0703 175.628 21.9204C175.425 21.6802 175.199 21.4583 174.952 21.2578H174.934ZM207.194 8.93555H207.213L207.265 8.93848C207.289 8.94092 207.312 8.94434 207.334 8.94897C207.374 8.95703 207.413 8.96875 207.451 8.98413L207.487 9.00024L207.539 9.02734C207.586 9.05542 207.63 9.0896 207.669 9.12891C207.731 9.19116 207.78 9.26538 207.813 9.34692C207.846 9.42871 207.863 9.51611 207.862 9.60425V30.897C207.863 30.9851 207.846 31.0725 207.813 31.1541C207.78 31.2358 207.731 31.3101 207.669 31.3723C207.606 31.4346 207.532 31.4839 207.451 31.5171C207.419 31.5303 207.385 31.5408 207.351 31.5486L207.294 31.5593C207.26 31.564 207.227 31.5659 207.194 31.5654H206.112C205.934 31.5654 205.765 31.4951 205.64 31.3696C205.514 31.2444 205.444 31.0742 205.444 30.897V29.4988C205.215 29.7319 204.973 29.9509 204.719 30.1545C204.401 30.4092 204.064 30.6399 203.711 30.8447C202.197 31.6353 200.505 32.021 198.798 31.9651C197.753 31.9758 196.713 31.8113 195.722 31.4788C194.78 31.1628 193.931 30.6167 193.253 29.8896C192.537 29.0872 192.002 28.1392 191.684 27.1108C191.293 25.8193 191.109 24.4741 191.138 23.125V9.60425C191.138 9.51562 191.156 9.42798 191.19 9.34644C191.224 9.26465 191.274 9.19067 191.337 9.12842C191.399 9.06616 191.475 9.01709 191.556 8.98389C191.591 8.96973 191.628 8.9585 191.665 8.95068C191.714 8.94019 191.764 8.93506 191.815 8.93555H192.872L192.93 8.93726L192.963 8.94067C193.02 8.948 193.076 8.96265 193.128 8.98413C193.153 8.9939 193.176 9.00537 193.199 9.01807C193.222 9.03027 193.243 9.04395 193.264 9.05884L193.283 9.07349C193.305 9.09058 193.326 9.10913 193.345 9.12891C193.375 9.1582 193.401 9.19019 193.424 9.22461C193.451 9.26294 193.473 9.30396 193.491 9.34692C193.524 9.42871 193.539 9.51611 193.538 9.60425V23.1597C193.515 24.2051 193.652 25.2478 193.946 26.251C194.065 26.6357 194.226 27.0046 194.427 27.3511C194.522 27.5129 194.624 27.6699 194.735 27.8213C194.828 27.9473 194.926 28.0696 195.029 28.1875C195.468 28.6582 196.015 29.0129 196.623 29.2209C196.812 29.2842 197.003 29.3386 197.195 29.3843C197.355 29.4221 197.517 29.4541 197.679 29.4797C198.037 29.5366 198.4 29.5635 198.763 29.5596C199.727 29.5801 200.688 29.4392 201.606 29.1428C202.33 28.9062 203.003 28.5349 203.59 28.0486C204.101 27.6096 204.52 27.0723 204.82 26.4683C205.128 25.8503 205.35 25.1929 205.479 24.5144V9.60425C205.479 9.427 205.549 9.25684 205.674 9.13135C205.8 9.0061 205.969 8.93555 206.146 8.93555H207.194ZM231.556 2.30713C231.643 2.09399 231.77 1.90015 231.932 1.73682C232.006 1.65845 232.087 1.58716 232.174 1.52417C232.202 1.50366 232.23 1.48389 232.26 1.46509L232.337 1.41772C232.389 1.38892 232.442 1.36255 232.495 1.33887C232.707 1.24536 232.936 1.19556 233.168 1.19238C233.4 1.18896 233.631 1.23242 233.845 1.32007C234 1.38306 234.144 1.46777 234.274 1.57104C234.324 1.61182 234.373 1.65552 234.419 1.7019C234.585 1.86499 234.716 2.05957 234.806 2.27441C234.894 2.48926 234.94 2.71973 234.938 2.95239C234.94 3.1853 234.894 3.41577 234.806 3.63062C234.716 3.84546 234.585 4.04004 234.419 4.20288C234.255 4.36597 234.06 4.49463 233.846 4.58105C233.632 4.66748 233.402 4.71021 233.171 4.70654C232.941 4.70801 232.713 4.66333 232.5 4.57544C232.288 4.4873 232.094 4.35791 231.932 4.19434C231.769 4.03027 231.643 3.83691 231.557 3.62695C231.474 3.42285 231.43 3.20288 231.429 2.97852C231.428 2.88501 231.435 2.79175 231.449 2.69971C231.469 2.56543 231.505 2.43359 231.556 2.30713ZM233.736 8.93555H232.679C232.591 8.93433 232.503 8.95093 232.421 8.98413C232.34 9.01733 232.266 9.06641 232.204 9.12891C232.142 9.19116 232.093 9.26538 232.06 9.34692C232.045 9.3833 232.033 9.42065 232.026 9.45898C232.015 9.50659 232.01 9.55542 232.011 9.60425V30.897C232.01 30.9851 232.027 31.0725 232.06 31.1541C232.093 31.2358 232.142 31.3101 232.204 31.3723C232.266 31.4346 232.34 31.4839 232.421 31.5171C232.459 31.5325 232.498 31.5442 232.538 31.5522C232.585 31.5618 232.632 31.5662 232.679 31.5654H233.736C233.793 31.5662 233.851 31.5596 233.906 31.5457C233.936 31.5383 233.965 31.5288 233.993 31.5171C234.075 31.4841 234.15 31.4351 234.213 31.3728C234.276 31.3105 234.325 31.2366 234.359 31.1548C234.394 31.073 234.411 30.9854 234.411 30.897V9.60425C234.411 9.56128 234.407 9.51855 234.398 9.47656C234.39 9.43213 234.377 9.38843 234.359 9.34644C234.341 9.30176 234.318 9.25952 234.29 9.22021C234.267 9.1875 234.242 9.15674 234.213 9.12842C234.15 9.06616 234.075 9.01709 233.993 8.98389C233.911 8.95093 233.823 8.93457 233.736 8.93555ZM243.924 28.8127C244.915 29.3013 246.009 29.5454 247.113 29.5249V29.5422C248.208 29.5591 249.291 29.3181 250.276 28.8389C251.185 28.373 251.986 27.719 252.624 26.9197C253.28 26.1001 253.788 25.1714 254.123 24.1758C254.475 23.0664 254.653 21.9094 254.651 20.7456V19.8772C254.652 18.7305 254.474 17.5908 254.123 16.4993C253.809 15.4346 253.298 14.4387 252.615 13.5642C251.972 12.752 251.163 12.0884 250.241 11.6189C249.254 11.1387 248.171 10.8894 247.074 10.8894C246.429 10.8894 245.789 10.9756 245.17 11.144C244.736 11.2622 244.313 11.4209 243.907 11.6189C242.989 12.0911 242.183 12.7544 241.542 13.5642C240.875 14.4126 240.368 15.3745 240.042 16.4038C239.837 17.0447 239.691 17.7024 239.605 18.3682C239.544 18.8362 239.514 19.3083 239.514 19.7817V20.6501C239.512 21.814 239.691 22.9709 240.042 24.0801C240.367 25.1113 240.878 26.0737 241.55 26.9197C241.916 27.3713 242.336 27.7747 242.799 28.1218C243.151 28.386 243.527 28.6174 243.924 28.8127ZM254.314 11.7319C255.208 12.7844 255.893 13.9988 256.333 15.3096L256.341 15.2922C256.832 16.7432 257.075 18.2668 257.06 19.7991V20.6675C257.074 22.2017 256.834 23.7275 256.35 25.1831C255.912 26.4988 255.223 27.7168 254.323 28.7695C253.448 29.7734 252.37 30.5786 251.16 31.1313C249.89 31.7124 248.509 32.0088 247.113 31.9998C246.638 32.0027 246.166 31.9712 245.699 31.9055C244.78 31.7766 243.882 31.5166 243.032 31.1313C241.821 30.5764 240.74 29.7717 239.86 28.7695C238.964 27.7173 238.275 26.5029 237.833 25.1917C237.342 23.7407 237.099 22.217 237.114 20.6848V19.8164C237.099 18.2842 237.342 16.7607 237.833 15.3096C238.275 13.9983 238.964 12.7839 239.86 11.7319C240.737 10.7297 241.815 9.9248 243.023 9.36987C244.293 8.78882 245.674 8.49243 247.07 8.50146C248.477 8.49146 249.87 8.78784 251.151 9.36987C252.362 9.92114 253.44 10.7266 254.314 11.7319Z" fill="#80B341"/>
<path fill-rule="evenodd" clip-rule="evenodd" d="M129.203 12.8463C129.472 12.878 129.744 12.8526 130.001 12.7716C130.259 12.6907 130.497 12.5561 130.699 12.3767C130.901 12.1973 131.063 11.9772 131.173 11.7309C131.284 11.4846 131.341 11.2176 131.341 10.9476C131.341 10.6776 131.284 10.4106 131.173 10.1643C131.063 9.91805 130.901 9.69796 130.699 9.51859C130.497 9.33921 130.259 9.20462 130.001 9.12367C129.744 9.04273 129.472 9.01726 129.203 9.04896H125.068V4.86388C125.103 4.54418 125.069 4.22079 124.971 3.91477C124.872 3.60875 124.71 3.32694 124.495 3.08768C124.28 2.84842 124.017 2.65707 123.723 2.52608C123.429 2.39509 123.111 2.32739 122.789 2.32739C122.467 2.32739 122.149 2.39509 121.855 2.52608C121.561 2.65707 121.298 2.84842 121.083 3.08768C120.868 3.32694 120.706 3.60875 120.607 3.91477C120.509 4.22079 120.475 4.54418 120.51 4.86388V24.7231C120.51 29.3047 122.776 31.7717 127.052 31.7717C128.044 31.7948 129.031 31.618 129.953 31.2518C130.316 31.0998 130.628 30.8475 130.853 30.5245C131.078 30.2015 131.206 29.8212 131.222 29.428C131.232 29.1847 131.192 28.942 131.103 28.7151C131.014 28.4883 130.88 28.2823 130.707 28.1101C130.535 27.9379 130.329 27.8032 130.102 27.7146C129.875 27.6261 129.632 27.5855 129.389 27.5954C129.11 27.6092 128.835 27.6566 128.569 27.7364C128.259 27.8276 127.939 27.8751 127.616 27.8773C125.853 27.8773 125.068 26.7408 125.068 24.3002V12.8463H129.203ZM100.179 10.7491C102.441 9.18955 105.137 8.38184 107.885 8.44075C113.739 8.44075 117.266 11.7271 117.266 17.2162V29.3837C117.304 29.6799 117.278 29.9809 117.189 30.266C117.1 30.5511 116.95 30.8136 116.75 31.0354C116.549 31.2572 116.304 31.4331 116.029 31.551C115.754 31.6689 115.458 31.7261 115.159 31.7185C114.855 31.727 114.553 31.6699 114.274 31.5514C113.994 31.4329 113.743 31.2556 113.538 31.0315C113.333 30.8075 113.179 30.542 113.086 30.2532C112.993 29.9643 112.963 29.6587 112.999 29.3573V28.1943C112.174 29.3984 111.055 30.3721 109.748 31.0228C108.441 31.6735 106.989 31.9797 105.531 31.9124C101.484 31.9124 97.4014 29.7802 97.4014 25.0048C97.4014 18.3704 105.16 17.4364 112.787 17.4364V16.943C112.787 13.9562 110.838 12.1941 107.444 12.1941C105.587 12.2198 103.783 12.8166 102.277 13.9033C101.879 14.196 101.404 14.3646 100.911 14.3879C100.673 14.3881 100.438 14.3403 100.219 14.2474C100 14.1544 99.8027 14.0183 99.638 13.8471C99.4733 13.676 99.3449 13.4733 99.2606 13.2513C99.1762 13.0293 99.1376 12.7926 99.1471 12.5553C99.1462 12.1904 99.2409 11.8316 99.4219 11.5147C99.6029 11.1978 99.8638 10.9339 100.179 10.7491ZM112.857 20.8197H111.852C107.673 20.8197 102.118 21.2426 102.171 24.9079C102.171 28.0092 105.539 28.2559 106.58 28.2559C110.398 28.2559 112.857 25.7537 112.857 21.877V20.8197ZM61.1709 9.53877C62.441 8.80578 63.8846 8.42662 65.3512 8.44081C71.5142 8.44081 73.7096 13.1457 73.7273 17.5422V29.1987C73.7619 29.5208 73.7283 29.8466 73.6287 30.1549C73.5291 30.4632 73.3656 30.747 73.149 30.988C72.9323 31.229 72.6673 31.4217 72.3713 31.5537C72.0752 31.6856 71.7546 31.7538 71.4305 31.7538C71.1063 31.7538 70.7857 31.6856 70.4896 31.5537C70.1936 31.4217 69.9286 31.229 69.712 30.988C69.4953 30.747 69.3319 30.4632 69.2322 30.1549C69.1326 29.8466 69.099 29.5208 69.1336 29.1987V18.9872C69.1336 14.5113 67.6171 12.3351 64.1961 12.3351C60.7752 12.3351 58.3858 15.2867 58.3858 19.507V29.1987C58.4137 29.5177 58.375 29.8389 58.2721 30.142C58.1691 30.4452 58.0042 30.7236 57.7878 30.9597C57.5714 31.1957 57.3082 31.3842 57.015 31.5131C56.7218 31.6421 56.4049 31.7086 56.0845 31.7086C55.7642 31.7086 55.4473 31.6421 55.1541 31.5131C54.8609 31.3842 54.5977 31.1957 54.3813 30.9597C54.1649 30.7236 54 30.4452 53.897 30.142C53.7941 29.8389 53.7554 29.5177 53.7833 29.1987V11.1104C53.7424 10.8024 53.7689 10.4891 53.8608 10.1923C53.9527 9.8955 54.1079 9.6221 54.3158 9.39097C54.5236 9.15984 54.7791 8.97647 55.0647 8.85351C55.3502 8.73055 55.6591 8.67091 55.9699 8.6787C56.3667 8.6787 58.1301 8.79324 58.1301 11.1104V12.6082C58.8507 11.3317 59.9008 10.2717 61.1709 9.53877ZM28.708 20.2472C28.708 13.4101 33.5573 8.44091 40.2406 8.44091C46.0598 8.44091 50.0274 11.9475 50.8386 17.8066C50.9131 18.2904 50.9456 18.7798 50.9356 19.2692C50.9356 20.8463 50.1332 21.6128 48.4933 21.6128H33.4163C33.5336 23.3937 34.331 25.0614 35.6437 26.2715C36.9564 27.4816 38.6841 28.1416 40.4698 28.1151C41.5167 28.1244 42.5546 27.9205 43.5201 27.5161C44.4857 27.1117 45.3588 26.5151 46.0862 25.7627C46.2929 25.5395 46.542 25.3599 46.8191 25.2343C47.0962 25.1087 47.3956 25.0397 47.6997 25.0314C47.9586 25.0192 48.2172 25.0604 48.4594 25.1525C48.7016 25.2446 48.9222 25.3856 49.1075 25.5666C49.2928 25.7476 49.4388 25.9649 49.5364 26.2047C49.634 26.4446 49.6811 26.7021 49.6747 26.9609C49.6488 27.5856 49.3874 28.1773 48.9429 28.6173C47.8423 29.735 46.52 30.6103 45.0607 31.1869C43.6015 31.7635 42.0377 32.0287 40.4698 31.9654C33.5044 31.9654 28.708 27.0843 28.708 20.2472ZM46.3331 18.1414C46.192 14.4145 43.8644 12.1061 40.2406 12.1061C38.5518 12.0728 36.9121 12.6747 35.6465 13.7925C34.3809 14.9104 33.5818 16.4625 33.4074 18.1414H46.3331ZM94.5177 8.67894C93.9864 8.68747 93.473 8.87208 93.0581 9.20378C92.6431 9.53548 92.3502 9.99548 92.2252 10.5115L85.9299 26.3708L79.6875 10.5115C79.5552 9.99119 79.2542 9.52922 78.8315 9.19771C78.4089 8.8662 77.8883 8.68379 77.351 8.67894C76.7539 8.66712 76.1764 8.89231 75.745 9.30517C75.3137 9.71804 75.0637 10.2849 75.0498 10.8816C75.0532 11.3291 75.1524 11.7707 75.3408 12.1767L82.5707 29.243C83.4524 31.2959 84.8455 31.7276 85.8858 31.7276C86.9263 31.7276 88.337 31.2959 89.201 29.243L96.4838 12.0886C96.6575 11.6905 96.7533 11.2628 96.766 10.8287C96.7663 10.538 96.7076 10.2503 96.5935 9.98303C96.4793 9.71568 96.3121 9.47423 96.102 9.27328C95.8918 9.07234 95.6431 8.91606 95.3708 8.81391C95.0984 8.71175 94.8082 8.66584 94.5177 8.67894ZM132.404 20.1503C132.404 13.366 137.456 8.44091 144.404 8.44091C151.387 8.44091 156.457 13.366 156.457 20.1503C156.477 21.7268 156.177 23.291 155.575 24.7486C154.974 26.2061 154.083 27.5268 152.957 28.6309C151.83 29.735 150.492 30.5997 149.022 31.1728C147.552 31.7459 145.981 32.0155 144.404 31.9654C141.227 32.0173 138.156 30.8215 135.852 28.635C134.736 27.5247 133.856 26.2011 133.264 24.7434C132.671 23.2856 132.379 21.7234 132.404 20.1503ZM137.148 20.1327C137.148 24.0887 139.634 28.0623 144.404 28.0623C147.905 28.0623 151.652 25.5512 151.652 20.1503C151.652 14.7493 147.896 12.2735 144.404 12.2735C140.913 12.2735 137.148 14.7317 137.148 20.1327Z" fill="#141614"/>
<path d="M20.8433 6.35302C17.149 2.02698 5.19318 10.4147 5.29017 21.2078C5.2879 21.3403 5.23422 21.4667 5.14046 21.5604C5.0467 21.6541 4.92018 21.7077 4.7876 21.71C4.70052 21.709 4.61514 21.6859 4.53953 21.6427C4.46393 21.5995 4.4006 21.5378 4.35557 21.4633C3.6567 19.9527 3.29565 18.3081 3.29753 16.6438C3.29664 15.3919 3.49913 14.1481 3.89709 12.961C3.93174 12.8587 3.92987 12.7476 3.8918 12.6466C3.85373 12.5456 3.7818 12.4609 3.68826 12.4069C3.59472 12.3529 3.48535 12.3329 3.37874 12.3504C3.27214 12.3679 3.1749 12.4218 3.10356 12.5028C1.58642 14.1575 0.583654 16.2174 0.217452 18.4315C-0.14875 20.6457 0.137423 22.9185 1.0411 24.9729C1.94478 27.0274 3.42694 28.7749 5.30699 30.0024C7.18703 31.2299 9.38378 31.8845 11.6296 31.8863C27.9057 31.5603 24.1408 10.2121 20.8433 6.35302Z" fill="#80B341"/>
</g>
</svg>
