<svg width="328" height="33" viewBox="0 0 328 33" fill="none" xmlns="http://www.w3.org/2000/svg">
<g id="logo">
<path fill-rule="evenodd" clip-rule="evenodd" d="M125.745 13.5838C126.002 13.6194 126.265 13.5988 126.512 13.5232C126.761 13.4476 126.99 13.3189 127.184 13.1459C127.378 12.973 127.531 12.7599 127.634 12.5215C127.7 12.3683 127.745 12.2069 127.766 12.0421C127.778 11.9508 127.783 11.8583 127.781 11.7656C127.789 11.6188 127.779 11.472 127.752 11.3285C127.73 11.2129 127.697 11.0994 127.652 10.9896C127.553 10.7436 127.401 10.5224 127.207 10.3416C127.139 10.2787 127.067 10.2214 126.991 10.1698C126.849 10.073 126.693 9.9969 126.528 9.94396C126.276 9.86281 126.009 9.83808 125.745 9.87183H121.75V5.85703C121.759 5.78375 121.763 5.71024 121.764 5.63672C121.765 5.58725 121.764 5.53801 121.761 5.48877C121.751 5.30129 121.718 5.1152 121.661 4.93534C121.566 4.63805 121.409 4.36388 121.202 4.13109C121.119 4.03792 121.027 3.95216 120.93 3.87472C120.89 3.84305 120.85 3.81276 120.808 3.78386C120.697 3.70688 120.579 3.64007 120.454 3.58436C120.169 3.45675 119.861 3.39087 119.549 3.39087C119.237 3.39087 118.929 3.45675 118.644 3.58436C118.359 3.71197 118.104 3.8983 117.897 4.13109C117.689 4.36388 117.533 4.63805 117.438 4.93534C117.343 5.23286 117.313 5.54703 117.348 5.85703V25.06C117.348 29.4913 119.535 31.8301 123.672 31.8301C124.627 31.8509 125.577 31.6803 126.464 31.3285C126.609 31.2684 126.746 31.1916 126.872 31.1003C126.987 31.0173 127.091 30.9223 127.186 30.8169C127.24 30.757 127.291 30.6937 127.337 30.6273C127.42 30.5073 127.49 30.3793 127.546 30.2454C127.564 30.2029 127.579 30.1597 127.594 30.116C127.653 29.9396 127.687 29.7549 127.696 29.5672C127.703 29.3357 127.664 29.1053 127.58 28.8894C127.496 28.6737 127.369 28.4769 127.208 28.3114C127.046 28.1461 126.852 28.0151 126.638 27.9265C126.425 27.838 126.194 27.7938 125.963 27.7964C125.846 27.8014 125.729 27.8125 125.614 27.8299C125.463 27.8525 125.314 27.8856 125.168 27.9291C125.018 27.9711 124.866 28.0033 124.712 28.0255C124.55 28.0488 124.386 28.0608 124.221 28.0615C122.536 28.0615 121.759 26.9632 121.759 24.6055V13.5838H125.745ZM97.6853 11.5478C99.8727 10.0387 102.479 9.25668 105.136 9.31308C110.816 9.31308 114.177 12.4853 114.177 17.8066V29.5956C114.213 29.879 114.189 30.1668 114.105 30.4401C114.021 30.7133 113.88 30.9655 113.69 31.1798C113.502 31.3939 113.269 31.5654 113.008 31.6824C112.911 31.7261 112.811 31.7619 112.709 31.7894C112.634 31.8095 112.558 31.8253 112.481 31.8366C112.381 31.8516 112.281 31.859 112.179 31.8586C112.006 31.8636 111.834 31.8465 111.667 31.8084C111.551 31.7823 111.438 31.746 111.329 31.7C111.06 31.5867 110.819 31.417 110.622 31.2025C110.424 30.9877 110.275 30.7332 110.185 30.456C110.094 30.1788 110.064 29.8853 110.097 29.5956V28.4686C109.298 29.6252 108.219 30.5596 106.961 31.184C105.702 31.8086 104.305 32.1027 102.901 32.0384C98.9917 32.0384 95.044 29.9743 95.044 25.3535C95.044 18.9903 102.542 18.0434 109.917 18.0434V17.5417C109.917 14.6252 108.032 12.9587 104.748 12.9587C102.955 12.9818 101.212 13.557 99.759 14.6063C99.3772 14.892 98.9186 15.0568 98.4425 15.0797C98.2123 15.0797 97.9839 15.0337 97.7704 14.9442C97.5577 14.8548 97.3654 14.7237 97.2037 14.5589C97.1362 14.4898 97.0751 14.4153 97.0206 14.3363C96.9439 14.2267 96.8801 14.1086 96.8311 13.9837C96.746 13.7692 96.7053 13.5396 96.71 13.3089C96.7072 12.9564 96.795 12.6087 96.9661 12.3001C96.9947 12.2474 97.0261 12.1961 97.0604 12.1461C97.1094 12.074 97.1621 12.0053 97.2194 11.9401C97.3534 11.7873 97.5106 11.6551 97.6853 11.5478ZM109.869 21.2819H108.979C104.946 21.2819 99.5787 21.6985 99.5316 25.2398C99.5316 28.2414 102.798 28.4686 103.801 28.4686C107.483 28.4686 109.869 26.0542 109.869 22.3138V21.2819ZM60.0329 10.3654C61.2579 9.66308 62.6474 9.29991 64.0592 9.31331C70.0139 9.31331 72.144 13.8677 72.1153 18.1192V29.4063C72.1264 29.5309 72.1273 29.6559 72.119 29.7803C72.1153 29.8286 72.1098 29.8769 72.1033 29.925C72.0839 30.0598 72.0525 30.1927 72.009 30.3224C71.9572 30.4759 71.8897 30.6229 71.8065 30.7612C71.7307 30.8881 71.642 31.0076 71.5412 31.1174C71.3323 31.347 71.0771 31.5305 70.7933 31.656C70.6121 31.736 70.4216 31.7913 70.2275 31.8209C70.1609 31.831 70.0925 31.8382 70.0241 31.8421C69.9797 31.8449 69.9353 31.8463 69.891 31.8463C69.5803 31.8463 69.2725 31.7816 68.9886 31.656C68.7039 31.5305 68.4487 31.347 68.2398 31.1174C68.1704 31.0414 68.1067 30.9607 68.0493 30.8761C67.9985 30.8021 67.9523 30.7253 67.9107 30.646C67.8755 30.5792 67.8441 30.5106 67.8164 30.4403C67.8006 30.4015 67.7859 30.3622 67.772 30.3224C67.674 30.0277 67.637 29.7156 67.6657 29.4063V19.53C67.6657 15.2029 66.2364 13.1009 62.9322 13.1009C59.628 13.1009 57.3186 15.951 57.3186 20.0319V29.4063C57.3537 29.7188 57.3232 30.0355 57.2271 30.3353C57.1318 30.6352 56.9747 30.9117 56.7648 31.1463C56.5549 31.3809 56.2989 31.5687 56.0113 31.6974C55.7238 31.826 55.4132 31.8923 55.0988 31.8923C54.9519 31.8923 54.8058 31.878 54.6625 31.8495C54.4988 31.8169 54.3389 31.7661 54.1854 31.6974C53.8988 31.5687 53.6418 31.3809 53.432 31.1463C53.223 30.9117 53.0649 30.6352 52.9697 30.3353C52.8745 30.0355 52.8431 29.7188 52.8782 29.4063V11.8983C52.844 11.601 52.8726 11.2998 52.9623 11.0145C52.979 10.9614 52.9974 10.9089 53.0187 10.8573C53.0437 10.7954 53.0723 10.7348 53.1028 10.6756C53.125 10.6333 53.1481 10.5917 53.1731 10.5508C53.2045 10.4995 53.2378 10.4493 53.2729 10.4005C53.3136 10.346 53.3562 10.2933 53.4015 10.2426C53.6002 10.0191 53.8443 9.84039 54.117 9.71787C54.3898 9.59535 54.6856 9.53224 54.9851 9.53224C55.2837 9.53224 55.5796 9.59535 55.8532 9.71787C55.9781 9.77404 56.0973 9.84224 56.2092 9.92107C56.3405 10.014 56.4616 10.1217 56.5688 10.2426C56.7676 10.4662 56.9174 10.7293 57.007 11.0145C57.0551 11.1646 57.0856 11.3187 57.0986 11.4746C57.1023 11.5169 57.1041 11.5594 57.105 11.6019L57.1041 11.7219L57.1013 11.7825C57.0986 11.8211 57.0958 11.8597 57.0912 11.8983V13.3092C57.7929 12.0837 58.808 11.0677 60.0329 10.3654ZM28.6709 20.7328C28.6709 14.1141 33.3572 9.31331 39.8131 9.31331C45.4368 9.31331 49.28 12.7032 50.0279 18.3751C50.101 18.8416 50.1324 19.3137 50.1232 19.786C50.1232 21.3103 49.3466 22.0489 47.7657 22.0489H33.1862C33.2981 23.7786 34.0737 25.3982 35.3514 26.5698C36.6281 27.7411 38.308 28.3741 40.0405 28.3364C41.0519 28.3449 42.0541 28.148 42.986 27.7573C43.9188 27.3666 44.7619 26.7905 45.4655 26.0637C45.6661 25.8492 45.9074 25.6767 46.1755 25.5563C46.4436 25.4361 46.7339 25.3704 47.027 25.363C47.2784 25.3524 47.5299 25.394 47.7647 25.4853C47.9986 25.5769 48.2122 25.7158 48.3897 25.8938C48.5681 26.072 48.7068 26.2849 48.7983 26.5196C48.8899 26.7542 48.9315 27.0053 48.9204 27.2568C48.9083 27.6026 48.8205 27.9381 48.668 28.2416C48.6365 28.3047 48.6023 28.3664 48.5644 28.4265C48.533 28.4772 48.4988 28.5266 48.4637 28.575C48.3906 28.6746 48.3093 28.7689 48.2205 28.857C47.1573 29.9389 45.8787 30.7861 44.4689 31.3437C43.0581 31.9015 41.5465 32.1577 40.0312 32.0955C33.348 32.0955 28.6709 27.3516 28.6709 20.7328ZM45.7022 18.6874C45.5598 15.0894 43.316 12.8547 39.8131 12.8547C38.1785 12.8172 36.5893 13.3963 35.3616 14.477C34.1338 15.5576 33.3572 17.0606 33.1862 18.6874H45.7022ZM92.2418 9.5216C91.7176 9.52137 91.2092 9.69937 90.8005 10.0263C90.391 10.3531 90.1044 10.8097 89.9888 11.3206L83.949 26.5656L77.9184 11.3206C77.7927 10.8129 77.5024 10.361 77.0938 10.0355C76.6842 9.71001 76.1785 9.52923 75.6553 9.5216C75.0784 9.51143 74.5218 9.72943 74.1049 10.1287C73.9024 10.3222 73.7415 10.5503 73.6278 10.8C73.5742 10.917 73.5307 11.0386 73.4984 11.1634C73.4577 11.322 73.4346 11.4859 73.4309 11.6521C73.4355 12.0872 73.5326 12.5165 73.7147 12.9113L80.7012 29.4063C80.8944 30.1132 81.3151 30.7369 81.8975 31.1814C82.1277 31.3574 82.3783 31.5014 82.6427 31.6112C83.0467 31.779 83.4821 31.8671 83.925 31.8671C84.2153 31.8671 84.5019 31.8294 84.7783 31.7564C85.2008 31.6447 85.6002 31.4503 85.9524 31.1814C86.5348 30.7369 86.9555 30.1132 87.1487 29.4063L94.1352 12.8357C94.1703 12.756 94.2027 12.675 94.2314 12.593L94.2536 12.5236L94.2878 12.4115C94.3599 12.1554 94.4015 11.8909 94.4098 11.6237C94.4107 11.5386 94.4061 11.454 94.3969 11.3698L94.3839 11.2764L94.3682 11.1881C94.3414 11.0557 94.3016 10.9258 94.2489 10.8005C94.1398 10.5397 93.9799 10.3039 93.7765 10.1072C93.574 9.91067 93.3337 9.75717 93.0693 9.65661C92.8058 9.55582 92.5238 9.51004 92.2418 9.5216ZM128.84 20.676C128.84 14.0478 133.716 9.31331 140.428 9.31331C147.178 9.31331 152.072 14.0762 152.072 20.676C152.093 22.2006 151.803 23.7131 151.223 25.1226C150.641 26.5321 149.78 27.8093 148.692 28.8766C147.604 29.944 146.311 30.7797 144.89 31.3329C143.47 31.8861 141.952 32.1454 140.428 32.0955C137.358 32.1457 134.391 30.9898 132.164 28.8759C131.09 27.801 130.242 26.5212 129.671 25.1129C129.1 23.7044 128.818 22.1957 128.84 20.676ZM133.413 20.6001C133.413 24.4067 135.827 28.2511 140.428 28.2511V28.289C143.808 28.289 147.443 25.7891 147.443 20.6001C147.443 15.4112 143.808 13.025 140.428 13.025C137.048 13.025 133.413 15.3828 133.413 20.6001Z" fill="#414042"/>
<path fill-rule="evenodd" clip-rule="evenodd" d="M167.41 10.2224H162.514V7.89307C162.432 6.67478 162.8 5.46875 163.547 4.50314C163.594 4.45181 163.642 4.40188 163.692 4.35357C163.769 4.27843 163.849 4.20723 163.933 4.13996C164.197 3.92728 164.491 3.75367 164.806 3.6256C165.286 3.43049 165.804 3.34542 166.32 3.37639C167.04 3.36299 167.756 3.45245 168.451 3.64132C168.634 3.68802 168.827 3.66074 168.99 3.56573C169.069 3.51371 169.136 3.44551 169.187 3.36553C169.213 3.32392 169.234 3.27953 169.251 3.23307C169.259 3.21134 169.266 3.18937 169.271 3.16695C169.277 3.14545 169.281 3.12372 169.283 3.10176L169.444 2.098C169.467 1.93988 169.433 1.77852 169.348 1.64328C169.322 1.6026 169.293 1.56515 169.26 1.53139C169.184 1.45233 169.087 1.39292 168.98 1.3594C168.11 1.1058 167.207 0.984669 166.301 0.999695C165.8 0.978658 165.3 1.02327 164.813 1.131C164.65 1.16706 164.488 1.21006 164.329 1.26C164.16 1.31317 163.993 1.3742 163.828 1.44286C163.046 1.7702 162.346 2.26537 161.776 2.89347C160.648 4.27959 160.065 6.03096 160.138 7.81724V10.2224H157.204C157.028 10.2224 156.859 10.2922 156.735 10.4163C156.611 10.5407 156.541 10.7092 156.541 10.8852V11.9361L156.544 12.0031C156.547 12.0346 156.553 12.0655 156.56 12.0958C156.572 12.1402 156.587 12.1832 156.607 12.2243C156.639 12.2907 156.682 12.3517 156.735 12.4049C156.792 12.4622 156.859 12.508 156.931 12.5406C156.988 12.5658 157.047 12.5831 157.108 12.5921C157.139 12.5968 157.172 12.5991 157.204 12.5991H160.185V31.8966C160.185 32.0725 160.256 32.241 160.38 32.3654C160.504 32.4895 160.673 32.5593 160.848 32.5593H161.899C161.965 32.5593 162.03 32.5496 162.092 32.5309C162.194 32.4995 162.29 32.443 162.368 32.3654C162.432 32.3013 162.482 32.2257 162.515 32.1432C162.524 32.1192 162.533 32.0947 162.539 32.0695C162.555 32.0135 162.562 31.9555 162.562 31.8966V12.5991H167.457C167.632 12.5991 167.801 12.5293 167.925 12.4049C168.049 12.2805 168.12 12.112 168.12 11.9361V10.8852C168.12 10.8521 168.117 10.8193 168.112 10.7867L168.103 10.7372C168.094 10.6972 168.082 10.6579 168.065 10.62C168.028 10.5363 167.975 10.4612 167.909 10.3988C167.842 10.3366 167.764 10.289 167.678 10.2584C167.592 10.2282 167.5 10.2159 167.41 10.2224ZM183.257 11.2354C181.729 10.2961 179.966 9.81019 178.174 9.83401C176.362 9.80835 174.582 10.3118 173.052 11.2828C171.529 12.2599 170.314 13.6486 169.549 15.2881C168.72 17.0663 168.304 19.0079 168.328 20.9694V21.9163C168.311 23.8801 168.738 25.8222 169.577 27.5976C170.354 29.2256 171.574 30.6008 173.099 31.565C174.642 32.5001 176.411 32.9946 178.216 32.9946C180.02 32.9946 181.789 32.5001 183.332 31.565C184.86 30.5749 186.072 29.1689 186.826 27.5123C187.652 25.7337 188.066 23.7918 188.038 21.831V20.8841C188.057 18.9191 187.626 16.9759 186.779 15.2028C186.007 13.5716 184.785 12.1952 183.257 11.2354ZM185.662 20.9884V21.5848C185.766 23.9412 185.02 26.2566 183.56 28.109C182.918 28.9038 182.102 29.5397 181.174 29.9667C180.246 30.3937 179.232 30.6006 178.211 30.5708C176.839 30.5955 175.491 30.2097 174.339 29.463C173.177 28.6839 172.255 27.5951 171.679 26.3192C171.03 24.9035 170.706 23.36 170.732 21.8026V21.1777C170.644 18.838 171.397 16.5441 172.853 14.7104C173.487 13.9047 174.302 13.2588 175.23 12.8247C176.159 12.3906 177.177 12.1804 178.201 12.2107C179.546 12.2019 180.864 12.5905 181.988 13.328C183.149 14.1197 184.072 15.2132 184.658 16.4907C184.793 16.7755 184.914 17.0656 185.022 17.3601C185.117 17.6144 185.2 17.8722 185.273 18.1327C185.534 19.0592 185.665 20.0202 185.662 20.9884ZM205.39 10.2224H206.431C206.607 10.2224 206.776 10.2922 206.9 10.4166C206.933 10.4499 206.963 10.4864 206.989 10.5254C207.014 10.5638 207.034 10.6045 207.051 10.6468C207.068 10.6919 207.08 10.7388 207.087 10.7869L207.092 10.8304L207.094 10.8852V31.8966C207.094 32.0725 207.025 32.241 206.9 32.3654C206.776 32.4897 206.607 32.5596 206.431 32.5596H205.437C205.349 32.5596 205.263 32.5422 205.184 32.5094C205.153 32.4962 205.122 32.4805 205.092 32.4622L205.06 32.4407L205.042 32.4278L205.004 32.398L204.969 32.3654C204.845 32.241 204.774 32.0725 204.774 31.8966V30.5141C204.262 31.0352 203.679 31.4816 203.042 31.8399C201.551 32.6254 199.88 33.0076 198.196 32.9477C197.141 33.0226 196.083 32.8599 195.1 32.4715C194.117 32.0831 193.234 31.479 192.515 30.7035C191.165 28.8991 190.494 26.6759 190.622 24.4257V10.8852C190.622 10.7095 190.691 10.5407 190.816 10.4166C190.94 10.2922 191.108 10.2224 191.284 10.2224H192.306C192.388 10.2224 192.467 10.2374 192.542 10.2656L192.567 10.276L192.601 10.2915L192.644 10.3142C192.669 10.3289 192.693 10.3456 192.716 10.3639C192.736 10.38 192.757 10.3976 192.775 10.4166C192.9 10.5407 192.969 10.7095 192.969 10.8852V24.4826C192.873 26.1329 193.351 27.7659 194.323 29.1033C194.804 29.6172 195.393 30.0171 196.049 30.2742C196.187 30.3283 196.326 30.3757 196.468 30.4166C196.581 30.4492 196.696 30.4776 196.811 30.5019C196.912 30.5231 197.015 30.5409 197.119 30.5555C197.183 30.5645 197.248 30.5722 197.313 30.5786C197.372 30.5844 197.431 30.5893 197.49 30.593C197.547 30.5964 197.603 30.5987 197.659 30.6001L197.753 30.6015C197.871 30.6022 197.99 30.5983 198.11 30.59C199.705 30.6672 201.282 30.218 202.597 29.3116C203.756 28.4 204.518 27.0777 204.727 25.6188V10.8852C204.727 10.7095 204.797 10.5407 204.921 10.4166C204.968 10.3708 205.019 10.3324 205.075 10.3021C205.171 10.2503 205.279 10.2224 205.39 10.2224ZM220.424 9.83401C218.694 9.83724 217.009 10.3911 215.614 11.4152C214.859 11.9377 214.191 12.5769 213.636 13.309V10.8852C213.636 10.7092 213.566 10.5407 213.442 10.4163C213.318 10.292 213.149 10.2221 212.973 10.2221H211.923C211.747 10.2221 211.578 10.292 211.454 10.4163C211.33 10.5407 211.26 10.7092 211.26 10.8852V31.8966C211.26 32.0061 211.287 32.1129 211.337 32.2079C211.368 32.2653 211.408 32.3182 211.454 32.3651C211.578 32.4895 211.747 32.5593 211.923 32.5593H212.973C213.149 32.5593 213.318 32.4895 213.442 32.3651C213.518 32.2882 213.575 32.1945 213.606 32.0926C213.626 32.0297 213.636 31.9636 213.636 31.8966V18.5264C214.002 16.7937 214.864 15.2049 216.116 13.9531C216.395 13.6713 216.7 13.4191 217.028 13.2001C217.174 13.1023 217.325 13.011 217.479 12.9267C217.668 12.8233 217.864 12.7302 218.064 12.6479C218.795 12.3485 219.578 12.1998 220.367 12.2107C221.061 12.1481 221.76 12.2396 222.415 12.4786C223.069 12.7174 223.663 13.0982 224.154 13.5931C225.062 14.9339 225.489 16.5427 225.366 18.1572V31.8966C225.366 32.0722 225.435 32.2408 225.56 32.3651C225.684 32.4895 225.852 32.5593 226.028 32.5593H227.079C227.157 32.5593 227.232 32.5457 227.304 32.5198C227.394 32.4872 227.478 32.4347 227.548 32.3651C227.672 32.2408 227.742 32.0722 227.742 31.8966V18.1856C227.742 15.4585 227.108 13.3754 225.915 11.974C225.852 11.9074 225.787 11.842 225.722 11.7782C225.662 11.7192 225.601 11.6614 225.538 11.6048C225.401 11.4809 225.259 11.3625 225.113 11.2502C224.867 11.0613 224.609 10.8891 224.34 10.7349C224.041 10.5638 223.73 10.4147 223.409 10.2892C222.953 10.1116 222.481 9.98358 222.002 9.90613C221.482 9.82198 220.952 9.79748 220.424 9.83401ZM246.609 1.40679H247.66C247.836 1.40679 248.004 1.47661 248.129 1.60098C248.253 1.72512 248.323 1.89388 248.323 2.06957V31.8966C248.323 31.9837 248.306 32.0699 248.272 32.1501C248.239 32.2306 248.19 32.3036 248.129 32.3654C248.067 32.4269 247.994 32.4756 247.914 32.5089L247.884 32.5207L247.856 32.5297L247.836 32.5357L247.786 32.5471C247.745 32.5552 247.703 32.5593 247.66 32.5593H246.609C246.563 32.5593 246.518 32.5545 246.473 32.545C246.434 32.5367 246.394 32.5247 246.356 32.5089C246.275 32.4756 246.202 32.4269 246.141 32.3654C246.079 32.3036 246.03 32.2306 245.997 32.1501C245.964 32.0699 245.947 31.9837 245.947 31.8966V30.4573L245.816 30.5835L245.689 30.7014C245.59 30.7908 245.49 30.8778 245.386 30.9621L245.224 31.0918L245.083 31.1993C245.005 31.2567 244.927 31.3128 244.848 31.3674C244.573 31.5579 244.285 31.7315 243.987 31.8871C242.583 32.6097 241.022 32.9741 239.443 32.9477C238.213 32.9833 236.993 32.7131 235.892 32.161C234.792 31.609 233.845 30.7927 233.138 29.785C231.652 27.7493 230.894 24.9465 230.894 21.4523V21.1777C230.894 17.6553 231.652 14.9189 233.147 12.9209C233.87 11.928 234.826 11.1274 235.93 10.5895C237.034 10.0513 238.254 9.79193 239.481 9.83401C241.067 9.80511 242.631 10.2078 244.006 10.9987C244.736 11.4303 245.392 11.977 245.947 12.618V2.06957C245.947 2.0372 245.949 2.00507 245.954 1.9734L245.964 1.91907L245.981 1.86128C246.013 1.76419 246.067 1.67472 246.141 1.60098C246.265 1.47661 246.434 1.40679 246.609 1.40679ZM233.308 21.585C233.182 23.9287 233.759 26.2568 234.965 28.2701C235.441 29.0113 236.104 29.6142 236.886 30.018C237.669 30.4219 238.545 30.6126 239.424 30.571C240.86 30.6154 242.278 30.2511 243.514 29.5199C244.619 28.8194 245.471 27.7844 245.947 26.5657V16.9451C244.82 13.7637 242.699 12.2107 239.462 12.2107C238.585 12.1721 237.711 12.36 236.927 12.7563C236.866 12.7873 236.805 12.8194 236.746 12.8527C236.647 12.9077 236.55 12.9659 236.455 13.0272C236.396 13.0651 236.339 13.1042 236.282 13.1444L236.14 13.2482L236.047 13.3208L235.961 13.3902L235.859 13.4775C235.784 13.5434 235.711 13.6114 235.64 13.6814C235.596 13.7244 235.553 13.7681 235.511 13.8127C235.427 13.902 235.347 13.9944 235.269 14.0899C235.168 14.2131 235.073 14.3412 234.984 14.4739C233.877 16.0456 233.308 18.4413 233.308 21.585ZM268.034 27.0202V16.9736C268.065 15.9784 267.876 14.9887 267.479 14.0751C267.083 13.1618 266.49 12.3471 265.743 11.6899C264.094 10.3763 262.026 9.70362 259.92 9.79609C257.786 9.7272 255.693 10.396 253.994 11.6899C253.871 11.7784 253.752 11.8713 253.636 11.9684C253.362 12.1987 253.109 12.453 252.88 12.7276C252.6 13.0637 252.356 13.4304 252.154 13.8218C251.718 14.6679 251.489 15.6053 251.485 16.557C251.485 16.7295 251.553 16.8952 251.673 17.0191C251.793 17.1428 251.957 17.2149 252.129 17.2198H253.18C253.219 17.2221 253.257 17.2209 253.295 17.2163C253.344 17.2105 253.393 17.1987 253.44 17.1812C253.524 17.1502 253.599 17.1019 253.662 17.0399C253.7 17.0025 253.733 16.9606 253.761 16.9156C253.781 16.8846 253.797 16.8522 253.811 16.8185C253.845 16.7357 253.862 16.6467 253.861 16.557C253.864 15.9398 254.016 15.3325 254.307 14.7878C254.467 14.4873 254.666 14.2108 254.899 13.9653C255.088 13.766 255.299 13.5871 255.528 13.4322C256.801 12.5071 258.348 12.0369 259.92 12.0972C261.464 11.9913 262.995 12.4488 264.228 13.3848C264.72 13.8398 265.105 14.399 265.354 15.0213C265.432 15.2187 265.497 15.421 265.547 15.6265L265.572 15.7333L265.587 15.8027L265.607 15.9093C265.624 16.0052 265.637 16.1018 265.649 16.1987C265.661 16.3025 265.668 16.4065 265.673 16.511C265.676 16.5945 265.677 16.6781 265.675 16.7618L265.672 16.8763L265.667 16.9831V19.3882H261.132C258.567 19.2992 256.032 19.9571 253.833 21.282C253.023 21.7832 252.338 22.4649 251.835 23.2742C251.331 24.0836 251.021 24.9983 250.929 25.9473C250.838 26.896 250.966 27.8533 251.307 28.744C251.646 29.635 252.187 30.4351 252.887 31.0824C254.316 32.29 256.147 32.9153 258.018 32.834C259.816 32.9012 261.604 32.5376 263.234 31.7736C263.343 31.716 263.45 31.6564 263.556 31.5949L263.701 31.51L263.835 31.428C263.908 31.3824 263.98 31.3357 264.052 31.2883C264.116 31.246 264.179 31.2033 264.24 31.1596C264.328 31.0983 264.415 31.0354 264.501 30.9714C264.939 30.6438 265.347 30.2788 265.723 29.8798C265.767 30.6124 265.884 31.339 266.074 32.048C266.116 32.1855 266.201 32.3057 266.318 32.3908C266.433 32.4761 266.574 32.5219 266.717 32.5214H267.967C268.143 32.5214 268.311 32.4516 268.436 32.3275C268.56 32.2031 268.63 32.0346 268.63 31.8586V31.6883C268.631 31.5967 268.612 31.5061 268.573 31.4231C268.298 30.9497 268.034 29.7661 268.034 27.0202ZM265.667 21.8784V26.0638C265.051 27.4213 264.046 28.5651 262.779 29.3495C261.35 30.1983 259.708 30.6219 258.045 30.571C256.795 30.6279 255.568 30.2122 254.609 29.4063C254.197 29.0741 253.865 28.6527 253.638 28.174C253.614 28.1231 253.591 28.0718 253.57 28.02L253.547 27.9622C253.518 27.8894 253.492 27.8156 253.468 27.7412C253.355 27.3866 253.299 27.0153 253.303 26.6413C253.304 26.2876 253.355 25.9371 253.455 25.6003C253.528 25.3522 253.627 25.1116 253.751 24.8825C254.044 24.3422 254.466 23.8827 254.979 23.5449C256.446 22.4466 258.632 21.8879 261.473 21.8879L265.667 21.8784ZM276.601 29.7945C277.169 30.6279 278.361 30.7129 280.473 30.4101C280.562 30.3939 280.654 30.3962 280.742 30.417C280.831 30.4376 280.913 30.4764 280.986 30.5305L281.009 30.5493L281.04 30.5747L281.062 30.5955L281.087 30.6221L281.108 30.6471C281.129 30.6739 281.149 30.7021 281.165 30.7319C281.211 30.8105 281.239 30.8974 281.25 30.9876L281.42 31.9345C281.433 32.002 281.434 32.0704 281.426 32.1374C281.415 32.2232 281.387 32.3069 281.344 32.3829C281.265 32.5184 281.141 32.6215 280.993 32.6731C280.21 32.8964 279.394 32.9893 278.58 32.9477C278.198 32.9798 277.814 32.9634 277.44 32.8998C277.121 32.8458 276.807 32.7574 276.505 32.6358C275.848 32.3709 275.261 31.9557 274.793 31.4231C273.939 30.1133 273.537 28.5607 273.647 27.0012V12.5991H270.372C270.196 12.5991 270.027 12.5293 269.903 12.4049C269.779 12.2808 269.709 12.112 269.709 11.9363V10.8852C269.709 10.8133 269.721 10.7425 269.743 10.6755C269.776 10.5788 269.83 10.4901 269.903 10.4166C270.027 10.2922 270.196 10.2224 270.372 10.2224H273.6V5.2133C273.6 5.03761 273.67 4.86885 273.794 4.74471C273.918 4.62034 274.086 4.55053 274.262 4.55053H275.323C275.498 4.55053 275.667 4.62034 275.791 4.74471C275.916 4.86885 275.985 5.03761 275.985 5.2133V10.2224H280.104C280.216 10.2224 280.325 10.2508 280.422 10.3038C280.455 10.3222 280.488 10.3437 280.518 10.3682C280.538 10.3833 280.555 10.3995 280.572 10.4166C280.697 10.5409 280.766 10.7095 280.766 10.8852V11.9363C280.766 12.0741 280.724 12.2075 280.645 12.3187L280.615 12.357C280.601 12.3737 280.588 12.3896 280.572 12.4049C280.448 12.5293 280.28 12.5991 280.104 12.5991H275.985V26.8593C275.909 27.8762 276.121 28.8943 276.601 29.7945ZM283.947 3.09228C283.817 3.22636 283.71 3.37894 283.628 3.54376C283.574 3.65542 283.53 3.77263 283.5 3.89353C283.465 4.03293 283.446 4.17718 283.445 4.32328C283.448 4.78216 283.631 5.22139 283.956 5.54573C284.28 5.8703 284.719 6.05362 285.178 6.05616C285.406 6.0587 285.633 6.01548 285.843 5.92925C286.055 5.84325 286.247 5.71564 286.408 5.55428C286.575 5.39547 286.706 5.20429 286.796 4.99253C286.811 4.95601 286.825 4.91879 286.838 4.8811C286.851 4.84365 286.863 4.80574 286.873 4.76737C286.911 4.62288 286.93 4.47355 286.929 4.32328C286.93 4.18828 286.914 4.0542 286.884 3.92335C286.861 3.83088 286.833 3.74026 286.797 3.65218C286.709 3.43927 286.58 3.24578 286.418 3.0828C286.086 2.76193 285.642 2.58324 285.181 2.58509C285.09 2.58555 285 2.59295 284.912 2.60705C284.794 2.62554 284.679 2.65582 284.568 2.6972C284.436 2.74621 284.311 2.81094 284.194 2.89024C284.147 2.92214 284.102 2.95612 284.058 2.99241C284.02 3.02408 283.983 3.05737 283.947 3.09228ZM284.657 10.2224H285.708C286.074 10.2224 286.37 10.5192 286.37 10.8852V31.8966C286.37 32.2627 286.074 32.5596 285.708 32.5596H284.657C284.291 32.5596 283.994 32.2627 283.994 31.8966V10.8852C283.994 10.6692 284.098 10.4774 284.258 10.3565C284.369 10.2723 284.508 10.2224 284.657 10.2224ZM304.121 11.2354C302.594 10.2961 300.831 9.81019 299.037 9.83401C297.225 9.80835 295.445 10.3118 293.915 11.2828C292.389 12.2556 291.173 13.6456 290.412 15.2881C289.58 17.0649 289.162 19.0074 289.191 20.9694V21.9163C289.17 23.8806 289.598 25.8238 290.441 27.5976C291.206 29.2341 292.428 30.614 293.961 31.5704C295.493 32.5265 297.269 33.018 299.075 32.9854C300.885 33.0094 302.664 32.5096 304.197 31.5461C305.735 30.5666 306.96 29.1668 307.727 27.5123C308.553 25.7337 308.967 23.7918 308.939 21.831V20.8841C308.953 18.9196 308.523 16.9775 307.68 15.2028C306.894 13.5698 305.659 12.1938 304.121 11.2354ZM306.526 20.9884V21.5848C306.627 23.9425 305.878 26.258 304.414 28.109C303.773 28.9026 302.959 29.5377 302.032 29.9646C301.106 30.3916 300.095 30.599 299.075 30.5708C297.7 30.595 296.349 30.2094 295.194 29.463C294.053 28.6724 293.15 27.5854 292.58 26.3192C291.931 24.9035 291.608 23.36 291.634 21.8026V21.1777C291.551 18.8387 292.303 16.5464 293.754 14.7104C294.393 13.9073 295.21 13.2635 296.14 12.8298C297.07 12.3959 298.088 12.1841 299.113 12.2107C300.446 12.2028 301.752 12.5847 302.871 13.309C304.03 14.1026 304.953 15.1956 305.541 16.4717C306.207 17.8835 306.543 19.4277 306.526 20.9884ZM323.679 10.2829C324.633 10.6531 325.494 11.2308 326.198 11.974C327.391 13.3754 328.006 15.4585 327.996 18.1856V31.8966C327.996 32.0722 327.927 32.241 327.802 32.3651C327.678 32.4895 327.509 32.5593 327.333 32.5593H326.283C326.108 32.5593 325.938 32.4895 325.814 32.3651C325.69 32.241 325.62 32.0722 325.62 31.8966V18.1572C325.745 16.5411 325.314 14.9309 324.399 13.5931C323.908 13.0982 323.315 12.7177 322.66 12.4786C322.006 12.2396 321.307 12.1481 320.612 12.2107C319.825 12.1994 319.042 12.348 318.313 12.6474C317.585 12.947 316.924 13.3911 316.371 13.9531C315.115 15.2039 314.251 16.7928 313.881 18.5264V31.8966C313.881 32.0722 313.812 32.241 313.687 32.3651C313.563 32.4895 313.395 32.5593 313.218 32.5593H312.168C311.992 32.5593 311.823 32.4895 311.699 32.3651C311.575 32.241 311.505 32.0722 311.505 31.8966V10.8852C311.505 10.7092 311.575 10.5407 311.699 10.4163C311.823 10.2922 311.992 10.2221 312.168 10.2221H313.218C313.395 10.2221 313.563 10.2922 313.687 10.4163C313.812 10.5407 313.881 10.7092 313.881 10.8852V13.309C314.442 12.5787 315.112 11.94 315.87 11.4152C317.264 10.3911 318.948 9.83724 320.679 9.83401C321.7 9.75957 322.724 9.91307 323.679 10.2829Z" fill="#F3857D"/>
<path d="M12.19 32.0956C15.193 32.1788 18.1068 31.0689 20.2937 29.0087C17.5636 27.9343 15.157 26.173 13.3071 23.8955C11.8591 26.0191 11.0869 28.5309 11.0918 31.1013C11.0918 31.4233 11.0918 31.7452 11.0918 32.0482C11.4567 32.085 11.8233 32.1009 12.19 32.0956V32.0956Z" fill="#F3857D"/>
<path d="M13.3066 23.8954C15.1513 26.1703 17.5511 27.9313 20.2743 29.0086C22.9629 26.3099 23.8907 22.2194 23.8718 18.2898C21.7877 18.294 19.736 18.8067 17.8949 19.7835C16.0538 20.7604 14.4789 22.1718 13.3066 23.8954V23.8954Z" fill="#F3C36A"/>
<path d="M13.3066 23.8954C12.5147 22.9289 11.8321 21.8778 11.2712 20.7612C10.8665 19.9523 10.5247 19.1134 10.2487 18.252C9.08291 18.553 7.88376 18.7057 6.6797 18.7065H6.38623C6.17644 19.706 6.07173 20.7247 6.07382 21.746V21.746C6.07149 21.8717 6.02116 21.9918 5.93315 22.0816C5.84513 22.1714 5.7261 22.2241 5.60047 22.2289V22.2289C5.53816 22.2431 5.47345 22.2431 5.41113 22.2289V22.2289C6.65581 23.4089 7.64696 24.8302 8.32408 26.4061C9.00119 27.9821 9.35006 29.6795 9.34938 31.3948C9.34938 31.5273 9.34938 31.6599 9.34938 31.7925C9.97058 31.9517 10.6039 32.0594 11.2428 32.1144C11.2428 31.7925 11.2428 31.4705 11.2428 31.1675C11.1796 28.5905 11.8992 26.0549 13.3066 23.8954V23.8954Z" fill="#EF6E8D"/>
<path d="M5.35439 22.1815C5.30914 22.1484 5.26784 22.1103 5.23132 22.0678C4.03004 20.9568 2.62522 20.0886 1.09426 19.5112V19.5965C1.03927 20.0237 1.00766 20.4536 0.999594 20.8842C0.946356 23.3653 1.73689 25.791 3.24177 27.7641C4.74665 29.7371 6.8767 31.1407 9.28317 31.745C9.28317 31.6125 9.28317 31.4799 9.28317 31.3473C9.28507 29.6327 8.93769 27.9357 8.26222 26.3598C7.58674 24.784 6.59735 23.3623 5.35439 22.1815V22.1815Z" fill="#EF8DA9"/>
<path d="M5.16537 21.9923C4.66092 20.8838 4.34107 19.7004 4.21848 18.4888C4.17255 18.1086 4.15041 17.726 4.1522 17.343C4.15235 16.1322 4.35066 14.9295 4.73927 13.7827C4.80205 13.6798 4.82136 13.5561 4.79295 13.4389C4.76454 13.3217 4.69073 13.2206 4.58777 13.1578C4.4848 13.095 4.36112 13.0757 4.24392 13.1041C4.12672 13.1325 4.0256 13.2063 3.96282 13.3093C2.80432 14.5632 1.9491 16.0663 1.46304 17.7029C1.2911 18.2947 1.16759 18.8995 1.09375 19.5114C2.61268 20.0835 4.00773 20.9418 5.20325 22.0396L5.16537 21.9923Z" fill="#F0A6BB"/>
<path d="M10.268 18.2519C9.75784 16.583 9.50558 14.8459 9.51994 13.1008C9.51994 12.7221 9.51994 12.3338 9.51994 11.9551C7.98678 13.9448 6.91611 16.2511 6.38574 18.7064H6.67928C7.88992 18.7072 9.09578 18.5545 10.268 18.2519V18.2519Z" fill="#84CEE2"/>
<path d="M21.1072 7.40074C20.9622 7.22702 20.7969 7.07126 20.615 6.93677C20.2735 8.95934 19.4953 10.8831 18.3344 12.5741C17.1735 14.265 15.658 15.6824 13.8934 16.7276C12.7637 17.4062 11.5427 17.9195 10.2676 18.2521C10.5435 19.1135 10.8853 19.9524 11.29 20.7613C11.8449 21.877 12.5212 22.9281 13.3065 23.8955C14.4787 22.172 16.0537 20.7606 17.8948 19.7837C19.7359 18.8069 21.7875 18.2941 23.8716 18.29C23.8621 13.5176 22.4421 8.97258 21.1072 7.40074Z" fill="#00BAD6"/>
<path d="M11.6969 9.56892C10.9042 10.3005 10.1757 11.0988 9.51954 11.9551C9.51954 12.3338 9.51954 12.7221 9.51954 13.1008C9.51745 14.8479 9.78243 16.585 10.3053 18.2519C11.5804 17.9193 12.8014 17.406 13.9311 16.7274C15.6957 15.6822 17.2113 14.2648 18.3721 12.5739C19.533 10.8829 20.3112 8.95914 20.6527 6.93657C18.5699 5.41208 14.8589 6.68091 11.6969 9.56892Z" fill="#54C3DE"/>
</g>
</svg>
