<svg viewBox="0 0 145 36" fill="none" xmlns="http://www.w3.org/2000/svg">
<g>
<path d="M27.918 3.68921H10.2915C9.50138 3.68921 8.86084 4.32979 8.86084 5.11999V22.7475C8.86084 23.5376 9.50138 24.1782 10.2915 24.1782H27.918C28.7081 24.1782 29.3487 23.5376 29.3487 22.7475V5.11999C29.3487 4.32979 28.7081 3.68921 27.918 3.68921Z" fill="url(#paint0_radial)"/>
<path fill-rule="evenodd" clip-rule="evenodd" d="M10.292 3.8554C9.5935 3.8554 9.02726 4.42167 9.02726 5.1202V22.7477C9.02726 23.4462 9.5935 24.0125 10.292 24.0125H27.9184C28.6169 24.0125 29.1832 23.4462 29.1832 22.7477V5.1202C29.1832 4.42167 28.6169 3.8554 27.9184 3.8554H10.292ZM8.69531 5.1202C8.69531 4.23833 9.41017 3.52344 10.292 3.52344H27.9184C28.8003 3.52344 29.5151 4.23833 29.5151 5.1202V22.7477C29.5151 23.6295 28.8003 24.3444 27.9184 24.3444H10.292C9.41017 24.3444 8.69531 23.6295 8.69531 22.7477V5.1202Z" fill="black"/>
<path d="M23.537 4.09106L18.196 5.51852L18.342 6.67045L18.1694 7.94853L18.3354 9.27639L18.4815 10.4283L18.7703 11.3943C18.7703 11.3943 23.7196 9.50545 23.537 4.09106Z" fill="url(#paint1_linear)"/>
<path d="M17.1638 7.94198L17.1803 8.07145L17.3463 9.39932L17.4924 10.5512V10.6342L17.5156 10.7139L17.8044 11.6799L18.1131 12.7057L19.109 12.3273C21.0509 11.5903 24.6824 8.91465 24.5197 4.06792L24.4766 2.81641L23.2683 3.14837L17.9272 4.57583L17.0874 4.80157L17.1936 5.66469L17.3264 6.66723L17.1704 7.81251L17.1638 7.94198ZM18.1596 7.94198L18.3322 6.66391L18.1862 5.51198L23.5272 4.08452C23.7098 9.49891 18.7604 11.3878 18.7604 11.3878L18.4716 10.4218L18.3223 9.26653L18.1596 7.94198Z" fill="black"/>
<path d="M26.504 1.93978C26.504 1.93978 19.6492 4.59552 15.9978 14.5545C12.3464 24.5136 8.27005 25.8713 0.499137 22.1367C0.499137 22.1367 0.167189 28.3876 9.12979 27.6141C9.12979 27.6141 8.6883 32.4808 11.1215 35.2494C11.1215 35.2494 13.0036 33.1447 14.5538 25.6223C14.5538 25.6223 25.5081 21.5259 28.2733 13.7811C31.0384 6.03626 36.1305 6.47777 36.1305 6.47777C36.1305 6.47777 31.7023 -3.03973 26.504 1.93978Z" fill="url(#paint2_linear)"/>
<path fill-rule="evenodd" clip-rule="evenodd" d="M36.5821 6.26733C36.5822 6.26755 36.5823 6.26773 36.1308 6.47779L36.5823 6.26773L36.9454 7.04824L36.0902 6.97409L36.0899 6.97406L36.0891 6.97399L36.0885 6.97394L36.0855 6.97377C36.0825 6.97359 36.0782 6.97334 36.0725 6.97307C36.0678 6.97284 36.062 6.9726 36.0554 6.97237C36.0263 6.97134 35.9796 6.97047 35.9172 6.97179C35.7921 6.97443 35.6041 6.98582 35.3673 7.02205C34.8937 7.09447 34.2255 7.266 33.4723 7.66514C31.9772 8.4574 30.0888 10.1778 28.7426 13.9485C27.3038 17.9782 23.7594 21.014 20.6471 23.0243C19.0822 24.0352 17.6062 24.7997 16.5215 25.3116C15.9788 25.5677 15.5331 25.7611 15.2219 25.8908C15.132 25.9283 15.0533 25.9605 14.9868 25.9873C14.2201 29.6276 13.3764 31.9918 12.7103 33.4623C12.3691 34.2153 12.0743 34.7344 11.86 35.0707C11.7529 35.2388 11.6659 35.3611 11.6033 35.4442C11.572 35.4857 11.5468 35.5173 11.5282 35.5399C11.5227 35.5466 11.5178 35.5525 11.5134 35.5577C11.5105 35.5612 11.5078 35.5643 11.5054 35.5671L11.4979 35.5758L11.4951 35.579L11.494 35.5803L11.4935 35.5808C11.4932 35.5811 11.493 35.5813 11.1219 35.2494L11.493 35.5813L11.1186 36L10.7478 35.5781C9.43324 34.0823 8.91773 32.0541 8.71942 30.4548C8.61928 29.6472 8.5978 28.9301 8.60128 28.4145C8.60192 28.3197 8.60341 28.2316 8.60541 28.1509C4.37184 28.3894 2.16471 27.0322 1.0474 25.4531C0.477081 24.6471 0.216871 23.818 0.0984849 23.1942C0.0391411 22.8815 0.0148245 22.6172 0.00543564 22.4285C0.00073512 22.334 -0.000242134 22.2581 4.6104e-05 22.2041C0.000190302 22.177 0.000651348 22.1554 0.00112462 22.1396C0.00136126 22.1318 0.0016011 22.1254 0.0018062 22.1204L0.00208304 22.1142L0.00219309 22.112L0.00223946 22.111C0.00225996 22.1107 0.00227951 22.1103 0.499501 22.1367L0.00227951 22.1103L0.0418938 21.3643L0.715174 21.6879C4.57943 23.545 7.35675 24.0463 9.5868 23.0278C11.8361 22.0006 13.7099 19.3492 15.5307 14.3831C17.3875 9.31874 20.065 6.09727 22.2917 4.13864C23.404 3.16024 24.4022 2.49837 25.127 2.07929C25.4894 1.86974 25.7836 1.7208 25.9897 1.62326C26.0917 1.57499 26.1722 1.5393 26.2287 1.51506C27.5984 0.233148 28.9781 -0.161728 30.2838 0.0570243C31.5771 0.273704 32.708 1.0783 33.619 1.98938C34.5361 2.90649 35.2757 3.97704 35.7829 4.80934C36.0376 5.22725 36.2361 5.58913 36.3715 5.84748C36.4392 5.97674 36.4912 6.0803 36.5266 6.15227C36.5443 6.18826 36.5579 6.21636 36.5672 6.23584L36.578 6.25852L36.5809 6.26484L36.5818 6.26672L36.5821 6.26733ZM26.6842 2.40413L26.6832 2.40454L26.6724 2.40888C26.662 2.41312 26.6453 2.42004 26.6225 2.4298C26.5769 2.44932 26.5071 2.48017 26.4156 2.52347C26.2326 2.61007 25.9628 2.74642 25.6255 2.94145C24.9509 3.33154 24.0072 3.95605 22.9494 4.88645C20.8359 6.74545 18.2603 9.83136 16.4657 14.726C14.635 19.719 12.645 22.726 10.0005 23.9337C7.51693 25.0679 4.61385 24.5473 1.06611 22.9499C1.06953 22.9692 1.07311 22.9887 1.07687 23.0085C1.17632 23.5325 1.39329 24.2178 1.86031 24.8778C2.76878 26.1618 4.7306 27.494 9.08735 27.118L9.67977 27.0669L9.62607 27.6588L9.62593 27.6605L9.62523 27.6688C9.62459 27.6767 9.62362 27.689 9.62241 27.7056C9.61999 27.7388 9.61665 27.7892 9.61317 27.855C9.60621 27.9866 9.59874 28.1799 9.59711 28.4212C9.59384 28.9045 9.61407 29.5771 9.7077 30.3323C9.87281 31.6638 10.2595 33.1958 11.0983 34.4101C11.2798 34.1125 11.5224 33.671 11.8031 33.0513C12.4496 31.6241 13.2975 29.2536 14.0665 25.5218L14.1221 25.2523L14.3797 25.156L14.3808 25.1556L14.3858 25.1537L14.4073 25.1455C14.4267 25.138 14.4563 25.1266 14.4953 25.1112C14.5733 25.0804 14.6894 25.0339 14.8387 24.9716C15.1374 24.8471 15.5691 24.6599 16.0965 24.4109C17.1521 23.9127 18.5876 23.1691 20.1068 22.1877C23.163 20.2136 26.4783 17.3287 27.8047 13.6136C29.2236 9.63955 31.2638 7.70832 33.006 6.78513C33.8715 6.32655 34.6491 6.12441 35.2167 6.03759C35.257 6.03144 35.2961 6.02586 35.3342 6.02082C35.2244 5.82105 35.0898 5.58574 34.9325 5.32764C34.447 4.53102 33.7546 3.53341 32.9149 2.69359C32.0691 1.84772 31.1182 1.2066 30.1192 1.03924C29.1545 0.877609 28.0557 1.1433 26.8488 2.2994L26.7769 2.3682L26.6842 2.40413Z" fill="black"/>
<path style="mix-blend-mode:multiply" opacity="0.33" d="M25.5354 2.42127C24.6354 2.93317 23.7843 3.52656 22.9927 4.19397C24.5562 4.05787 29.1238 4.25041 29.4922 11.069V11.0956C29.9348 10.3075 30.4672 9.57332 31.0789 8.90791C31.3876 5.15336 30.5047 0.306637 25.5354 2.42127Z" fill="url(#paint3_radial)"/>
<path d="M26.1724 4.37646C26.1724 4.37646 26.2255 15.5505 28.662 10.239C28.662 10.239 27.0022 12.2308 26.1724 4.37646Z" fill="black"/>
<path d="M12.3667 23.4646C12.3667 23.4646 13.6945 28.3611 11.2879 33.0917C11.2879 33.0917 9.62816 29.855 10.2091 26.3693C10.2091 26.3693 4.48296 27.1992 2.74023 24.6265C2.74023 24.6265 9.54518 27.5312 12.3667 23.4646Z" fill="white"/>
<path d="M22.7398 5.64453C22.7398 5.64453 18.0394 9.29617 15.271 19.534C15.271 19.534 20.1407 7.47367 22.7398 5.64453Z" fill="white"/>
<path fill-rule="evenodd" clip-rule="evenodd" d="M85.4151 13.8638C85.4151 12.0878 84.957 10.5176 82.9488 10.5176C81.2425 10.5176 79.9977 11.9484 79.9977 14.1161V18.8932C79.9977 19.9057 79.2807 20.0915 78.9123 20.0915C78.5438 20.0915 77.8268 19.9057 77.8268 18.8932V3.48325C77.8268 2.46742 78.5438 2.28149 78.9123 2.28149C79.2807 2.28149 79.9977 2.46742 79.9977 3.48325V10.6238H80.0408C80.5488 9.53833 81.933 8.6619 83.5031 8.6619C86.318 8.6619 87.586 10.6703 87.586 13.1135V18.8932C87.586 19.9057 86.8691 20.0915 86.5005 20.0915C86.1321 20.0915 85.4151 19.9057 85.4151 18.8932V13.8638ZM68.9292 19.7129C69.6021 20.0526 70.3479 20.2225 71.1016 20.2077C74.4609 20.2077 76.5987 17.6383 76.5987 14.4116C76.5987 11.1849 74.3844 8.66854 71.1314 8.66854C69.3323 8.66854 67.905 9.52172 67.1879 10.677H67.1182V9.95986C67.1182 8.96396 66.4144 8.78476 66.066 8.78476C65.7173 8.78476 65.0037 8.94742 65.0037 9.95986V24.427C65.0037 25.4429 65.7207 25.6288 66.0891 25.6288C66.4575 25.6288 67.1712 25.4429 67.1712 24.427V18.259H67.2409C67.6767 18.8742 68.2564 19.3733 68.9292 19.7129ZM67.0419 14.4547C67.0419 12.3412 68.5142 10.4729 70.7265 10.4711C73.0946 10.4729 74.3812 12.3511 74.3812 14.4182C74.3812 16.4864 73.1066 18.4018 70.7298 18.4018C68.5157 18.4018 67.0419 16.5694 67.0419 14.4547ZM34.2433 22.5872C34.1919 22.7093 34.1655 22.8405 34.1657 22.973C34.1722 23.0696 34.1902 23.1647 34.2192 23.2565C34.2474 23.3461 34.2859 23.4324 34.3344 23.5136C34.4325 23.6781 34.568 23.817 34.7299 23.9191C36.0527 24.9124 37.6633 25.4474 39.3175 25.4428C43.8619 25.4428 45.3623 22.5347 45.3623 19.3512V9.93992C45.3623 8.95067 44.6684 8.788 44.3232 8.788C43.9781 8.788 43.2643 8.94402 43.2643 9.93992V10.7267H43.2179C42.79 10.0735 42.2013 9.54133 41.5083 9.18149C40.8153 8.82164 40.0414 8.64609 39.261 8.67178C35.9151 8.67178 33.7739 11.2014 33.7739 14.3551C33.7739 17.5088 35.9415 19.9985 39.2843 19.9985C40.8311 19.9985 42.3315 19.3313 43.1382 18.1063H43.1847V19.5405C43.1847 21.8011 42.2154 23.5772 39.3307 23.5772C38.1121 23.5452 36.9409 23.0978 36.0113 22.309C35.7813 22.1058 35.4881 21.9885 35.1815 21.9771C35.0489 21.9744 34.9173 21.9982 34.7942 22.0471C34.7416 22.068 34.6908 22.0934 34.6425 22.1228C34.5782 22.162 34.5184 22.2086 34.4642 22.2616C34.3697 22.3543 34.2945 22.465 34.2433 22.5872ZM43.344 14.3252C43.344 16.493 41.8702 18.176 39.6328 18.176C37.349 18.176 36.0113 16.3303 36.0113 14.3252C36.0113 12.2239 37.349 10.4711 39.6328 10.4711C41.8469 10.4711 43.344 12.2471 43.344 14.3252ZM49.3424 10.8164H49.2727L49.2594 9.93003C49.2594 8.94078 48.5889 8.77812 48.2437 8.77812C47.8984 8.77812 47.2079 8.93413 47.2079 9.93003V18.8932C47.2079 19.9057 47.9216 20.0915 48.29 20.0915C48.6586 20.0915 49.3755 19.9057 49.3755 18.8932V14.302C49.3755 11.9484 50.6203 10.6803 52.3266 10.6803H52.4893C53.203 10.6803 53.7805 10.4014 53.7805 9.64118C53.7805 8.95075 53.1764 8.67186 52.5125 8.67186C51.8337 8.68605 51.1735 8.89604 50.6111 9.27647C50.0488 9.65683 49.6083 10.1916 49.3424 10.8164ZM61.2461 18.3387H61.1764C60.3896 19.5139 59.1448 20.1845 57.5249 20.1845C55.7955 20.1845 53.5415 19.3313 53.5415 16.815C53.5415 13.5152 57.4619 13.1235 61.1532 13.1235V12.8248C61.1532 11.2114 60.0677 10.4247 58.4543 10.4247C57.5248 10.4435 56.6229 10.7445 55.8684 11.2877C55.6824 11.4287 55.4577 11.5097 55.2245 11.5201C55.1603 11.5202 55.0963 11.5127 55.034 11.498C54.9888 11.4873 54.9444 11.4729 54.9014 11.4548C54.8645 11.4392 54.8288 11.421 54.7948 11.4003C54.7606 11.3796 54.7278 11.3565 54.697 11.3311C54.6734 11.3116 54.6507 11.2909 54.6293 11.2688C54.552 11.1893 54.4914 11.0951 54.451 10.9917C54.4106 10.8883 54.3915 10.7779 54.3946 10.667C54.3948 10.5393 54.4196 10.4132 54.467 10.2956C54.4836 10.2549 54.5027 10.2151 54.5246 10.1766C54.6095 10.027 54.7317 9.90207 54.8792 9.81381C55.9902 9.05027 57.3124 8.65436 58.6602 8.68183C61.8203 8.68183 63.2279 10.5508 63.2279 12.9741V18.9827C63.2279 19.9288 62.564 20.0915 62.2584 20.0915C61.9531 20.0915 61.2461 19.9288 61.2461 18.9827V18.3387ZM60.622 14.6871C58.4777 14.6871 55.7556 14.9161 55.7556 16.7619C55.7556 18.0533 56.9075 18.4682 57.993 18.4682C60.0212 18.4682 61.1532 17.1071 61.1532 15.2647V14.6937L60.622 14.6871ZM89.7521 6.14766C89.9747 6.30846 90.2395 6.40004 90.5139 6.41115C90.7005 6.4165 90.8861 6.38481 91.0603 6.31794C91.1292 6.29152 91.1958 6.25983 91.2595 6.2232C91.3568 6.1672 91.4474 6.0996 91.529 6.0218C91.6642 5.8931 91.7725 5.73895 91.8479 5.56818C91.8672 5.52458 91.8842 5.48008 91.8988 5.43494C91.9416 5.30324 91.9649 5.16578 91.9678 5.02687V4.99672C91.967 4.93399 91.962 4.87167 91.9529 4.81007C91.9484 4.78008 91.9428 4.75026 91.9365 4.72059C91.9009 4.55502 91.8352 4.39649 91.742 4.25304C91.5924 4.02286 91.3783 3.84189 91.1266 3.73264C91.0083 3.68133 90.8841 3.64689 90.7577 3.62979C90.6663 3.61739 90.5737 3.61406 90.4813 3.61998C90.4295 3.6233 90.3776 3.62954 90.3259 3.6387C90.2 3.66107 90.0784 3.70046 89.9643 3.75533C89.8336 3.81822 89.7129 3.90146 89.6067 4.00252C89.4079 4.19185 89.2693 4.43547 89.208 4.70309C89.1467 4.9707 89.1657 5.2504 89.2625 5.50732C89.3592 5.76423 89.5296 5.98695 89.7521 6.14766ZM90.5139 20.0915C90.8823 20.0915 91.5994 19.9057 91.5994 18.8932V9.98644C91.5994 8.97393 90.8823 8.78809 90.5139 8.78809C90.1453 8.78809 89.4284 8.99054 89.4284 9.98644V18.8932C89.4284 19.9057 90.1453 20.0915 90.5139 20.0915ZM101.538 17.3229C101.656 17.3184 101.773 17.3378 101.882 17.3799C101.914 17.3919 101.944 17.4057 101.974 17.4211C102.048 17.4599 102.117 17.5093 102.177 17.5679C102.261 17.6498 102.328 17.748 102.374 17.8566C102.419 17.9651 102.442 18.0816 102.441 18.1993C102.439 18.3863 102.392 18.5701 102.304 18.7349C102.215 18.8997 102.088 19.0406 101.933 19.1454C100.995 19.8656 99.8385 20.2408 98.6567 20.2076C95.2641 20.2076 92.821 17.9238 92.821 14.4381C92.821 10.9524 95.3106 8.67178 98.6567 8.67178C99.809 8.64261 100.938 9.00027 101.863 9.68762C101.956 9.74808 102.04 9.82078 102.113 9.90345C102.164 9.96132 102.21 10.024 102.249 10.0909C102.345 10.2533 102.401 10.4358 102.414 10.6238C102.419 10.751 102.397 10.8779 102.35 10.9962C102.303 11.1145 102.232 11.2217 102.141 11.3107C102.08 11.3706 102.011 11.4214 101.936 11.4618C101.899 11.4816 101.861 11.4989 101.822 11.5136C101.757 11.5378 101.69 11.5545 101.622 11.5635C101.565 11.5711 101.506 11.5733 101.448 11.5699C101.216 11.5699 101.01 11.5002 100.595 11.155C100.054 10.7172 99.3762 10.4823 98.6799 10.491C96.4193 10.491 95.1048 12.3367 95.1048 14.4348C95.1048 16.5328 96.3729 18.3586 98.6567 18.3586C99.4266 18.3802 100.179 18.1259 100.778 17.6415C100.888 17.5423 101.014 17.4641 101.15 17.4098C101.273 17.3606 101.404 17.331 101.538 17.3229ZM106.129 10.8164H106.059V9.93003C106.059 8.94078 105.389 8.77812 105.043 8.77812C104.698 8.77812 104.008 8.93413 104.008 9.93003V18.8932C104.008 19.9057 104.718 20.0915 105.09 20.0915C105.461 20.0915 106.175 19.9057 106.175 18.8932V14.302C106.175 11.9484 107.42 10.6803 109.126 10.6803H109.289C110.003 10.6803 110.58 10.4014 110.58 9.64118C110.58 8.95075 109.976 8.67186 109.312 8.67186C108.631 8.68354 107.968 8.89231 107.403 9.27291C106.838 9.65342 106.395 10.1895 106.129 10.8164ZM112.499 6.32581C112.381 6.28204 112.269 6.22231 112.165 6.14766C111.943 5.98695 111.772 5.76423 111.676 5.50732C111.579 5.2504 111.56 4.9707 111.621 4.70309C111.65 4.57666 111.696 4.45557 111.758 4.343C111.827 4.21738 111.915 4.10237 112.02 4.00252C112.219 3.8132 112.469 3.68668 112.739 3.6387C113.009 3.59064 113.288 3.6233 113.54 3.73264C113.791 3.84189 114.006 4.02286 114.155 4.25304C114.237 4.37931 114.298 4.51733 114.336 4.66159C114.354 4.73105 114.367 4.80197 114.374 4.87369C114.379 4.92443 114.381 4.97557 114.381 5.02687C114.378 5.2136 114.337 5.39774 114.262 5.56875C114.187 5.73968 114.078 5.89399 113.943 6.02277C113.931 6.03412 113.919 6.04522 113.907 6.05608L113.869 6.08866C113.846 6.10747 113.823 6.12554 113.799 6.14288C113.763 6.16874 113.727 6.19289 113.689 6.21526C113.657 6.23398 113.625 6.25149 113.591 6.26778C113.553 6.28658 113.514 6.3036 113.474 6.31884C113.3 6.38554 113.114 6.4169 112.927 6.41115C112.78 6.40523 112.636 6.37622 112.499 6.32581ZM114.009 18.8932C114.009 19.9057 113.295 20.0915 112.927 20.0915C112.558 20.0915 111.842 19.9057 111.842 18.8932V9.98644C111.842 8.99054 112.558 8.78809 112.927 8.78809C113.295 8.78809 114.009 8.97393 114.009 9.98644V18.8932ZM119.174 18.8932C119.589 19.8824 120.257 20.0915 120.764 20.0915C121.272 20.0915 121.943 19.8824 122.358 18.8932L125.956 10.4014C126.039 10.2126 126.085 10.0099 126.092 9.80384C126.092 9.66687 126.064 9.53136 126.01 9.4055C125.956 9.27955 125.877 9.16576 125.779 9.07094C125.68 8.97611 125.563 8.9022 125.435 8.85357C125.307 8.80502 125.17 8.78274 125.033 8.78809C124.685 8.78809 124.223 8.92749 123.948 9.66444L120.811 17.552H120.764L117.651 9.66444C117.352 8.90423 116.891 8.78809 116.542 8.78809C116.505 8.78728 116.469 8.78833 116.433 8.79125C116.392 8.79457 116.352 8.80024 116.312 8.8081C116.252 8.82018 116.192 8.83752 116.134 8.86005C116.004 8.91063 115.886 8.98633 115.785 9.08285C115.685 9.17946 115.604 9.29487 115.548 9.4226C115.533 9.45826 115.519 9.49465 115.508 9.53169C115.496 9.56873 115.487 9.60633 115.479 9.64442C115.467 9.70448 115.461 9.76559 115.46 9.8271C115.462 10.0416 115.509 10.2532 115.599 10.4479L119.174 18.8932ZM128.562 15.0855C128.607 15.9916 129.003 16.8445 129.666 17.464C130.329 18.0834 131.207 18.421 132.114 18.4052C132.638 18.4084 133.158 18.3057 133.641 18.1032C134.125 17.9007 134.563 17.6026 134.929 17.2267C134.985 17.1666 135.049 17.1135 135.117 17.0684C135.167 17.0356 135.22 17.0071 135.275 16.9831C135.405 16.9261 135.546 16.896 135.689 16.8947C135.757 16.8911 135.826 16.8955 135.893 16.9078C135.944 16.9172 135.995 16.9311 136.044 16.9495C136.157 16.9921 136.261 17.0578 136.347 17.1423C136.372 17.1666 136.396 17.1924 136.417 17.2195C136.427 17.2314 136.437 17.2437 136.446 17.2562C136.47 17.2896 136.492 17.3248 136.511 17.3615C136.524 17.3872 136.537 17.4136 136.548 17.4406C136.593 17.5529 136.615 17.6733 136.611 17.7943C136.602 18.0876 136.484 18.3669 136.28 18.5778C135.74 19.1251 135.091 19.5537 134.376 19.836C133.661 20.1184 132.895 20.2484 132.127 20.2177C128.807 20.2177 126.361 17.9105 126.361 14.4713C126.361 11.0322 128.804 8.68183 132.004 8.68183C134.749 8.68183 136.777 10.2753 137.196 13.273C137.209 13.3639 137.219 13.4552 137.226 13.5467C137.237 13.693 137.242 13.8398 137.239 13.9867C137.239 14.7502 136.847 15.0955 136.087 15.0955L128.562 15.0855ZM135.065 13.4688C135.018 11.7392 134.006 10.3782 131.997 10.3782C131.14 10.3623 130.308 10.6726 129.67 11.2462C129.033 11.8199 128.636 12.6142 128.562 13.4688H135.065ZM140.548 10.8164H140.479V9.94C140.479 8.96396 139.808 8.77812 139.463 8.77812C139.118 8.77812 138.427 8.93413 138.427 9.93003V18.8932C138.427 19.9057 139.141 20.0915 139.509 20.0915C139.878 20.0915 140.595 19.9057 140.595 18.8932V14.302C140.595 11.9484 141.84 10.6803 143.546 10.6803H143.709C144.422 10.6803 145 10.4014 145 9.64118C145 8.95075 144.396 8.67186 143.732 8.67186C143.051 8.68354 142.388 8.89231 141.823 9.27291C141.258 9.65342 140.815 10.1895 140.548 10.8164Z" fill="black"/>
<defs>
<radialGradient id="paint0_radial" cx="0" cy="0" r="1" gradientUnits="userSpaceOnUse" gradientTransform="translate(15.772 11.4672) scale(15.7277 15.7286)">
<stop stop-color="#373638"/>
<stop offset="1"/>
</radialGradient>
<linearGradient id="paint1_linear" x1="23.3251" y1="4.92158" x2="17.5741" y2="5.67672" gradientUnits="userSpaceOnUse">
<stop stop-color="#005E9C"/>
<stop offset="0.07" stop-color="#0D76B2"/>
<stop offset="0.16" stop-color="#188CC6"/>
<stop offset="0.25" stop-color="#219CD5"/>
<stop offset="0.36" stop-color="#25A5DD"/>
<stop offset="0.51" stop-color="#27A8E0"/>
<stop offset="0.58" stop-color="#2BA9E1"/>
<stop offset="0.65" stop-color="#35AEE2"/>
<stop offset="0.72" stop-color="#48B5E5"/>
<stop offset="0.78" stop-color="#61BFE8"/>
<stop offset="0.84" stop-color="#82CDED"/>
<stop offset="0.9" stop-color="#ABDDF3"/>
<stop offset="0.96" stop-color="#DAF0FA"/>
<stop offset="1" stop-color="white"/>
</linearGradient>
<linearGradient id="paint2_linear" x1="0.499137" y1="17.8742" x2="36.1305" y2="17.8742" gradientUnits="userSpaceOnUse">
<stop stop-color="#27A8E0"/>
<stop offset="0.25" stop-color="#25A4DD"/>
<stop offset="0.48" stop-color="#1F9AD3"/>
<stop offset="0.69" stop-color="#1687C2"/>
<stop offset="0.9" stop-color="#086EAB"/>
<stop offset="1" stop-color="#005E9C"/>
</linearGradient>
<radialGradient id="paint3_radial" cx="0" cy="0" r="1" gradientUnits="userSpaceOnUse" gradientTransform="translate(26.1229 3.64623) scale(8.0763 8.07676)">
<stop stop-color="#121212"/>
<stop offset="1"/>
</radialGradient>
</defs>
</g>
</svg>
