<svg viewBox="0 0 190 32" fill="none" xmlns="http://www.w3.org/2000/svg">
<g id="logo">
<path fill-rule="evenodd" clip-rule="evenodd" d="M125.796 22.4567C125.796 23.8226 124.838 24.0681 124.344 24.0681C123.849 24.0681 122.887 23.8226 122.887 22.4567V11.5073H121.06C119.915 11.5073 119.723 10.6994 119.723 10.2977C119.723 9.89594 119.91 9.11926 121.06 9.11926H122.887V6.04826C122.887 2.60678 124.406 0 128.211 0C129.824 0 130.288 0.557958 130.288 1.3391C130.288 1.89706 129.914 2.5175 128.893 2.5175H128.448C126.34 2.5175 125.814 3.97266 125.814 6.05272V9.12372H128.167C129.312 9.12372 129.504 9.93165 129.504 10.3021C129.504 10.6726 129.317 11.5118 128.167 11.5118H125.814L125.796 22.4567ZM60.2737 15.6942C60.2737 13.3062 59.6544 11.1993 56.9631 11.1993C54.6728 11.1993 52.9974 13.1187 52.9974 16.0379V22.4567C52.9974 23.8226 52.0394 24.0681 51.5448 24.0681C51.0502 24.0681 50.0878 23.8226 50.0878 22.4567V1.73638C50.0878 0.370497 51.0502 0.124996 51.5448 0.124996C52.0394 0.124996 52.9974 0.370497 52.9974 1.73638V11.3511H53.0598C53.7415 9.89595 55.5996 8.71754 57.7072 8.71754C61.4812 8.71754 63.1834 11.3957 63.1834 14.7033V22.4567C63.1834 23.8226 62.2254 24.0681 61.7308 24.0681C61.2362 24.0681 60.2737 23.8226 60.2737 22.4567V15.6942ZM45.7521 24.0681C42.9672 24.0681 41.479 22.4879 41.479 19.4794V6.24913C41.479 4.88325 42.4415 4.63328 42.9361 4.63328C43.4306 4.63328 44.3619 4.88325 44.3619 6.24913V9.10141H47.178C48.3231 9.10141 48.5147 9.90933 48.5147 10.3111C48.5147 10.7128 48.3276 11.4895 47.178 11.4895H44.3619V19.167C44.3619 20.9524 45.0436 21.6175 46.1442 21.6175C46.3642 21.6146 46.5829 21.5831 46.7948 21.5238C46.9658 21.473 47.1424 21.4431 47.3206 21.4345C47.4725 21.4289 47.6239 21.4547 47.7654 21.5103C47.9068 21.566 48.0353 21.6503 48.1428 21.758C48.2503 21.8656 48.3344 21.9944 48.39 22.1361C48.4456 22.2778 48.4713 22.4295 48.4657 22.5817C48.455 22.8302 48.3733 23.0704 48.2304 23.2737C48.0874 23.4771 47.8892 23.635 47.6592 23.7288C47.0528 23.9695 46.4041 24.0849 45.7521 24.0681ZM69.126 20.535C68.2363 19.7021 67.7047 18.5552 67.6436 17.3369L77.7449 17.3503C78.7698 17.3503 79.2956 16.8861 79.2956 15.8639C79.3021 15.5413 79.2812 15.2188 79.2332 14.8997C78.6762 10.869 75.9493 8.73095 72.2643 8.73095C67.9689 8.73095 64.6894 11.918 64.6894 16.5156C64.6894 21.1131 67.9734 24.2377 72.4292 24.2377C73.4599 24.2788 74.4879 24.1043 75.4476 23.7254C76.4073 23.3465 77.2777 22.7716 78.0034 22.0371C78.2769 21.7515 78.4356 21.3748 78.449 20.9792C78.4547 20.8159 78.4265 20.6532 78.3664 20.5014C78.3062 20.3495 78.2152 20.2118 78.0993 20.0969C77.9833 19.9819 77.8448 19.8924 77.6926 19.8337C77.5404 19.7751 77.3776 19.7487 77.2147 19.7562C77.0217 19.7606 76.8317 19.8044 76.6562 19.885C76.4807 19.9656 76.3236 20.0812 76.1943 20.2249C75.7016 20.7284 75.1127 21.1274 74.4628 21.3981C73.8129 21.6688 73.1152 21.8057 72.4113 21.8005C71.1938 21.8218 70.0157 21.368 69.126 20.535ZM72.2554 11.0208C74.9512 11.0208 76.3146 12.8509 76.377 15.1765H67.6436C67.7449 14.0278 68.2771 12.9604 69.1329 12.1892C69.9887 11.418 71.1045 11.0005 72.2554 11.0208ZM80.8951 10.4226C80.8951 9.08355 81.8219 8.86929 82.2898 8.86929C82.7576 8.86929 83.6265 9.08801 83.6265 10.4226V11.5386H83.7201C84.1551 10.6743 84.8252 9.95086 85.653 9.45171C86.4808 8.95256 87.4327 8.69804 88.3987 8.71753C89.3689 8.67253 90.3289 8.93226 91.1445 9.46044C91.9601 9.98863 92.5907 10.7589 92.9481 11.6635C93.4235 10.7566 94.142 10.0004 95.0228 9.48002C95.9035 8.9596 96.9118 8.69555 97.9341 8.71753C101.713 8.71753 103.415 11.3957 103.415 14.7033V22.4567C103.415 23.8226 102.452 24.0681 101.958 24.0681C101.463 24.0681 100.505 23.8226 100.505 22.4567V15.663C100.505 13.2749 99.7922 11.1681 97.2524 11.1681C94.5789 11.1681 93.5362 13.5874 93.5362 15.8817V22.4567C93.5362 23.8226 92.5782 24.0681 92.0792 24.0681C91.5801 24.0681 90.6266 23.8226 90.6266 22.4567V15.0738C90.6266 12.7795 89.8513 11.1681 87.5298 11.1681C85.3955 11.1681 83.7825 13.0875 83.7825 16.0067V22.4567C83.7825 23.8226 82.8245 24.0681 82.3299 24.0681C81.8353 24.0681 80.8728 23.8226 80.8728 22.4567L80.8951 10.4226ZM109.313 20.535C108.423 19.7021 107.891 18.5552 107.83 17.3369L117.909 17.3503C118.934 17.3503 119.46 16.8861 119.46 15.8639C119.467 15.5413 119.446 15.2188 119.398 14.8997C118.841 10.869 116.114 8.73095 112.429 8.73095C108.138 8.73095 104.854 11.918 104.854 16.5156C104.854 21.1131 108.138 24.2377 112.594 24.2377C113.624 24.2788 114.652 24.1043 115.612 23.7254C116.572 23.3465 117.442 22.7716 118.168 22.0371C118.441 21.7515 118.6 21.3748 118.613 20.9792C118.62 20.8171 118.592 20.6555 118.534 20.5043C118.475 20.3532 118.386 20.2158 118.271 20.1007C118.157 19.9855 118.021 19.8952 117.87 19.8351C117.72 19.7751 117.559 19.7467 117.397 19.7517C117.204 19.7561 117.014 19.7999 116.838 19.8805C116.663 19.9611 116.506 20.0768 116.377 20.2204C115.885 20.7242 115.297 21.1237 114.648 21.3951C113.999 21.6666 113.301 21.8045 112.598 21.8005C111.381 21.8218 110.202 21.368 109.313 20.535ZM112.42 11.0208C115.116 11.0208 116.479 12.8509 116.541 15.1765H107.83C107.932 14.0321 108.462 12.9685 109.313 12.1981C110.163 11.4277 111.273 11.0073 112.42 11.0208ZM129.08 16.4397C129.08 20.9658 132.485 24.2243 136.976 24.2243C141.463 24.2243 144.903 20.9703 144.903 16.4397C144.903 11.9091 141.467 8.71754 136.976 8.71754C132.485 8.71754 129.08 11.9135 129.08 16.4397ZM132.075 16.4397C132.075 13.6454 133.857 11.1368 136.976 11.1368V11.1592C140.131 11.1592 141.877 13.6276 141.877 16.4397C141.877 19.2518 140.095 21.7961 136.976 21.7961C133.857 21.7961 132.075 19.2339 132.075 16.4397ZM149.203 11.6055H149.296C149.654 10.7627 150.248 10.0419 151.007 9.53012C151.765 9.01839 152.655 8.73771 153.569 8.72201C154.46 8.72201 155.271 9.09249 155.271 10.0209C155.271 11.0476 154.496 11.4181 153.538 11.4181H153.32C151.029 11.4181 149.359 13.1232 149.359 16.2879V22.4567C149.359 23.8226 148.4 24.0681 147.901 24.0681C147.402 24.0681 146.449 23.8226 146.449 22.4567V10.4048C146.449 9.06571 147.376 8.85146 147.839 8.85146C148.302 8.85146 149.203 9.07018 149.203 10.4048V11.6055ZM158.737 20.535C157.847 19.7021 157.315 18.5552 157.254 17.3369L167.356 17.3503C168.38 17.3503 168.906 16.8861 168.906 15.8639C168.913 15.5413 168.892 15.2188 168.844 14.8997C168.287 10.869 165.56 8.73095 161.875 8.73095C157.58 8.73095 154.3 11.918 154.3 16.5156C154.3 21.1131 157.584 24.2377 162.04 24.2377C163.071 24.2788 164.098 24.1043 165.058 23.7254C166.018 23.3465 166.888 22.7716 167.614 22.0371C167.888 21.7515 168.046 21.3748 168.06 20.9792C168.066 20.8152 168.038 20.6516 167.978 20.4989C167.918 20.3461 167.827 20.2076 167.71 20.0922C167.594 19.9767 167.454 19.8868 167.301 19.8282C167.148 19.7696 166.985 19.7435 166.821 19.7517C166.628 19.7561 166.438 19.7999 166.262 19.8805C166.087 19.9611 165.93 20.0768 165.8 20.2204C165.309 20.7242 164.721 21.1237 164.072 21.3951C163.422 21.6666 162.725 21.8045 162.022 21.8005C160.804 21.8218 159.626 21.368 158.737 20.535ZM161.866 11.0208C164.562 11.0208 165.921 12.8509 165.983 15.1765H157.254C157.356 14.0278 157.888 12.9604 158.744 12.1892C159.599 11.418 160.715 11.0005 161.866 11.0208ZM175.643 11.0119C174.306 11.0119 172.921 11.5386 172.921 12.9357C172.921 14.1766 174.035 14.6408 176.263 15.1363C179.052 15.7567 181.186 16.8726 181.186 19.4794C181.186 22.9521 178.308 24.2243 175.336 24.2243C173.583 24.2605 171.874 23.6791 170.506 22.5817C170.328 22.4425 170.181 22.2679 170.075 22.0688C169.968 21.8698 169.904 21.6508 169.886 21.4256C169.873 21.252 169.897 21.0777 169.955 20.9137C170.013 20.7498 170.105 20.5999 170.225 20.4737C170.344 20.3476 170.489 20.2479 170.649 20.1812C170.81 20.1145 170.983 20.0822 171.156 20.0865C171.56 20.0971 171.945 20.256 172.239 20.5328C173.087 21.3601 174.215 21.838 175.398 21.8719C176.851 21.8719 178.308 21.3452 178.308 19.7294C178.308 18.3903 176.971 17.8725 174.467 17.2833C172.515 16.8146 170.194 16.0112 170.194 13.2169C170.194 10.0522 172.952 8.722 175.737 8.722C177.269 8.67849 178.769 9.1709 179.979 10.1147C180.173 10.2479 180.334 10.4229 180.452 10.6267C180.57 10.8306 180.641 11.0582 180.66 11.2931C180.665 11.4615 180.636 11.6291 180.574 11.7857C180.512 11.9422 180.418 12.0845 180.299 12.2036C180.181 12.3227 180.039 12.4162 179.882 12.4784C179.726 12.5406 179.559 12.5701 179.391 12.5652C179.036 12.5392 178.705 12.3797 178.464 12.1188C177.704 11.3946 176.692 10.9973 175.643 11.0119ZM182.964 19.4794C182.964 22.4879 184.453 24.0681 187.237 24.0681C187.889 24.0849 188.538 23.9695 189.144 23.7288C189.374 23.635 189.573 23.4771 189.716 23.2737C189.859 23.0704 189.94 22.8302 189.951 22.5817C189.957 22.4295 189.931 22.2778 189.875 22.1361C189.82 21.9944 189.736 21.8656 189.628 21.758C189.521 21.6503 189.392 21.566 189.251 21.5103C189.109 21.4547 188.958 21.4289 188.806 21.4345C188.628 21.4431 188.451 21.473 188.28 21.5238C188.068 21.5831 187.849 21.6146 187.629 21.6175C186.524 21.6175 185.847 20.9524 185.847 19.167V11.4895H188.663C189.813 11.4895 190 10.7128 190 10.3111C190 9.90933 189.808 9.10141 188.663 9.10141H185.847V6.24913C185.847 4.88325 184.916 4.63328 184.421 4.63328C183.927 4.63328 182.964 4.88325 182.964 6.24913V19.4794Z" fill="black"/>
<path d="M25.8039 0.803467H2.1436C1.08296 0.803467 0.223145 1.6648 0.223145 2.7273V26.4293C0.223145 27.4918 1.08296 28.3532 2.1436 28.3532H25.8039C26.8646 28.3532 27.7244 27.4918 27.7244 26.4293V2.7273C27.7244 1.6648 26.8646 0.803467 25.8039 0.803467Z" fill="url(#paint0_radial)"/>
<path fill-rule="evenodd" clip-rule="evenodd" d="M2.14324 1.02669C1.20565 1.02669 0.44558 1.7881 0.44558 2.72734V26.4294C0.44558 27.3686 1.20565 28.13 2.14324 28.13H25.8036C26.7412 28.13 27.5012 27.3686 27.5012 26.4294V2.72734C27.5012 1.7881 26.7412 1.02669 25.8036 1.02669H2.14324ZM0 2.72734C0 1.54158 0.959562 0.580322 2.14324 0.580322H25.8036C26.9872 0.580322 27.9468 1.54158 27.9468 2.72734V26.4294C27.9468 27.6152 26.9872 28.5764 25.8036 28.5764H2.14324C0.959562 28.5764 0 27.6152 0 26.4294V2.72734Z" fill="black"/>
<path d="M34.6572 18.0912C34.6572 18.0912 36.2925 18.2385 36.5153 18.8322C36.7381 19.4258 35.1028 19.9481 35.1028 19.9481L34.6572 18.0912Z" fill="white"/>
<path d="M37.3487 18.5198C36.9833 17.5467 35.5664 17.2744 34.7376 17.1807L33.793 18.301L34.2385 20.1624L35.3748 20.8052C35.9451 20.6221 36.9521 20.2115 37.2952 19.4973C37.3725 19.3474 37.4171 19.1827 37.4264 19.0143C37.4356 18.8458 37.4091 18.6773 37.3487 18.5198V18.5198ZM35.1208 19.9481L34.6752 18.0912C34.6752 18.0912 36.3105 18.2386 36.5333 18.8322C36.7561 19.4259 35.103 19.9481 35.103 19.9481H35.1208Z" fill="black"/>
<path d="M34.127 22.0192C34.127 22.0192 35.4637 22.1397 35.6419 22.6262C35.8202 23.1128 34.4879 23.519 34.4879 23.519L34.127 22.0192Z" fill="white"/>
<path d="M36.3236 22.3674C36.0251 21.5728 34.8577 21.3541 34.1938 21.2916L33.4185 22.1844L33.7838 23.702L34.7106 24.2243C35.1562 24.077 35.9984 23.7422 36.2791 23.1619C36.3394 23.0393 36.3744 22.9057 36.3821 22.7692C36.3898 22.6327 36.3699 22.496 36.3236 22.3674V22.3674ZM34.4879 23.5368L34.1269 22.0192C34.1269 22.0192 35.4637 22.1397 35.6419 22.6263C35.8201 23.1128 34.4879 23.5368 34.4879 23.5368Z" fill="black"/>
<path d="M33.4185 24.9965C33.4185 24.9965 34.5146 25.0947 34.6661 25.4964C34.8176 25.8981 33.717 26.2463 33.717 26.2463L33.4185 24.9965Z" fill="white"/>
<path d="M35.2013 25.3001C34.9562 24.6484 33.9982 24.4654 33.4502 24.4073L32.813 25.1439L33.1115 26.3937L33.8779 26.84C34.2611 26.7151 34.9384 26.4383 35.1701 25.9473C35.2179 25.8469 35.2452 25.7379 35.2506 25.6268C35.2559 25.5157 35.2392 25.4046 35.2013 25.3001V25.3001ZM33.6952 26.2642L33.419 24.9966C33.419 24.9966 34.5151 25.0948 34.6666 25.4965C34.8181 25.8982 33.7131 26.2642 33.7131 26.2642H33.6952Z" fill="black"/>
<path d="M34.4699 27.4783C34.2248 26.8221 33.2668 26.6436 32.7143 26.5856L32.0815 27.3265L32.3801 28.5764L33.142 29.0227C33.6676 28.8943 34.1276 28.5765 34.4342 28.13C34.4843 28.0296 34.5133 27.9199 34.5194 27.8078C34.5256 27.6958 34.5087 27.5836 34.4699 27.4783V27.4783ZM32.9727 28.438L32.6742 27.1882C32.6742 27.1882 33.7703 27.2864 33.9218 27.6881C34.0733 28.0898 32.9727 28.438 32.9727 28.438Z" fill="black"/>
<path d="M25.2819 17.6627C25.2819 17.6627 32.4468 16.3236 34.1177 18.1091C35.7887 19.8945 33.9529 20.7292 33.9529 20.7292C34.2602 21.2903 34.3744 21.9372 34.2778 22.5698C34.1811 23.2024 33.879 23.7855 33.4182 24.2287C33.4182 24.2287 34.0865 25.6794 32.9726 26.6838C32.9726 26.6838 33.3068 28.246 28.1826 29.1388C23.0584 30.0315 8.66618 33.1561 10.8941 21.8719C13.122 10.5878 25.1527 5.69116 27.6033 5.69116V17.1985L28.6772 17.4574L25.2819 17.6627Z" fill="url(#paint1_linear)"/>
<path style="mix-blend-mode:multiply" opacity="0.42" d="M24.5068 5.70459L26.8239 16.9619L28.272 16.7388C28.272 16.7388 31.7252 -0.209764 24.5068 5.70459Z" fill="url(#paint2_radial)"/>
<path d="M34.9158 17.2029C34.2385 16.4753 33.1825 16.1495 31.5027 16.1495C30.7954 16.1562 30.089 16.1994 29.3862 16.2789V5.70453L27.6038 3.91907C24.1149 3.91907 11.5407 9.40937 9.14344 21.5371C8.53299 24.626 8.97412 27.1123 10.4579 28.92C12.1377 30.9644 15.0697 32 19.1735 32C22.0314 31.926 24.8774 31.6034 27.6796 31.0358L28.4638 30.8974C31.5116 30.3663 32.9196 29.6699 33.784 28.4112C33.921 28.0132 34.0152 27.6017 34.0647 27.1837C34.3634 26.7903 34.5788 26.3399 34.6975 25.8602C34.8163 25.3805 34.836 24.8815 34.7554 24.3939C35.1845 23.7728 35.3989 23.0282 35.3658 22.2736C35.3347 21.9032 35.0896 21.5505 35.3124 21.3273C35.6006 20.9446 35.8082 20.5073 35.9228 20.0418C36.0017 19.5221 35.951 18.991 35.7753 18.4956C35.5996 18.0003 35.3043 17.5562 34.9158 17.2029ZM33.9534 20.7114C34.2651 21.2743 34.3818 21.925 34.285 22.5614C34.1883 23.1979 33.8836 23.7843 33.4187 24.2287C33.4187 24.2287 34.087 25.6794 32.9731 26.6837C32.9731 26.6837 33.3073 28.246 28.1831 29.1388C23.0589 30.0315 8.66667 33.156 10.8946 21.8719C13.1225 10.5878 25.1531 5.69114 27.6038 5.69114V17.1985L25.2824 17.6448C28.5975 17.0199 33.0577 17.1985 33.842 18.0153C35.5129 19.8186 33.9534 20.7114 33.9534 20.7114Z" fill="black"/>
<path d="M27.8265 17.3101C24.4496 17.7186 21.1065 18.3705 17.8232 19.2608C17.8232 19.2608 20.9958 17.4753 28.9048 16.3594L27.8265 17.3101Z" fill="black"/>
<path d="M24.5956 17.3101C24.5956 17.3101 20.5854 16.6405 18.7451 17.1985L22.7553 17.868L24.5956 17.3101Z" fill="black"/>
<path d="M33.3388 26.7374L31.3916 26.7954L34.0651 26.0143L33.3388 26.7374Z" fill="black"/>
<path d="M33.619 24.2823L31.1104 24.6171L34.0066 24.8983L33.619 24.2823Z" fill="black"/>
<path d="M34.3407 21.2159L31.333 20.8811L35.067 20.3231L34.3407 21.2159Z" fill="black"/>
<path opacity="0.17" d="M32.9729 26.7819C32.9015 26.7068 32.8223 26.6395 32.7368 26.581C32.7368 26.581 28.281 28.8129 17.9346 29.2592C9.91413 29.6029 11.1083 21.7871 12.0529 18.2429C11.5394 19.408 11.1511 20.6245 10.8944 21.8719C8.6665 33.1426 23.0365 30.0181 28.1606 29.1253C32.4739 28.3844 32.9194 27.1613 32.9729 26.7819Z" fill="white"/>
<defs>
<radialGradient id="paint0_radial" cx="0" cy="0" r="1" gradientUnits="userSpaceOnUse" gradientTransform="translate(9.50013 11.2574) scale(21.1116 21.1488)">
<stop stop-color="#373638"/>
<stop offset="1"/>
</radialGradient>
<linearGradient id="paint1_linear" x1="10.6579" y1="17.9573" x2="34.8218" y2="17.9573" gradientUnits="userSpaceOnUse">
<stop stop-color="#B68450"/>
<stop offset="0.13" stop-color="#AA7946"/>
<stop offset="0.45" stop-color="#936432"/>
<stop offset="0.75" stop-color="#845726"/>
<stop offset="1" stop-color="#7F5222"/>
</linearGradient>
<radialGradient id="paint2_radial" cx="0" cy="0" r="1" gradientUnits="userSpaceOnUse" gradientTransform="translate(26.2535 6.82497) scale(9.46858 9.48528)">
<stop stop-color="#121212"/>
<stop offset="1"/>
</radialGradient>
</defs>
</g>
</svg>