<?xml version="1.0" encoding="utf-8"?>
<!-- Generator: Adobe Illustrator 24.0.1, SVG Export Plug-In . SVG Version: 6.00 Build 0)  -->
<svg version="1.1" id="Layer_1" xmlns="http://www.w3.org/2000/svg" xmlns:xlink="http://www.w3.org/1999/xlink" x="0px" y="0px"
	 viewBox="0 0 750 500" style="enable-background:new 0 0 750 500;" xml:space="preserve">
<style type="text/css">
	.st0{display:none;}
	.st1{display:inline;fill:#E0E0E0;}
	.st2{fill:#11294B;}
</style>
<g id="Background_Complete">
</g>
<g id="Background_Simple" class="st0">
	<path class="st1" d="M643.6,151.8c-12.6-23.6-31.4-44.6-55.6-56.1c-24.2-11.5-54-12.5-77.2,0.9c-28.2,16.2-41.7,49.1-52,80
		c-10.4,30.9-20.9,64.1-46.4,84.3c-32.8,26-79.7,22.3-120.9,14.6c-41.2-7.7-85.3-17.7-123.6-0.8c-34.6,15.2-58,52.7-56.5,90.4
		s28.2,74.7,63.8,87.2l287.9,0.3c78.4-0.1,97.6-22.7,149.1-81.8C663.5,311.5,680.5,220.9,643.6,151.8z"/>
	<path class="st1" d="M211.2,68.2c-28.6,18.7-43.2,56.4-34.7,89.5s39.5,59.1,73.5,61.8c34.1,2.6,68.7-18.3,82.2-49.6
		S337,99,311.7,76.1s-65.5-27.5-95.4-10.9"/>
</g>
<g id="Floor">
</g>
<g id="Character_3">
</g>
<g id="Device">
</g>
<g id="Character_2">
</g>
<g id="Character_1">
</g>
<rect class="st2" width="750" height="500"/>
</svg>
