<?xml version="1.0" encoding="utf-8"?>
<!-- Generator: Adobe Illustrator 24.0.1, SVG Export Plug-In . SVG Version: 6.00 Build 0)  -->
<svg version="1.1" id="Layer_1" xmlns="http://www.w3.org/2000/svg" xmlns:xlink="http://www.w3.org/1999/xlink" x="0px" y="0px"
	 viewBox="0 0 500 500" style="enable-background:new 0 0 500 500;" xml:space="preserve">
<style type="text/css">
	.st0{display:none;}
	.st1{display:inline;fill:#EBEBEB;}
	.st2{fill:#11294B;}
</style>
<g id="Background_Simple" class="st0">
	<path class="st1" d="M129.4,175.1c14.3-36.9,56.8-60.5,95.7-53.2c18.3,3.5,37.1,12.9,54.7,6.6c13.7-4.9,22.4-18.2,28.9-31.2
		s12.1-27.1,23-36.7c15-13.3,37.7-15.2,56.5-8.4c15,5.4,28.2,16.2,35.3,30.5c10.1,20.5,6.4,46.1-6.2,65.1s-33.1,31.9-54.7,39.1
		c-31.6,10.4-66.8,9.4-97.8-2.8c-18-7.1-34.6-17.9-53.3-23.2s-41.2-3.7-54.1,10.7c-3.8,4.2-6.6,9.3-10.3,13.6s-8.8,8-14.5,8
		s-11.4-5.2-10.3-10.8"/>
	<path class="st1" d="M179.2,63c-7.4,2.2-12.8,10.1-12,17.7c0.8,7.7,7.9,14.3,15.7,14.2c7.7,0,14.9-6.9,14.9-14.7
		C197.9,69.3,187,62.5,179.2,63z"/>
</g>
<rect class="st2" width="500" height="500"/>
</svg>
