<svg id="Capa_1" enable-background="new 0 0 512 512" height="512" viewBox="0 0 512 512" width="512" xmlns="http://www.w3.org/2000/svg" xmlns:xlink="http://www.w3.org/1999/xlink"><linearGradient id="SVGID_1_" gradientUnits="userSpaceOnUse" x1="256" x2="256" y1="406" y2="31"><stop offset="0" stop-color="#fd3a84"/><stop offset="1" stop-color="#ffa68d"/></linearGradient><linearGradient id="SVGID_2_" gradientUnits="userSpaceOnUse" x1="256" x2="256" y1="481" y2="211"><stop offset="0" stop-color="#ffc2cc"/><stop offset="1" stop-color="#fff2f4"/></linearGradient><g id="Cloud_Configuration_2_"><g><g><path d="m256 286c-33.076 0-60 26.909-60 60s26.924 60 60 60 60-26.909 60-60-26.924-60-60-60zm165-135c0-66.167-53.818-120-120-120-31.67 0-61.934 12.788-84.492 35.405-68.262-20.771-137.813 23.086-152.11 88.843-37.294 11.397-64.398 45.908-64.398 85.752 0 49.629 41.371 90 91 90h53.086c6.826 0 12.773-4.585 14.502-11.177 1.084-4.102.352-8.335-1.758-11.748l15.82-27.568 17.52 10.313c5.566 3.281 12.539 2.651 17.373-1.523 7.002-5.977 14.736-10.503 23.672-13.828 5.889-2.183 9.785-7.793 9.785-14.063v-20.406h30v20.405c0 6.27 3.896 11.88 9.785 14.063 8.936 3.325 16.67 7.852 23.672 13.828 4.863 4.175 11.865 4.805 17.373 1.523l17.52-10.313 15.82 27.568c-2.109 3.413-2.842 7.646-1.758 11.748 1.729 6.592 7.676 11.177 14.502 11.177h53.086c49.629 0 91-40.371 91-90s-41.371-89.999-91-89.999z" fill="url(#SVGID_1_)"/></g></g><g><g><path d="m382.301 367-21.601-12.301c.3-2.999.3-5.7.3-8.699 0-3.001 0-5.7-.3-8.701l21.601-11.999c3.3-2.1 5.999-5.4 6.899-9.3 1.199-3.9.601-7.8-1.5-11.4l-30-52.2c-1.8-3.301-5.101-6-9-6.901-3.9-1.199-8.101-.599-11.4 1.501l-21.901 12.9c-4.499-3.301-9.3-6-14.399-8.401v-25.499c0-8.401-6.599-15-15-15h-60c-8.401 0-15 6.599-15 15v25.499c-5.099 2.401-9.901 5.099-14.399 8.401l-21.902-12.9c-3.3-2.1-7.5-2.701-11.4-1.501-3.898.901-7.2 3.6-9 6.901l-30 52.2c-2.1 3.6-2.699 7.5-1.5 11.4.901 3.9 3.6 7.2 6.899 9.3l21.601 11.999c-.3 3.001-.3 5.7-.3 8.701 0 2.999 0 5.7.3 8.699l-21.6 12.301c-3.3 1.8-5.999 5.099-6.899 9-1.199 3.9-.601 7.8 1.5 11.4l30 52.2c1.8 3.3 5.101 6 9 6.899 3.9 1.201 8.101.601 11.4-1.5l21.901-12.9c4.499 3.3 9.3 6 14.399 8.399v25.502c0 8.399 6.599 15 15 15h60c8.401 0 15-6.601 15-15v-25.501c5.099-2.399 9.901-5.099 14.399-8.399l21.901 12.9c3.3 2.1 7.5 2.701 11.4 1.5 3.898-.899 7.2-3.6 9-6.899l30-52.2c2.1-3.6 2.699-7.5 1.5-11.4-.901-3.901-3.6-7.201-6.899-9.001zm-126.301 24c-24.901 0-45-20.101-45-45 0-24.901 20.099-45 45-45s45 20.099 45 45c0 24.899-20.099 45-45 45z" fill="url(#SVGID_2_)"/></g></g></g></svg>