<svg id="Capa_1" enable-background="new 0 0 512 512" height="512" viewBox="0 0 512 512" width="512" xmlns="http://www.w3.org/2000/svg" xmlns:xlink="http://www.w3.org/1999/xlink"><linearGradient id="SVGID_1_" gradientUnits="userSpaceOnUse" x1="256" x2="256" y1="451" y2="31"><stop offset="0" stop-color="#ffc2cc"/><stop offset="1" stop-color="#fff2f4"/></linearGradient><linearGradient id="SVGID_2_" gradientUnits="userSpaceOnUse" x1="256" x2="256" y1="481" y2="91"><stop offset="0" stop-color="#fd3a84"/><stop offset="1" stop-color="#ffa68d"/></linearGradient><g><g><g><path d="m271 314.511c52.344-10.331 90-72.227 90-103.511v-60c0-7.822-5.723-14.074-13.292-14.901 8.514-17.342 13.292-33.958 13.292-45.099 0-14.719-16.409-60-105-60-88.604 0-105 45.269-105 60 0 11.141 4.778 27.757 13.292 45.099-7.569.827-13.292 7.079-13.292 14.901v60c0 31.284 37.656 93.18 90 103.511v91.489c0 8.291 6.709 15 15 15s15-6.709 15-15zm-45 106.489h-211c-8.291 0-15 6.709-15 15s6.709 15 15 15h211c8.291 0 15-6.709 15-15s-6.709-15-15-15zm271 0h-211c-8.291 0-15 6.709-15 15s6.709 15 15 15h211c8.291 0 15-6.709 15-15s-6.709-15-15-15z" fill="url(#SVGID_1_)"/></g></g><g><g><path d="m256 391c-24.814 0-45 20.186-45 45s20.186 45 45 45 45-20.186 45-45-20.186-45-45-45zm0-120c-60 0-105-25.8-105-60v60c0 34.2 45 60 105 60s105-25.8 105-60v-60c0 34.2-45 60-105 60zm0-120c-60 0-105-25.8-105-60v60c0 34.2 45 60 105 60s105-25.8 105-60v-60c0 34.2-45 60-105 60z" fill="url(#SVGID_2_)"/></g></g></g></svg>