<?xml version="1.0" encoding="utf-8"?>
<!-- Generator: Adobe Illustrator 24.0.1, SVG Export Plug-In . SVG Version: 6.00 Build 0)  -->
<svg version="1.1" id="Layer_1" xmlns="http://www.w3.org/2000/svg" xmlns:xlink="http://www.w3.org/1999/xlink" x="0px" y="0px"
	 viewBox="0 0 680.4 500" style="enable-background:new 0 0 680.4 500;" xml:space="preserve">
<style type="text/css">
	.st0{display:none;}
	.st1{display:inline;}
	.st2{opacity:0.4;}
	.st3{fill:#EBEBEB;}
	.st4{fill:#3C4A6D;}
</style>
<g id="Background_Simple" class="st0">
	<g class="st1">
		<g class="st2">
			<path class="st3" d="M525,180.8c-47.2-3.8-88.7,40-136,36.7c-33-2.2-60.2-26.9-82.2-52.3s-42.7-53.9-72.6-68.4
				c-26.8-13-59.4-12.9-86.1,0.4c-1.6,0.8-3.1,1.6-4.6,2.5c-32,18.2-50.4,54.1-48.6,91.6c3.6,74,49.1,128.4,97.8,164.6
				c56.9,42.4,139.9,51.2,210.2,54.9c42.4,2.2,89-14.4,126.4-35.1s67-59.6,68.7-103.2C599.5,228.9,567.3,184.2,525,180.8z"/>
		</g>
	</g>
</g>
<rect class="st4" width="680.4" height="500"/>
</svg>
