<svg id="Capa_1" enable-background="new 0 0 512 512" height="512" viewBox="0 0 512 512" width="512" xmlns="http://www.w3.org/2000/svg" xmlns:xlink="http://www.w3.org/1999/xlink"><linearGradient id="SVGID_1_" gradientUnits="userSpaceOnUse" x1="256" x2="256" y1="512" y2="150"><stop offset="0" stop-color="#ffc2cc"/><stop offset="1" stop-color="#fff2f4"/></linearGradient><linearGradient id="SVGID_2_" gradientUnits="userSpaceOnUse" x1="256" x2="256" y1="452" y2="0"><stop offset="0" stop-color="#fd3a84"/><stop offset="1" stop-color="#ffa68d"/></linearGradient><g><g><g><path d="m120 332c8.291 0 15-6.709 15-15v-45h242v45c0 8.291 6.709 15 15 15s15-6.709 15-15v-60c0-8.291-6.709-15-15-15h-121v-77c0-8.291-6.709-15-15-15s-15 6.709-15 15v77h-121c-8.291 0-15 6.709-15 15v60c0 8.291 6.709 15 15 15zm377 120-99.675-30-110.325 30c-8.401 0-15 6.599-15 15v15c0 16.5 13.5 30 30 30h180c16.5 0 30-13.5 30-30v-15c0-8.401-6.599-15-15-15zm-272 0-99.675-30-110.325 30c-8.401 0-15 6.599-15 15v15c0 16.5 13.5 30 30 30h180c16.5 0 30-13.5 30-30v-15c0-8.401-6.599-15-15-15z" fill="url(#SVGID_1_)"/></g></g><g><g><path d="m482 302h-180c-8.401 0-15 6.599-15 15v135h210v-135c0-8.401-6.599-15-15-15zm-272 0h-180c-8.401 0-15 6.599-15 15v135h210v-135c0-8.401-6.599-15-15-15zm-44-122h180c33.076 0 60-26.909 60-60 0-28.33-19.746-52.148-46.201-58.403-6.328-34.981-37.002-61.597-73.799-61.597-24.463 0-47.197 12.1-61.084 31.714-25.693-6.445-53.086 6.152-65.918 28.696-29.795 3.472-52.998 28.872-52.998 59.59 0 33.091 26.924 60 60 60z" fill="url(#SVGID_2_)"/></g></g></g></svg>