<svg id="Capa_1" enable-background="new 0 0 512 512" height="512" viewBox="0 0 512 512" width="512" xmlns="http://www.w3.org/2000/svg" xmlns:xlink="http://www.w3.org/1999/xlink"><linearGradient id="SVGID_1_" gradientUnits="userSpaceOnUse" x1="256" x2="256" y1="512" y2="0"><stop offset="0" stop-color="#5558ff"/><stop offset="1" stop-color="#00c0ff"/></linearGradient><linearGradient id="SVGID_2_" gradientUnits="userSpaceOnUse" x1="256" x2="256" y1="330" y2="120"><stop offset="0" stop-color="#addcff"/><stop offset=".5028" stop-color="#eaf6ff"/><stop offset="1" stop-color="#eaf6ff"/></linearGradient><g><g><g><path d="m421 120c0-66.167-53.818-120-120-120-31.67 0-61.934 12.788-84.492 35.405-68.262-20.786-137.813 23.086-152.11 88.843-37.294 11.397-64.398 45.908-64.398 85.752 0 49.629 41.371 90 91 90h98.086c5.918 0 11.309-3.486 13.711-8.906s1.406-11.763-2.578-16.157c-12.393-13.697-19.219-31.436-19.219-49.937 0-41.353 33.633-75 75-75s75 33.647 75 75c0 18.501-6.826 36.24-19.219 49.937-3.984 4.395-4.98 10.737-2.578 16.157s7.793 8.906 13.711 8.906h98.086c49.629 0 91-40.371 91-90s-41.371-90-91-90zm-135 240h-15v-45c0-8.291-6.709-15-15-15s-15 6.709-15 15v45h-15c-8.291 0-15 6.709-15 15v122c0 8.291 6.709 15 15 15h60c8.291 0 15-6.709 15-15v-122c0-8.291-6.709-15-15-15z" fill="url(#SVGID_1_)"/></g></g><g><g><circle cx="256" cy="225" fill="url(#SVGID_2_)" r="105"/></g></g></g></svg>