<svg id="Capa_1" enable-background="new 0 0 512 512" height="512" viewBox="0 0 512 512" width="512" xmlns="http://www.w3.org/2000/svg" xmlns:xlink="http://www.w3.org/1999/xlink"><linearGradient id="SVGID_1_" gradientUnits="userSpaceOnUse" x1="256" x2="256" y1="451" y2="31"><stop offset="0" stop-color="#ffc2cc"/><stop offset="1" stop-color="#fff2f4"/></linearGradient><linearGradient id="SVGID_2_" gradientUnits="userSpaceOnUse" x1="256" x2="256" y1="481" y2="151"><stop offset="0" stop-color="#fd3a84"/><stop offset="1" stop-color="#ffa68d"/></linearGradient><g><g><g><path d="m406 226c0-16.816-13.184-30-30-30h-60c-16.816 0-30 13.184-30 30s13.184 30 30 30c-16.816 0-30 13.184-30 30s13.184 30 30 30h60c16.816 0 30-13.184 30-30s-13.184-30-30-30c16.816 0 30-13.184 30-30zm-315-45h330c16.569 0 30-13.432 30-30v-75c0-8.284-6.716-15-15-15h-176.455l-56.829-28.415c-2.086-1.042-4.385-1.585-6.716-1.585h-120c-8.284 0-15 6.716-15 15v105c0 16.568 13.431 30 30 30zm180 165c0-8.291-6.709-15-15-15s-15 6.709-15 15v60c0 8.291 6.709 15 15 15s15-6.709 15-15zm-45 75h-211c-8.291 0-15 6.709-15 15s6.709 15 15 15h211c8.291 0 15-6.709 15-15s-6.709-15-15-15zm271 0h-211c-8.291 0-15 6.709-15 15s6.709 15 15 15h211c8.291 0 15-6.709 15-15s-6.709-15-15-15z" fill="url(#SVGID_1_)"/></g></g><g><g><path d="m61 151v195c0 8.284 6.716 15 15 15h360c8.284 0 15-6.716 15-15v-195zm315 150h-60c-8.401 0-15-6.601-15-15 0-8.401 6.599-15 15-15h60c8.401 0 15 6.599 15 15 0 8.399-6.599 15-15 15zm0-60h-60c-8.401 0-15-6.601-15-15 0-8.401 6.599-15 15-15h60c8.401 0 15 6.599 15 15 0 8.399-6.599 15-15 15zm-120 150c-24.814 0-45 20.186-45 45s20.186 45 45 45 45-20.186 45-45-20.186-45-45-45z" fill="url(#SVGID_2_)"/></g></g></g></svg>