<?xml version="1.0" encoding="iso-8859-1"?>
<!-- Generator: Adobe Illustrator 19.0.0, SVG Export Plug-In . SVG Version: 6.00 Build 0)  -->
<svg version="1.1" id="Capa_1" xmlns="http://www.w3.org/2000/svg" xmlns:xlink="http://www.w3.org/1999/xlink" x="0px" y="0px"
	 viewBox="0 0 512 512" style="enable-background:new 0 0 512 512;" xml:space="preserve">
<polygon style="fill:#FBE287;" points="458.873,188.203 447.392,160.486 283.717,228.283 351.514,64.608 323.797,53.127 
	256,216.802 256,295.198 323.797,458.873 351.514,447.392 283.717,283.717 447.392,351.514 458.873,323.797 295.198,256 "/>
<polygon style="fill:#F7EDBC;" points="188.203,53.127 160.486,64.608 228.283,228.283 64.608,160.486 53.127,188.203 216.802,256 
	53.127,323.797 64.608,351.514 228.283,283.717 160.486,447.392 188.203,458.873 256,295.198 256,216.802 "/>
<g>
	<circle style="fill:#458FDE;" cx="168.6" cy="45" r="45"/>
	<circle style="fill:#458FDE;" cx="45" cy="168.6" r="45"/>
	<circle style="fill:#458FDE;" cx="45" cy="343.39" r="45"/>
	<circle style="fill:#458FDE;" cx="168.6" cy="467" r="45"/>
</g>
<g>
	<circle style="fill:#3D4E9C;" cx="343.39" cy="467" r="45"/>
	<circle style="fill:#3D4E9C;" cx="467" cy="343.4" r="45"/>
	<circle style="fill:#3D4E9C;" cx="467" cy="168.6" r="45"/>
	<circle style="fill:#3D4E9C;" cx="343.4" cy="45" r="45"/>
</g>
<path style="fill:#FB9D46;" d="M256,102.5L200.182,256L256,409.5c84.776,0,153.5-68.724,153.5-153.5S340.776,102.5,256,102.5z"/>
<g>
	<path style="fill:#FDBA4C;" d="M102.5,256c0,84.776,68.724,153.5,153.5,153.5v-307C171.224,102.5,102.5,171.224,102.5,256z"/>
	<path style="fill:#FDBA4C;" d="M256,162.5L222,256l34,93.5c51.639,0,93.5-41.861,93.5-93.5S307.639,162.5,256,162.5z"/>
</g>
<path style="fill:#FFD652;" d="M162.5,256c0,51.639,41.861,93.5,93.5,93.5v-187C204.361,162.5,162.5,204.361,162.5,256z"/>
<polygon style="fill:#FF7452;" points="271,223 256,223 246,256 256,289 271,289 "/>
<rect x="241" y="223" style="fill:#FB9D46;" width="15" height="66"/>
<g>
</g>
<g>
</g>
<g>
</g>
<g>
</g>
<g>
</g>
<g>
</g>
<g>
</g>
<g>
</g>
<g>
</g>
<g>
</g>
<g>
</g>
<g>
</g>
<g>
</g>
<g>
</g>
<g>
</g>
</svg>
